<svg xmlns="http://www.w3.org/2000/svg" xmlns:xlink="http://www.w3.org/1999/xlink" width="87" height="87" viewBox="0 0 87 87">
  <defs>
    <clipPath id="clip-path">
      <rect id="Rectangle_8318" data-name="Rectangle 8318" width="49.948" height="50.109" fill="#fff"/>
    </clipPath>
  </defs>
  <g id="Group_49028" data-name="Group 49028" transform="translate(-272 -2025)">
    <circle id="Ellipse_63" data-name="Ellipse 63" cx="43.5" cy="43.5" r="43.5" transform="translate(272 2025)"/>
    <g id="Group_49018" data-name="Group 49018" transform="translate(290.526 2043.445)">
      <g id="Group_49017" data-name="Group 49017" clip-path="url(#clip-path)">
        <path id="Path_14715" data-name="Path 14715" d="M44.361,50.109H.046c-.013-.239-.036-.464-.036-.689Q.008,35.689,0,21.958a1.008,1.008,0,0,1,.534-.979c1.939-1.222,3.848-2.492,5.789-3.71A1.2,1.2,0,0,0,6.981,16.1c-.035-2.979-.015-5.959-.018-8.939A7.032,7.032,0,0,1,14.142.01q14.92,0,29.841-.01a6.37,6.37,0,0,1,5.743,3.265c.437.706.226,1.077-.611,1.078-3.323.005-6.646.017-9.968-.009-.529,0-.816.164-.911.657a12.877,12.877,0,0,0-.371,2.2c-.042,3.108-.009,6.217-.028,9.325a.959.959,0,0,0,.514.928c1.866,1.177,3.711,2.387,5.572,3.572a.854.854,0,0,1,.479.809q-.02,13.859-.011,27.719c0,.168-.017.335-.029.561m-7.1-45.761h-.818q-7.973,0-15.946,0a1.093,1.093,0,0,1-1.09-.473,6.181,6.181,0,0,0-7.1-2.528A5.975,5.975,0,0,0,8.035,7.258c-.011,6,0,12-.014,18a.917.917,0,0,0,.487.877q6.6,4.233,13.173,8.5a.784.784,0,0,0,1.017.006q6.8-4.458,13.622-8.867a.915.915,0,0,0,.463-.889c-.012-4.608-.038-9.216,0-13.824.021-2.213-.3-4.454.471-6.713M21.183,35.608,1.126,22.669V48.547L21.183,35.608m2.022,0,20.04,12.927V22.68L23.205,35.609m18.658,13.4c-.248-.192-.354-.287-.473-.364q-9.369-6.047-18.734-12.1a.75.75,0,0,0-.964.031Q12.386,42.6,3.065,48.6c-.144.093-.271.212-.514.4ZM18.453,1.1a20.692,20.692,0,0,1,1.481,1.639,1.222,1.222,0,0,0,1.132.524q13.275-.012,26.551,0c.207,0,.413-.023.722-.042-.176-.223-.279-.379-.406-.511A5.017,5.017,0,0,0,44.15,1.1q-12.536.012-25.072,0h-.626M1.551,21.638l5.361,3.45V18.182L1.551,21.638m41.288,0L37.89,18.452v6.373l4.949-3.187" transform="translate(0 0)" fill="#fff"/>
        <path id="Path_14716" data-name="Path 14716" d="M143.418,8.567h.626q12.536,0,25.072,0a5.017,5.017,0,0,1,3.783,1.613c.127.132.229.287.406.511-.309.019-.515.042-.722.042q-13.275,0-26.551,0a1.222,1.222,0,0,1-1.132-.524,20.69,20.69,0,0,0-1.481-1.639" transform="translate(-124.965 -7.464)" fill="#fff"/>
        <path id="Path_14717" data-name="Path 14717" d="M93.233,160.827h13.191v5.066H93.233Zm12.078,1.059H94.323V164.8h10.988Z" transform="translate(-81.237 -140.135)" fill="#fff"/>
        <path id="Path_14718" data-name="Path 14718" d="M225.66,70.2h-6.1v-5.21h6.1Zm-1.035-1.048c0-1,.015-1.913-.019-2.825,0-.114-.271-.308-.42-.312-1.046-.027-2.094-.008-3.141-.018-.317,0-.477.1-.473.438.009.769-.011,1.539.016,2.307,0,.14.175.39.273.392,1.232.027,2.465.018,3.764.018" transform="translate(-191.313 -56.626)" fill="#fff"/>
        <rect id="Rectangle_8311" data-name="Rectangle 8311" width="13.039" height="1.031" transform="translate(12.046 9.321)" fill="#fff"/>
        <rect id="Rectangle_8312" data-name="Rectangle 8312" width="13.067" height="0.993" transform="translate(12.019 18.062)" fill="#fff"/>
        <rect id="Rectangle_8313" data-name="Rectangle 8313" width="13.055" height="1" transform="translate(12.042 15.154)" fill="#fff"/>
        <rect id="Rectangle_8314" data-name="Rectangle 8314" width="13.066" height="0.973" transform="translate(12.029 12.246)" fill="#fff"/>
        <rect id="Rectangle_8315" data-name="Rectangle 8315" width="5.076" height="1.027" transform="translate(28.481 18.178)" fill="#fff"/>
        <rect id="Rectangle_8316" data-name="Rectangle 8316" width="5.11" height="1.023" transform="translate(28.449 23.986)" fill="#fff"/>
        <path id="Path_14719" data-name="Path 14719" d="M225.879,118.392v1.036h-5.051c-.246-.964-.193-1.035.776-1.036,1.408,0,2.816,0,4.275,0" transform="translate(-192.308 -103.159)" fill="#fff"/>
        <rect id="Rectangle_8317" data-name="Rectangle 8317" width="5.093" height="0.961" transform="translate(28.451 21.106)" fill="#fff"/>
      </g>
    </g>
  </g>
</svg>
