<svg xmlns="http://www.w3.org/2000/svg" xmlns:xlink="http://www.w3.org/1999/xlink" width="87" height="87" viewBox="0 0 87 87">
  <defs>
    <clipPath id="clip-path">
      <rect id="Rectangle_8328" data-name="Rectangle 8328" width="53.909" height="45.844" fill="#fff"/>
    </clipPath>
  </defs>
  <g id="Group_49029" data-name="Group 49029" transform="translate(-272 -2025)">
    <circle id="Ellipse_63" data-name="Ellipse 63" cx="43.5" cy="43.5" r="43.5" transform="translate(272 2025)"/>
    <g id="Group_49038" data-name="Group 49038" transform="translate(288.546 2045.578)">
      <g id="Group_49038-2" data-name="Group 49038" clip-path="url(#clip-path)">
        <path id="Path_14739" data-name="Path 14739" d="M3.655,40.189a4.7,4.7,0,0,1-.7-3.232q.008-10.006.011-20.012a.946.946,0,0,0-.411-.852,6.564,6.564,0,0,1,3.16-11.71,6.368,6.368,0,0,1,6.045,2.49.955.955,0,0,0,.846.421q5.574-.023,11.149,0a1,1,0,0,0,.864-.413c.98-1.207,1.979-2.4,2.977-3.589a4.062,4.062,0,0,1,2.045-1.23A1.8,1.8,0,0,1,31.606,3c.76,1.3,1.518,2.6,2.257,3.917a.65.65,0,0,0,.665.379c.87-.02,1.741,0,2.612-.007.151,0,.3-.019.5-.032,0-1.058.007-2.08,0-3.1a3.992,3.992,0,0,1,1.113-2.926A3.849,3.849,0,0,1,41.625,0q4.152-.009,8.3,0A3.934,3.934,0,0,1,53.9,3.963c.009,1.742.007,3.483,0,5.225a3.956,3.956,0,0,1-3.92,4.026c-.542.017-1.084,0-1.7,0v.571q0,11.825.006,23.65a4.125,4.125,0,0,1-.784,2.836h1.847c1.053,0,1.376.345,1.3,1.376a4.57,4.57,0,0,1-4.7,4.192q-6.367.006-12.735,0H5.271A4.576,4.576,0,0,1,.579,41.449c-.013-.817.33-1.172,1.138-1.175.606,0,1.213,0,1.819-.008.024,0,.047-.029.119-.077M36.566,11.537c.141.26.238.448.343.631q2.155,3.733,4.311,7.466A1.8,1.8,0,0,1,40.839,22a4.78,4.78,0,0,1-2.114,1.017q-9.026,1.53-18.046,3.1a4.82,4.82,0,0,0-.619.2c.1.2.166.318.235.437.822,1.427,1.654,2.848,2.464,4.281a2.13,2.13,0,0,1-.518,2.875,2.1,2.1,0,0,1-2.986-.739c-.782-1.306-1.529-2.634-2.293-3.951-.153-.264-.315-.522-.469-.776-.913.407-.988.382-1.475-.435-.141-.237-.287-.471-.45-.738-.257.146-.486.272-.712.4a2.322,2.322,0,0,1-3.192-.723,10.124,10.124,0,0,1-.671-1.172,2.306,2.306,0,0,1,.919-3.069l.767-.459-.527-.931c-.327-.578-.259-.848.312-1.18,1.236-.718,2.477-1.425,3.708-2.151a2.363,2.363,0,0,0,.6-.5q2.357-2.8,4.693-5.618a3.131,3.131,0,0,0,.195-.3H13.169A6.731,6.731,0,0,1,7.242,17.49V37.228H44V13.219c-.767,0-1.509.005-2.251,0a4.026,4.026,0,0,1-3.2-1.456.56.56,0,0,0-.327-.216c-.521-.023-1.044-.01-1.651-.01M26.035,7.108c-.107.135-.172.221-.241.3q-4.442,5.34-8.893,10.672c-.2.241-.136.394-.011.61q1.7,2.922,3.374,5.853a.468.468,0,0,0,.587.271q5.871-1.031,11.748-2.031c.727-.125,1.454-.254,2.257-.394L26.035,7.108m19.256,6.133v.842q0,11.709,0,23.417c0,.845-.163,1.01-1,1.01H6.923c-.813,0-.976-.163-.977-.984q0-9.749,0-19.5c0-.194-.017-.388-.025-.538L4.22,17.1a2.5,2.5,0,0,0-.028.255q0,10.309.008,20.618a2.185,2.185,0,0,0,2.369,2.3q19.032,0,38.065-.006a3,3,0,0,0,.958-.147,2.176,2.176,0,0,0,1.457-2.349q0-12.035,0-24.07c0-.15-.017-.3-.027-.461Zm4.094,28.311H1.831a2.3,2.3,0,0,0,.016.239A3.4,3.4,0,0,0,5.479,44.6q20.125,0,40.251,0c.233,0,.467,0,.7-.025a3.3,3.3,0,0,0,2.957-3.02m-3.6-40.3c-1.352,0-2.7,0-4.055,0a2.727,2.727,0,0,0-2.851,2.837q-.006,2.517,0,5.033a2.717,2.717,0,0,0,2.768,2.828q4.125.024,8.249,0a2.708,2.708,0,0,0,2.781-2.77q.027-2.587,0-5.173a2.714,2.714,0,0,0-2.791-2.756c-1.367,0-2.734,0-4.1,0M6.558,16.22A5.328,5.328,0,1,0,6.574,5.563,5.328,5.328,0,0,0,6.558,16.22M28.211,4.514c-.365.441-.647.835-.985,1.172-.3.3-.277.529-.072.879,1.5,2.559,2.972,5.133,4.455,7.7q2.178,3.772,4.362,7.539c.078.135.233.34.331.329.61-.073,1.214-.2,1.9-.321l-9.988-17.3m.976-.81L39.4,21.385c.939-.4,1.022-.623.55-1.442q-4.634-8.031-9.273-16.058c-.432-.747-.777-.792-1.486-.18M16.014,27.229l3.272-1.891-3.585-6.2L12.43,21.024l3.584,6.205M23.2,8.569H12.773l.395,1.657a.537.537,0,0,0,.139.041q4.121.009,8.243.008a.481.481,0,0,0,.33-.127c.433-.5.848-1.012,1.317-1.579M17.578,27.775c.63,1.095,1.231,2.142,1.836,3.186.318.55.626,1.108.971,1.641a.826.826,0,0,0,1.059.324.849.849,0,0,0,.331-1.06,3.426,3.426,0,0,0-.258-.493q-.766-1.331-1.536-2.659c-.332-.573-.667-1.145-1.016-1.741l-1.387.8m-5.26-4.432c-.576.367-1.3.516-1.334,1.36a3.174,3.174,0,0,0,1.28,2c.7.251,1.137-.259,1.685-.55l-1.631-2.814m22.506-14.8c.323.565.6,1.063.893,1.551a.369.369,0,0,0,.252.168c.582.015,1.164.008,1.748.008L37.6,8.547Z" transform="translate(0 -0.001)" fill="#fff"/>
        <path id="Path_14740" data-name="Path 14740" d="M471.521,24.423c0-.527-.011-1.055,0-1.582a1.238,1.238,0,0,1,1.84-1.174,21.787,21.787,0,0,1,2.779,1.857,1.23,1.23,0,0,1-.092,1.915c-.8.581-1.617,1.155-2.468,1.663-1.14.68-2.042.136-2.052-1.189,0-.5,0-.993,0-1.489m3.789.01-2.493-1.688c0,1.162.007,2.232.01,3.373l2.483-1.685" transform="translate(-427.519 -19.495)" fill="#fff"/>
        <path id="Path_14741" data-name="Path 14741" d="M444.688,90.541c-.731,0-1.462-.017-2.192.012a.782.782,0,0,0-.522.259,1.592,1.592,0,0,1-2.678-.035.928.928,0,0,0-.455-.231,1.36,1.36,0,0,0-.371-.007.563.563,0,0,1-.627-.6.554.554,0,0,1,.611-.615,1.219,1.219,0,0,0,1.094-.484,1.541,1.541,0,0,1,2.394.179.812.812,0,0,0,.555.28c1.492.023,2.985.008,4.477.015.562,0,.9.459.638.879a.85.85,0,0,1-.6.329c-.775.038-1.554.015-2.331.016m-4.055-.145c.159-.213.329-.342.318-.452s-.191-.223-.3-.334c-.109.106-.289.2-.306.321s.142.246.286.465" transform="translate(-396.989 -80.107)" fill="#fff"/>
        <path id="Path_14742" data-name="Path 14742" d="M48.51,76.493c.011-.382.141-.667.54-.716s.629.164.707.566c.118.6.471.905.923.823a.818.818,0,0,0,.679-.826.781.781,0,0,0-.752-.748,2.085,2.085,0,0,1-1.856-1.13,2,2,0,0,1,.8-2.7.606.606,0,0,0,.394-.549.614.614,0,0,1,1.225.007.609.609,0,0,0,.4.544A1.981,1.981,0,0,1,52.6,73.3c.07.469-.133.782-.523.84s-.618-.148-.7-.62a.815.815,0,0,0-.74-.774.746.746,0,0,0-.807.507.79.79,0,0,0,.746,1.074,2.061,2.061,0,0,1,1.971,1.558,1.982,1.982,0,0,1-.974,2.263.617.617,0,0,0-.393.552.615.615,0,0,1-1.227-.012.534.534,0,0,0-.357-.517,2.029,2.029,0,0,1-1.079-1.675" transform="translate(-43.984 -64.054)" fill="#fff"/>
        <path id="Path_14743" data-name="Path 14743" d="M154.436,224.931a1.562,1.562,0,0,1,.423.367c.608,1.011,1.2,2.035,1.775,3.064a.6.6,0,0,1-.224.88.612.612,0,0,1-.869-.281c-.582-1.009-1.171-2.014-1.744-3.028a.644.644,0,0,1,.64-1" transform="translate(-139.346 -203.943)" fill="#fff"/>
      </g>
    </g>
  </g>
</svg>
