<svg xmlns="http://www.w3.org/2000/svg" xmlns:xlink="http://www.w3.org/1999/xlink" width="87" height="87" viewBox="0 0 87 87">
  <defs>
    <clipPath id="clip-path">
      <rect id="Rectangle_8325" data-name="Rectangle 8325" width="50" height="48" transform="translate(-0.012 0.182)" fill="#fff"/>
    </clipPath>
  </defs>
  <g id="Group_49023" data-name="Group 49023" transform="translate(-272 -2025)">
    <circle id="Ellipse_63" data-name="Ellipse 63" cx="43.5" cy="43.5" r="43.5" transform="translate(272 2025)"/>
    <g id="Group_49032" data-name="Group 49032" transform="translate(290.728 2044.208)">
      <g id="Group_49032-2" data-name="Group 49032" transform="translate(0.284 0.61)" clip-path="url(#clip-path)">
        <path id="Path_14723" data-name="Path 14723" d="M44.636,40.752c-.508,1.6-1.012,3.2-1.515,4.788-.18.57-.353,1.142-.535,1.712a2.667,2.667,0,0,1-2.757,2H2.695A2.471,2.471,0,0,1,0,46.638c0-.427,0-.855,0-1.282,0-.753.274-1.025,1.03-1.027,1.083,0,2.165,0,3.293,0,.207-1.058.41-2.094.611-3.13q1.492-7.717,2.982-15.434c.613-3.167,1.241-6.331,1.836-9.5a2.717,2.717,0,0,1,1.733-2.2.635.635,0,0,0,.254-.5c.017-2.018.011-4.035.011-6.053q0-3.232,0-6.464C11.753.263,12.018,0,12.815,0H42.554c.829,0,1.087.256,1.087,1.074q0,6.1,0,12.209v.671c1.148,0,2.26-.006,3.372,0a4.746,4.746,0,0,1,1.09.081,2.387,2.387,0,0,1,1.85,2.8c-.816,4.188-1.657,8.372-2.487,12.557a18.025,18.025,0,0,1-.4,1.955,1.225,1.225,0,0,0,.554,1.454c.353.28.727.534,1.08.812a4.037,4.037,0,0,1,1.2,5.148,4.244,4.244,0,0,1-4.926,2.066c-.1-.026-.2-.048-.338-.081M22.151,32.6l1.167-1.217a5.489,5.489,0,0,0,.377.463c1.357,1.333,2.711,2.669,4.086,3.983a1.156,1.156,0,0,0,.672.276c.569.039,1.142.013,1.722.013v1.638c-.489,0-.942.016-1.394-.006-.307-.015-.419.093-.474.391-.179.973-.4,1.94-.6,2.91-.22,1.078-.433,2.156-.653,3.257H37.939L40,38.334c-.282-.11-.522-.206-.763-.3Q33.719,35.9,28.2,33.761c-.93-.36-1.065-.856-.454-1.645q2.087-2.7,4.172-5.4c.1-.127.183-.263.313-.452H16.2c-.834,0-1.093-.254-1.093-1.069q0-8.773,0-17.545c0-.841.253-1.083,1.131-1.083H39.11c.943,0,1.174.225,1.174,1.144q0,7.644,0,15.288c0,.186-.045.42.049.55.488.674,1.014,1.322,1.6,2.073V1.675H13.416V33.62H11.723V15.964l-.174-.02L6.062,44.3H14.9c-.427-2.1-.843-4.178-1.283-6.246a.512.512,0,0,0-.381-.282c-.481-.035-.966-.013-1.45-.013V36.119c.58,0,1.123.033,1.659-.014a1.344,1.344,0,0,0,.762-.307c1.378-1.312,2.73-2.65,4.091-3.979.131-.128.269-.249.327-.3l1.3,1.126-3.523,3.429h9.125l.07-.116L22.151,32.6m-5.358-8.02a1.107,1.107,0,0,0,.191.042q8.128,0,16.256-.01a.811.811,0,0,0,.529-.307c.954-1.2,1.879-2.423,2.829-3.627a.862.862,0,0,1,1.453-.024c.164.189.315.388.518.64V8.247H16.793Zm20.54-2.115L29.57,32.507l3.412,1.323q4.518,1.75,9.039,3.5c.219.084.445.272.685-.046,1.005-1.332,2.033-2.647,3.075-4L37.334,22.466M1.725,45.984c-.171,1.322.093,1.627,1.371,1.627H37.379l-.1-1.627ZM43.641,15.6v.624c0,3.33.045,6.661-.025,9.99a3.6,3.6,0,0,0,1,2.865,12.28,12.28,0,0,1,.905,1.137,1.918,1.918,0,0,0,.1-.24q.944-4.714,1.884-9.428c.256-1.287.522-2.573.751-3.865.115-.65-.186-1.061-.789-1.074-1.254-.028-2.509-.008-3.831-.008M41.586,38.962c-.113.321-.211.593-.3.866Q40.187,43,39.1,46.167a.985.985,0,1,0,1.845.635c.64-2,1.263-4,1.894-6,.35-1.111.264-1.285-.855-1.706-.112-.042-.227-.077-.394-.133m2.42-.631a2.8,2.8,0,0,0,3.024.851A2.319,2.319,0,0,0,48.66,37.06,2.7,2.7,0,0,0,47,34.469L44.007,38.33m-21.446-.544H19.4l.253,2.4h2.656l.249-2.4m-7.252-.009c.151.748.277,1.435.437,2.115.03.126.19.31.3.315.623.03,1.249.015,1.905.015l-.258-2.445Zm11.341.02H24.265l-.246,2.424c.66,0,1.286.013,1.91-.013a.425.425,0,0,0,.285-.274c.16-.7.289-1.4.436-2.137m-4.755,6.5.241-2.4H19.822l.251,2.4ZM16.15,41.881c.12.612.221,1.163.339,1.711a.838.838,0,0,0,.774.721c.357.034.72.007,1.106.007l-.258-2.438ZM23.6,44.325c.381,0,.71.016,1.037,0a.826.826,0,0,0,.82-.665c.135-.578.24-1.162.361-1.764H23.85L23.6,44.325" transform="translate(-0.198 -0.439)" fill="#fff"/>
        <rect id="Rectangle_8320" data-name="Rectangle 8320" width="4.967" height="1.587" transform="translate(18.306 2.875)" fill="#fff"/>
        <rect id="Rectangle_8321" data-name="Rectangle 8321" width="3.278" height="1.593" transform="translate(14.953 27.506)" fill="#fff"/>
        <rect id="Rectangle_8322" data-name="Rectangle 8322" width="1.616" height="1.571" transform="translate(14.945 2.873)" fill="#fff"/>
        <rect id="Rectangle_8323" data-name="Rectangle 8323" width="1.626" height="1.563" transform="translate(19.958 27.513)" fill="#fff"/>
        <rect id="Rectangle_8324" data-name="Rectangle 8324" width="1.626" height="1.563" transform="translate(23.342 27.504)" fill="#fff"/>
        <path id="Path_14724" data-name="Path 14724" d="M194.542,101.714c-.574,0-1.094.007-1.614,0a.807.807,0,0,1-.9-.893q-.011-1.975,0-3.95a.8.8,0,0,1,.9-.895c1.364-.008,2.727,0,4.091,0a.849.849,0,0,1,.865.611c.108.288.194.584.308.87a1.476,1.476,0,0,0,2.766.027c.026-.063.059-.125.078-.19.454-1.546.643-1.307,1.913-1.315q1.6-.009,3.2,0c.69,0,.979.289.981.971q.006,1.9,0,3.8c0,.684-.29.968-.979.974-.488,0-.975,0-1.538,0v.567q0,2.9,0,5.8c0,.75-.276,1.023-1.033,1.024q-4.012,0-8.024,0c-.726,0-1.008-.28-1.009-1,0-2.1,0-4.205,0-6.392m8.393,5.729v-.6q0-2.9,0-5.792c0-.683.289-.967.978-.973.5,0,1,0,1.5,0V97.61c-.838,0-1.64-.012-2.441.013a.57.57,0,0,0-.355.271,9.179,9.179,0,0,1-.613,1.061,3.2,3.2,0,0,1-5.4-.854c-.078-.187-.267-.459-.418-.468-.813-.046-1.631-.022-2.463-.022v2.466c.5,0,.968,0,1.437,0,.768,0,1.047.269,1.048,1.008q0,2.9,0,5.792v.566Z" transform="translate(-172.077 -86.56)" fill="#fff"/>
        <path id="Path_14725" data-name="Path 14725" d="M316.874,264.785l-.472-1.6,2.891-.837c-.281-.408-.53-.754-.763-1.111a.823.823,0,0,1,.45-1.35c.9-.321,1.8-.617,2.775-.947l.554,1.553-1.794.637c.3.432.582.817.837,1.218a.762.762,0,0,1-.266,1.185c-1.379.451-2.783.831-4.213,1.249" transform="translate(-283.412 -232.825)" fill="#fff"/>
      </g>
    </g>
  </g>
</svg>
