<svg xmlns="http://www.w3.org/2000/svg" xmlns:xlink="http://www.w3.org/1999/xlink" width="87" height="87" viewBox="0 0 87 87">
  <defs>
    <clipPath id="clip-path">
      <rect id="Rectangle_8326" data-name="Rectangle 8326" width="54.338" height="42.702" fill="#fff"/>
    </clipPath>
  </defs>
  <g id="Group_49027" data-name="Group 49027" transform="translate(-272 -2025)">
    <circle id="Ellipse_63" data-name="Ellipse 63" cx="43.5" cy="43.5" r="43.5" transform="translate(272 2025)"/>
    <g id="Group_49034" data-name="Group 49034" transform="translate(288.331 2047.149)">
      <g id="Group_49033" data-name="Group 49033" clip-path="url(#clip-path)">
        <path id="Path_14726" data-name="Path 14726" d="M31.646,28.527H17.2a2.648,2.648,0,0,1-2.926-2.935,2.221,2.221,0,0,1,0-.437c.172-.812-.262-1.151-1.06-1.3-.8,1.491-1.613,3-2.419,4.519q-2.517,4.73-5.03,9.463c-.939,1.761-2.3,2.112-3.982,1.044a9.2,9.2,0,0,1-.782-.536,2.331,2.331,0,0,1-.455-3.422c3.035-3.866,6.095-7.713,9.143-11.569.329-.417.646-.844,1-1.3a11.084,11.084,0,0,1-2.6-3.848A10.5,10.5,0,0,1,13.6,4.771c.513-.222.741-.464.678-1.009a7.176,7.176,0,0,1-.006-.876A2.591,2.591,0,0,1,17.162,0Q34.3,0,51.43,0a2.666,2.666,0,0,1,2.9,2.911q.015,11.4,0,22.8a2.7,2.7,0,0,1-2.867,2.819q-6.832,0-13.663,0h-.914c.119.373.208.683.317.987q2.2,6.1,4.4,12.195c.133.367.256.749-.193.933-.49.2-.671-.154-.819-.565q-2-5.549-4.017-11.09c-.215-.593-.458-1.179-.624-1.785-.16-.583-.445-.836-1.151-.566,0,.267,0,.576,0,.885q0,6.065,0,12.129c0,.195.061.425-.022.576-.107.2-.335.458-.5.452s-.4-.262-.51-.461c-.083-.15-.02-.381-.02-.576q0-6.1,0-12.2v-.806c-.612-.236-.9-.083-1.114.516-1.512,4.254-3.058,8.5-4.594,12.74-.058.16-.072.374-.186.466-.184.149-.473.341-.643.285a.716.716,0,0,1-.313-.613,5.885,5.885,0,0,1,.376-1.174Q29.391,35,31.509,29.145a5.266,5.266,0,0,0,.137-.618M15.323,4.116a19.238,19.238,0,0,1,2.125-.259A10.3,10.3,0,0,1,26.893,9c.366.6.642.724,1.3.438,1.11-.484,2.28-.828,3.421-1.241,1.908-.691,3.813-1.389,5.91-2.154A7.476,7.476,0,0,1,36.232,5.7c-.215-.1-.343-.387-.51-.589.241-.142.507-.435.718-.4,1.052.174,2.093.418,3.13.671.5.122.61.492.323.892-.625.868-1.269,1.725-1.956,2.543-.135.161-.5.13-.759.187a2.051,2.051,0,0,1-.051-.831,4.528,4.528,0,0,1,.638-.915l-.084-.113-9.9,3.578a14.275,14.275,0,0,0,.424,1.593.769.769,0,0,0,.566.375c.654.046,1.314.008,1.972.015a1.5,1.5,0,0,1,1.671,1.665c.013,1.388.009,2.776,0,4.165a1.525,1.525,0,0,1-1.638,1.638c-1.072.011-2.143.006-3.215,0-1.021,0-1.226.142-1.688,1.266,2.808,0,5.576,0,8.343,0,1.824,0,3.648-.031,5.471.005.212,0,.417.345.625.53-.213.174-.421.354-.643.516-.048.035-.142.006-.215.006-4.673,0-9.347-.013-14.02.019a2.833,2.833,0,0,0-1.466.432,10.532,10.532,0,0,1-6.528,1.886c-.691-.038-1.379-.141-2.067-.214-.268,2.236.281,2.867,2.475,2.867l33.318,0c1.5,0,2.053-.558,2.053-2.074q0-11.143,0-22.285c0-1.585-.511-2.1-2.1-2.1H21.313c-1.437,0-2.874-.009-4.311.007a1.589,1.589,0,0,0-1.672,1.493c-.041.5-.007,1.015-.007,1.581m2.606.827A9.364,9.364,0,0,0,8.448,14.5a9.435,9.435,0,1,0,9.481-9.561M11.522,22.752c-1.46,1.854-2.869,3.648-4.284,5.437q-2.825,3.574-5.661,7.14A1.42,1.42,0,0,0,1.2,36.866,2.881,2.881,0,0,0,3.382,38.4c.794.134,1.161-.531,1.492-1.155,1.569-2.96,3.152-5.912,4.728-8.868C10.5,26.69,11.392,25,12.3,23.3l-.775-.546m16-3.631c1,0,2.093,0,3.183,0,.395,0,.643-.179.643-.613,0-1.385.021-2.769-.013-4.153,0-.2-.254-.555-.408-.566-.834-.056-1.674-.027-2.32-.027l-1.084,5.361" transform="translate(0 0)" fill="#fff"/>
        <path id="Path_14727" data-name="Path 14727" d="M292.106,34.31a4.909,4.909,0,1,1,4.928-4.827,4.935,4.935,0,0,1-4.928,4.827m-.593-8.627a3.7,3.7,0,0,0-3.162,3.051,3.607,3.607,0,0,0,1.733,3.814,9.732,9.732,0,0,0,1.429-6.864m4.334,4.28c-1.02,0-2.035-.005-3.05.007-.127,0-.325.062-.367.153-.454.97-.884,1.951-1.326,2.944a3.713,3.713,0,0,0,4.743-3.1m.006-1.149a3.463,3.463,0,0,0-3.11-3.095v3.095Z" transform="translate(-245.233 -20.912)" fill="#fff"/>
        <path id="Path_14728" data-name="Path 14728" d="M292.2,105.046a4.888,4.888,0,0,1,.091,9.774,4.888,4.888,0,1,1-.091-9.774m1.357,8.41a9.655,9.655,0,0,0-4.856-5.125,3.777,3.777,0,0,0,4.856,5.125m1-.613c1.828-1.491,1.867-4.567.126-5.625-.562.815-1.139,1.624-1.678,2.458a.661.661,0,0,0,0,.571c.488.863,1.014,1.706,1.551,2.6m-5.186-5.5,2.642,1.827,1.809-2.646a3.619,3.619,0,0,0-4.452.819" transform="translate(-245.253 -89.691)" fill="#fff"/>
        <path id="Path_14729" data-name="Path 14729" d="M237.035,75.3c0,1.1.008,2.192,0,3.287a1.5,1.5,0,0,1-1.625,1.638c-1.095.011-2.19.025-3.284-.007-1.243-.036-1.745-.6-1.741-1.839.006-2.021,0-4.042,0-6.063,0-1.437.539-1.981,1.981-1.982.974,0,1.948-.009,2.922,0a1.561,1.561,0,0,1,1.751,1.751c.006,1.071,0,2.143,0,3.214m-5.573.014c0,1,.056,2-.019,2.987-.051.67.226.894.8.895,1.016,0,2.032-.025,3.048-.032.529,0,.71-.271.706-.782q-.022-3.1,0-6.2c0-.507-.158-.768-.712-.756q-1.566.034-3.134,0c-.551-.013-.714.23-.7.749.026,1.044.008,2.089.007,3.134" transform="translate(-196.706 -60.046)" fill="#fff"/>
        <path id="Path_14730" data-name="Path 14730" d="M100.932,49.689c-.275,1.322-.511,2.486-.761,3.647q-.933,4.336-1.877,8.67c-.026.119-.053.237-.078.356-.081.395-.326.671-.705.483a.863.863,0,0,1-.331-.738c.233-1.287.538-2.56.814-3.839q.881-4.086,1.758-8.172c.036-.165.038-.378.142-.479.166-.161.418-.358.608-.334s.333.307.429.406" transform="translate(-82.971 -42.077)" fill="#fff"/>
        <path id="Path_14731" data-name="Path 14731" d="M79.6,59.024c-.318,1.494-.6,2.845-.894,4.194-.322,1.491-.628,2.986-1,4.465-.068.273-.428.688-.624.673-.53-.041-.469-.531-.388-.915q.741-3.52,1.507-7.034a9.574,9.574,0,0,1,.376-1.471.706.706,0,0,1,.585-.349c.188.03.333.323.438.437" transform="translate(-65.44 -50.021)" fill="#fff"/>
      </g>
    </g>
  </g>
</svg>
