<svg xmlns="http://www.w3.org/2000/svg" xmlns:xlink="http://www.w3.org/1999/xlink" width="87" height="87" viewBox="0 0 87 87">
  <defs>
    <clipPath id="clip-path">
      <rect id="Rectangle_8309" data-name="Rectangle 8309" width="53.231" height="43.234" fill="#fff"/>
    </clipPath>
  </defs>
  <g id="Group_49031" data-name="Group 49031" transform="translate(-272 -2025)">
    <circle id="Ellipse_63" data-name="Ellipse 63" cx="43.5" cy="43.5" r="43.5" transform="translate(272 2025)"/>
    <g id="Group_49013" data-name="Group 49013" transform="translate(288.884 2046.883)">
      <g id="Group_49012" data-name="Group 49012" clip-path="url(#clip-path)">
        <path id="Path_14687" data-name="Path 14687" d="M9.156,13.3V12.7q0-5.041,0-10.082A2.483,2.483,0,0,1,11.756,0Q26.618,0,41.481,0a2.477,2.477,0,0,1,2.594,2.618c0,3.533,0,7.067,0,10.686.524,0,1.035,0,1.546,0A1.654,1.654,0,0,1,47.4,15.085q0,10.211-.006,20.423a.883.883,0,0,0,.365.779c1.6,1.295,3.183,2.615,4.774,3.923a1.654,1.654,0,0,1,.658,1.695,1.573,1.573,0,0,1-1.176,1.259,2.114,2.114,0,0,1-.561.067q-24.84,0-49.68,0A1.669,1.669,0,0,1,.7,40.211c1.584-1.317,3.169-2.632,4.772-3.926a.882.882,0,0,0,.361-.781Q5.823,25.371,5.83,15.237A1.7,1.7,0,0,1,7.769,13.3H9.156m1.659-4.97v.733q0,11.9,0,23.8a4.67,4.67,0,0,1,0,.467.828.828,0,0,1-1.65-.023c-.013-.155,0-.312,0-.468q0-8.625,0-17.251V15H7.517V35.723h38.19V15H44.076v.663q0,8.6,0,17.2a3.571,3.571,0,0,1-.005.467.786.786,0,0,1-.785.75.8.8,0,0,1-.861-.725,4.386,4.386,0,0,1-.007-.519q0-11.951,0-23.9v-.6Zm-9.089,33.2H51.508c-1.67-1.376-3.255-2.689-4.853-3.985a.9.9,0,0,0-.527-.128c-1.7-.009-3.395-.006-5.092-.006q-16.887,0-33.773.005a1.175,1.175,0,0,0-.682.128c-1.6,1.291-3.185,2.608-4.855,3.986M10.818,6.615h31.6c0-1.264,0-2.492,0-3.72,0-1-.237-1.236-1.259-1.236H12.066c-.139,0-.278-.007-.415,0a.81.81,0,0,0-.826.826c-.017,1.365-.006,2.731-.006,4.127" transform="translate(0 0.001)" fill="#fff"/>
        <path id="Path_14688" data-name="Path 14688" d="M232.786,105.662q-3.9,0-7.793,0a.809.809,0,0,1-.906-.735.831.831,0,0,1,.622-.9,1.576,1.576,0,0,1,.361-.021q7.741,0,15.482,0c.623,0,.978.3.988.816.01.534-.354.84-1.013.841q-3.871,0-7.741,0" transform="translate(-200.791 -93.193)" fill="#fff"/>
        <path id="Path_14689" data-name="Path 14689" d="M232.839,265.625h-7.585a2.769,2.769,0,0,1-.467-.012.811.811,0,0,1-.674-.856.8.8,0,0,1,.7-.78,1.826,1.826,0,0,1,.363-.009H240.5c.069,0,.139,0,.208,0a.816.816,0,0,1,.856.842.8.8,0,0,1-.882.813c-1.455.008-2.909,0-4.364,0h-3.481" transform="translate(-200.818 -236.526)" fill="#fff"/>
        <path id="Path_14690" data-name="Path 14690" d="M232.634,217.665q-3.739,0-7.478,0c-.665,0-1.009-.3-1-.848.014-.524.345-.8.993-.8q7.53,0,15.06.007c.63,0,.969.3.979.823.01.494-.375.827-.977.828q-3.791,0-7.582,0Z" transform="translate(-200.861 -193.559)" fill="#fff"/>
        <path id="Path_14691" data-name="Path 14691" d="M230.79,296c1.9,0,3.809,0,5.714,0a.818.818,0,0,1,.9.742.826.826,0,0,1-.679.9,1.791,1.791,0,0,1-.311.01q-5.662,0-11.324,0c-.622,0-.977-.3-.981-.821s.349-.834.966-.835q2.857-.005,5.714,0" transform="translate(-200.817 -265.23)" fill="#fff"/>
        <path id="Path_14692" data-name="Path 14692" d="M121.745,97.654c0,1.371,0,2.667,0,3.964,0,.663-.3,1.027-.83,1.024s-.827-.357-.828-1.026q0-2.311,0-4.622c0-.71.293-1,1.01-1q2.727,0,5.453,0c.659,0,1.019.3,1.014.841s-.363.815-1.038.816c-1.572,0-3.144,0-4.782,0" transform="translate(-107.603 -86.016)" fill="#fff"/>
        <path id="Path_14693" data-name="Path 14693" d="M121.745,257.649c0,1.378,0,2.676,0,3.973,0,.665-.3,1.022-.837,1.015s-.82-.365-.82-1.033q0-2.311,0-4.622c0-.688.293-.988.967-.99q2.779-.006,5.557,0c.609,0,.962.324.953.849-.009.5-.356.8-.942.806-1.42.005-2.839,0-4.259,0h-.618" transform="translate(-107.604 -229.382)" fill="#fff"/>
        <path id="Path_14694" data-name="Path 14694" d="M121.719,177.64v3.691c0,.156.007.312,0,.467a.825.825,0,0,1-.818.83.786.786,0,0,1-.833-.808q-.026-2.518,0-5.037a.773.773,0,0,1,.839-.8q2.882-.014,5.765,0a.827.827,0,1,1,0,1.652c-1.625.008-3.251,0-4.948,0" transform="translate(-107.575 -157.687)" fill="#fff"/>
        <path id="Path_14695" data-name="Path 14695" d="M228.642,185.652c-1.194,0-2.388,0-3.582,0-.61,0-.965-.322-.956-.843.009-.5.355-.811.935-.812q3.634-.006,7.268,0a.854.854,0,0,1,.94.817.867.867,0,0,1-.972.839c-1.211,0-2.423,0-3.634,0" transform="translate(-200.811 -164.868)" fill="#fff"/>
        <path id="Path_14696" data-name="Path 14696" d="M146.526,110.992c.932-.948,1.782-1.809,2.628-2.675a.89.89,0,0,1,.975-.312.836.836,0,0,1,.244,1.467q-1.307,1.338-2.642,2.648c-1.165,1.148-1.231,1.143-2.393-.019-.343-.343-.7-.674-1.025-1.032A.834.834,0,1,1,145.5,109.9c.335.323.64.678,1.024,1.091" transform="translate(-129.072 -96.737)" fill="#fff"/>
        <path id="Path_14697" data-name="Path 14697" d="M146.556,271.014l2.435-2.489c.1-.1.189-.2.294-.293a.837.837,0,1,1,1.186,1.182c-.146.171-.316.32-.475.479-.894.894-1.784,1.792-2.682,2.682-.552.548-.956.541-1.51-.01-.466-.464-.936-.926-1.394-1.4a.846.846,0,1,1,1.185-1.177c.307.3.592.629.962,1.025" transform="translate(-129.094 -240.126)" fill="#fff"/>
        <path id="Path_14698" data-name="Path 14698" d="M146.57,190.96l2.416-2.432a4.659,4.659,0,0,1,.334-.326.838.838,0,0,1,1.171.026.808.808,0,0,1,.015,1.129c-.366.414-.772.793-1.163,1.185q-1.007,1.012-2.016,2.021a.908.908,0,0,1-1.481.027c-.47-.461-.942-.919-1.4-1.387s-.494-.957-.126-1.327.873-.3,1.323.148c.293.292.582.587.93.937" transform="translate(-129.094 -168.438)" fill="#fff"/>
        <path id="Path_14699" data-name="Path 14699" d="M228.03,137.654c-.97,0-1.939,0-2.909,0-.663,0-1.019-.3-1.011-.841.007-.517.359-.815.984-.816q2.961,0,5.921,0c.622,0,.98.3.986.816.006.541-.349.839-1.012.841-.987,0-1.974,0-2.961,0" transform="translate(-200.816 -121.859)" fill="#fff"/>
        <path id="Path_14700" data-name="Path 14700" d="M317.961,137.6c-.346,0-.693.013-1.038,0a.825.825,0,0,1,.009-1.649q1.037-.025,2.076,0a.806.806,0,0,1,.838.857.817.817,0,0,1-.847.8h-1.038" transform="translate(-283.256 -121.806)" fill="#fff"/>
        <path id="Path_14701" data-name="Path 14701" d="M329.984,185.595c-.346,0-.692.011-1.037,0a.812.812,0,0,1-.833-.81.8.8,0,0,1,.806-.839q1.062-.03,2.126,0a.789.789,0,0,1,.8.835.807.807,0,0,1-.827.814c-.345.014-.691,0-1.037,0" transform="translate(-294.01 -164.811)" fill="#fff"/>
        <path id="Path_14702" data-name="Path 14702" d="M313.72,33.58c-.277,0-.555.013-.831,0a.825.825,0,0,1,0-1.648c.57-.022,1.143-.02,1.713,0a.794.794,0,0,1,.816.824.805.805,0,0,1-.816.826c-.294.014-.588,0-.883,0" transform="translate(-279.66 -28.596)" fill="#fff"/>
        <path id="Path_14703" data-name="Path 14703" d="M361.723,33.57c-.277,0-.555.013-.831,0a.825.825,0,0,1-.007-1.648c.588-.023,1.178-.024,1.765,0a.787.787,0,0,1,.768.818.8.8,0,0,1-.813.83c-.294.014-.588,0-.883,0" transform="translate(-322.67 -28.586)" fill="#fff"/>
      </g>
    </g>
  </g>
</svg>
