<svg xmlns="http://www.w3.org/2000/svg" xmlns:xlink="http://www.w3.org/1999/xlink" width="87" height="87" viewBox="0 0 87 87">
  <defs>
    <clipPath id="clip-path">
      <rect id="Rectangle_8327" data-name="Rectangle 8327" width="54" height="54" transform="translate(-0.357 -0.357)" fill="#fff"/>
    </clipPath>
  </defs>
  <g id="Group_49025" data-name="Group 49025" transform="translate(-272 -2025)">
    <circle id="Ellipse_63" data-name="Ellipse 63" cx="43.5" cy="43.5" r="43.5" transform="translate(272 2025)"/>
    <g id="Group_49036" data-name="Group 49036" transform="translate(288.93 2041.93)">
      <g id="Group_49035" data-name="Group 49035" transform="translate(0.427 0.427)" clip-path="url(#clip-path)">
        <path id="Path_14732" data-name="Path 14732" d="M42.907,0h2.319a1.046,1.046,0,0,0,.234.1,9.9,9.9,0,0,1,8.248,7.49c.1.386.179.775.268,1.163v2.319a1.122,1.122,0,0,0-.1.234,9.819,9.819,0,0,1-6.791,8.046c-.258.093-.524.161-.817.249a20.708,20.708,0,0,1,.005,14.78c.127.045.191.072.257.091a9.83,9.83,0,0,1,7.173,7.274c.106.383.181.775.271,1.163v2.319c-.14.574-.266,1.152-.425,1.721-.174.623-.587.908-1.047.761-.488-.156-.667-.582-.487-1.21a8.873,8.873,0,0,0,.3-3.483A8.319,8.319,0,1,0,50.1,49.795a1.592,1.592,0,0,1,.524-.423.726.726,0,0,1,.926.289.805.805,0,0,1-.128,1.056,9.859,9.859,0,0,1-4.832,2.936c-.452.12-.91.216-1.365.323H42.907a1.142,1.142,0,0,0-.234-.1,9.832,9.832,0,0,1-8.156-7.141c-.047-.144-.089-.29-.141-.459a20.791,20.791,0,0,1-14.779,0c-.043.12-.07.184-.09.25A9.832,9.832,0,0,1,12.232,53.7c-.384.105-.775.182-1.163.271H8.75a1.024,1.024,0,0,0-.233-.1A9.912,9.912,0,0,1,.266,46.39C.17,46,.088,45.614,0,45.226V42.907a1.138,1.138,0,0,0,.1-.236,9.8,9.8,0,0,1,6.437-7.92C6.9,34.6,7.29,34.5,7.7,34.374a20.8,20.8,0,0,1,.392-15.738,1.559,1.559,0,0,0-.2-.075A9.2,9.2,0,0,1,.305,11.7C.181,11.287.1,10.859,0,10.437V8.223a1.137,1.137,0,0,0,.1-.235A9.161,9.161,0,0,1,5.921.657,19.423,19.423,0,0,1,8.223,0h2.214a1.676,1.676,0,0,0,.29.1,9.191,9.191,0,0,1,5.844,3.334A9.347,9.347,0,0,1,18.608,8.1a20.834,20.834,0,0,1,15.776-.405c.043-.129.068-.193.087-.26A9.815,9.815,0,0,1,41.338.381C41.85.219,42.383.125,42.907,0m3.121,26.4a18.643,18.643,0,0,0-1.228-6.18.548.548,0,0,0-.61-.414,10.445,10.445,0,0,1-1.833-.134A9.879,9.879,0,0,1,34.17,9.813a.567.567,0,0,0-.436-.645A18.964,18.964,0,0,0,19,9.717a.816.816,0,0,0-.34.488c-.3,1.037-.556,2.091-.887,3.119a.977.977,0,0,1-.612.56.87.87,0,0,1-.764-.265,1.153,1.153,0,0,1-.053-.917A8.439,8.439,0,0,0,17,8.184a7.741,7.741,0,1,0-7.958,8.9,7.844,7.844,0,0,0,4.929-1.532c.215-.157.534-.349.744-.293a1.249,1.249,0,0,1,.7.59c.186.361-.077.663-.372.889a9.636,9.636,0,0,1-4.827,1.918.67.67,0,0,0-.472.286A18.98,18.98,0,0,0,9.2,33.824c.107.291.272.335.547.346a12.6,12.6,0,0,1,1.987.169,9.842,9.842,0,0,1,8.069,9.841.541.541,0,0,0,.4.617,19.181,19.181,0,0,0,13.536.009.576.576,0,0,0,.43-.651,10.2,10.2,0,0,1,.155-1.883,9.844,9.844,0,0,1,9.869-8.1.545.545,0,0,0,.6-.419A20.21,20.21,0,0,0,46.028,26.4M52.4,9.9a8.326,8.326,0,1,0-8.306,8.335A8.372,8.372,0,0,0,52.4,9.9M9.887,52.4A8.327,8.327,0,1,0,1.58,44.063,8.376,8.376,0,0,0,9.887,52.4" transform="translate(-0.345 -0.345)" fill="#fff"/>
        <path id="Path_14733" data-name="Path 14733" d="M387.854,368.446c.425,0,.807-.009,1.189,0a.82.82,0,0,1,.871.8.8.8,0,0,1-.868.79c-.381.014-.763,0-1.2,0V372.4c0,.861.008,1.721,0,2.582a.791.791,0,0,1-.789.865.771.771,0,0,1-.788-.857c-.01-1.44,0-2.88,0-4.32,0-.189,0-.377,0-.639-.45,0-.849.014-1.247,0a.8.8,0,0,1-.833-.772.817.817,0,0,1,.857-.81c.383-.013.768,0,1.224,0,0-.716,0-1.394,0-2.073a2.362,2.362,0,0,1,2.571-2.594c.544,0,1.089-.01,1.633,0a.8.8,0,0,1,.849.753.813.813,0,0,1-.837.83c-.6.019-1.194,0-1.791.007a.738.738,0,0,0-.822.714c-.043.766-.012,1.535-.012,2.358" transform="translate(-344.026 -325.77)" fill="#fff"/>
        <path id="Path_14734" data-name="Path 14734" d="M164.762,175.522a10.751,10.751,0,1,1,10.759-10.751,10.783,10.783,0,0,1-10.759,10.751m-3.6-8.972a6.064,6.064,0,0,1-.6-3.743,4.218,4.218,0,0,1,8.425-.027,6.278,6.278,0,0,1-.592,3.785,7.647,7.647,0,0,1,3.344,4.081,9.132,9.132,0,0,0-13.9-11.846,8.963,8.963,0,0,0-.014,11.815,7.549,7.549,0,0,1,3.342-4.066m3.584,7.4a9.4,9.4,0,0,0,5.325-1.7.557.557,0,0,0,.25-.7,5.816,5.816,0,0,0-2.645-3.531.637.637,0,0,0-.757-.025,4.079,4.079,0,0,1-4.3,0,.639.639,0,0,0-.758.026,5.772,5.772,0,0,0-2.644,3.53.56.56,0,0,0,.252.706,9.43,9.43,0,0,0,5.275,1.7m2.709-10.262-.044,0c0-.228,0-.456,0-.684a2.632,2.632,0,0,0-2.269-2.564,2.529,2.529,0,0,0-2.908,1.991,8.838,8.838,0,0,0-.088,2.145,2.625,2.625,0,0,0,5.156.468,10.216,10.216,0,0,0,.154-1.351" transform="translate(-138.128 -138.128)" fill="#fff"/>
        <path id="Path_14735" data-name="Path 14735" d="M38.239,50.338a3.955,3.955,0,0,1-1.447-2.527,10.114,10.114,0,0,1,.126-2.544,1.007,1.007,0,0,1,1.813-.464,3.855,3.855,0,0,0,2.094,1.181c.062-.172.118-.33.176-.488a2.658,2.658,0,0,1,3.94-1.351,1.084,1.084,0,0,0,1.071.132,1.209,1.209,0,0,1,1.714,1.412,9.636,9.636,0,0,1-.7,1.741,10.2,10.2,0,0,0-.494,1.082,6.312,6.312,0,0,1-6.642,4.641,10.019,10.019,0,0,1-1.5-.223,1.871,1.871,0,0,1-.577-.244,1.4,1.4,0,0,1-.722-1.462c.073-.6.528-.775,1.145-.887m.038-3.768a2.694,2.694,0,0,0,.658,2.159,6.1,6.1,0,0,0,1.259.923.826.826,0,0,1,.055,1.529c-.162.107-.328.208-.554.352,2.49.163,4.375-.932,5.121-2.975a6.59,6.59,0,0,1,1.052-2.3,1.2,1.2,0,0,0,.123-.3A2.377,2.377,0,0,1,44,45.469a1.015,1.015,0,0,0-1.535.777c-.019.138-.015.28-.021.42-.032.717-.3.978-1,.982a5.413,5.413,0,0,1-3.164-1.079" transform="translate(-33.232 -39.457)" fill="#fff"/>
        <path id="Path_14736" data-name="Path 14736" d="M389.105,58.451c0-.983,0-1.966,0-2.949a1.135,1.135,0,0,1,1.853-1.056q2.6,1.491,5.19,3a1.121,1.121,0,0,1,.012,2.1q-2.611,1.524-5.237,3.024a1.128,1.128,0,0,1-1.818-1.063c-.007-1.018,0-2.036,0-3.054m5.675.044-4.038-2.323v4.653l4.038-2.33" transform="translate(-348.428 -48.834)" fill="#fff"/>
        <path id="Path_14737" data-name="Path 14737" d="M46.789,365.3c.984,0,1.968-.007,2.951,0a2.417,2.417,0,0,1,2.588,2.563q.023,3,0,6.008a2.41,2.41,0,0,1-2.561,2.538q-2.977.018-5.955,0a2.431,2.431,0,0,1-2.59-2.618q-.01-2.951,0-5.9a2.422,2.422,0,0,1,2.564-2.589c1-.011,2,0,3,0m.011,1.627c-1.035,0-2.07-.008-3.1,0-.575.006-.843.263-.845.836q-.016,3.078,0,6.157c0,.6.264.859.877.861q3.052.013,6.1,0c.608,0,.87-.265.873-.865q.012-3.052,0-6.1c0-.63-.263-.881-.9-.886-1-.008-2,0-3,0" transform="translate(-37.215 -327.134)" fill="#fff"/>
        <path id="Path_14738" data-name="Path 14738" d="M76.072,397.779a2.388,2.388,0,1,1-2.375-2.4,2.428,2.428,0,0,1,2.375,2.4m-1.626,0a.761.761,0,1,0-.765.743.728.728,0,0,0,.765-.743" transform="translate(-64.124 -354.042)" fill="#fff"/>
      </g>
    </g>
  </g>
</svg>
