<svg xmlns="http://www.w3.org/2000/svg" xmlns:xlink="http://www.w3.org/1999/xlink" width="94" height="93" viewBox="0 0 94 93">
  <defs>
    <clipPath id="clip-path">
      <rect id="Rectangle_8270" data-name="Rectangle 8270" width="51.028" height="50.86" fill="#fff"/>
    </clipPath>
  </defs>
  <g id="Group_48965" data-name="Group 48965" transform="translate(0.548 -0.086)">
    <ellipse id="Ellipse_61" data-name="Ellipse 61" cx="47" cy="46.5" rx="47" ry="46.5" transform="translate(-0.548 0.086)" fill="#ed2023"/>
    <g id="Group_48968" data-name="Group 48968" transform="translate(20.728 21.192)">
      <g id="Group_48967" data-name="Group 48967" clip-path="url(#clip-path)">
        <path id="Path_14593" data-name="Path 14593" d="M23.044,20.8H36.3V41.1H51.028v9.762H2.841A2.739,2.739,0,0,1,0,48.024Q0,25.451,0,2.877A2.758,2.758,0,0,1,2.872,0q8.641,0,17.282,0a2.763,2.763,0,0,1,2.89,2.887q0,8.73,0,17.46V20.8M16.25,49.831V20.783h5.712V12.1H1.051v.455q0,17.682-.012,35.363a1.834,1.834,0,0,0,1.915,1.921c4.3-.022,8.6-.009,12.894-.009h.4m5.739-38.795v-.27q0-3.971,0-7.941A1.687,1.687,0,0,0,20.2,1.05H2.833A1.7,1.7,0,0,0,1.051,2.838q0,3.941,0,7.882c0,.1.01.207.015.316ZM33.206,42.1a7.486,7.486,0,1,1,.363-1.019h1.673V28.446H17.308V49.81h15.9ZM25.08,27.351H35.244V21.857H25.08Zm-7.772,0h6.715V21.85H17.308ZM26.279,45.6a6.476,6.476,0,1,0-6.49-6.462,6.484,6.484,0,0,0,6.49,6.462m7.986,4.216H50V42.17H34.265Z" transform="translate(0 -0.001)" fill="#fff"/>
        <path id="Path_14594" data-name="Path 14594" d="M21.766,199.479c.919,0,1.837,0,2.756,0a2.067,2.067,0,0,1,2.081,2.059c.009,1.136,0,2.272,0,3.408a2.069,2.069,0,0,1-2.108,2.159q-2.711.03-5.422,0a2.088,2.088,0,0,1-2.137-2.2q0-1.63,0-3.259A2.092,2.092,0,0,1,19.1,199.48h2.667m.006,6.583c.9,0,1.8,0,2.7,0a1.038,1.038,0,0,0,1.1-1.04c.021-1.145.02-2.292,0-3.437a1.026,1.026,0,0,0-1.077-1.06q-2.711-.015-5.422,0a1.024,1.024,0,0,0-1.078,1.11q-.006,1.644,0,3.289a1.048,1.048,0,0,0,1.143,1.14c.879,0,1.758,0,2.637,0" transform="translate(-15.171 -178.688)" fill="#fff"/>
        <rect id="Rectangle_8267" data-name="Rectangle 8267" width="1.01" height="5.248" transform="translate(1.79 14.754)" fill="#fff"/>
        <rect id="Rectangle_8268" data-name="Rectangle 8268" width="1.007" height="4.597" transform="translate(1.788 4.631)" fill="#fff"/>
        <path id="Path_14595" data-name="Path 14595" d="M201.4,318.782a5.9,5.9,0,1,1-5.891,5.919,5.881,5.881,0,0,1,5.891-5.919m-4.853,6.011c.016.226.014.4.043.56a4.875,4.875,0,0,0,8.452,2.554c.255-.266.43-.525.189-.889a.446.446,0,0,1-.056-.2c-.067-.706-.165-1.411-.187-2.118a9.729,9.729,0,0,1,.241-2.822.4.4,0,0,0-.1-.3,4.707,4.707,0,0,0-4.753-1.641,4.812,4.812,0,0,0-3.834,4.858" transform="translate(-175.135 -285.558)" fill="#fff"/>
        <path id="Path_14596" data-name="Path 14596" d="M329.952,405.561h12.429v7.431H329.952Zm1.027,6.368h10.379v-5.3H330.979Z" transform="translate(-295.564 -363.293)" fill="#fff"/>
        <path id="Path_14597" data-name="Path 14597" d="M450.554,451.7h2.937v2.375h-2.937Zm.572,1.8h1.818v-1.263h-1.818Z" transform="translate(-403.596 -404.621)" fill="#fff"/>
        <path id="Path_14598" data-name="Path 14598" d="M457.663,430.135a.75.75,0,1,1,1.5.052.762.762,0,0,1-.777.728.753.753,0,0,1-.722-.781m1.095.028c-.162-.117-.258-.239-.341-.231s-.171.138-.255.215c.08.083.151.219.242.233s.186-.106.355-.216" transform="translate(-409.964 -384.641)" fill="#fff"/>
        <path id="Path_14599" data-name="Path 14599" d="M459.006,412.506a.756.756,0,1,1-.752-.756.764.764,0,0,1,.752.756m-.739-.349c-.127.166-.254.26-.247.343s.139.17.217.254c.083-.077.217-.145.234-.235s-.1-.186-.2-.362" transform="translate(-409.813 -368.836)" fill="#fff"/>
        <rect id="Rectangle_8269" data-name="Rectangle 8269" width="1.014" height="2.235" transform="translate(44.492 44.863)" fill="#fff"/>
      </g>
    </g>
  </g>
</svg>
