<svg xmlns="http://www.w3.org/2000/svg" xmlns:xlink="http://www.w3.org/1999/xlink" width="93" height="92.011" viewBox="0 0 93 92.011">
  <defs>
    <clipPath id="clip-path">
      <rect id="Rectangle_8261" data-name="Rectangle 8261" width="58.876" height="44.963" fill="#fff"/>
    </clipPath>
  </defs>
  <g id="Group_48954" data-name="Group 48954" transform="translate(0.45 -0.255)">
    <ellipse id="Ellipse_61" data-name="Ellipse 61" cx="46.5" cy="46.005" rx="46.5" ry="46.005" transform="translate(-0.45 0.255)" fill="#ed2023"/>
    <g id="Group_48953" data-name="Group 48953" transform="translate(16.552 23.712)">
      <g id="Group_48952" data-name="Group 48952" clip-path="url(#clip-path)">
        <path id="Path_14576" data-name="Path 14576" d="M52.214,13.4c0-.336-.02-.673,0-1.008a1.282,1.282,0,0,1,1.1-1.288,7.138,7.138,0,0,1,4.031.323,2.228,2.228,0,0,1,1.517,1.951,2.2,2.2,0,0,1-1.32,2.2,13.265,13.265,0,0,1-1.638.621,4.867,4.867,0,0,1-.549.125c1.377,1.632,1.409,3.63,1.459,5.547.083,3.182-.038,6.37-.065,9.556q-.045,5.41-.073,10.82c-.01,1.867-.816,2.7-2.636,2.7q-2.665,0-5.331,0a2.268,2.268,0,0,1-2.52-2.582c0-.855,0-1.711,0-2.618H12.676c0,.914,0,1.783,0,2.653a2.259,2.259,0,0,1-2.5,2.546q-2.724.007-5.448.005a2.28,2.28,0,0,1-2.538-2.568q-.029-5.41-.071-10.82c-.028-3.146-.109-6.292-.091-9.437a16.842,16.842,0,0,1,.384-3.375,16.63,16.63,0,0,1,.9-2.427c-.5-.179-1.182-.367-1.815-.658A2.262,2.262,0,0,1,0,13.464,2.234,2.234,0,0,1,1.608,11.4a7.216,7.216,0,0,1,3.977-.279,1.258,1.258,0,0,1,1.069,1.252,3.627,3.627,0,0,0,.194,1.124,7.5,7.5,0,0,0,.424-.69c1.416-2.95,2.815-5.909,4.24-8.854a7.483,7.483,0,0,1,2.1-2.688A6.35,6.35,0,0,1,17.651.091Q25.557.017,33.465,0C36-.005,38.541.094,41.079.069a6.479,6.479,0,0,1,6.389,4.063c1.386,2.943,2.8,5.872,4.207,8.8a5.089,5.089,0,0,0,.352.548l.187-.081M29.5,38.452v.009q10.542,0,21.085-.005c.9,0,1.792-.07,2.688-.114a1.542,1.542,0,0,0,1.5-1.2,5.055,5.055,0,0,0,.216-.865c.187-1.561.41-3.12.52-4.687a76.132,76.132,0,0,0,0-11.164,4.738,4.738,0,0,0-2.621-4.3,5.158,5.158,0,0,1-2.372-2.7c-.136-.308-.3-.6-.446-.907-1.31-2.736-2.6-5.482-3.933-8.205a4.892,4.892,0,0,0-4.711-2.939c-2.127,0-4.255-.1-6.382-.094-5.9.017-11.791.067-17.686.1A4.814,4.814,0,0,0,12.859,4.1c-.141.262-.287.521-.415.789-1.289,2.7-2.6,5.4-3.851,8.114a6.456,6.456,0,0,1-2.886,3.321,6.293,6.293,0,0,0-.775.536,2.872,2.872,0,0,0-1.3,2.036,22.479,22.479,0,0,0-.318,2.543c-.032,3.225-.08,6.453.033,9.674a46.254,46.254,0,0,0,.673,5.685c.18,1.12.646,1.438,1.757,1.566a10.316,10.316,0,0,0,1.166.089q11.275.008,22.549,0m17.96,1.292c0,1.037-.024,2.029.009,3.019a.942.942,0,0,0,1.018.934q2.952.024,5.9,0a1,1,0,0,0,1.056-1.1c.017-.616,0-1.233,0-1.85,0-.679,0-1.359,0-2.177-1.161,1.242-2.563,1.092-3.885,1.155-1.34.064-2.685.014-4.107.014M3.43,38.58c0,1.5-.016,2.809.007,4.119a.947.947,0,0,0,.968.993q3.015.034,6.032,0a.869.869,0,0,0,.945-.8c.056-1.025.017-2.055.017-3.141-.26,0-.47,0-.68,0-1.463-.022-2.927-.03-4.39-.072a3.651,3.651,0,0,1-2.9-1.1m2.36-23.7.026-.226c-.58-.483-.411-1.13-.382-1.731.022-.454-.116-.683-.58-.658-.739.04-1.482.049-2.217.128a2.028,2.028,0,0,0-.862.336c-.744.492-.732,1.161.013,1.656a4.923,4.923,0,0,0,2.744.706,6.823,6.823,0,0,0,1.258-.213M53.252,14.7l-.205.061c.276.117.564.357.827.33a18.377,18.377,0,0,0,2.686-.443,1.246,1.246,0,0,0,1.082-1.17c.012-.444-.62-.979-1.329-1.08a16.347,16.347,0,0,0-2.036-.135c-.837-.013-.822.025-.834.868a13.914,13.914,0,0,1-.191,1.568" transform="translate(0 0)" fill="#fff"/>
        <path id="Path_14577" data-name="Path 14577" d="M103.443,35.228q-8.7,0-17.392,0a8.047,8.047,0,0,1-.935-.049,1.231,1.231,0,0,1-1.167-1.715,49.173,49.173,0,0,1,3.337-8.205,2.152,2.152,0,0,1,1.928-1.226c3.725-.116,7.449-.3,11.174-.326,4.665-.036,9.331.041,14,.1,1.149.015,2.3.155,3.444.234a1.917,1.917,0,0,1,1.743,1.116c.736,1.58,1.476,3.159,2.155,4.764.448,1.058.8,2.158,1.179,3.246.42,1.217-.039,1.994-1.31,2.018-2.341.044-4.684-.015-7.026-.019q-5.563-.009-11.127,0c0,.021,0,.043,0,.064m-5.818-1.422H109.3c.134-.841.212-1.657.4-2.446a2.828,2.828,0,0,1,2.756-2.405c2.5-.26,3.8.794,4.125,3.333.065.512.114,1.026.178,1.6h5.079c-.358-1-.654-1.919-1.019-2.813-.668-1.633-1.384-3.246-2.068-4.872a1.491,1.491,0,0,0-1.46-.964c-1.521-.063-3.04-.206-4.561-.223-3.807-.041-7.614-.068-11.421-.03-3.844.039-7.687.168-11.53.244a1.6,1.6,0,0,0-1.643,1.061c-.969,2.432-1.955,4.856-2.93,7.285a.925.925,0,0,0-.027.267c.062.041.093.08.124.08,1.522,0,3.044.008,4.565-.026.124,0,.314-.283.349-.461.149-.739.2-1.5.382-2.231a2.652,2.652,0,0,1,2.267-2.128,6.48,6.48,0,0,1,1.572-.054,2.782,2.782,0,0,1,2.825,2.521c.164.734.24,1.489.359,2.26m17.935.024a22.53,22.53,0,0,0-.541-2.589,1.413,1.413,0,0,0-.877-.84,6.424,6.424,0,0,0-2.179-.012,1.336,1.336,0,0,0-.856.781,25.507,25.507,0,0,0-.6,2.66Zm-19.154.014c-.171-.888-.288-1.69-.488-2.47a1.474,1.474,0,0,0-1.507-1.094c-.851-.047-1.737-.142-2.356.677a.706.706,0,0,0-.137.261c-.184.859-.36,1.719-.548,2.625Z" transform="translate(-74.032 -20.862)" fill="#fff"/>
        <path id="Path_14578" data-name="Path 14578" d="M130.618,221.833c4.314,0,8.628-.006,12.942.009a6.6,6.6,0,0,1,1.562.192,1.955,1.955,0,0,1,1.468,2.354,6.871,6.871,0,0,1-.577,1.743c-.773,1.5-1.594,2.966-2.428,4.428a3.368,3.368,0,0,1-3.193,1.8q-9.78-.053-19.56,0a3.325,3.325,0,0,1-3.155-1.759q-1.284-2.242-2.493-4.529a5.672,5.672,0,0,1-.507-1.456,2.047,2.047,0,0,1,1.892-2.687,23.873,23.873,0,0,1,2.512-.1q5.768-.014,11.537,0m0,1.27q-6.178,0-12.356,0a11.283,11.283,0,0,0-1.631.11.81.81,0,0,0-.747,1.142,4.838,4.838,0,0,0,.406,1.115c.771,1.452,1.567,2.89,2.359,4.331a2.369,2.369,0,0,0,2.3,1.307q9.691-.05,19.382,0a2.328,2.328,0,0,0,2.247-1.3c.763-1.389,1.542-2.769,2.287-4.168a5.758,5.758,0,0,0,.476-1.279c.169-.665-.076-1.042-.741-1.141a10.8,10.8,0,0,0-1.572-.11q-6.207-.013-12.414-.006" transform="translate(-101.177 -195.299)" fill="#fff"/>
        <path id="Path_14579" data-name="Path 14579" d="M40.115,167.385c-1.143-.113-2.3-.155-3.426-.354a2.615,2.615,0,0,1-2.3-3.065c.134-1.825,1.03-2.8,2.7-2.937a7.466,7.466,0,0,1,3.256.585c1.261.473,2.516.969,3.743,1.525a3.331,3.331,0,0,1,1.187.926,1.693,1.693,0,0,1-.82,2.842,24.393,24.393,0,0,1-3.577.436,7.276,7.276,0,0,1-.759,0l-.006.038m.422-1.255c.725-.062,1.909-.132,3.083-.284.3-.039.566-.336.847-.514-.212-.308-.416-.622-.64-.92a.6.6,0,0,0-.257-.134c-1.229-.5-2.438-1.064-3.695-1.477a11.85,11.85,0,0,0-2.678-.489,1.449,1.449,0,0,0-1.082.437,2.219,2.219,0,0,0-.354,2.193c.22.674.826.823,1.4.9.965.125,1.939.172,3.374.291" transform="translate(-30.35 -141.754)" fill="#fff"/>
        <path id="Path_14580" data-name="Path 14580" d="M376.008,167.533c-.942-.106-2.068-.192-3.179-.37a1.792,1.792,0,0,1-1.654-1.463,1.949,1.949,0,0,1,1.028-2.111,22.888,22.888,0,0,1,3.365-1.5,16.6,16.6,0,0,1,3.489-.921,3.1,3.1,0,0,1,3.144,4.574,2.449,2.449,0,0,1-2.043,1.41c-1.311.181-2.636.25-4.149.384m.621-1.265c1.308-.155,2.439-.226,3.543-.441.863-.168,1.141-.749,1.052-1.778-.083-.969-.524-1.538-1.322-1.631a2.718,2.718,0,0,0-1.159.024c-1.91.665-3.812,1.36-5.692,2.108-.281.111-.435.553-.648.841.268.192.519.514.806.552,1.192.16,2.395.234,3.421.324" transform="translate(-327.651 -141.865)" fill="#fff"/>
        <path id="Path_14581" data-name="Path 14581" d="M157.225,242q-5.706,0-11.412,0c-.654,0-.881-.184-.784-.715.038-.209.29-.392.476-.549.07-.06.226-.016.343-.016q11.383,0,22.766,0c.46,0,.826.062.816.657a.544.544,0,0,1-.558.62c-.156.009-.312,0-.468,0H157.225" transform="translate(-128.015 -211.912)" fill="#fff"/>
        <path id="Path_14582" data-name="Path 14582" d="M163.657,261.564H153.413c-.117,0-.234-.007-.351,0-.451.022-.775-.1-.763-.649.012-.514.321-.608.747-.6,1.112.01,2.224,0,3.336,0h17.443c.176,0,.352.011.527,0,.445-.02.654.212.65.647,0,.416-.226.6-.634.6-1.112-.005-2.224,0-3.336,0h-7.375" transform="translate(-134.453 -229.175)" fill="#fff"/>
        <path id="Path_14583" data-name="Path 14583" d="M171.291,281.216c-3.183,0-6.366-.006-9.549.006-.484,0-.861-.11-.768-.674a.894.894,0,0,1,.522-.56,2.921,2.921,0,0,1,.929-.029h18.16c.137,0,.273,0,.41,0,.43,0,.646.194.639.654-.007.477-.259.609-.678.607-1.933-.008-3.866,0-5.8-.005h-3.866" transform="translate(-142.099 -246.454)" fill="#fff"/>
      </g>
    </g>
  </g>
</svg>
