<svg xmlns="http://www.w3.org/2000/svg" xmlns:xlink="http://www.w3.org/1999/xlink" width="94" height="93" viewBox="0 0 94 93">
  <defs>
    <clipPath id="clip-path">
      <rect id="Rectangle_8277" data-name="Rectangle 8277" width="53.316" height="55.816" fill="#fff"/>
    </clipPath>
  </defs>
  <g id="Group_48973" data-name="Group 48973" transform="translate(0.548 -0.086)">
    <ellipse id="Ellipse_61" data-name="Ellipse 61" cx="47" cy="46.5" rx="47" ry="46.5" transform="translate(-0.548 0.086)" fill="#ed2023"/>
    <g id="Group_48982" data-name="Group 48982" transform="translate(19.794 18.678)">
      <g id="Group_48981" data-name="Group 48981" clip-path="url(#clip-path)">
        <path id="Path_14606" data-name="Path 14606" d="M116.4,80.394c3.638,0,7.076,0,10.514,0,1.646,0,1.693.046,1.695,1.672,0,3.673-.027,7.346.018,11.018.013,1.085-.352,1.507-1.46,1.489-3.021-.048-6.044-.017-9.066-.017h-1.556a3.264,3.264,0,0,0-.119.454c-.167,2.388-.166,2.39-2.619,2.39q-7.173,0-14.347,0c-1.479,0-1.579-.1-1.58-1.549q-.01-10.386-.009-20.772a8.975,8.975,0,0,1,4.977-8.531c.29-.154.454-.6.6-.942a1.877,1.877,0,0,0,.018-.682c.014-1.938.015-1.936,1.99-1.979.226,0,.452-.035.768-.062V59.091a8.137,8.137,0,0,1-2.005-.364A15.425,15.425,0,0,1,101.313,57c-.275-.208-.189-.893-.269-1.359.46.07,1.064-.021,1.356.238a5.331,5.331,0,0,0,3.87,1.43c1.567-.046,3.137-.019,4.705-.005a3.7,3.7,0,0,1,2.543,2.156,1.029,1.029,0,0,1-.392.84.959.959,0,0,1-.913-.112c-1.026-1.689-2.617-1.163-4.175-1.164v3.925c.54,0,1.06.018,1.578,0,.769-.033,1.145.314,1.133,1.084a8.334,8.334,0,0,1,0,.917,1.671,1.671,0,0,0,1.07,1.869,8.692,8.692,0,0,1,4.577,7.825c.062,1.864.011,3.732.011,5.757m-1.735,10.949c-2.911,0-5.7-.011-8.483.007-.785.005-1.238-.251-1.238-1.108q0-7.917-.014-15.833c0-.826.4-1.158,1.208-1.148,1.874.024,3.748.012,5.622.014h2.818c-.133-.5-.191-.839-.308-1.152a6.844,6.844,0,0,0-5.49-4.652c-.354-.065-.639-.512-.956-.782a7.847,7.847,0,0,1,.7-.791c.122-.109.348-.1.533-.148v-1.1h-4.1a11.175,11.175,0,0,0,.625,1.194,9.734,9.734,0,0,0,.8.906c-.368.261-.7.677-1.109.759A6.6,6.6,0,0,0,100.067,72a11.3,11.3,0,0,0-.54,3.6c-.048,6-.015,12.009-.011,18.013,0,.676,0,1.353,0,2.075h15.153Zm-8-1.764h7.96V74.966h-7.96Zm9.807-2.775v6h10.51c0-1.82.025-3.565-.03-5.308a.944.944,0,0,0-.64-.662c-3.235-.044-6.471-.03-9.841-.03m-.016-1.633c3.38,0,6.621.014,9.861-.031.224,0,.554-.418.635-.7A7.718,7.718,0,0,0,127,83.189c.1-.893-.259-1.2-1.165-1.186-2.751.048-5.5.013-8.255.022-.364,0-.727.066-1.119.1Z" transform="translate(-75.314 -42.817)" fill="#fff"/>
        <path id="Path_14607" data-name="Path 14607" d="M13.684,6.082v5.407H15.1q8.088,0,16.175,0a2.379,2.379,0,0,1,1.015.073c.286.146.639.517.632.781a1.1,1.1,0,0,1-.658.764,4.47,4.47,0,0,1-1.364.063q-8.2,0-16.4,0c-.227,0-.455.028-.829.053-.019.4-.054.807-.054,1.209q0,11.357,0,22.714a2.343,2.343,0,0,1-.082,1.013,1.048,1.048,0,0,1-.768.513,1.072,1.072,0,0,1-.708-.565,2.067,2.067,0,0,1-.071-.9q0-15.658-.02-31.316a2.175,2.175,0,0,1,.909-1.944C14.45,2.74,15.788.98,17.548.333,19.27-.3,21.4.163,23.346.159c3.25-.006,6.5-.037,9.75.029a3.358,3.358,0,0,1,1.829.678c1.368,1.04,2.674,2.167,3.942,3.329a2.131,2.131,0,0,1,.663,1.33c.073,1.832.073,3.672-.009,5.5-.019.414-.427,1.1-.737,1.153-.752.119-.858-.547-.857-1.167,0-1.415-.022-2.829-.009-4.244,0-.54-.112-.861-.752-.859Q25.58,5.95,14,5.965a1.316,1.316,0,0,0-.312.118m1.665-1.9H36.163a5.941,5.941,0,0,0-5.2-2.457,81.437,81.437,0,0,1-10.416,0c-2.272-.148-3.75.822-5.193,2.457" transform="translate(-9.21 0)" fill="#fff"/>
        <path id="Path_14608" data-name="Path 14608" d="M4.093,167.152C.144,164.719-.547,163.637.347,161.33c.828-2.139,2.256-2.689,5.656-2.122-.044-2.637.427-4.989,3.7-5.212,2.264-.155,3.249.817,4.242,4.043,1.38-.647,2.812-1.44,4.319-.626a5.175,5.175,0,0,1,1.859,1.779c1.177,1.919.6,3.251-2.446,6.041.493.517,1.025,1,1.474,1.558a3.625,3.625,0,0,1,.084,4.916,3.522,3.522,0,0,1-4.914.838,27.847,27.847,0,0,1-2.827-2.2,27.217,27.217,0,0,1-1.947,2.545c-1.607,1.681-3.418,1.854-5.137.616-1.7-1.225-2.077-3.02-1.05-5.083.217-.436.484-.847.727-1.267m7.459-.549a8.2,8.2,0,0,0,3.671,4.567,1.953,1.953,0,0,0,2.667-.43,1.819,1.819,0,0,0,.1-2.672,14.273,14.273,0,0,0-2.95-2.221c-1.2-.69-2.533-1.237-3.483.756m-4.71,6.032a4.091,4.091,0,0,0,.939-.416,6.194,6.194,0,0,0,2.451-3.864,2.9,2.9,0,0,0-1.358-2.566.783.783,0,0,0-.612.027,7.658,7.658,0,0,0-3.649,3.937,2.213,2.213,0,0,0,2.228,2.882m5.007-10.817a6.674,6.674,0,0,0-.079-5.034,1.882,1.882,0,0,0-2.035-1.171,1.872,1.872,0,0,0-1.88,1.408,6.554,6.554,0,0,0,.965,5.115l3.03-.318m1.355,1.527c2.538,1.065,3.135.985,4.782-.57a2.142,2.142,0,0,0,.788-2.622,2.015,2.015,0,0,0-2.018-1.389c-1.061.063-2.738,1.124-2.925,1.877-.217.879-.41,1.764-.628,2.7m-5.242.626a8.66,8.66,0,0,1-.826-1.465c-.571-1.755-2.038-1.913-3.487-1.887a2.308,2.308,0,0,0-1.537.947,1.849,1.849,0,0,0,.557,2.865c.957.663,1.988,1.434,3.236.936a11.6,11.6,0,0,0,2.058-1.4m2.639-.718c-.32.408-.659.653-.645.874s.366.45.569.673c.223-.2.588-.384.629-.62.037-.215-.276-.492-.554-.928" transform="translate(0 -118.492)" fill="#fff"/>
        <path id="Path_14609" data-name="Path 14609" d="M47.329,80.272c4.159.669,6.885-1.44,7.125-5.354.081-1.317.013-2.643.013-4.274a11.314,11.314,0,0,1-1.331.844,23.969,23.969,0,0,1-3.917,1.523c-2.709.6-4.844,2.207-4.236,5.312.062.314-.361.723-.558,1.089-.341-.28-.871-.5-.991-.85a5.322,5.322,0,0,1,2.646-6.133,8.55,8.55,0,0,1,2.461-.9,9.953,9.953,0,0,0,5.4-2.812c.795-.8,1.447-.637,1.708.454a16.1,16.1,0,0,1,.282,7.165,6.708,6.708,0,0,1-6.881,5.713,3.409,3.409,0,0,1-.915-.015,2.15,2.15,0,0,0-2.918,1.676c-.089.285-.735.4-1.124.588-.108-.426-.426-.942-.29-1.266a17.772,17.772,0,0,1,7.146-8.289c.282-.177.846.1,1.279.16-.157.412-.2.944-.49,1.215-1.165,1.1-2.414,2.1-3.613,3.168a8.337,8.337,0,0,0-.8.985" transform="translate(-33.249 -52.494)" fill="#fff"/>
        <path id="Path_14610" data-name="Path 14610" d="M199,198.9a6.7,6.7,0,0,1,1.59.034,1.04,1.04,0,0,1,.643.759,1,1,0,0,1-.643.743,22.2,22.2,0,0,1-3.3.008.994.994,0,0,1-.627-.752,1.024,1.024,0,0,1,.637-.754,8.226,8.226,0,0,1,1.7-.037" transform="translate(-151.336 -153.038)" fill="#fff"/>
      </g>
    </g>
  </g>
</svg>
