<svg xmlns="http://www.w3.org/2000/svg" xmlns:xlink="http://www.w3.org/1999/xlink" width="94" height="93" viewBox="0 0 94 93">
  <defs>
    <clipPath id="clip-path">
      <rect id="Rectangle_8278" data-name="Rectangle 8278" width="53.352" height="48.878" fill="#fff"/>
    </clipPath>
  </defs>
  <g id="Group_48974" data-name="Group 48974" transform="translate(0.378 -0.255)">
    <ellipse id="Ellipse_61" data-name="Ellipse 61" cx="47" cy="46.5" rx="47" ry="46.5" transform="translate(-0.378 0.255)" fill="#ed2023"/>
    <g id="Group_48983" data-name="Group 48983" transform="translate(19.946 22.316)">
      <g id="Group_48983-2" data-name="Group 48983" clip-path="url(#clip-path)">
        <path id="Path_14611" data-name="Path 14611" d="M32.925,16.081c0,.5,0,.937,0,1.377,0,.826-.283,1.211-.88,1.215s-.9-.394-.907-1.2c0-.462,0-.923,0-1.427H11.59c0,.524.005,1.037,0,1.55-.009.705-.336,1.087-.909,1.073-.548-.013-.866-.4-.875-1.06-.007-.463-.007-.926-.013-1.388,0-.033-.029-.066-.044-.1a5.091,5.091,0,0,0-4.613,3.7c-.354,1.242-.643,2.5-.955,3.758-.764,3.064-1.575,6.117-2.274,9.2a5.336,5.336,0,0,0,5.089,6.347c1.8.02,3.593,0,5.389,0,.7,0,1.086.328,1.072.9-.013.557-.382.866-1.056.867-1.852,0-3.7.014-5.555,0A7.134,7.134,0,0,1,.007,34.218,15.845,15.845,0,0,1,.8,29.707c.781-3.192,1.605-6.374,2.375-9.569A7.3,7.3,0,0,1,9.8,14.191c0-.852,0-1.735,0-2.617a11.359,11.359,0,0,1,1.33-5.381A11.557,11.557,0,0,1,32.759,9.572a16.354,16.354,0,0,1,.16,2.321c.026.756.006,1.514.006,2.273a17.161,17.161,0,0,1,1.854.437,6.969,6.969,0,0,1,4.664,5.09c.943,3.665,1.851,7.339,2.749,11.015a1.407,1.407,0,0,1-.091.991,1.139,1.139,0,0,1-.848.371c-.434,0-.661-.357-.763-.764q-.511-2.042-1.017-4.085c-.594-2.383-1.163-4.772-1.792-7.145a5.187,5.187,0,0,0-4.041-3.915,5.911,5.911,0,0,0-.716-.082M31.231,14.22A42.515,42.515,0,0,0,30.9,9.77a8.882,8.882,0,0,0-6.32-7.388A9.618,9.618,0,0,0,14.621,4.47a9.868,9.868,0,0,0-3.026,7.324c-.028.8,0,1.611,0,2.427Z" transform="translate(0 0)" fill="#fff"/>
        <path id="Path_14612" data-name="Path 14612" d="M164.136,306.378a8.061,8.061,0,0,1-15.578-1.782h-1.793c-.076.329-.146.646-.223.961a8,8,0,0,1-15.109,1.3.677.677,0,0,0-.72-.5,2.656,2.656,0,0,1-.015-5.311.675.675,0,0,0,.734-.478,7.691,7.691,0,0,1,7.924-4.8,7.777,7.777,0,0,1,7.289,6.556c.025.145.068.287.117.494h1.818a8.247,8.247,0,0,1,1.321-3.6,7.764,7.764,0,0,1,7.208-3.458,7.536,7.536,0,0,1,6.775,4.794.681.681,0,0,0,.717.5,2.547,2.547,0,0,1,2.593,2.609,2.615,2.615,0,0,1-2.572,2.709c-.166.006-.332,0-.488,0m-25.317-8.828a6.091,6.091,0,0,0-6.267,6.167,6.215,6.215,0,0,0,12.427.151,6.067,6.067,0,0,0-6.16-6.318m23.94,6.251a6.214,6.214,0,1,0-12.428-.072,6.214,6.214,0,0,0,12.428.072m1.811.738c.577-.073.876-.387.851-.873a.772.772,0,0,0-.851-.767Zm-33.832-1.7a.82.82,0,0,0-.817.911.784.784,0,0,0,.817.816Z" transform="translate(-113.843 -262.809)" fill="#fff"/>
        <path id="Path_14613" data-name="Path 14613" d="M102.92,209.451a8.929,8.929,0,0,1,.288,1.225,10.192,10.192,0,0,1,0,1.5.819.819,0,0,1-.861.824.8.8,0,0,1-.886-.742,13.537,13.537,0,0,1,0-2.051c.018-.243.236-.471.389-.754H81.423a4.363,4.363,0,0,1-.555-.01.885.885,0,0,1,.009-1.756,3.009,3.009,0,0,1,.388-.008h22.6c.685,0,1.047.244,1.115.742a.863.863,0,0,1-.826,1.027c-.239.017-.481,0-.722,0h-.514" transform="translate(-71.185 -184.554)" fill="#fff"/>
        <path id="Path_14614" data-name="Path 14614" d="M400.45,180.981c.013.649-.28,1.054-.767,1.057a2.992,2.992,0,0,0-2.676,2.741c-.05.291-.064.588-.1.882a.866.866,0,0,1-.872.828.878.878,0,0,1-.9-.863c-.035-.33-.051-.664-.114-.989a2.936,2.936,0,0,0-2.679-2.591.838.838,0,0,1-.748-.833.894.894,0,0,1,.718-.924,3.182,3.182,0,0,0,2.816-3.28,3.774,3.774,0,0,1,.015-.388.87.87,0,0,1,.926-.775.85.85,0,0,1,.844.8,8.838,8.838,0,0,0,.34,1.73,2.741,2.741,0,0,0,2.413,1.926c.494.05.765.327.788.682m-3.4.182L396.029,180,395,181.165l1.03,1.163,1.015-1.165" transform="translate(-347.989 -156.265)" fill="#fff"/>
        <path id="Path_14615" data-name="Path 14615" d="M328.65,53.789a.807.807,0,0,1-.741.761,3.035,3.035,0,0,0-2.732,2.919c-.031.238-.053.478-.08.716a.837.837,0,0,1-.873.814.883.883,0,0,1-.907-.857,7.647,7.647,0,0,0-.215-1.36,2.756,2.756,0,0,0-2.564-2.233.778.778,0,0,1-.754-.814.844.844,0,0,1,.7-.932,3.224,3.224,0,0,0,2.838-3.378c.011-.23.038-.543.184-.664a1.5,1.5,0,0,1,.891-.377.769.769,0,0,1,.7.74,9.268,9.268,0,0,0,.337,1.729,2.652,2.652,0,0,0,2.384,1.94c.523.041.822.383.832,1m-3.416-.115-1.013-1.163-1.03,1.162,1.031,1.163,1.013-1.161" transform="translate(-284.18 -42.997)" fill="#fff"/>
        <path id="Path_14616" data-name="Path 14616" d="M9.173,37.532a.8.8,0,0,1-.751.761,3.012,3.012,0,0,0-2.7,2.773c-.038.275-.062.551-.093.827a.857.857,0,0,1-.907.846c-.5-.012-.8-.351-.88-.889a8.2,8.2,0,0,0-.4-1.823,2.555,2.555,0,0,0-2.3-1.734A.84.84,0,0,1,.3,37.43a.88.88,0,0,1,.753-.9,2.949,2.949,0,0,0,2.681-2.594A9.37,9.37,0,0,0,3.848,33a.9.9,0,0,1,.859-.917c.513-.022.813.324.937.89A10.655,10.655,0,0,0,6.3,35.236a2.289,2.289,0,0,0,2,1.292.879.879,0,0,1,.868,1m-3.408-.116L4.75,36.249,3.722,37.414l1.029,1.162,1.014-1.161" transform="translate(-0.268 -28.515)" fill="#fff"/>
      </g>
    </g>
  </g>
</svg>
