<svg xmlns="http://www.w3.org/2000/svg" xmlns:xlink="http://www.w3.org/1999/xlink" width="93" height="93" viewBox="0 0 93 93">
  <defs>
    <clipPath id="clip-path">
      <rect id="Rectangle_8265" data-name="Rectangle 8265" width="46.704" height="56.323" fill="#fff"/>
    </clipPath>
  </defs>
  <g id="Group_48954" data-name="Group 48954" transform="translate(0.378 -0.086)">
    <circle id="Ellipse_61" data-name="Ellipse 61" cx="46.5" cy="46.5" r="46.5" transform="translate(-0.378 0.086)" fill="#ed2023"/>
    <g id="Group_48961" data-name="Group 48961" transform="translate(22.759 18.424)">
      <g id="Group_48960" data-name="Group 48960" clip-path="url(#clip-path)">
        <path id="Path_14591" data-name="Path 14591" d="M6.613,50.387H0V42.766H4.625V40.851c0-7.226-.034-14.452.009-21.678C4.689,9.9,10.412,2.564,19.105.51A18.65,18.65,0,0,1,42.058,18.481c.1,7.445.02,14.893.021,22.339v1.928H46.7v7.625H39.921c.828,2.108,1.085,4.009-.984,5.361a3.142,3.142,0,0,1-3.836-.181c-1.41-1.032-1.619-2.412-.783-5.029H12.037c.936,1.932,1.062,3.767-.863,5.134a3.078,3.078,0,0,1-3.968-.127c-1.7-1.36-1.618-3.089-.594-5.146M39.457,42.55l.67.278a4.809,4.809,0,0,0,.552-1.5c.035-7.447.12-14.9,0-22.342-.161-9.909-6.729-16.774-16.541-17.51C14.892.782,6.393,8.281,6.17,17.592c-.191,7.994-.071,16-.077,23.995a6.72,6.72,0,0,0,.173,1.084l.566.052c.79-2.084-.016-4.409.5-6.754h4.311a18.723,18.723,0,0,1-.724-3.488c-.035-3.418.067-6.839.161-10.258.07-2.55,1.5-3.9,4.072-3.936,1.142-.014,2.284,0,3.393,0,.536-2.632,1.658-3.907,3.614-3.987,4.991-.2,5.638.207,6.991,4.251,1.051,0,2.146-.028,3.24.006a3.59,3.59,0,0,1,3.754,3.886c.021,2.317.025,4.635-.053,6.95-.072,2.154-.259,4.3-.4,6.545l3.768.174ZM1.3,48.956H45.309V44.182H1.3Zm17-13.585h10.55V19.911H18.3Zm-5.988,6.8H34.366V37.482H12.313ZM16.83,19.935c-2.99-.722-4.632.125-4.446,3.449a66.84,66.84,0,0,1-.076,8.585c-.215,2.943,1.426,4.03,4.521,3.2ZM30.384,35.413c3.537.451,4.179-.1,4.231-3.511.043-2.862.113-5.723.159-8.585.049-3.005-1.236-3.967-4.39-3.152Zm-3.152-17.18c-.063-2.182-.942-2.7-4.317-2.621-1.912.043-2.72.816-2.687,2.621ZM39.171,52.81a2,2,0,0,0-2.109-2.017,1.924,1.924,0,0,0-1.9,2.059,1.893,1.893,0,0,0,1.937,2,1.971,1.971,0,0,0,2.068-2.046m-27.889-.041a1.984,1.984,0,0,0-2.045-1.981,2.039,2.039,0,1,0,.069,4.078,1.968,1.968,0,0,0,1.976-2.1M8.58,42.177h2.16v-4.7H8.58Zm27.361-.019h2V37.465h-2Z" transform="translate(0 0)" fill="#fff"/>
        <path id="Path_14592" data-name="Path 14592" d="M31.829,138.537h3.089q11.587,0,23.174.007c.761,0,1.825-.266,1.4,1.331-.431.032-.9.1-1.371.1q-12.491.009-24.982,0c-.852,0-1.918.2-1.31-1.439" transform="translate(-21.168 -92.65)" fill="#fff"/>
      </g>
    </g>
  </g>
</svg>
