<svg xmlns="http://www.w3.org/2000/svg" xmlns:xlink="http://www.w3.org/1999/xlink" width="93" height="93" viewBox="0 0 93 93">
  <defs>
    <clipPath id="clip-path">
      <rect id="Rectangle_8276" data-name="Rectangle 8276" width="59.616" height="46.605" fill="#fff"/>
    </clipPath>
  </defs>
  <g id="Group_48972" data-name="Group 48972" transform="translate(0.212 -0.086)">
    <circle id="Ellipse_61" data-name="Ellipse 61" cx="46.5" cy="46.5" r="46.5" transform="translate(-0.212 0.086)" fill="#ed2023"/>
    <g id="Group_48980" data-name="Group 48980" transform="translate(16.48 23.284)">
      <g id="Group_48979" data-name="Group 48979" clip-path="url(#clip-path)">
        <path id="Path_14605" data-name="Path 14605" d="M33.8,10.33c-1.076-1.053-2.121-2.074-3.164-3.1q-.46-.452-.909-.915a.839.839,0,0,1-.061-1.287C30.519,4,31.388,2.972,32.251,1.943c.435-.518.872-1.034,1.3-1.558A.974.974,0,0,1,34.358,0q6.87.006,13.74,0a.929.929,0,0,1,.759.35q1.912,2.287,3.828,4.572c.5.6.478.939-.082,1.5l-3.724,3.752c-.058.059-.111.123-.166.185.673.365,1.349.692,1.984,1.084a18.228,18.228,0,0,1,8.468,11.7,17.957,17.957,0,0,1,.377,5.7A18.394,18.394,0,0,1,44.695,45.321a18.07,18.07,0,0,1-11.889-1.7c-.657-.337-1.279-.743-1.905-1.136a.282.282,0,0,0-.391.021,18.735,18.735,0,0,1-13.383,4.027A18.216,18.216,0,0,1,8.9,43.794a18.676,18.676,0,0,1-7.491-8.847,18.081,18.081,0,0,1-1.4-7.6A18.477,18.477,0,0,1,6.135,13.922a18.3,18.3,0,0,1,8.544-4.469,19.335,19.335,0,0,1,5.73-.363,18.067,18.067,0,0,1,7.4,2.212c.667.364,1.293.8,1.934,1.217.123.079.209.153.362.035a18.043,18.043,0,0,1,3.5-2.1,2.118,2.118,0,0,0,.19-.128m-7.188,5.687A14.151,14.151,0,1,0,27.2,39.185a18.508,18.508,0,0,1-.589-23.168m7.126,23.217A14.153,14.153,0,0,0,51.012,17a14.035,14.035,0,0,0-17.887-1.369A18.494,18.494,0,0,1,37.581,27.3a18.7,18.7,0,0,1-3.847,11.932m-5.361,1.2a15.545,15.545,0,0,1-11.591,3.076,15.354,15.354,0,0,1-10.42-5.918,15.828,15.828,0,0,1,21.42-22.824,15.335,15.335,0,0,1,6.368,9.19,15.761,15.761,0,0,1-2.764,13.493l.943.824A17.211,17.211,0,1,0,29.3,41.284l-.931-.848M27.962,17c-.237.332-.455.613-.645.91-.288.45-.579.9-.83,1.37a16.279,16.279,0,0,0-1.406,12.351,16.253,16.253,0,0,0,9,10.736,16.06,16.06,0,0,0,12.1.855,16.754,16.754,0,0,0,11.6-18.353,16.859,16.859,0,0,0-10.141-13.1.419.419,0,0,0-.338.008,8.136,8.136,0,0,0-.66.538A15.856,15.856,0,1,1,34,41.329a15.2,15.2,0,0,1-7.851-9.254A15.66,15.66,0,0,1,28.606,17.6l-.643-.6m1.793,1.888a14.182,14.182,0,0,0,.456,17.272,14.049,14.049,0,0,0-.456-17.272M48.022,1.956l-4.053,2.8L44,4.822h6.426l-2.4-2.866M38.41,4.8l.02-.064L34.412,1.956,32.039,4.8Zm5.861,6.837c.579.236.579.236.959-.147.6-.6,1.188-1.208,1.793-1.8.525-.515,1.064-1.015,1.6-1.522l-.078-.094c-.079.025-.159.046-.235.077-.9.371-1.793.759-2.7,1.107a.923.923,0,0,0-.571.593c-.06.16-.118.321-.185.478-.186.43-.377.859-.576,1.309M34.092,8.254l-.025.04c.053.063.1.129.159.187Q35.732,10,37.24,11.52c.344.346.418.355.9.109-.2-.482-.419-.959-.6-1.452a1.124,1.124,0,0,0-.752-.75c-.374-.126-.727-.315-1.09-.474q-.8-.351-1.607-.7m6.28-6.55H36.985l3.387,2.34ZM45.457,1.7H42.074V4.04L45.457,1.7M34.413,6.5l-.006.071c1.056.463,2.111.93,3.171,1.383a.342.342,0,0,0,.3-.063c.26-.239.5-.5.747-.753.188-.2.371-.4.6-.638Zm-3.134,7.246.6.565,3.835-2.055a3.893,3.893,0,0,1-.5-.412.314.314,0,0,0-.443-.072c-.79.411-1.589.8-2.369,1.23-.382.209-.73.479-1.127.745M42.067,7.559v3.834c.332.1.531.039.66-.3.24-.64.533-1.261.793-1.894.034-.083.046-.235,0-.282-.456-.444-.928-.871-1.45-1.354m-1.695.31c-.438.406-.9.823-1.341,1.255a.326.326,0,0,0-.012.281c.226.555.466,1.1.7,1.655.178.418.178.418.652.31Zm7.364-1.29-.016-.048H43.415c.446.415.842.792,1.25,1.157a.3.3,0,0,0,.256.051c.941-.38,1.878-.771,2.816-1.16" transform="translate(0 -0.001)" fill="#fff"/>
      </g>
    </g>
  </g>
</svg>
