<svg xmlns="http://www.w3.org/2000/svg" xmlns:xlink="http://www.w3.org/1999/xlink" width="94" height="93" viewBox="0 0 94 93">
  <defs>
    <clipPath id="clip-path">
      <rect id="Rectangle_8275" data-name="Rectangle 8275" width="52.461" height="58.74" fill="#fff"/>
    </clipPath>
  </defs>
  <g id="Group_48976" data-name="Group 48976" transform="translate(0.45 -0.255)">
    <ellipse id="Ellipse_61" data-name="Ellipse 61" cx="47" cy="46.5" rx="47" ry="46.5" transform="translate(-0.45 0.255)" fill="#ed2023"/>
    <g id="Group_48978" data-name="Group 48978" transform="translate(20.071 17.297)">
      <g id="Group_48977" data-name="Group 48977" clip-path="url(#clip-path)">
        <path id="Path_14600" data-name="Path 14600" d="M37.572,345.331c.867-.724,1.726-1.509,2.656-2.2a6.3,6.3,0,0,1,3.956-1.368,3.067,3.067,0,0,1,2.29.937,1.389,1.389,0,0,1-.194,2.2c-1.348,1.2-2.681,2.417-3.958,3.689-1.763,1.756-3.471,3.567-5.2,5.359-1.9,1.97-3.782,3.952-5.683,5.918a19.92,19.92,0,0,1-2.2,2.14,11.954,11.954,0,0,1-2.406,1.281c-2.883,1.271-5.759,2.563-8.68,3.74-2.607,1.05-5.256,2-7.914,2.915-1.48.51-3.013.865-4.525,1.28-.558.153-.893-.02-.952-.456a.615.615,0,0,1,.548-.732,72.556,72.556,0,0,0,12.508-4.209c3.117-1.285,6.179-2.7,9.294-3.989a8.753,8.753,0,0,0,2.871-2.255c3.962-4.082,7.9-8.192,11.867-12.264,1.219-1.25,2.528-2.411,3.826-3.643a1.763,1.763,0,0,0-1.522-.677,4.648,4.648,0,0,0-3.047,1.035c-1.282,1.017-2.5,2.125-3.7,3.239a47.211,47.211,0,0,1-8.611,6.586,18.861,18.861,0,0,1-6.429,2.457,8.257,8.257,0,0,1-2.688.046,2.328,2.328,0,0,1-1.567-3.775,10.359,10.359,0,0,1,2.427-2.12,6.449,6.449,0,0,0,2.666-3.76,2.986,2.986,0,0,0-1.185-3.208c-.291.27-.593.542-.885.825-2.024,1.96-4.018,3.951-6.076,5.874-1.616,1.51-3.3,2.949-4.972,4.4a23.076,23.076,0,0,0-4.226,4.494,3.171,3.171,0,0,0-.449.912,2.017,2.017,0,0,0-.027.941A2.01,2.01,0,0,1,4.6,363a8.39,8.39,0,0,1-3.9,1.357.556.556,0,0,1-.69-.481c-.051-.362.116-.592.52-.705.852-.238,1.708-.461,2.554-.717a2.673,2.673,0,0,0,.685-.365.755.755,0,0,0,.361-1.013,2.952,2.952,0,0,1,.49-2.3,16.339,16.339,0,0,1,3.291-3.853c2.884-2.639,5.811-5.231,8.686-7.88,1.508-1.389,2.94-2.861,4.412-4.29a1.3,1.3,0,0,1,2.1.02c1.773,1.7,1.8,3.648.7,5.848a8.793,8.793,0,0,1-2.872,3.1,9.817,9.817,0,0,0-1.77,1.566,1.142,1.142,0,0,0,.866,1.93,9.355,9.355,0,0,0,3.483-.407.652.652,0,0,0,.329-.327,64.051,64.051,0,0,1,4.668-7.751,5.828,5.828,0,0,1,3.575-2.686,1.341,1.341,0,0,0,.991-.747,5.712,5.712,0,0,1,2.833-2.565A2.152,2.152,0,0,1,37.7,340.7a1.721,1.721,0,0,1,.794,2.151c-.275.851-.622,1.679-.923,2.478m-7.018,5.8.142.112c.936-.726,1.886-1.434,2.8-2.184a4.948,4.948,0,0,0,1.5-1.481c.368-.731.783-1.44,1.128-2.181q.619-1.334,1.14-2.712a.948.948,0,0,0-.048-.791c-.11-.136-.513-.117-.752-.048a3.215,3.215,0,0,0-1.754,1.285,22.363,22.363,0,0,0-1.577,2.624c-.9,1.774-1.725,3.583-2.582,5.377m1.375-5.788a4.7,4.7,0,0,0-1.98,1.525,56.717,56.717,0,0,0-4.378,6.961,1.221,1.221,0,0,0-.073.231l.076.079c.916-.479,1.824-.974,2.751-1.429a1.442,1.442,0,0,0,.7-.843c.687-1.633,1.4-3.256,2.111-4.878.233-.529.5-1.043.8-1.646" transform="translate(0 -312.534)" fill="#fff"/>
        <path id="Path_14601" data-name="Path 14601" d="M120.118,21.128a20.114,20.114,0,0,0,4.469,12.884c.307.384.327.779.04,1.021s-.645.188-.983-.223a20.546,20.546,0,0,1-2.757-4.4,20.307,20.307,0,0,1-1.743-5.737,21.933,21.933,0,0,1,.162-7.428A21.283,21.283,0,0,1,129.669,2.83,18.577,18.577,0,0,1,134.022.96a33.663,33.663,0,0,1,4-.806A18.506,18.506,0,0,1,143.665.3a21.06,21.06,0,0,1,10.107,4.57,21.24,21.24,0,0,1,6.348,8.718,21.349,21.349,0,0,1-2.7,20.462,21.244,21.244,0,0,1-7.24,6.23c-.165.088-.382.223-.523.177a1,1,0,0,1-.565-.436c-.151-.314.052-.574.339-.742.578-.338,1.172-.649,1.734-1.011a20.1,20.1,0,0,0,9.151-18.276,19.726,19.726,0,0,0-2.808-8.94A20.061,20.061,0,0,0,139.526,1.28,19.678,19.678,0,0,0,129.21,4.56a20.126,20.126,0,0,0-6.086,6.219,19.8,19.8,0,0,0-2.866,8.2c-.1.8-.107,1.61-.14,2.147" transform="translate(-109.133 0)" fill="#fff"/>
        <path id="Path_14602" data-name="Path 14602" d="M188.656,197.091v7.861h-2.194V194.1c.925,0,1.836-.006,2.747.01.085,0,.194.134.247.231a62.771,62.771,0,0,1,3.705,7.016,2.367,2.367,0,0,0,.162.26c-.053-1.323-.12-2.55-.145-3.778s-.005-2.458-.005-3.716h2.257v10.853c-.807,0-1.6.006-2.388-.008a.388.388,0,0,1-.273-.178c-.81-1.454-1.622-2.908-2.407-4.375-.6-1.115-1.156-2.249-1.707-3.326" transform="translate(-171.139 -178.149)" fill="#fff"/>
        <path id="Path_14603" data-name="Path 14603" d="M459.583,197.648a5.465,5.465,0,0,1-1.362,3.687,5.2,5.2,0,0,1-5.141,1.5,4.5,4.5,0,0,1-3.565-3.207,6.176,6.176,0,0,1,1-6.18,4.835,4.835,0,0,1,4.194-1.726,4.712,4.712,0,0,1,4.066,2.3,6.254,6.254,0,0,1,.811,3.619m-7.862.01a12.477,12.477,0,0,0,.355,1.6,2.352,2.352,0,0,0,1.943,1.727,2.166,2.166,0,0,0,2.4-1.205,4.962,4.962,0,0,0-.037-4.9,2.293,2.293,0,0,0-4.105.128,6.044,6.044,0,0,0-.552,2.658" transform="translate(-412.202 -175.964)" fill="#fff"/>
        <path id="Path_14604" data-name="Path 14604" d="M324.777,192.9l-.47,1.828a23.5,23.5,0,0,0-2.579-.305c-2.91-.031-4.015,2.24-3.468,4.56.514,2.182,2.5,2.772,4.277,2.4.088-.018.217-.144.219-.222.017-.695.01-1.39.01-2.113h-1.651v-1.893h4c.007.088.018.167.018.246,0,1.711,0,3.422,0,5.133,0,.215-.032.36-.27.425a10.467,10.467,0,0,1-5.778.188,4.589,4.589,0,0,1-3.365-3.605,6.245,6.245,0,0,1,.178-3.592,4.956,4.956,0,0,1,2.818-2.98,8.111,8.111,0,0,1,5.769-.193c.077.024.149.064.284.123" transform="translate(-289.615 -176.533)" fill="#fff"/>
      </g>
    </g>
  </g>
</svg>
