<svg xmlns="http://www.w3.org/2000/svg" xmlns:xlink="http://www.w3.org/1999/xlink" width="93" height="93" viewBox="0 0 93 93">
  <defs>
    <clipPath id="clip-path">
      <rect id="Rectangle_8264" data-name="Rectangle 8264" width="55.813" height="55.712" fill="#fff"/>
    </clipPath>
  </defs>
  <g id="Group_48954" data-name="Group 48954" transform="translate(0.157 -0.141)">
    <circle id="Ellipse_61" data-name="Ellipse 61" cx="46.5" cy="46.5" r="46.5" transform="translate(-0.157 0.141)" fill="#ed2023"/>
    <g id="Group_48959" data-name="Group 48959" transform="translate(18.633 18.785)">
      <g id="Group_48958" data-name="Group 48958" clip-path="url(#clip-path)">
        <path id="Path_14584" data-name="Path 14584" d="M37.379,224.252c-4.793,1.629-9.76,1.359-14.652,1.738-2.024.157-4.054.235-6.078.389a2.917,2.917,0,0,1-2-.569c-4.414-3.055-8.853-6.076-13.286-9.1a2.766,2.766,0,0,1-1.355-2.648,2.578,2.578,0,0,1,1.717-2.309,7.751,7.751,0,0,1,1.152-.266,10.018,10.018,0,0,1,.438-1.737,2.709,2.709,0,0,1,4.294-.846c.642.574,1.2,1.245,1.759,1.84.166-.067.248-.075.259-.108a2.472,2.472,0,0,1,4.376-.664,15.151,15.151,0,0,0,1.261,1.272c.352.346.748.722.3,1.211-.478.527-.844.087-1.187-.256-.507-.507-1.019-1.009-1.52-1.522s-1.074-.689-1.643-.142a1.034,1.034,0,0,0,.027,1.585c.75.851,1.5,1.7,2.245,2.558.31.358.727.731.229,1.222s-.862.094-1.2-.252q-2.747-2.766-5.487-5.539a1.565,1.565,0,0,0-1.764-.536,1.447,1.447,0,0,0-.624,2.284,4.985,4.985,0,0,0,1.294,1.075c2.439,1.44,4.9,2.844,7.351,4.263a1.9,1.9,0,0,1,.66.444.978.978,0,0,1,.132.775c-.055.142-.448.223-.68.2a1.766,1.766,0,0,1-.63-.313q-4.51-2.563-9.019-5.129a1.515,1.515,0,0,0-2.21.316,1.435,1.435,0,0,0,.569,2.14q6.634,4.565,13.3,9.089a2.15,2.15,0,0,0,1.248.34c5.482-.335,10.965-.666,16.44-1.1a28.9,28.9,0,0,0,4.012-.894c-.166-.738-.294-1.365-.449-1.985-.463-1.849-.9-3.7-1.429-5.535a2.89,2.89,0,0,0-.848-1.265,28.614,28.614,0,0,0-2.269-1.744,3.259,3.259,0,0,0-3.037-.561c-3.585,1.106-7.179,2.183-10.767,3.279-.731.223-1.41.635-1.274,1.478a2.733,2.733,0,0,0,.915,1.371c.183.169.684.094,1,0,2.914-.854,5.82-1.736,8.728-2.611a2.865,2.865,0,0,1,.939-.258,2.789,2.789,0,0,1,.878.4c-.178.269-.3.677-.544.781a22.588,22.588,0,0,1-2.212.7c-2.507.764-5.011,1.537-7.521,2.289a2.574,2.574,0,0,1-2.892-.892,2.454,2.454,0,0,1-.292-3,3.3,3.3,0,0,1,1.573-1.338c3.644-1.21,7.318-2.33,10.992-3.446a4.727,4.727,0,0,1,4.4.84l1.421,1.064-.143-.925a1.581,1.581,0,0,1,1.154-1.864c2.36-.625,4.726-1.23,7.1-1.8a1.626,1.626,0,0,1,2.207,1.352c.7,2.739,1.376,5.487,2.084,8.225.121.468.14.855-.391,1s-.728-.2-.846-.663c-.669-2.657-1.381-5.3-2.017-7.967-.162-.678-.451-.805-1.06-.646q-3.154.822-6.318,1.6c-.544.134-.713.378-.565.951q1.589,6.14,3.125,12.294c.145.576.362.755,1,.575,2.093-.587,4.2-1.109,6.319-1.609.626-.148.8-.422.586-1a1.066,1.066,0,0,1-.105-.605c.081-.25.25-.6.449-.649a.827.827,0,0,1,.7.345c.864,1.5.3,2.726-1.4,3.161-1.961.5-3.92,1.013-5.881,1.513-1.942.494-2.321.294-3.043-1.667" transform="translate(0 -170.676)" fill="#fff"/>
        <path id="Path_14585" data-name="Path 14585" d="M170.069,68.541a1.973,1.973,0,0,1-2-1.268c-.595-1.2-1.049-1.415-2.326-1.053a1.3,1.3,0,0,0-.627.657c-.2.393-.265.858-.467,1.252a1.934,1.934,0,0,1-2.408.836c-.8-.241-1.584-.518-2.373-.787-1.4-.476-1.936-1.4-1.4-2.756a1.577,1.577,0,0,0-.611-2.18,1.214,1.214,0,0,0-1.518-.078c-1.732.892-2.553.611-3.433-1.133-.323-.639-.657-1.273-.961-1.922a1.92,1.92,0,0,1,.982-2.815c.615-.32,1.294-.486,1.216-1.5a1.553,1.553,0,0,0-1.31-1.68c-1.533-.406-1.962-1.352-1.486-2.862.233-.738.477-1.473.727-2.2a1.923,1.923,0,0,1,2.779-1.385c.668.207,1.216.495,1.881-.273a1.571,1.571,0,0,0,.225-2.115,1.945,1.945,0,0,1,.969-3.014c.742-.382,1.48-.774,2.235-1.13a1.847,1.847,0,0,1,2.744.954c.431,1,.959,1.447,2.1,1.18a1.1,1.1,0,0,0,.986-.831,4.441,4.441,0,0,1,.668-1.44,1.682,1.682,0,0,1,1.933-.569c.966.3,1.933.608,2.884.957a1.834,1.834,0,0,1,1.183,2.438c-.05.172-.105.342-.16.512a1.9,1.9,0,0,0,1.243,2.225,1.677,1.677,0,0,0,.906-.268c1.813-.889,2.613-.632,3.517,1.161q.4.8.8,1.6c.771,1.563.513,2.467-1.043,3.187a1.472,1.472,0,0,0-.987,1.727,1.359,1.359,0,0,0,1.163,1.329c1.689.5,2.1,1.369,1.558,3.04-.221.68-.427,1.365-.657,2.042a1.988,1.988,0,0,1-2.778,1.437c-1.316-.4-1.825-.225-2.414.964-.125.252.021.665.1.987a6.675,6.675,0,0,1,.472,1.679,1.874,1.874,0,0,1-.665,1.359,31.984,31.984,0,0,1-3.246,1.685.984.984,0,0,1-.4.057m2.04-5.431a4.512,4.512,0,0,1,2.629-3.027,2.34,2.34,0,0,1,.886.034c1.795.412,1.793.419,2.395-1.382.028-.085.074-.163.1-.248.5-1.5.5-1.5-1-2.024-1.6-.555-2.266-3.557-1.059-4.761a2.259,2.259,0,0,1,.28-.222c.536-.386,1.422-.7,1.519-1.175.109-.535-.493-1.214-.786-1.831-.025-.054-.05-.108-.077-.161-.637-1.253-.637-1.253-1.892-.636a3.209,3.209,0,0,1-4.23-2.372,5.089,5.089,0,0,1,.389-1.722c.152-.5.041-.8-.48-.948-.544-.155-1.077-.348-1.615-.523-1.407-.457-1.407-.457-1.868.881a3.364,3.364,0,0,1-4.544,1.4,2.945,2.945,0,0,1-.58-.668,2.688,2.688,0,0,1-.332-.631c-.274-.748-.68-.987-1.415-.5a14.642,14.642,0,0,1-1.507.776c-1.059.536-1.059.536-.532,1.6A3.038,3.038,0,0,1,156.72,49.2a4.265,4.265,0,0,1-2.155-.166c-.653-.158-1.022-.1-1.186.61-.113.49-.318.959-.477,1.439-.459,1.385-.458,1.385.9,1.849a3.316,3.316,0,0,1,1.39,4.55,3.337,3.337,0,0,1-.811.679,4.652,4.652,0,0,1-.789.412c-.491.213-.59.524-.331.993.316.573.6,1.163.9,1.745.557,1.084.567,1.1,1.67.515a2.068,2.068,0,0,1,2.363-.1c1.521,1.23,2.645,1.569,1.62,4.116a.631.631,0,0,0,.433.968,21.19,21.19,0,0,0,2.384.741c.255.054.639-.207.87-.425.174-.164.2-.486.288-.739.563-1.616,3.473-2.348,4.716-1.175a2.92,2.92,0,0,1,.464.652,8.678,8.678,0,0,1,.4.8.628.628,0,0,0,1,.328,21.13,21.13,0,0,1,1.907-.971c.718-.3.877-.69.483-1.378a13.546,13.546,0,0,1-.655-1.532" transform="translate(-124.064 -33.096)" fill="#fff"/>
        <path id="Path_14586" data-name="Path 14586" d="M71.141,106.359c-.3-.017-.535-.047-.768-.04-.5.017-1.12-.109-1.475.136-.26.18-.184.855-.245,1.312-.142,1.078-1.074,1.245-1.839,1.6a1.555,1.555,0,0,1-1.75-.26c-.272-.22-.516-.474-.825-.76l-1.7,1.789a2.424,2.424,0,0,1,1,3.02c-.521,1.411-1.55,1.467-2.78,1.526,0,.384-.005.7,0,1.022.026,1.348.026,1.364,1.347,1.465,1.049.08,1.29.91,1.644,1.665a1.68,1.68,0,0,1-.183,1.923c-.223.272-.474.521-.763.836l1.737,1.66a1.991,1.991,0,0,0,.361-.279c1.131-1.435,2.131-1.024,3.536-.182.385.231.533,1.013.606,1.567s.243.813.823.736a3.588,3.588,0,0,1,.805-.019c.719.068,1.042-.183.947-.957-.155-1.27.789-1.654,1.722-2.057a1.723,1.723,0,0,1,2.107.436c.163.168.349.313.532.474l1.739-1.622a8.37,8.37,0,0,1-1.069-1.434c-.115-.25.129-.665.21-1,.321.117.646.226.96.359.068.029.085.159.149.217.654.593,1.49,1.313.991,2.177a9.808,9.808,0,0,1-2.388,2.556c-.624.5-1.317.026-1.825-.474a.949.949,0,0,0-1.241-.256c-.53.245-.56.586-.556,1.063.01,1.329-.479,1.8-1.832,1.84-.6.016-1.195.032-1.792.02a1.476,1.476,0,0,1-1.606-1.617c-.014-.509.037-.934-.631-1.189s-.91.078-1.273.443a1.614,1.614,0,0,1-2.453.027c-.418-.382-.82-.784-1.222-1.185a1.59,1.59,0,0,1-.089-2.561c.334-.369.59-.643.32-1.228-.26-.564-.611-.612-1.12-.609-1.279.007-1.767-.489-1.8-1.774-.016-.6-.036-1.194-.027-1.791a1.488,1.488,0,0,1,1.655-1.661c.467-.019.878.051,1.131-.584s0-.907-.381-1.285a1.62,1.62,0,0,1-.036-2.515c.366-.394.743-.777,1.119-1.16a1.6,1.6,0,0,1,2.624-.093.971.971,0,0,0,1.243.275c.53-.241.565-.588.564-1.061,0-1.349.471-1.814,1.819-1.843.6-.013,1.194-.062,1.79-.045a1.48,1.48,0,0,1,1.613,1.623c.007.567,0,1.038.709,1.233.191.052.407.613.331.85-.063.2-.56.4-.826.363-1.04-.164-1.442-.674-1.544-1.764-.027-.292-.057-.584-.089-.908" transform="translate(-48.763 -86.139)" fill="#fff"/>
        <path id="Path_14587" data-name="Path 14587" d="M101.29,10.621l.683,1.463c2.46-.621,3.559.379,2.985,2.707.258.1.523.223.795.32.247.089.5.155.808.247.294-.895.684-1.691,1.788-1.517.258.041.478.321.716.492-.19.22-.371.448-.574.656-.225.231-.552.4-.69.672a1.344,1.344,0,0,1-1.8.853c-.4-.117-.786-.279-1.176-.427-1.089-.416-1.3-.873-1.034-1.991a1.013,1.013,0,0,0-.2-.805.856.856,0,0,0-.746-.1c-1.141.392-1.6.221-2.135-.883-.169-.349-.348-.693-.5-1.049a1.331,1.331,0,0,1,.642-1.882c.254-.163.559-.487.558-.736,0-.232-.334-.548-.6-.68A1.355,1.355,0,0,1,100,6.076c.121-.368.253-.732.387-1.095.4-1.088.844-1.293,1.987-1.04a1.052,1.052,0,0,0,.827-.21.888.888,0,0,0,.079-.762c-.375-1.109-.206-1.592.824-2.095Q104.625.62,105.161.4a1.339,1.339,0,0,1,1.955.624c.164.257.5.575.741.563s.485-.386.7-.626c.114-.128.135-.342.254-.461,1.069-1.07,2.064-.116,3.048.176.743.221.9.883.743,1.612-.243,1.135.035,1.376,1.181,1.035a1.874,1.874,0,0,1,.441-.07c.891-.041,1.578.785,2.011,2.412a1.328,1.328,0,0,1-.791,1.608c-.257.151-.417.458-.657.648-.207.164-.512.408-.689.352a.883.883,0,0,1-.435-.656c-.09-.944.7-1.209,1.406-1.586l-.718-1.5c-2.384.69-3.42-.264-2.985-2.727L109.9,1.269c-1.391,2.127-2.729,2.2-4.062.184l-1.544.721a1.891,1.891,0,0,1-.276,2.617c-.7.734-1.439.527-2.309.271l-.6,1.532c2.193,1.323,2.271,2.821.178,4.027" transform="translate(-81.972 -0.001)" fill="#fff"/>
        <path id="Path_14588" data-name="Path 14588" d="M104.8,146.5a4.029,4.029,0,1,1-3.871-4.087A3.972,3.972,0,0,1,104.8,146.5m-4.057,2.72A2.779,2.779,0,1,0,98,146.447a2.88,2.88,0,0,0,2.737,2.773" transform="translate(-79.395 -116.878)" fill="#fff"/>
        <path id="Path_14589" data-name="Path 14589" d="M134.543,31.684a3.136,3.136,0,0,1-3.141,3.2,3.233,3.233,0,0,1-3.272-3.2,3.2,3.2,0,0,1,3.225-3.232,3.12,3.12,0,0,1,3.188,3.231m-5.25-.007a2.085,2.085,0,0,0,2.042,2.062,2.083,2.083,0,1,0-.039-4.165,2.1,2.1,0,0,0-2,2.1" transform="translate(-105.156 -23.351)" fill="#fff"/>
        <path id="Path_14590" data-name="Path 14590" d="M212.2,96.154a5.315,5.315,0,1,1-5.234-5.357,5.253,5.253,0,0,1,5.234,5.357m-5.263-4.025a4.067,4.067,0,0,0-4.086,4,4.044,4.044,0,0,0,8.088.087,4.056,4.056,0,0,0-4-4.085" transform="translate(-165.431 -74.517)" fill="#fff"/>
      </g>
    </g>
  </g>
</svg>
