<svg xmlns="http://www.w3.org/2000/svg" xmlns:xlink="http://www.w3.org/1999/xlink" width="515.815" height="164.363" viewBox="0 0 515.815 164.363">
  <defs>
    <linearGradient id="linear-gradient" x1="0.5" x2="0.5" y2="1" gradientUnits="objectBoundingBox">
      <stop offset="0" stop-color="#002e54"/>
      <stop offset="1" stop-color="#092f87"/>
    </linearGradient>
  </defs>
  <g id="Group_288" data-name="Group 288" transform="translate(-152 -2854.145)">
    <g id="Group_286" data-name="Group 286" transform="translate(152 2941.412)">
      <path id="Path_512" data-name="Path 512" d="M764.863,28.515c2,.64,1.835,11.629,2.214,13.87l3.271-6.493c8.148-13.359,28.567-9.853,29.519,6.5,2.159-2.56,2.811-5.805,5.056-8.5,7.288-8.74,22.862-8.329,27.635,2.6,2.834,6.491,2.854,18.955,3.273,26.365.456,8.061.034,16.345,1.235,24.3h-21.44A32.941,32.941,0,0,0,815,83.688c-.906-9.985-.346-20.866-1.274-30.886-.37-3.99-1.032-9.7-6.44-9.043-2.643.322-5.532,4.1-5.532,6.511V87.159h-21.44V48.378c0-2.336-3.782-5.18-6.474-4.621-2.729.566-5.507,5.352-5.507,7.774V87.159H747.522c-.594-19.527,1.725-39.5-2.522-58.644Z" transform="translate(-556.456 -11.489)" fill="url(#linear-gradient)"/>
      <path id="Path_513" data-name="Path 513" d="M550.809,2c-.105,10.326.58,20.7-1.255,30.9l3.633-6.762c5.774-9.657,23.021-11.009,28.444-.41,3.785,7.4,4.107,32.091,4.516,41.516.15,3.455-.628,7.212.6,10.43h-21.44a32.952,32.952,0,0,0-.627-3.471c-.909-10.022-.368-20.841-1.274-30.886-.374-4.152-1.81-10.7-7.585-8.88-2.557.807-5.017,5.864-5.017,8.24v35H530V2Z" transform="translate(-477.031 -2.001)" fill="url(#linear-gradient)"/>
      <path id="Path_514" data-name="Path 514" d="M1194.809,2c-.105,10.326.58,20.7-1.255,30.9l3.633-6.762c5.774-9.657,23.021-11.009,28.445-.41,3.785,7.4,4.107,32.091,4.516,41.516.15,3.455-.628,7.212.6,10.43h-21.44a32.8,32.8,0,0,0-.627-3.471c-.908-10.022-.368-20.841-1.274-30.886-.374-4.152-1.81-10.7-7.585-8.88-2.557.807-5.017,5.864-5.017,8.24v35H1174V2Z" transform="translate(-714.937 -2.001)" fill="url(#linear-gradient)"/>
      <path id="Path_515" data-name="Path 515" d="M1052.644,87.242h-20.809c-.158-.958-.534-1.844-.634-2.828-1.01-9.929-.353-20.892-1.268-30.9-.381-4.162-1.561-11.411-7.585-9.512-2.237.706-5.017,5.564-5.017,7.61V87.242H996.522c-.595-19.527,1.725-39.5-2.522-58.644h19.863c1.778,0,1.98,11.976,2.213,13.87l4.717-8.2c5.878-8.075,21.236-8.8,26.7-.207,5,7.856,4.112,29.162,4.522,38.988.191,4.555,1.145,9.442.624,14.194" transform="translate(-648.442 -11.572)" fill="url(#linear-gradient)"/>
      <path id="Path_516" data-name="Path 516" d="M681.1,63.158H646.416c1.182,5.8,4.06,10.453,10.743,9.194,6.076-1.144,6.279-8.44,7.218-8.523,5.284,2.37,11.091,3.487,16.463,5.576.744.289,1-.424.856.946-.921,9.043-9.813,15.523-18.1,17.24-17.034,3.529-34.026-3.082-37.707-21.248-10.111-49.892,63.666-52.336,55.208-3.185m-34.051-11.35h12.3a8.659,8.659,0,0,0,2.247-.983c-1.3-10.794-14.056-8.988-14.544.983" transform="translate(-512.102 -11.45)" fill="url(#linear-gradient)"/>
      <path id="Path_517" data-name="Path 517" d="M921.08,28.139c23.048-2.5,36.571,12.662,34.006,35.267-3.877,34.18-56.478,33.929-59.019-2.428-1.174-16.8,7.517-30.941,25.013-32.839m9.393,17.668a7.255,7.255,0,0,0-10.173,1.1c-3.61,4.834-4.063,23.14,3.386,24.912,12.423,2.954,12.111-21.184,6.787-26.013" transform="translate(-612.224 -11.557)" fill="url(#linear-gradient)"/>
      <path id="Path_518" data-name="Path 518" d="M475.637,6V20.5h18.917V36.269H475.637l-2.545,22.415c.02,2.576.189,5.692,3.473,5.34,3.443-.368,3.636-8.665,4.12-11.363l15.137,4.425c-1.7,17.152-12.238,26.5-29.784,22.519C445.282,74.9,453.907,51.271,454.2,36.266l-8.2,0V21.45c0-1.584,7.353-.76,8.831-.943l.061-10.03Z" transform="translate(-446 -3.478)" fill="url(#linear-gradient)"/>
      <path id="Path_519" data-name="Path 519" d="M1119.638,6V20.5h18.917V36.269h-18.917l-2.545,22.415c.02,2.576.189,5.692,3.473,5.34,3.443-.368,3.636-8.665,4.12-11.363l15.136,4.425c-1.7,17.152-12.238,26.5-29.784,22.519-20.756-4.708-12.13-28.333-11.838-43.338l-8.2,0V21.45c0-1.584,7.353-.76,8.831-.943l.061-10.03Z" transform="translate(-683.906 -3.478)" fill="url(#linear-gradient)"/>
    </g>
    <g id="Group_287" data-name="Group 287" transform="translate(276.709 2854.145)">
      <path id="Path_520" data-name="Path 520" d="M78.823,77.492H54.861L51.148,64.623c-.714-1.025-21.74-.065-24.893-.288-1.881.636-3.029,11.308-5.13,13.156H0L27.406,1.778C34.753,2.555,43.661.9,50.8,1.787c.694.086,1.4-.046,1.86.663ZM46.032,47.854,38.15,21.364,30.9,47.854Z" transform="translate(0 -0.56)" fill="url(#linear-gradient)"/>
      <path id="Path_521" data-name="Path 521" d="M187.312,2c-.018,1.146.083,2.307-.008,3.459-1.29,16.36-6.161,34.283-6.918,50.46-.181,3.859-.594,7.667,4.582,6.492,1.482-.336,2.094-1.836,3.6-1.764.126,4.6,1.267,9.355.952,13.856-6.529,6.52-21.395,6.161-26.071-2.293L160.835,63.8c-2.329,17.925-25.778,20.534-33.877,5.175-5.589-10.6-5.3-31.254.957-41.559,7.277-11.978,26.01-12.457,33.018.018l3.041,7.353c.226-4.685-.289-9.5.013-14.179.318-4.93,1.02-12.223,1.892-17.026.1-.53.482-1.583.94-1.583ZM150.555,34.927c-7.016,1.6-6.537,18.566-4.151,23.432,2.98,6.076,10.622,5.556,13.033-.681,2.709-7.008,2.558-25.368-8.882-22.751" transform="translate(-45.432 -0.739)" fill="url(#linear-gradient)"/>
      <path id="Path_522" data-name="Path 522" d="M282.08,28.139c23.048-2.5,36.571,12.662,34.006,35.267-3.877,34.18-56.478,33.929-59.019-2.428-1.174-16.8,7.516-30.941,25.013-32.839m9.393,17.668a7.255,7.255,0,0,0-10.173,1.1c-3.61,4.834-4.063,23.14,3.386,24.912,12.423,2.954,12.111-21.184,6.787-26.013" transform="translate(-94.926 -10.296)" fill="url(#linear-gradient)"/>
      <path id="Path_523" data-name="Path 523" d="M360.5,36.574c-1.641-.26-6.439.634-7.292-.59-.4-.581-.538-13.068-.187-14.14.72-2.2,6.077-.305,7.389-1.122.856-.533.59-4.55.869-5.753C364,3.251,379.726,1.761,389.489,0l4.429,15.761c-3.261.218-8.456.725-11.354,2.2-1.413.721-2.2.9-1.885,2.844h13.873V36.574H381.94V76.932H360.5Z" transform="translate(-130.338)" fill="url(#linear-gradient)"/>
    </g>
  </g>
</svg>
