<svg xmlns="http://www.w3.org/2000/svg" xmlns:xlink="http://www.w3.org/1999/xlink" width="63" height="63" viewBox="0 0 63 63">
  <defs>
    <clipPath id="clip-path">
      <rect id="Rectangle_8355" data-name="Rectangle 8355" width="34.15" height="34.16" fill="#fff"/>
    </clipPath>
  </defs>
  <g id="Group_49087" data-name="Group 49087" transform="translate(8527 -102)">
    <circle id="Ellipse_63" data-name="Ellipse 63" cx="31.5" cy="31.5" r="31.5" transform="translate(-8527 102)" fill="#ed2023"/>
    <g id="Group_49068" data-name="Group 49068" transform="translate(-8512.575 116.42)">
      <g id="Group_49067" data-name="Group 49067" clip-path="url(#clip-path)">
        <path id="Path_14868" data-name="Path 14868" d="M28.528,9.385c.639-.646,1.265-1.307,1.921-1.935a2.166,2.166,0,0,1,3.564.845,2.111,2.111,0,0,1-.557,2.313q-2.356,2.369-4.727,4.723a.863.863,0,0,0-.286.676q.013,8.123.006,16.246a1.7,1.7,0,0,1-1.885,1.892c-8.222,0-16.443-.011-24.665.014a1.852,1.852,0,0,1-1.9-1.9Q.036,17.076,0,1.9A1.853,1.853,0,0,1,1.907,0Q14.24.04,26.572,0a1.83,1.83,0,0,1,1.891,1.876c-.043,2.357-.013,4.716-.013,7.074v.388l.079.046m-1.214-4.8H1.149v.3q0,13.67,0,27.34c0,.588.2.777.8.777H26.508c.619,0,.807-.187.807-.8q0-7.537,0-15.074c0-.1-.014-.2-.026-.355-1.074,1.076-2.1,2.11-3.135,3.132a.783.783,0,0,0-.26.616q.014,5.173.006,10.346v.4H4.586V6.289c.066-.007.111-.016.157-.016q6.469,0,12.938.008a.674.674,0,0,1,.414.205c1.866,1.854,3.722,3.718,5.589,5.572a.687.687,0,0,1,.221.56c-.014.43,0,.861,0,1.378.788-.789,1.507-1.508,2.224-2.228.393-.394.933-.729,1.132-1.205a4.575,4.575,0,0,0,.058-1.651c0-1.433,0-2.865,0-4.324M5.725,7.424V30.137H22.737V21.39l-.08-.052a2.9,2.9,0,0,1-.237.309q-2.686,2.693-5.382,5.377a1.435,1.435,0,0,1-.528.33c-1.33.455-2.665.892-4,1.333-.082.027-.17.037-.294.063.04-.136.063-.225.092-.312.434-1.312.863-2.626,1.311-3.933a1.6,1.6,0,0,1,.366-.587q4.264-4.283,8.54-8.554c.1-.1.223-.22.227-.335.022-.635.011-1.271.011-1.945h-5.7V7.424Zm21.59-4c0-.479,0-.926,0-1.374,0-.742-.155-.9-.891-.9H2.039a2.691,2.691,0,0,0-.355.007.52.52,0,0,0-.51.465c-.031.6-.01,1.2-.01,1.8Zm2.287,6.6L16.285,23.337l1.363,1.36,13.317-13.32L29.6,10.017M18.23,8.306v3.628h3.625L18.23,8.306m12.24.732,1.46,1.464c.252-.252.551-.523.817-.823A1.026,1.026,0,0,0,31.313,8.22c-.311.27-.593.574-.842.818m-13.7,16.618L15.325,24.21c-.916.659-.883,1.792-1.276,2.738.93-.432,2.078-.361,2.722-1.292" transform="translate(0 0)" fill="#fff"/>
        <path id="Path_14869" data-name="Path 14869" d="M255.979,116.635l3.625,3.628h-3.625Z" transform="translate(-237.749 -108.328)" fill="#fff"/>
        <rect id="Rectangle_8349" data-name="Rectangle 8349" width="10.758" height="1.093" transform="translate(7.437 16.537)" fill="#fff"/>
        <rect id="Rectangle_8350" data-name="Rectangle 8350" width="7.901" height="1.105" transform="translate(7.438 9.692)" fill="#fff"/>
        <rect id="Rectangle_8351" data-name="Rectangle 8351" width="7.927" height="1.091" transform="translate(7.424 13.118)" fill="#fff"/>
        <rect id="Rectangle_8352" data-name="Rectangle 8352" width="7.358" height="1.091" transform="translate(7.424 19.945)" fill="#fff"/>
        <rect id="Rectangle_8353" data-name="Rectangle 8353" width="4.502" height="1.093" transform="translate(7.437 23.364)" fill="#fff"/>
        <rect id="Rectangle_8354" data-name="Rectangle 8354" width="3.377" height="1.088" transform="translate(7.427 26.779)" fill="#fff"/>
        <path id="Path_14870" data-name="Path 14870" d="M24.736,25.341a.566.566,0,1,1,.566-.557.554.554,0,0,1-.566.557" transform="translate(-22.447 -22.486)" fill="#fff"/>
        <path id="Path_14871" data-name="Path 14871" d="M49.26,24.76a.567.567,0,1,1-.542-.575.55.55,0,0,1,.542.575" transform="translate(-44.699 -22.463)" fill="#fff"/>
        <path id="Path_14872" data-name="Path 14872" d="M72.649,25.328a.566.566,0,1,1,.567-.547.556.556,0,0,1-.567.547" transform="translate(-66.949 -22.473)" fill="#fff"/>
      </g>
    </g>
  </g>
</svg>
