<svg xmlns="http://www.w3.org/2000/svg" xmlns:xlink="http://www.w3.org/1999/xlink" width="63" height="63" viewBox="0 0 63 63">
  <defs>
    <clipPath id="clip-path">
      <rect id="Rectangle_8356" data-name="Rectangle 8356" width="34" height="34" transform="translate(-0.207 -0.207)" fill="#fff"/>
    </clipPath>
  </defs>
  <g id="Group_49090" data-name="Group 49090" transform="translate(8527 -102)">
    <circle id="Ellipse_63" data-name="Ellipse 63" cx="31.5" cy="31.5" r="31.5" transform="translate(-8527 102)" fill="#ed2023"/>
    <g id="Group_49070" data-name="Group 49070" transform="translate(-8511.793 117.207)">
      <g id="Group_49069" data-name="Group 49069" transform="translate(0 0)" clip-path="url(#clip-path)">
        <path id="Path_14873" data-name="Path 14873" d="M80,77.988V76.98h7.595c.036-.039.064-.055.063-.07-.012-1.213.025-2.429-.052-3.638a5.073,5.073,0,0,0-2.045-3.681,9.489,9.489,0,0,0-3.814-1.768c-.041-.01-.084-.015-.125-.025-.6-.141-.736-.421-.453-.963.335-.64.674-1.279,1.012-1.918q4.242-8.037,8.483-16.075c.129-.244.263-.48.575-.483s.457.224.584.47c.278.538.563,1.073.846,1.609l8.6,16.3c.035.066.071.131.1.2.2.428.065.73-.4.832a10.113,10.113,0,0,0-3.581,1.45,5.438,5.438,0,0,0-2.562,4.532c-.029,1.061-.005,2.124-.005,3.21h7.665v1.03ZM90.708,62.14V50.977l-8.4,15.911.373.116a11.21,11.21,0,0,1,2.727,1.217A6.532,6.532,0,0,1,88.527,72.4c.071.319.111.645.166.975H93.8c.024-.142.04-.277.07-.41a11.3,11.3,0,0,1,.3-1.267,6.728,6.728,0,0,1,3.495-3.8c.789-.4,1.629-.707,2.484-1.073L91.824,51.048l-.047.017V62.14c.327,0,.634,0,.941,0a.512.512,0,0,1,.57.573q.007,1.469,0,2.939a.509.509,0,0,1-.57.573q-1.469.007-2.939,0a.509.509,0,0,1-.575-.567q-.008-1.469,0-2.939c0-.392.194-.574.6-.579.3,0,.594,0,.906,0m3.083,13.817H88.709v.987h5.082ZM90.237,65.191h2.014V63.182H90.237Zm3.554,9.238H88.7V74.9h5.087Z" transform="translate(-74.592 -44.973)" fill="#fff"/>
        <path id="Path_14874" data-name="Path 14874" d="M32.719,3.77a.754.754,0,0,1-.709.324c-.916-.015-1.831,0-2.747-.006-.457,0-.629-.178-.632-.641,0-.285,0-.571,0-.874H22.759a12.463,12.463,0,0,1,5.806,4.307A12.435,12.435,0,0,1,30.687,13.8c.289,0,.582,0,.876,0,.465,0,.642.174.644.629q0,1.422,0,2.843c0,.436-.183.613-.626.614q-1.422,0-2.843,0c-.438,0-.615-.181-.616-.624q0-1.422,0-2.843c0-.439.18-.614.622-.619.266,0,.532,0,.8,0a.789.789,0,0,0,.108-.024c-.018-.294-.028-.6-.057-.9A11.353,11.353,0,0,0,28.2,8.248a9.725,9.725,0,0,0-4.117-3.89,16.81,16.81,0,0,0-9.5-1.693A15.892,15.892,0,0,0,8.788,4.284a9.829,9.829,0,0,0-5.395,7.029c-.167.805-.235,1.631-.355,2.492.383,0,.679,0,.974,0a.517.517,0,0,1,.586.59q.006,1.453,0,2.907a.514.514,0,0,1-.587.588q-1.454.006-2.907,0a.515.515,0,0,1-.591-.585q-.006-1.453,0-2.907c0-.413.189-.59.614-.594.3,0,.593,0,.921,0C2.247,8.313,4.862,4.546,10,2.567H4.089c0,.294,0,.587,0,.88,0,.463-.175.64-.632.641-.916,0-1.832-.009-2.747.006A.754.754,0,0,1,0,3.77V0H3.77a.743.743,0,0,1,.322.741c-.02.259,0,.521,0,.776H28.631c0-.27.016-.524,0-.776A.742.742,0,0,1,28.949,0h3.77ZM3.043,1.038h-2V3.057h2ZM29.671,3.046h2V1.027h-2ZM1.547,16.855H3.56V14.848H1.547Zm27.607,0h2.013V14.848H29.154Z" transform="translate(0.295 0.295)" fill="#fff"/>
      </g>
    </g>
  </g>
</svg>
