<svg xmlns="http://www.w3.org/2000/svg" xmlns:xlink="http://www.w3.org/1999/xlink" width="63" height="63" viewBox="0 0 63 63">
  <defs>
    <clipPath id="clip-path">
      <rect id="Rectangle_8345" data-name="Rectangle 8345" width="34.034" height="30.882" fill="#fff"/>
    </clipPath>
  </defs>
  <g id="Group_49088" data-name="Group 49088" transform="translate(8527 -102)">
    <circle id="Ellipse_63" data-name="Ellipse 63" cx="31.5" cy="31.5" r="31.5" transform="translate(-8527 102)" fill="#ed2023"/>
    <g id="Group_49058" data-name="Group 49058" transform="translate(-8512.518 118.059)">
      <g id="Group_49058-2" data-name="Group 49058" clip-path="url(#clip-path)">
        <path id="Path_14833" data-name="Path 14833" d="M1,4.372H23.34c.35,0,.314-.036.316.31,0,.195,0,.39,0,.585a.452.452,0,0,1-.017.069H.99c-.008.1-.02.18-.02.258q0,6.588,0,13.176a1.318,1.318,0,0,0,.972,1.392,1.209,1.209,0,0,0,.31.038q5.149,0,10.3,0c.059,0,.118-.006.2-.011a7.842,7.842,0,0,1,.593-7.176,7.589,7.589,0,0,1,3.774-3.16,7.856,7.856,0,0,1,8.991,12.259l3.212,3.212.6-.653c.2.218.357.392.521.556q1.564,1.568,3.131,3.133a1.394,1.394,0,0,1,.054,2.011,1.38,1.38,0,0,1-2.056.094c-1.228-1.2-2.431-2.423-3.644-3.637a.335.335,0,0,1-.033-.064l.617-.575-3.178-3.179c-.574.372-1.131.793-1.74,1.119a7.836,7.836,0,0,1-9.519-1.841,10.347,10.347,0,0,1-.682-.919.376.376,0,0,0-.36-.194c-3.553.005-7.105-.019-10.658.017A2.316,2.316,0,0,1,0,18.824c.012-.457,0-.914,0-1.372q0-7.51,0-15.02A2.233,2.233,0,0,1,1.341.214a2.3,2.3,0,0,1,.932-.2q11.5-.017,23-.007a2.242,2.242,0,0,1,2.26,2.232c.012,2.4,0,4.8,0,7.2,0,.043-.006.087-.009.144H26.56V9.3q0-3.463,0-6.925A1.29,1.29,0,0,0,25.5,1.007a1.751,1.751,0,0,0-.357-.023H2.415A1.292,1.292,0,0,0,.978,2.305c-.034.658-.006,1.319,0,1.978A.4.4,0,0,0,1,4.372M26.785,17.151a6.776,6.776,0,1,0-6.776,6.784,6.767,6.767,0,0,0,6.776-6.784m2.632,9.64c.98.981,1.943,1.946,2.908,2.909a.308.308,0,0,0,.445.016c.245-.185.257-.394.029-.622q-1.358-1.361-2.719-2.718c-.041-.041-.088-.076-.132-.114l-.532.529" transform="translate(0 0)" fill="#fff"/>
        <path id="Path_14834" data-name="Path 14834" d="M57.7,147.774a4.329,4.329,0,1,1-4.327-4.324,4.32,4.32,0,0,1,4.327,4.324M52.866,144.9a4.535,4.535,0,0,0-1,2.378h1Zm3.789,2.379a3.123,3.123,0,0,0-1.666-2.39,6.324,6.324,0,0,1,.824,2.39Zm-4.783,1a5.375,5.375,0,0,0,.993,2.43v-2.43Zm2.007,0v2.4a4.445,4.445,0,0,0,.936-2.4Zm1.271,2.308a3.258,3.258,0,0,0,1.53-2.319h-.37c-.452,0-.458,0-.535.448a6.926,6.926,0,0,1-.625,1.871m-.327-3.307a5.358,5.358,0,0,0-.943-2.3v2.3Zm-3.217,3.345c0-.055.005-.072,0-.083a6.147,6.147,0,0,1-.715-2.152.175.175,0,0,0-.121-.116c-.229-.012-.459-.005-.715-.005a3.391,3.391,0,0,0,1.551,2.357m-.027-5.686a3.374,3.374,0,0,0-1.521,2.35c.243,0,.444-.007.645,0,.134.006.174-.045.2-.175a7.515,7.515,0,0,1,.217-1c.123-.387.3-.758.462-1.176" transform="translate(-46.834 -136.999)" fill="#fff"/>
        <rect id="Rectangle_8342" data-name="Rectangle 8342" width="7.725" height="0.896" transform="translate(2.512 16.483)" fill="#fff"/>
        <rect id="Rectangle_8343" data-name="Rectangle 8343" width="0.927" height="3.514" transform="translate(28.4 3.573)" fill="#fff"/>
        <rect id="Rectangle_8344" data-name="Rectangle 8344" width="3.007" height="0.953" transform="translate(2.493 18.051)" fill="#fff"/>
        <path id="Path_14835" data-name="Path 14835" d="M117.554,46.881a.63.63,0,1,1-.635-.645.636.636,0,0,1,.635.645" transform="translate(-111.064 -44.156)" fill="#fff"/>
        <path id="Path_14836" data-name="Path 14836" d="M174.659,46.868a.634.634,0,0,1-.636.643.638.638,0,0,1,.013-1.276.636.636,0,0,1,.623.633" transform="translate(-165.597 -44.156)" fill="#fff"/>
        <path id="Path_14837" data-name="Path 14837" d="M62.894,46.867a.638.638,0,1,1-.653-.633.652.652,0,0,1,.653.633" transform="translate(-58.846 -44.154)" fill="#fff"/>
        <path id="Path_14838" data-name="Path 14838" d="M323.077,253.973a5.736,5.736,0,1,1-.094,11.472,5.736,5.736,0,0,1,.094-11.472m4.687,5.742a4.7,4.7,0,1,0-4.713,4.689,4.711,4.711,0,0,0,4.713-4.689" transform="translate(-303.051 -242.549)" fill="#fff"/>
        <path id="Path_14839" data-name="Path 14839" d="M473.085,346.607a4.9,4.9,0,0,1,.089-.617,1.184,1.184,0,0,1,2.287.1,2.467,2.467,0,0,1-.045,1.22,1.121,1.121,0,0,1-1.238.751,1.043,1.043,0,0,1-1.027-.892c-.032-.175-.042-.355-.065-.56m.373,0,.032,0a3.678,3.678,0,0,0,0,.381.807.807,0,0,0,1.566.208,1.967,1.967,0,0,0-.006-1.191.753.753,0,0,0-.766-.541.74.74,0,0,0-.744.567,4.5,4.5,0,0,0-.084.573" transform="translate(-451.809 -329.637)" fill="#fff"/>
        <path id="Path_14840" data-name="Path 14840" d="M366.043,346.336h-.3a.745.745,0,0,0-1.01-.484.431.431,0,0,0-.312.42.37.37,0,0,0,.31.385c.265.076.536.13.8.2.423.119.6.332.605.7a.807.807,0,0,1-.608.793,1.625,1.625,0,0,1-1.035-.037.82.82,0,0,1-.513-.864h.325a.749.749,0,0,0,1,.627.53.53,0,0,0,.479-.459c.024-.223-.1-.384-.392-.468-.222-.064-.45-.1-.673-.164-.475-.126-.673-.346-.658-.719a.733.733,0,0,1,.717-.728,2.123,2.123,0,0,1,.812.077.679.679,0,0,1,.462.719" transform="translate(-347.602 -329.989)" fill="#fff"/>
        <path id="Path_14841" data-name="Path 14841" d="M425.881,349.286h-1.926v-2.771h1.875v.285H424.6c-.32,0-.32,0-.321.32,0,.142.006.285,0,.427s.055.181.187.179c.314-.006.629,0,.943,0,.117,0,.2.009.2.163s-.1.156-.211.156c-.3,0-.6.01-.9,0-.184-.009-.235.062-.227.233.011.222,0,.446,0,.7h1.6Z" transform="translate(-404.89 -330.931)" fill="#fff"/>
      </g>
    </g>
  </g>
</svg>
