<svg xmlns="http://www.w3.org/2000/svg" xmlns:xlink="http://www.w3.org/1999/xlink" width="63" height="63" viewBox="0 0 63 63">
  <defs>
    <clipPath id="clip-path">
      <rect id="Rectangle_8347" data-name="Rectangle 8347" width="34.758" height="34.576" fill="#fff"/>
    </clipPath>
  </defs>
  <g id="Group_49092" data-name="Group 49092" transform="translate(8527 -102)">
    <circle id="Ellipse_63" data-name="Ellipse 63" cx="31.5" cy="31.5" r="31.5" transform="translate(-8527 102)" fill="#ed2023"/>
    <g id="Group_49064" data-name="Group 49064" transform="translate(-8512.879 116.212)">
      <g id="Group_49064-2" data-name="Group 49064" clip-path="url(#clip-path)">
        <path id="Path_14859" data-name="Path 14859" d="M0,13.136c.055-.206.1-.414.167-.617A3.8,3.8,0,0,1,3.516,9.867l.542-.041c.039-.176.072-.362.122-.543A3.282,3.282,0,0,1,7.5,6.857c2.227-.006,4.455,0,6.683-.009a1.586,1.586,0,0,0,.675-.158Q21.264,3.5,27.665.3a2.165,2.165,0,0,1,2.551.255,2.087,2.087,0,0,1,.725,1.617q0,2.832,0,5.665v.4c.178.041.35.078.52.122a4.324,4.324,0,0,1,3.277,4.218,19.532,19.532,0,0,1-.06,2.775,4.238,4.238,0,0,1-3.524,3.674c-.064.014-.128.023-.213.037v1.435c0,1.481-.058,2.965.015,4.443a2.232,2.232,0,0,1-3.333,2.07c-4.241-2.169-8.514-4.275-12.778-6.4a5.055,5.055,0,0,0-.823-.234l1.93,6.275a5.533,5.533,0,0,1,3.476-2.606c.13-.036.261-.074.394-.1a.534.534,0,0,1,.668.419c.507,2.276-.482,5.285-3.213,5.959a1.47,1.47,0,0,0-.169.066c.142.475.29.934.417,1.4A2.1,2.1,0,0,1,15.76,34.5a18.875,18.875,0,0,1-3.213,0,1.951,1.951,0,0,1-1.75-1.488c-.377-1.169-.727-2.347-1.09-3.521-.026-.085-.056-.17-.076-.228-.572.121-1.124.278-1.687.349a6.409,6.409,0,0,1-4.993-1.563A9.064,9.064,0,0,1,.076,23.634c-.02-.063-.05-.123-.076-.184v-.271c.179-.14.338-.352.54-.408a8.611,8.611,0,0,1,5.134.052,22.585,22.585,0,0,1,2.305,1.056c-.323-1.053-.666-2.182-1.025-3.307-.027-.083-.166-.159-.266-.184a3.276,3.276,0,0,1-2.506-2.361c-.054-.179-.085-.365-.131-.566-.135,0-.247.006-.359,0A3.822,3.822,0,0,1,.185,14.825c-.066-.2-.123-.4-.185-.6V13.136M24.7,3.031a1.312,1.312,0,0,0-.139.045Q19.971,5.369,15.385,7.67a.408.408,0,0,0-.178.306q-.014,5.682,0,11.365a.406.406,0,0,0,.185.3q6.426,3.229,12.863,6.436a1.078,1.078,0,0,0,1.6-.983c.012-.418,0-.837,0-1.255q0-10.737.009-21.474a1.139,1.139,0,0,0-1.755-1.077A17.183,17.183,0,0,1,26.2,2.24a.642.642,0,0,0-.429.715c.013,4.467.009,8.934.009,13.4a3.352,3.352,0,0,1,0,.339.539.539,0,0,1-1.074,0,3.274,3.274,0,0,1,0-.339q0-6.446,0-12.891V3.031M14.1,7.966h-.374c-2.069,0-4.14.036-6.208-.013a2.264,2.264,0,0,0-2.372,2.375c.031,2.216.007,4.433.008,6.649a2.176,2.176,0,0,0,2.333,2.362c2.1.006,4.207,0,6.31,0,.1,0,.194-.015.3-.023ZM8.092,20.453c.022.1.031.15.047.2Q9.98,26.65,11.825,32.644a1.05,1.05,0,0,0,1.113.808c.814.01,1.629.027,2.441-.011a1.482,1.482,0,0,0,.794-.295A.987.987,0,0,0,16.448,32q-.551-1.811-1.109-3.62-1.173-3.813-2.349-7.625c-.044-.144-.043-.311-.279-.31-1.525.007-3.05,0-4.619,0M1.28,23.7a7.425,7.425,0,0,0,3.705,4.364,5.253,5.253,0,0,0,3.987.225c.234-.078.285-.179.229-.415A5.2,5.2,0,0,0,6.914,24.6,7.018,7.018,0,0,0,2.45,23.548c-.388.028-.774.1-1.169.148m29.672-5.783a3.107,3.107,0,0,0,2.625-2.6,17.858,17.858,0,0,0,.05-3.007,3.144,3.144,0,0,0-2.322-2.855,3.513,3.513,0,0,0-.354-.065Zm-26.9-6.926a2.581,2.581,0,0,0-2.542,1.226,2.574,2.574,0,0,0,.043,2.932,2.6,2.6,0,0,0,2.5,1.195ZM19.463,25.172a3.979,3.979,0,0,0-2.819,2.8,1.669,1.669,0,0,0,.16,1.323c1.893-.285,2.886-2.319,2.66-4.119" transform="translate(0 0)" fill="#fff"/>
      </g>
    </g>
  </g>
</svg>
