<svg xmlns="http://www.w3.org/2000/svg" xmlns:xlink="http://www.w3.org/1999/xlink" width="63" height="63" viewBox="0 0 63 63">
  <defs>
    <clipPath id="clip-path">
      <rect id="Rectangle_8346" data-name="Rectangle 8346" width="40.497" height="30.09" fill="#fff" stroke="#fff" stroke-width="0.5"/>
    </clipPath>
  </defs>
  <g id="Group_49091" data-name="Group 49091" transform="translate(8527 -102)">
    <circle id="Ellipse_63" data-name="Ellipse 63" cx="31.5" cy="31.5" r="31.5" transform="translate(-8527 102)" fill="#ed2023"/>
    <g id="Group_49059" data-name="Group 49059" transform="translate(-8515.748 118.455)">
      <g id="Group_49059-2" data-name="Group 49059" clip-path="url(#clip-path)">
        <path id="Path_14842" data-name="Path 14842" d="M292.855,25.357c-.281.256-.558.517-.844.767a6.405,6.405,0,0,1-9.191-.8c-.021-.027-.043-.053-.062-.081a.271.271,0,0,1,.042-.393.274.274,0,0,1,.375.078,7.98,7.98,0,0,0,.625.675,5.882,5.882,0,0,0,9.738-3.037,5.8,5.8,0,0,0-4.094-6.9,5.721,5.721,0,0,0-5.9,1.578c-.044.044-.085.092-.129.136a.271.271,0,0,1-.37.029.249.249,0,0,1-.01-.379,11.459,11.459,0,0,1,1.1-.968A6.182,6.182,0,0,1,288,14.9a6.327,6.327,0,0,1,2.72.7c.059.03.119.058.2.1,0-.086.009-.145.009-.205q0-6.6,0-13.194A1.788,1.788,0,0,0,289.158.521q-8.808,0-17.615,0a1.8,1.8,0,0,0-1.77,1.8c0,.04,0,.08,0,.119q0,10.737,0,21.473a1.767,1.767,0,0,0,1.073,1.748,1.941,1.941,0,0,0,.776.156c3.078.01,6.156.006,9.234.006.275,0,.4.08.406.256s-.127.268-.412.268q-4.6,0-9.2,0a2.316,2.316,0,0,1-2.393-2.406q0-10.8,0-21.593A2.3,2.3,0,0,1,271.583,0q8.765,0,17.53,0a2.3,2.3,0,0,1,2.335,2.355q0,6.725,0,13.451a.408.408,0,0,0,.184.364,6.29,6.29,0,0,1,2.547,5.706,6.092,6.092,0,0,1-.97,2.862c-.069.109-.046.16.034.241q1.44,1.432,2.873,2.871a1.263,1.263,0,0,1,.356,1.313,1.278,1.278,0,0,1-2.115.564c-.842-.815-1.661-1.654-2.489-2.484a.264.264,0,0,1-.028-.394.272.272,0,0,1,.406.034q1.208,1.206,2.414,2.414a.765.765,0,1,0,1.109-1.053c-.485-.5-.98-.983-1.471-1.474l-1.352-1.351c-.039-.039-.081-.076-.121-.114l.033.05" transform="translate(-260.063 0)" fill="#fff" stroke="#fff" stroke-width="0.5"/>
        <path id="Path_14843" data-name="Path 14843" d="M1.73,310c.206.275.394.537.594.791a.344.344,0,0,1,.024.45,4.012,4.012,0,0,0-.525,1.27.336.336,0,0,1-.325.289c-.276.034-.552.079-.828.111-.11.013-.157.053-.153.171q.012.409,0,.819c0,.11.039.15.141.163.271.034.54.076.811.112.248.033.3.072.357.313a4.406,4.406,0,0,0,.534,1.268.318.318,0,0,1-.017.406c-.2.262-.4.527-.582.776l.792.784.732-.547c.2-.148.27-.152.477-.028a4.191,4.191,0,0,0,1.258.512.322.322,0,0,1,.284.31c.033.288.086.574.121.861.012.1.049.136.15.134q.418-.008.836,0c.1,0,.151-.028.164-.139.033-.282.087-.562.117-.844a.321.321,0,0,1,.275-.317,4.326,4.326,0,0,0,1.317-.546.271.271,0,0,1,.392.052.261.261,0,0,1-.117.388c-.386.19-.779.369-1.177.532-.13.053-.2.1-.217.251-.027.3-.085.6-.126.895a.266.266,0,0,1-.287.255q-.751.006-1.5,0c-.177,0-.264-.089-.291-.271-.046-.309-.094-.618-.133-.928a.186.186,0,0,0-.141-.179c-.35-.133-.692-.287-1.04-.423a.238.238,0,0,0-.192.022c-.251.176-.494.365-.74.549a.288.288,0,0,1-.451-.023q-.509-.5-1.014-1.014a.279.279,0,0,1-.024-.436c.183-.246.365-.494.554-.736a.186.186,0,0,0,.021-.226c-.15-.33-.29-.666-.416-1.006a.2.2,0,0,0-.187-.155c-.293-.037-.586-.081-.878-.122C.071,314.5,0,314.427,0,314.181q0-.7,0-1.4c0-.236.071-.313.306-.346.3-.041.6-.077.894-.129a.256.256,0,0,0,.163-.129c.151-.343.283-.693.435-1.035a.177.177,0,0,0-.02-.212c-.188-.243-.371-.489-.554-.736a.282.282,0,0,1,.032-.447q.5-.5,1-1c.163-.163.26-.171.446-.033.242.18.485.358.722.544a.2.2,0,0,0,.244.026c.331-.149.667-.288,1.005-.418.091-.035.137-.069.149-.172.036-.31.086-.619.131-.929a.278.278,0,0,1,.32-.277q.717,0,1.434,0c.217,0,.3.071.331.283.046.3.092.607.13.912a.207.207,0,0,0,.155.189c.418.174.833.357,1.241.555a.256.256,0,0,1,.094.4.247.247,0,0,1-.339.051,4.551,4.551,0,0,0-1.395-.579.28.28,0,0,1-.228-.263c-.04-.3-.09-.6-.126-.895-.012-.1-.052-.134-.151-.132-.284,0-.569,0-.853,0-.092,0-.13.031-.142.125-.038.3-.089.6-.127.895a.3.3,0,0,1-.254.277,4.279,4.279,0,0,0-1.332.553.3.3,0,0,1-.378-.021c-.235-.18-.475-.353-.707-.535a.132.132,0,0,0-.213.016c-.22.229-.45.448-.683.679" transform="translate(0.001 -296.985)" fill="#fff" stroke="#fff" stroke-width="0.5"/>
        <path id="Path_14844" data-name="Path 14844" d="M934.091,109.777c.051-.355.1-.686.146-1.018a.3.3,0,0,1,.256-.278,4.14,4.14,0,0,0,1.3-.536.334.334,0,0,1,.435.022c.254.2.517.39.762.573l.79-.785c-.176-.234-.365-.488-.556-.742-.151-.2-.154-.259-.025-.475a4.351,4.351,0,0,0,.519-1.274.314.314,0,0,1,.3-.269c.326-.04.651-.093,1-.144,0-.346,0-.686-.006-1.025,0-.033-.077-.085-.124-.093-.3-.05-.6-.094-.894-.133a.294.294,0,0,1-.275-.256,4.147,4.147,0,0,0-.537-1.3.327.327,0,0,1,.017-.421c.2-.26.4-.527.58-.773l-.776-.8c-.254.19-.521.384-.78.586a.326.326,0,0,1-.421.021,4.142,4.142,0,0,0-1.286-.532.321.321,0,0,1-.283-.309c-.034-.294-.087-.585-.124-.878-.012-.1-.051-.124-.142-.123-.29,0-.581,0-.87.006a.174.174,0,0,0-.122.112c-.053.3-.1.606-.136.911a.285.285,0,0,1-.24.27,4.521,4.521,0,0,0-1.35.557.263.263,0,0,1-.389-.057.257.257,0,0,1,.123-.386c.4-.2.813-.376,1.226-.548.1-.041.144-.078.157-.186.037-.31.085-.619.132-.929.028-.186.109-.26.295-.261q.751,0,1.5,0a.252.252,0,0,1,.284.253c.048.315.094.63.134.946a.189.189,0,0,0,.148.175q.509.192,1.006.415a.2.2,0,0,0,.242-.024c.242-.19.488-.372.736-.554a.274.274,0,0,1,.423.027q.516.51,1.026,1.025a.274.274,0,0,1,.03.423c-.189.256-.385.507-.568.768a.235.235,0,0,0-.014.19c.136.349.286.692.422,1.041a.177.177,0,0,0,.166.135c.31.038.619.087.929.132.2.03.273.108.274.318q0,.725,0,1.451c0,.214-.058.283-.273.316-.3.047-.607.093-.912.13a.2.2,0,0,0-.189.156c-.132.344-.282.681-.416,1.025a.235.235,0,0,0,.013.19c.18.256.373.5.559.754a.285.285,0,0,1-.036.449q-.492.5-.989.99c-.174.172-.275.177-.476.027-.242-.18-.484-.359-.723-.544a.175.175,0,0,0-.212-.017c-.336.15-.678.29-1.022.422a.191.191,0,0,0-.146.178c-.038.31-.085.619-.132.928-.031.2-.1.263-.307.264q-.734,0-1.468,0c-.2,0-.278-.065-.307-.264-.045-.3-.1-.607-.128-.912-.013-.126-.075-.161-.18-.2-.4-.165-.791-.343-1.182-.522a.279.279,0,0,1-.184-.3.256.256,0,0,1,.414-.171,4.092,4.092,0,0,0,1.25.531.4.4,0,0,1,.37.407c.02.271.071.541.117.81.007.04.061.1.094.1.334.008.669,0,1.022,0" transform="translate(-899.037 -94.947)" fill="#fff" stroke="#fff" stroke-width="0.5"/>
        <path id="Path_14845" data-name="Path 14845" d="M730.584,536.333v.236q0,2.056,0,4.112a.847.847,0,0,1-.007.17.256.256,0,0,1-.5-.009.811.811,0,0,1,0-.153q0-2.483,0-4.966c0-.155-.018-.321.169-.387s.281.062.38.186q1.064,1.323,2.131,2.643c.042.053.087.1.142.169.044-.051.081-.092.116-.135l2.175-2.7a.853.853,0,0,1,.1-.115.254.254,0,0,1,.426.138.924.924,0,0,1,.011.2q0,2.457,0,4.914a1.2,1.2,0,0,1-.012.2.233.233,0,0,1-.234.208.237.237,0,0,1-.264-.193.838.838,0,0,1-.015-.2q0-2.039,0-4.078V536.4l-.033-.021c-.048.055-.1.109-.145.166l-1.843,2.283c-.209.259-.358.256-.57-.008q-.947-1.176-1.9-2.351c-.027-.034-.06-.064-.125-.132" transform="translate(-705.144 -517.042)" fill="#fff" stroke="#fff" stroke-width="0.5"/>
        <path id="Path_14846" data-name="Path 14846" d="M402.293,540.967a8.207,8.207,0,0,1-.988-.07,1.536,1.536,0,0,1-1.211-1.428c-.011-.2.068-.325.224-.342s.269.081.293.294a1.055,1.055,0,0,0,1.12,1.005c.358,0,.717,0,1.075,0a1.045,1.045,0,1,0,.025-2.089c-.387-.009-.774,0-1.161,0a1.565,1.565,0,1,1-.025-3.129c.41-.007.819-.009,1.229,0a1.561,1.561,0,0,1,1.485,1.254c.039.2-.032.341-.193.374s-.271-.069-.315-.259a1.055,1.055,0,0,0-1.066-.854c-.37,0-.74,0-1.109,0a1.055,1.055,0,0,0-1.072,1.019,1.041,1.041,0,0,0,1,1.066c.409.021.819,0,1.228.008a1.567,1.567,0,0,1,1.547,1.384,1.535,1.535,0,0,1-1.125,1.676,5.668,5.668,0,0,1-.962.092" transform="translate(-386.43 -516.927)" fill="#fff" stroke="#fff" stroke-width="0.5"/>
        <path id="Path_14847" data-name="Path 14847" d="M566.556,535.826v2.081c.07,0,.135.012.2.012h2c.046,0,.091,0,.136,0a.253.253,0,0,1,.255.264.249.249,0,0,1-.264.253c-.2.005-.41,0-.614,0h-1.519c-.061,0-.122.005-.2.009v.367c0,.506.006,1.013,0,1.519,0,.154.037.2.2.2,1.081-.007,2.161,0,3.242,0h.1c.209,0,.336.1.338.255s-.121.263-.345.264h-3.669c-.307,0-.374-.066-.374-.366q0-2.5,0-5c0-.309.068-.376.383-.376h3.618a.945.945,0,0,1,.17.007.256.256,0,0,1-.009.506,1.248,1.248,0,0,1-.17,0h-3.469" transform="translate(-546.708 -517.032)" fill="#fff" stroke="#fff" stroke-width="0.5"/>
        <path id="Path_14848" data-name="Path 14848" d="M141.846,46.1l.666.662c.205-.155.431-.317.648-.49a.336.336,0,0,1,.449-.024,3.594,3.594,0,0,0,.36.194.261.261,0,1,1-.21.476.169.169,0,0,1-.046-.021.4.4,0,0,0-.6.064,3.843,3.843,0,0,1-.447.341.269.269,0,0,1-.41-.022q-.469-.46-.929-.929a.271.271,0,0,1-.023-.4c.162-.22.332-.434.487-.658a.24.24,0,0,0,.018-.193q-.17-.445-.364-.88a.239.239,0,0,0-.149-.122c-.268-.05-.539-.082-.809-.123a.267.267,0,0,1-.267-.308q0-.648,0-1.3a.269.269,0,0,1,.271-.306c.264-.038.529-.078.794-.111a.188.188,0,0,0,.176-.148c.1-.283.217-.561.341-.834a.2.2,0,0,0-.017-.242c-.16-.2-.311-.407-.463-.612a.289.289,0,0,1,.033-.45q.439-.442.881-.88a.284.284,0,0,1,.449-.029c.206.152.414.3.613.462a.179.179,0,0,0,.242.016,1.345,1.345,0,0,1,.245-.119.258.258,0,0,1,.226.462,2.893,2.893,0,0,1-.5.26.412.412,0,0,1-.311-.049c-.211-.133-.4-.3-.606-.442a.18.18,0,0,0-.167-.009c-.2.183-.392.378-.6.581.174.233.334.459.506.675a.377.377,0,0,1,.027.452,11.756,11.756,0,0,0-.458,1.115.353.353,0,0,1-.322.273c-.237.029-.472.072-.709.1-.1.011-.133.056-.131.152,0,.222.007.444,0,.665,0,.111.039.146.144.158.243.028.484.071.726.1a.308.308,0,0,1,.289.264,3.778,3.778,0,0,0,.48,1.16.3.3,0,0,1-.023.378c-.172.226-.34.455-.509.682" transform="translate(-135.428 -37.342)" fill="#fff" stroke="#fff" stroke-width="0.5"/>
        <path id="Path_14849" data-name="Path 14849" d="M344.565,326.978a2.5,2.5,0,1,1,2.472,2.538,2.5,2.5,0,0,1-2.472-2.538m.521.028a1.979,1.979,0,1,0,1.978-1.977,1.976,1.976,0,0,0-1.978,1.977" transform="translate(-332.802 -313.432)" fill="#fff" stroke="#fff" stroke-width="0.5"/>
        <path id="Path_14850" data-name="Path 14850" d="M347.07,115.252a2.5,2.5,0,1,1,2.506-2.484,2.49,2.49,0,0,1-2.506,2.484m-1.974-2.5a1.979,1.979,0,1,0,1.99-1.981,1.983,1.983,0,0,0-1.99,1.981" transform="translate(-332.812 -106.494)" fill="#fff" stroke="#fff" stroke-width="0.5"/>
        <path id="Path_14851" data-name="Path 14851" d="M523.586,365H519c-.057,0-.114,0-.171,0-.21,0-.33-.1-.327-.265s.125-.262.334-.262h9.521a.551.551,0,0,1,.151.018.256.256,0,0,1-.022.5.915.915,0,0,1-.187.009h-4.709" transform="translate(-500.797 -352.03)" fill="#fff" stroke="#fff" stroke-width="0.5"/>
        <path id="Path_14852" data-name="Path 14852" d="M523.673,150.817h-4.726a1.191,1.191,0,0,1-.153,0,.256.256,0,0,1-.016-.505.768.768,0,0,1,.153-.005H528.4a.667.667,0,0,1,.17.009.238.238,0,0,1,.191.265.235.235,0,0,1-.208.234.911.911,0,0,1-.17,0h-4.708" transform="translate(-500.865 -145.171)" fill="#fff" stroke="#fff" stroke-width="0.5"/>
        <path id="Path_14853" data-name="Path 14853" d="M522.73,201.856h-3.8a1.183,1.183,0,0,1-.17,0,.236.236,0,0,1-.217-.244.24.24,0,0,1,.2-.259.654.654,0,0,1,.153-.006h7.675a.864.864,0,0,1,.136,0,.24.24,0,0,1,.225.255.234.234,0,0,1-.225.252,1.42,1.42,0,0,1-.17,0h-3.8" transform="translate(-500.836 -194.467)" fill="#fff" stroke="#fff" stroke-width="0.5"/>
        <path id="Path_14854" data-name="Path 14854" d="M966.783,231.63a1.548,1.548,0,1,1,1.544-1.543,1.561,1.561,0,0,1-1.544,1.543m1.018-1.555a1.021,1.021,0,1,0-1.023,1.032,1.02,1.02,0,0,0,1.023-1.032" transform="translate(-932.279 -220.731)" fill="#fff" stroke="#fff" stroke-width="0.5"/>
        <path id="Path_14855" data-name="Path 14855" d="M131.911,441.291a1.54,1.54,0,1,1,1.553-1.526,1.545,1.545,0,0,1-1.553,1.526M130.9,439.73a1.025,1.025,0,1,0,1.041-1,1.032,1.032,0,0,0-1.041,1" transform="translate(-125.921 -423.251)" fill="#fff" stroke="#fff" stroke-width="0.5"/>
        <path id="Path_14856" data-name="Path 14856" d="M522.063,416.109q-1.416,0-2.832,0a.382.382,0,0,1-.214-.031c-.072-.056-.161-.154-.157-.229a.423.423,0,0,1,.168-.241c.043-.036.13-.026.2-.026q2.841,0,5.682,0a.8.8,0,0,1,.169.014.238.238,0,0,1,.2.239.242.242,0,0,1-.2.261.763.763,0,0,1-.186.014h-2.832" transform="translate(-501.146 -401.392)" fill="#fff" stroke="#fff" stroke-width="0.5"/>
        <path id="Path_14857" data-name="Path 14857" d="M375.138,378.435l1.13-1.171c.043-.045.086-.091.133-.132a.273.273,0,0,1,.371,0,.258.258,0,0,1,0,.37c-.137.152-.286.293-.431.437l-.969.961c-.192.19-.3.193-.491.008q-.461-.456-.917-.917a.281.281,0,0,1-.04-.42c.111-.106.267-.09.406.049.258.257.512.516.811.818" transform="translate(-361.081 -364.184)" fill="#fff" stroke="#fff" stroke-width="0.5"/>
        <path id="Path_14858" data-name="Path 14858" d="M375.118,163.9c.423-.428.829-.842,1.238-1.251.181-.181.418-.143.464.078a.331.331,0,0,1-.073.258c-.471.485-.95.962-1.431,1.438a.267.267,0,0,1-.419-.011q-.485-.479-.965-.964a.274.274,0,0,1-.025-.395.26.26,0,0,1,.393.026c.267.262.529.53.818.821" transform="translate(-361.072 -156.988)" fill="#fff" stroke="#fff" stroke-width="0.5"/>
      </g>
    </g>
  </g>
</svg>
