<svg xmlns="http://www.w3.org/2000/svg" xmlns:xlink="http://www.w3.org/1999/xlink" width="63" height="63" viewBox="0 0 63 63">
  <defs>
    <clipPath id="clip-path">
      <rect id="Rectangle_8341" data-name="Rectangle 8341" width="35.007" height="36.909" fill="#fff" stroke="#fff" stroke-width="0.5"/>
    </clipPath>
  </defs>
  <g id="Group_49089" data-name="Group 49089" transform="translate(8527 -102)">
    <circle id="Ellipse_63" data-name="Ellipse 63" cx="31.5" cy="31.5" r="31.5" transform="translate(-8527 102)" fill="#ed2023"/>
    <g id="Group_49054" data-name="Group 49054" transform="translate(-8512.701 115.037)" clip-path="url(#clip-path)">
      <path id="Path_14797" data-name="Path 14797" d="M22.832,32.125a4.284,4.284,0,0,1,.348-.506c.314-.334.649-.647.967-.977a.341.341,0,0,1,.528-.061c.3.235.594.59.927.637.31.044.655-.3,1.006-.379.367-.086.469-.29.516-.623.141-1.005.151-1,1.15-1h.344c1.008,0,.814-.053.93.819.062.467.189.762.691.863a4.535,4.535,0,0,1,.867.372c.274-.2.577-.414.861-.646a.371.371,0,0,1,.59.022c.332.351.676.692,1.026,1.026.194.185.229.377.031.556a1.331,1.331,0,0,0-.27,1.85.912.912,0,0,0,.78.587c.992.138.875-.053.881.992,0,.318-.007.637,0,.955.008.245-.074.4-.338.4a1.346,1.346,0,0,0-1.513,1.109.919.919,0,0,0,.119.963c.658.845.653.622-.088,1.382-.213.219-.438.427-.646.65-.17.182-.352.228-.524.039a1.374,1.374,0,0,0-1.92-.266c-.331.186-.525.331-.524.7a1.626,1.626,0,0,1-.032.265c-.1.628-.1.643-.759.675-.31.015-.262.21-.262.394q0,3,0,6a8.107,8.107,0,0,1-.012.877c-.011.1-.149.186-.229.279a1.168,1.168,0,0,1-.24-.277.927.927,0,0,1-.012-.34c0-2.164-.006-4.328.005-6.493,0-.317-.059-.485-.416-.435-.265.037-.412-.092-.408-.368a1.324,1.324,0,0,0-1.06-1.467,1.009,1.009,0,0,0-1.094.174c-.715.565-.568.561-1.21-.077-.244-.242-.478-.494-.731-.727a.334.334,0,0,1-.047-.527,6.929,6.929,0,0,0,.543-.736.536.536,0,0,0,.027-.395,6.331,6.331,0,0,1-.3-.737c-.075-.417-.316-.541-.7-.581-.352-.037-.742.012-1.021-.309-.041-.047-.171-.021-.259-.021H6.117c-.1,0-.2.012-.353.021v.462q0,9.09,0,18.179a2.4,2.4,0,0,0,2.617,2.606q7.027,0,14.054,0c.215,0,.561-.116.553.265-.008.344-.333.24-.541.24q-5.117.008-10.235,0c-.267,0-.435.048-.477.342a.891.891,0,0,1-.147.39c-.389.524-.222.94.171,1.385.422.478.392.5-.054.949-.279.279-.56.556-.832.842-.182.191-.377.234-.56.037a1.355,1.355,0,0,0-1.855-.274.9.9,0,0,0-.587.785c-.127,1.049-.012.882-1.021.9-.318,0-.637,0-.955,0-.233,0-.377-.106-.369-.337A1.365,1.365,0,0,0,4.4,62.012a.9.9,0,0,0-.963.148c-.825.647-.639.591-1.332-.078-.229-.221-.447-.453-.677-.673-.174-.166-.236-.342-.044-.523A1.339,1.339,0,0,0,1.66,59c-.193-.323-.307-.519-.708-.568C0,58.321.007,58.293.007,57.346c0-.28.018-.562,0-.84-.024-.3.116-.449.387-.437a1.28,1.28,0,0,0,1.45-1.076.925.925,0,0,0-.108-1c-.647-.817-.656-.6.078-1.351.214-.218.439-.426.646-.65.18-.195.377-.24.557-.041A1.324,1.324,0,0,0,4.9,52.2c.253-.153.369-.249.369-.549Q5.254,43.5,5.26,35.343a3,3,0,0,1,3.219-3.217H22.832m10.29-.113-.914-.908a1.973,1.973,0,0,0-.3.217,1.023,1.023,0,0,1-1.574.16.345.345,0,0,0-.174-.075c-.855-.094-1.162-.611-1.135-1.418,0-.083-.166-.254-.237-.245-.37.047-.778-.181-1.109.133-.036.034-.018.122-.027.185a5.446,5.446,0,0,1-.131.788.6.6,0,0,1-.3.327c-.447.207-.919.362-1.363.575a.456.456,0,0,1-.554-.039c-.274-.22-.561-.424-.9-.676-.157.186-.284.345-.42.5s-.292.3-.44.456c.227.3.419.571.626.827a.472.472,0,0,1,.039.59,5.271,5.271,0,0,0-.494,1.15.621.621,0,0,1-.639.551c-.9.086-.885.1-.9.992-.007.337.084.492.437.485.2,0,.4.064.6.079a.479.479,0,0,1,.468.4,8.437,8.437,0,0,0,.522,1.262.5.5,0,0,1-.049.621c-.215.26-.405.542-.585.786l.891.932c.284-.213.563-.409.827-.625a.47.47,0,0,1,.59-.034,5.05,5.05,0,0,0,1.15.492.62.62,0,0,1,.548.641c.094.9.106.88.993.9.345.007.485-.1.483-.445,0-.2.059-.4.077-.6a.474.474,0,0,1,.381-.45,10.472,10.472,0,0,0,1.3-.536.481.481,0,0,1,.59.041c.264.214.543.41.889.668.136-.169.252-.338.394-.481s.323-.278.488-.417a3.3,3.3,0,0,0-.321-.444.939.939,0,0,1-.144-1.449.485.485,0,0,0,.1-.244c.095-.86.628-1.148,1.424-1.132.082,0,.23-.148.241-.241.125-1.058.1-1.086-.933-1.214-.038,0-.076-.011-.114-.014-.233-.017-.338-.141-.415-.368-.155-.454-.377-.885-.535-1.339a.688.688,0,0,1,.026-.508,8.814,8.814,0,0,1,.616-.85M21.7,36.227c0-.415,0-.782,0-1.149a.3.3,0,0,1,.313-.347c.265-.027.529-.074.794-.1a.455.455,0,0,0,.47-.389,3.992,3.992,0,0,1,.33-.809.519.519,0,0,0-.481-.791q-7.426,0-14.851,0a2.676,2.676,0,0,0-2.425,3.585ZM2.825,61.975a8.75,8.75,0,0,1,.829-.6.672.672,0,0,1,.5-.03,10.359,10.359,0,0,0,1.08.463.743.743,0,0,1,.678.787c.055.777.09.757.86.782.385.012.64-.036.611-.506a3.352,3.352,0,0,1,.076-.566.44.44,0,0,1,.361-.415,9.627,9.627,0,0,0,1.331-.554.444.444,0,0,1,.552.038c.274.222.564.424.761.57l.989-.853c-.2-.268-.371-.522-.569-.752a.531.531,0,0,1-.056-.716,10.588,10.588,0,0,0,.5-1.087c-.622,0-1.154-.017-1.685.011a.6.6,0,0,0-.407.236,3.014,3.014,0,1,1-4.22-4.094c.088-.062.218-.153.221-.234.019-.6.01-1.2.01-1.9-.421.2-.76.345-1.074.529a.421.421,0,0,1-.55-.034c-.274-.221-.564-.422-.783-.584l-.963.875c.216.29.412.572.627.838a.446.446,0,0,1,.029.551c-.21.431-.357.893-.565,1.326A.683.683,0,0,1,1.6,56.4a9.254,9.254,0,0,1-1.05.173v1.287c.359.056.7.125,1.035.155.248.022.336.148.412.367a11.52,11.52,0,0,0,.534,1.3.466.466,0,0,1-.031.583c-.217.263-.41.547-.622.833l.95.879m5.9-3.445a3.162,3.162,0,0,1-2.583-.795,3.058,3.058,0,0,1-.881-2.517A2.373,2.373,0,0,0,4.21,57.66a2.531,2.531,0,0,0,2.074,2.026A2.4,2.4,0,0,0,8.724,58.53" transform="translate(0 -26.98)" fill="#fff" stroke="#fff" stroke-width="0.5"/>
      <path id="Path_14798" data-name="Path 14798" d="M297.2,303.063c.611.6,1.193,1.172,1.768,1.748.322.323.321.48,0,.8q-1.022,1.03-2.051,2.052c-.291.289-.488.29-.777,0-.58-.586-1.153-1.18-1.75-1.793-.446.5-.842.944-1.242,1.386-.325.359-.6.306-.736-.152q-1.145-3.854-2.274-7.714a.63.63,0,0,1,.078-.512.575.575,0,0,1,.481-.051q3.843,1.115,7.678,2.262a.648.648,0,0,1,.4.33c.034.11-.115.315-.232.427-.422.4-.864.785-1.349,1.219m-6.547-3.727,2.205,7.458c.4-.444.746-.829,1.093-1.212.4-.437.4-.436.827-.006l1.7,1.715,2.137-2.139c-.509-.5-1.035-1.012-1.565-1.524-.67-.648-.6-.6.046-1.176.326-.29.649-.582,1.016-.911l-7.463-2.205" transform="translate(-267.958 -275.974)" fill="#fff" stroke="#fff" stroke-width="0.5"/>
      <path id="Path_14799" data-name="Path 14799" d="M81.331,35.754H76.868a.736.736,0,0,1-.3-.011,1.379,1.379,0,0,1-.281-.25,1.588,1.588,0,0,1,.28-.247c.069-.038.174-.009.263-.009h9.041a.638.638,0,0,1,.264.01,1.347,1.347,0,0,1,.261.226,1.266,1.266,0,0,1-.26.269c-.078.044-.2.013-.3.013h-4.5" transform="translate(-70.458 -32.536)" fill="#fff" stroke="#fff" stroke-width="0.5"/>
      <path id="Path_14800" data-name="Path 14800" d="M1.921,212.531q0,2.06,0,4.12a.811.811,0,0,1-.013.3c-.038.089-.146.217-.209.21a.43.43,0,0,1-.268-.2c-.046-.076-.019-.2-.019-.3q0-4.158,0-8.316c0-.214-.083-.533.249-.541s.254.315.255.527c.005,1.4,0,2.8,0,4.2" transform="translate(-1.297 -191.933)" fill="#fff" stroke="#fff" stroke-width="0.5"/>
      <path id="Path_14801" data-name="Path 14801" d="M239.821.01h4.08a.759.759,0,0,1,.3.01,1.391,1.391,0,0,1,.285.242,1.688,1.688,0,0,1-.288.247.6.6,0,0,1-.263.012h-8.274l-.191,0c-.19,0-.4-.037-.349-.276.02-.1.228-.221.352-.223,1.449-.015,2.9-.01,4.347-.01" transform="translate(-217.154 0)" fill="#fff" stroke="#fff" stroke-width="0.5"/>
      <path id="Path_14802" data-name="Path 14802" d="M282.173,196.255l-2.4-2.3a5.211,5.211,0,0,1-.57-.561c-.084-.111-.069-.3-.1-.45.155.032.359.013.458.105,1.032.964,2.043,1.949,3.068,2.92.234.221.214.389-.016.6-1.018.922-2.029,1.853-3.042,2.78-.145.133-.322.292-.47.063-.055-.086.026-.339.124-.432.961-.906,1.94-1.8,2.948-2.721" transform="translate(-257.763 -178.204)" fill="#fff" stroke="#fff" stroke-width="0.5"/>
      <path id="Path_14803" data-name="Path 14803" d="M115.117,196.438l2.11,1.934c.3.275.614.538.89.835.082.088.058.275.082.417-.144-.017-.335.019-.424-.06-1.053-.941-2.089-1.9-3.132-2.851a.3.3,0,0,1-.012-.515c1.048-1,2.09-2.01,3.149-3,.084-.078.283-.034.429-.046-.03.142-.012.334-.1.419-.888.875-1.793,1.732-2.693,2.594-.09.086-.184.167-.3.273" transform="translate(-105.748 -178.395)" fill="#fff" stroke="#fff" stroke-width="0.5"/>
      <path id="Path_14804" data-name="Path 14804" d="M37.26,80.044q0,2.231,0,4.461a.8.8,0,0,1-.01.3,1.419,1.419,0,0,1-.231.29,1.306,1.306,0,0,1-.249-.272.723.723,0,0,1-.014-.3q0-4.5,0-9a.7.7,0,0,1,.018-.3c.05-.1.163-.224.244-.221s.187.139.227.238a.953.953,0,0,1,.014.34q0,2.231,0,4.461" transform="translate(-33.94 -69.275)" fill="#fff" stroke="#fff" stroke-width="0.5"/>
      <path id="Path_14805" data-name="Path 14805" d="M20.157,17.242a1.642,1.642,0,1,1-.011,3.284A1.659,1.659,0,0,1,18.5,18.875a1.642,1.642,0,0,1,1.661-1.633m-.026,2.766a1.128,1.128,0,1,0-1.12-1.12,1.143,1.143,0,0,0,1.12,1.12" transform="translate(-17.083 -15.925)" fill="#fff" stroke="#fff" stroke-width="0.5"/>
      <path id="Path_14806" data-name="Path 14806" d="M205.066,184.763c-.038.13-.061.216-.089.3q-1.178,3.465-2.357,6.93c-.016.048-.022.111-.056.14-.1.087-.218.16-.329.238-.05-.134-.17-.29-.137-.4.21-.693.453-1.376.686-2.062q.841-2.473,1.683-4.945a.791.791,0,0,1,.13-.311.376.376,0,0,1,.3-.078c.073.016.125.133.171.187" transform="translate(-186.653 -170.471)" fill="#fff" stroke="#fff" stroke-width="0.5"/>
      <path id="Path_14807" data-name="Path 14807" d="M194.259,162.288q1.68,0,3.36,0c.185,0,.426-.044.429.241,0,.3-.243.273-.446.273h-6.721c-.038,0-.087.015-.113,0-.119-.083-.233-.176-.348-.265.121-.082.241-.234.363-.236,1.158-.018,2.316-.011,3.475-.011" transform="translate(-175.875 -149.89)" fill="#fff" stroke="#fff" stroke-width="0.5"/>
      <path id="Path_14808" data-name="Path 14808" d="M295.326,443.159h-3.207c-.195,0-.44.01-.408-.253.013-.1.269-.249.415-.25q3.226-.024,6.453,0c.136,0,.371.139.387.241.042.271-.2.263-.394.263h-3.246" transform="translate(-269.424 -408.83)" fill="#fff" stroke="#fff" stroke-width="0.5"/>
      <path id="Path_14809" data-name="Path 14809" d="M117.522,302.063c1.12,0,2.239,0,3.359,0,.195,0,.46-.056.454.252,0,.27-.245.24-.435.24h-6.832a.549.549,0,0,1-.262-.02c-.083-.051-.187-.158-.184-.237s.114-.189.2-.219a1.2,1.2,0,0,1,.378-.016h3.321" transform="translate(-104.942 -278.983)" fill="#fff" stroke="#fff" stroke-width="0.5"/>
      <path id="Path_14810" data-name="Path 14810" d="M116.825,376.932q-1.412,0-2.824,0c-.2,0-.46.042-.469-.247s.244-.269.449-.269h5.762c.192,0,.422-.025.426.249.005.3-.242.268-.445.268h-2.9" transform="translate(-104.859 -347.66)" fill="#fff" stroke="#fff" stroke-width="0.5"/>
      <path id="Path_14811" data-name="Path 14811" d="M194.015,339.3h2.859c.19,0,.422-.028.416.255s-.228.26-.423.26c-1.932,0-3.864.006-5.8-.011-.143,0-.395-.155-.405-.258-.027-.264.22-.247.412-.247h2.936" transform="translate(-176.1 -313.381)" fill="#fff" stroke="#fff" stroke-width="0.5"/>
      <path id="Path_14812" data-name="Path 14812" d="M425.778,203.517q0,1.123,0,2.246c0,.193.016.418-.26.415s-.257-.227-.257-.42q0-2.265,0-4.531c0-.2-.011-.427.244-.437.289-.011.275.234.275.442q0,1.142,0,2.284" transform="translate(-392.774 -185.452)" fill="#fff" stroke="#fff" stroke-width="0.5"/>
      <path id="Path_14813" data-name="Path 14813" d="M246.386,35.307c.458,0,.916,0,1.373,0,.193,0,.4.032.356.269a.45.45,0,0,1-.35.238q-1.411.03-2.823,0c-.121,0-.238-.161-.357-.247.117-.086.23-.238.352-.245.482-.029.966-.012,1.449-.012" transform="translate(-225.901 -32.605)" fill="#fff" stroke="#fff" stroke-width="0.5"/>
      <path id="Path_14814" data-name="Path 14814" d="M227.606,443.118c-.432,0-.865.018-1.3-.012-.121-.008-.234-.154-.35-.237.116-.088.23-.249.348-.252.876-.022,1.754-.023,2.63,0,.127,0,.25.174.375.268-.124.077-.245.214-.374.222-.443.028-.889.011-1.334.011" transform="translate(-208.7 -408.79)" fill="#fff" stroke="#fff" stroke-width="0.5"/>
      <path id="Path_14815" data-name="Path 14815" d="M37.334,245.028c0,.47.017.941-.012,1.41-.007.121-.156.234-.24.35-.084-.117-.237-.233-.24-.351q-.029-1.41,0-2.821c0-.118.157-.234.241-.35.083.117.23.231.238.353.028.468.011.94.011,1.41" transform="translate(-34.015 -224.682)" fill="#fff" stroke="#fff" stroke-width="0.5"/>
      <path id="Path_14816" data-name="Path 14816" d="M425.71,294.6a7.034,7.034,0,0,1-.011.873c-.016.127-.154.239-.237.358-.09-.111-.252-.22-.257-.335-.025-.62-.025-1.242,0-1.863,0-.116.165-.225.253-.338.084.118.226.229.24.355a8.69,8.69,0,0,1,.012.95" transform="translate(-392.706 -270.89)" fill="#fff" stroke="#fff" stroke-width="0.5"/>
      <path id="Path_14817" data-name="Path 14817" d="M171.961,443.121a9.367,9.367,0,0,1-.951-.011c-.115-.012-.217-.151-.325-.232.1-.089.2-.252.307-.256.647-.024,1.295-.024,1.941,0,.1,0,.2.169.3.26-.107.08-.209.216-.323.228a9.432,9.432,0,0,1-.951.011" transform="translate(-157.646 -408.793)" fill="#fff" stroke="#fff" stroke-width="0.5"/>
      <path id="Path_14818" data-name="Path 14818" d="M1.936,151.788a5.6,5.6,0,0,1-.012.759c-.014.1-.154.185-.236.276-.086-.091-.243-.179-.247-.275-.025-.519-.026-1.04,0-1.559.006-.1.17-.2.262-.3.078.1.209.191.222.3a6.472,6.472,0,0,1,.01.8" transform="translate(-1.313 -139.181)" fill="#fff" stroke="#fff" stroke-width="0.5"/>
      <path id="Path_14819" data-name="Path 14819" d="M179.109.076a5.606,5.606,0,0,1,.758.011c.1.014.191.151.285.232-.091.087-.178.244-.273.248-.53.025-1.063.025-1.594,0-.09,0-.173-.167-.259-.256.095-.079.183-.213.286-.225a6.459,6.459,0,0,1,.8-.011" transform="translate(-164.427 -0.063)" fill="#fff" stroke="#fff" stroke-width="0.5"/>
      <path id="Path_14820" data-name="Path 14820" d="M425.7,349.407a3.514,3.514,0,0,1-.011.644c-.022.118-.155.214-.238.32-.089-.1-.249-.194-.255-.3a11.8,11.8,0,0,1,0-1.406c.006-.106.165-.2.253-.3.083.107.22.2.238.321a4.618,4.618,0,0,1,.012.721" transform="translate(-392.696 -321.753)" fill="#fff" stroke="#fff" stroke-width="0.5"/>
      <path id="Path_14821" data-name="Path 14821" d="M148.252,339.221a4.379,4.379,0,0,1,.685.011c.1.017.187.151.28.233-.089.089-.174.249-.268.254a13.456,13.456,0,0,1-1.449,0c-.091-.005-.173-.17-.259-.26.1-.079.183-.211.287-.226a5.1,5.1,0,0,1,.724-.011" transform="translate(-135.993 -313.301)" fill="#fff" stroke="#fff" stroke-width="0.5"/>
      <path id="Path_14822" data-name="Path 14822" d="M219,376.334a4.209,4.209,0,0,1,.68.01c.107.018.2.15.293.231-.1.091-.193.255-.3.261a12.322,12.322,0,0,1-1.4,0c-.1-.005-.189-.149-.283-.23.1-.091.181-.242.29-.261a4.31,4.31,0,0,1,.718-.013" transform="translate(-201.342 -347.577)" fill="#fff" stroke="#fff" stroke-width="0.5"/>
      <path id="Path_14823" data-name="Path 14823" d="M148.214,162.726a3.635,3.635,0,0,1-.684-.013c-.11-.022-.194-.177-.289-.272.1-.076.2-.212.3-.217a12.169,12.169,0,0,1,1.373,0c.106.006.2.16.305.246-.1.086-.2.225-.317.246a3.94,3.94,0,0,1-.685.011Z" transform="translate(-135.992 -149.814)" fill="#fff" stroke="#fff" stroke-width="0.5"/>
      <path id="Path_14824" data-name="Path 14824" d="M232.972,302.042a2.779,2.779,0,0,1,.569.012c.1.022.18.157.269.241-.082.078-.161.219-.248.224a8.875,8.875,0,0,1-1.18,0c-.094-.007-.178-.159-.267-.244.095-.078.18-.2.287-.224a2.87,2.87,0,0,1,.57-.01" transform="translate(-214.385 -278.96)" fill="#fff" stroke="#fff" stroke-width="0.5"/>
      <path id="Path_14825" data-name="Path 14825" d="M114.1,162.678a1.016,1.016,0,0,1-.374-.009,1.229,1.229,0,0,1-.3-.266c.1-.078.187-.212.292-.225a3.156,3.156,0,0,1,.792,0c.1.013.182.154.272.237-.089.087-.163.213-.27.251a1.3,1.3,0,0,1-.413.011" transform="translate(-104.762 -149.767)" fill="#fff" stroke="#fff" stroke-width="0.5"/>
      <path id="Path_14826" data-name="Path 14826" d="M114.065,339.163a1.1,1.1,0,0,1,.375.009,1.239,1.239,0,0,1,.3.246c-.091.085-.174.231-.275.245a3.034,3.034,0,0,1-.792,0c-.106-.014-.195-.152-.291-.234a1.255,1.255,0,0,1,.3-.256,1.081,1.081,0,0,1,.375-.01" transform="translate(-104.724 -313.243)" fill="#fff" stroke="#fff" stroke-width="0.5"/>
      <path id="Path_14827" data-name="Path 14827" d="M260.671,376.887a1.825,1.825,0,0,1-.452-.01c-.085-.022-.2-.151-.2-.221.009-.1.117-.253.195-.261a4.528,4.528,0,0,1,.906,0c.085.008.233.179.217.237a.44.44,0,0,1-.254.251,1.32,1.32,0,0,1-.413.01v0" transform="translate(-240.158 -347.62)" fill="#fff" stroke="#fff" stroke-width="0.5"/>
      <path id="Path_14828" data-name="Path 14828" d="M349.665,93.245a1.77,1.77,0,1,1-1.787,1.775,1.739,1.739,0,0,1,1.787-1.775M350.913,95a1.259,1.259,0,0,0-1.269-1.248,1.28,1.28,0,0,0-1.264,1.262,1.307,1.307,0,0,0,1.3,1.277A1.278,1.278,0,0,0,350.913,95" transform="translate(-321.304 -86.122)" fill="#fff" stroke="#fff" stroke-width="0.5"/>
      <path id="Path_14829" data-name="Path 14829" d="M361.643,67.1a.764.764,0,0,1-.29.013,1.928,1.928,0,0,1-.376-.206c.118-.1.242-.294.352-.286a7.133,7.133,0,0,1,1.793.233,3.8,3.8,0,0,1,2.348,4.532c-.049.18-.087.409-.357.342s-.188-.276-.144-.463a3.329,3.329,0,0,0-3.325-4.164" transform="translate(-333.402 -61.533)" fill="#fff" stroke="#fff" stroke-width="0.5"/>
      <path id="Path_14830" data-name="Path 14830" d="M93.238,86.492a.943.943,0,0,1-1.885.033.943.943,0,1,1,1.885-.033m-.871-.478-.173.01c-.108.161-.286.314-.307.486a.369.369,0,0,0,.428.415c.25-.01.435-.175.388-.414-.036-.181-.218-.332-.336-.5" transform="translate(-84.374 -79.028)" fill="#fff" stroke="#fff" stroke-width="0.5"/>
      <path id="Path_14831" data-name="Path 14831" d="M127.418,86.529a.929.929,0,0,1-.938.939.94.94,0,0,1-.941-.941.951.951,0,0,1,.944-.942.934.934,0,0,1,.935.944m-1.024.484h.18c.109-.157.284-.3.313-.472a.348.348,0,0,0-.407-.42.588.588,0,0,0-.4.4c-.01.159.2.331.313.5" transform="translate(-115.949 -79.047)" fill="#fff" stroke="#fff" stroke-width="0.5"/>
      <path id="Path_14832" data-name="Path 14832" d="M161.72,86.478a.931.931,0,1,1-1.861.015.931.931,0,1,1,1.861-.015m-1.035.5.17.008c.118-.15.3-.286.339-.455a.37.37,0,0,0-.386-.456.379.379,0,0,0-.431.42c.018.17.2.322.307.483" transform="translate(-147.647 -79.014)" fill="#fff" stroke="#fff" stroke-width="0.5"/>
    </g>
  </g>
</svg>
