<svg xmlns="http://www.w3.org/2000/svg" width="200" height="120" viewBox="0 0 200 120">
  <g id="Group_50494" data-name="Group 50494" transform="translate(-900 -20422)">
    <g id="Rectangle_14798" data-name="Rectangle 14798" transform="translate(900 20422)" fill="#fff" stroke="#e3e2e2" stroke-width="1">
      <rect width="200" height="120" rx="8" stroke="none"/>
      <rect x="0.5" y="0.5" width="199" height="119" rx="7.5" fill="none"/>
    </g>
    <g id="logo-hexaware" transform="translate(919 20471)">
      <path id="Path_74923" data-name="Path 74923" d="M4.662,99.26a2.561,2.561,0,0,1-.934,1.654,2.354,2.354,0,0,1-3.254-.027A2.044,2.044,0,0,1,.02,99.26L2.368,82.588a2.744,2.744,0,0,1,.88-1.627,2.373,2.373,0,0,1,3.308-.027,2.1,2.1,0,0,1,.453,1.654Z" transform="translate(0 -80.203)" fill="#3c2cda"/>
      <path id="Path_74924" data-name="Path 74924" d="M51.818,99.26a2.56,2.56,0,0,1-.934,1.654,2.354,2.354,0,0,1-3.254-.027,2.044,2.044,0,0,1-.453-1.627l2.347-16.672a2.745,2.745,0,0,1,.88-1.627,2.373,2.373,0,0,1,3.308-.027,2.1,2.1,0,0,1,.453,1.654Z" transform="translate(-34.486 -80.203)" fill="#3c2cda"/>
      <path id="Path_74925" data-name="Path 74925" d="M13.884,111.14a1.929,1.929,0,0,1,1.547.693,2.444,2.444,0,0,1-.48,3.254,2.661,2.661,0,0,1-1.734.667H6.308a2.052,2.052,0,0,1-1.547-.64,2.428,2.428,0,0,1,.453-3.308,2.608,2.608,0,0,1,1.734-.694h6.936Z" transform="translate(-3.141 -102.753)" fill="#3c2cda"/>
      <path id="Path_74926" data-name="Path 74926" d="M88.7,101.822H77.87a1.993,1.993,0,0,1-1.547-.667,2.044,2.044,0,0,1-.454-1.627l2.294-16.379a2.671,2.671,0,0,1,.88-1.627,2.558,2.558,0,0,1,1.734-.694h10.83a1.92,1.92,0,0,1,1.494.667,1.97,1.97,0,0,1,.427,1.6,2.52,2.52,0,0,1-.907,1.6,2.622,2.622,0,0,1-1.654.64H82.485l-.534,3.788h7.523a1.876,1.876,0,0,1,1.921,2.241,2.519,2.519,0,0,1-.907,1.6,2.593,2.593,0,0,1-1.654.613H81.312l-.534,3.815h8.483a1.921,1.921,0,0,1,1.494.667,1.972,1.972,0,0,1,.427,1.6,2.521,2.521,0,0,1-.907,1.6A2.461,2.461,0,0,1,88.7,101.822Z" transform="translate(-55.469 -80.606)" fill="#3c2cda"/>
      <path id="Path_74927" data-name="Path 74927" d="M158.233,101.424a1.886,1.886,0,0,1-1.707-.96L152.5,94.328l-5.709,6.189a2.646,2.646,0,0,1-1.921.907,1.9,1.9,0,0,1-1.894-2.241,2.588,2.588,0,0,1,.667-1.414l6.7-7.016L145.7,83.818a2.246,2.246,0,0,1-.293-1.44,2.6,2.6,0,0,1,.88-1.627,2.466,2.466,0,0,1,2.721-.4,1.752,1.752,0,0,1,.72.667l3.974,6.135,5.709-6.189a2.351,2.351,0,0,1,3.361-.213,1.894,1.894,0,0,1,.454,1.6,2.476,2.476,0,0,1-.614,1.307l-6.722,7.069,4.695,6.989a1.811,1.811,0,0,1,.293,1.387,2.745,2.745,0,0,1-.88,1.627A2.456,2.456,0,0,1,158.233,101.424Z" transform="translate(-104.542 -80.074)" fill="#3c2cda"/>
      <path id="Path_74928" data-name="Path 74928" d="M232.387,101.521a2.151,2.151,0,0,1-1.227-.373,1.983,1.983,0,0,1-.72-1.014l-.987-3.574h-7.736l-1.974,3.548a2.922,2.922,0,0,1-1.014,1.04,2.3,2.3,0,0,1-2.908-.293,1.993,1.993,0,0,1-.4-1.627,3.235,3.235,0,0,1,.347-.96l9.176-16.272a4.062,4.062,0,0,1,1.094-1.227,2.819,2.819,0,0,1,1.707-.533h.267a2.269,2.269,0,0,1,1.547.533,2.555,2.555,0,0,1,.747,1.2l4.615,16.272a2.025,2.025,0,0,1,.08.96,2.855,2.855,0,0,1-.854,1.627A2.413,2.413,0,0,1,232.387,101.521ZM224.2,92.158h4.028L226.892,87.3Z" transform="translate(-157.516 -80.171)" fill="#3c2cda"/>
      <path id="Path_74929" data-name="Path 74929" d="M309.688,101.35a2.369,2.369,0,0,1-1.574-.56,2.43,2.43,0,0,1-.8-1.44l-1.841-10.457L300.7,99.376a3.391,3.391,0,0,1-1.2,1.414,2.718,2.718,0,0,1-3.254.027,2.485,2.485,0,0,1-.8-1.414l-3.014-16.3a2.772,2.772,0,0,1-.027-.8,2.511,2.511,0,0,1,.853-1.627,2.428,2.428,0,0,1,3.121-.133,2.389,2.389,0,0,1,.64,1.2l1.894,11.5L304.033,81.8a3.207,3.207,0,0,1,1.094-1.307,2.6,2.6,0,0,1,3.041,0,2.107,2.107,0,0,1,.747,1.307l1.921,11.444,5.122-11.5a2.969,2.969,0,0,1,.987-1.227,2.332,2.332,0,0,1,3.068.133,2.02,2.02,0,0,1,.4,1.681,4.6,4.6,0,0,1-.213.694l-7.6,16.3a3.647,3.647,0,0,1-1.227,1.44A2.587,2.587,0,0,1,309.688,101.35Z" transform="translate(-213.824 -80)" fill="#3c2cda"/>
      <path id="Path_74930" data-name="Path 74930" d="M399.77,101.521a2.15,2.15,0,0,1-1.227-.373,1.982,1.982,0,0,1-.72-1.014l-.987-3.574H389.1l-1.974,3.548a2.921,2.921,0,0,1-1.014,1.04,2.3,2.3,0,0,1-2.908-.293,1.994,1.994,0,0,1-.4-1.627,3.237,3.237,0,0,1,.347-.96l9.176-16.272a4.069,4.069,0,0,1,1.094-1.227,2.819,2.819,0,0,1,1.707-.533h.267a2.269,2.269,0,0,1,1.547.533,2.557,2.557,0,0,1,.747,1.2L402.3,98.24a2.016,2.016,0,0,1,.081.96,2.86,2.86,0,0,1-.854,1.627A2.5,2.5,0,0,1,399.77,101.521Zm-8.216-9.363h4.028L394.249,87.3Z" transform="translate(-279.925 -80.171)" fill="#3c2cda"/>
      <path id="Path_74931" data-name="Path 74931" d="M492.867,127.44a1.887,1.887,0,0,1-1.707-.961l-6.8-10.75,5.416-.053,5.442,8.083a1.844,1.844,0,0,1,.293,1.387,2.85,2.85,0,0,1-.853,1.627A2.617,2.617,0,0,1,492.867,127.44Z" transform="translate(-354.214 -106.09)" fill="#3c2cda"/>
      <path id="Path_74932" data-name="Path 74932" d="M464.4,101.955a2,2,0,0,1-1.547-.667,1.94,1.94,0,0,1-.426-1.627l2.32-16.512a2.667,2.667,0,0,1,.88-1.627,2.558,2.558,0,0,1,1.733-.694h6.3c2.694,0,4.695.587,5.949,1.761a5.165,5.165,0,0,1,1.547,4.8c-.24,1.68-1.574,7.122-8.882,7.122h-4.508l-.721,5.175a2.557,2.557,0,0,1-.934,1.654A2.732,2.732,0,0,1,464.4,101.955Zm4-11.977h3.788a6.018,6.018,0,0,0,3.175-.72,2.188,2.188,0,0,0,1.12-1.68,1.585,1.585,0,0,0-.507-1.6c-.374-.293-1.227-.64-3.282-.64h-3.654Z" transform="translate(-338.155 -80.606)" fill="#3c2cda"/>
      <path id="Path_74933" data-name="Path 74933" d="M546.81,101.822H535.98a1.992,1.992,0,0,1-1.547-.667,1.937,1.937,0,0,1-.427-1.627L536.3,83.149a2.667,2.667,0,0,1,.88-1.627,2.622,2.622,0,0,1,1.761-.694h10.83a1.921,1.921,0,0,1,1.494.667,1.973,1.973,0,0,1,.427,1.6,2.521,2.521,0,0,1-.908,1.6,2.62,2.62,0,0,1-1.654.64h-8.509l-.534,3.788h7.523a1.9,1.9,0,0,1,1.494.64,1.88,1.88,0,0,1,.427,1.6,2.525,2.525,0,0,1-.907,1.6,2.593,2.593,0,0,1-1.654.613h-7.523l-.534,3.815h8.51a1.919,1.919,0,0,1,1.494.667,1.968,1.968,0,0,1,.427,1.6,2.518,2.518,0,0,1-.907,1.6A2.673,2.673,0,0,1,546.81,101.822Z" transform="translate(-390.499 -80.606)" fill="#3c2cda"/>
    </g>
  </g>
</svg>
