<svg id="Group_48938" data-name="Group 48938" xmlns="http://www.w3.org/2000/svg" xmlns:xlink="http://www.w3.org/1999/xlink" width="37.664" height="49.877" viewBox="0 0 37.664 49.877">
  <defs>
    <clipPath id="clip-path">
      <rect id="Rectangle_8228" data-name="Rectangle 8228" width="37.664" height="49.877" fill="#ed2023"/>
    </clipPath>
  </defs>
  <g id="Group_48937" data-name="Group 48937" clip-path="url(#clip-path)">
    <path id="Path_14557" data-name="Path 14557" d="M.2,87.837c0-2.976.039-5.952-.015-8.927-.03-1.623.682-2.272,2.222-2.251,2.721.037,5.442.032,8.163,0,1.561-.017,2.194.705,2.179,2.3-.045,5.025-.027,10.051-.01,15.076.014,4.11,2.5,6.976,6.078,7.042,3.636.067,6.257-2.848,6.277-7.04.023-4.893,0-9.787.011-14.68,0-2.345.315-2.673,2.541-2.686,2.527-.015,5.054.042,7.58-.02,1.718-.042,2.455.638,2.432,2.457-.068,5.421.02,10.845-.041,16.267a19,19,0,0,1-16.951,18.538A18.709,18.709,0,0,1,.715,99.088C.033,95.427.213,91.6,0,87.848l.2-.011m3.263,2.335c-.852,7.7.719,14.246,7.517,18.337,5.723,3.444,11.55,3.149,16.985-.727,6.012-4.288,7.2-10.552,6.4-17.561H28.218c0,1.424.01,2.734,0,4.044-.05,5.767-4.1,10.079-9.377,10-5.252-.077-9.154-4.3-9.213-9.97-.014-1.361,0-2.721,0-4.124Zm-.073-3.4H9.5v-6.8H3.4Zm31.049-6.761H28.371v6.76h6.073Z" transform="translate(0 -64.115)" fill="#ed2023"/>
    <path id="Path_14558" data-name="Path 14558" d="M67.511,0a12.007,12.007,0,0,1,7.671,3.185c.54.488,1.048,1.052.409,1.756-.58.639-1.134.22-1.664-.232a11.118,11.118,0,0,0-15.033.372c-.582.521-1.223,1.6-2.066.606-.87-1.025.266-1.586.881-2.131A14.346,14.346,0,0,1,67.511,0" transform="translate(-47.368 0)" fill="#ed2023"/>
    <path id="Path_14559" data-name="Path 14559" d="M86.845,24.851c-.273.312-.466.727-.739.792a1.763,1.763,0,0,1-1.08-.245,19.365,19.365,0,0,0-3.486-1.8,7.783,7.783,0,0,0-7.155,1.934c-.186.155-.338.436-.538.473a7.9,7.9,0,0,1-1.311.041c0-.478-.2-1.153.032-1.4,3.477-3.719,9.625-4.568,13.652-.764a5.159,5.159,0,0,1,.625.968" transform="translate(-60.732 -17.91)" fill="#ed2023"/>
    <path id="Path_14560" data-name="Path 14560" d="M95.679,45.29c-.021.969-.834,1.443-1.472.928-2.322-1.874-4.463-1.5-6.62.3a1.217,1.217,0,0,1-1.219-.088,1.329,1.329,0,0,1-.03-1.257c1.793-2.576,6.85-2.861,8.945-.543a3.215,3.215,0,0,1,.4.66" transform="translate(-72.249 -36.012)" fill="#ed2023"/>
  </g>
</svg>
