<svg id="Group_48940" data-name="Group 48940" xmlns="http://www.w3.org/2000/svg" xmlns:xlink="http://www.w3.org/1999/xlink" width="51.67" height="51.548" viewBox="0 0 51.67 51.548">
  <defs>
    <clipPath id="clip-path">
      <rect id="Rectangle_8237" data-name="Rectangle 8237" width="51.67" height="51.548" fill="#ed2023"/>
    </clipPath>
  </defs>
  <g id="Group_48939" data-name="Group 48939" clip-path="url(#clip-path)">
    <path id="Path_14561" data-name="Path 14561" d="M0,1.9A7.346,7.346,0,0,1,.429,1,2.2,2.2,0,0,1,2.211.007c.167-.013.336-.005.5-.005h42.8a2.27,2.27,0,0,1,2.445,1.611,2.521,2.521,0,0,1,.087.695q.007,8.151,0,16.3c0,.117-.014.233-.025.395H46.675c-.01-.194-.03-.4-.031-.615,0-3.4-.012-6.8.01-10.2,0-.511-.141-.652-.652-.652q-21.956.02-43.912.012c-.18,0-.361.017-.6.03v.58q0,11.861,0,23.723c0,.889.236,1.119,1.146,1.12h9.928v1.377c-.2.014-.407.043-.617.043q-4.492,0-8.984,0c-1.872,0-2.254-.25-2.962-1.941ZM1.5,6.143H45.781a3.688,3.688,0,0,1,.4,0c.358.039.468-.125.463-.468-.015-.992,0-1.985-.005-2.977,0-1.027-.21-1.234-1.241-1.234H2.707a4.761,4.761,0,0,0-.5.007.69.69,0,0,0-.7.67c-.027,1.308-.01,2.616-.01,4" transform="translate(0 0)" fill="#ed2023"/>
    <path id="Path_14562" data-name="Path 14562" d="M116.807,140.579c-2.108-1.425-4.166-2.736-6.128-4.178a4.154,4.154,0,0,0-2.776-.556c-.349,0-.264.286-.264.487q-.007,2.826,0,5.652c0,.706-.046,1.417.01,2.119a2.338,2.338,0,0,1-2.533,2.525c-3.4-.059-6.8-.027-10.193,0a2.065,2.065,0,0,0-1.064.325c-2.035,1.342-4.046,2.72-6.065,4.084-.138.093-.281.178-.48.3-.017-.192-.039-.331-.039-.47,0-1.228-.018-2.456.007-3.684.009-.43-.1-.624-.559-.58a9.565,9.565,0,0,1-1.109,0,2.2,2.2,0,0,1-2.25-2.229q-.032-5.475,0-10.951a2.2,2.2,0,0,1,2.291-2.244c3.4-.007,6.8-.016,10.194.011.53,0,.637-.158.633-.653-.024-2.573-.013-5.147-.01-7.721a2.248,2.248,0,0,1,2.412-2.433q9.739,0,19.479,0a2.258,2.258,0,0,1,2.4,2.411q.009,5.324,0,10.648a2.233,2.233,0,0,1-2.309,2.383c-.3.01-.605,0-.908,0-.7,0-.7,0-.7.677q0,1.741,0,3.482c0,.163-.013.325-.025.588m-28.12,8.08c.288-.183.456-.283.617-.392,1.324-.893,2.655-1.776,3.964-2.689a2.054,2.054,0,0,1,1.256-.392c3.431.016,6.863.009,10.294.009,1.223,0,1.385-.164,1.385-1.407q0-3.583,0-7.165c0-.789,0-.79-.786-.79-2.2,0-4.407.013-6.61-.007a2.2,2.2,0,0,1-2.343-2.385c0-.25,0-.5,0-.772a4.255,4.255,0,0,0-.438-.049q-5.122,0-10.243,0c-.733,0-.971.273-.972,1.032q0,5.223,0,10.445c0,.828.254,1.087,1.079,1.093.774.006,1.548.02,2.321-.006.386-.013.5.131.482.5-.024.47-.006.942-.006,1.412v1.562m26.739-14.251c.981,0,1.87,0,2.76,0,.86,0,1.1-.246,1.1-1.113q0-5.171,0-10.342c0-.887-.216-1.105-1.092-1.106H99.026c-.907,0-1.113.21-1.113,1.136q0,5.121,0,10.241c0,.965.22,1.183,1.184,1.183,3.565,0,7.13-.005,10.7.011a1.615,1.615,0,0,1,.831.256c1.447.95,2.875,1.929,4.31,2.9.127.086.268.153.492.279Z" transform="translate(-69.084 -99.788)" fill="#ed2023"/>
    <path id="Path_14563" data-name="Path 14563" d="M43.928,70.234H24.443V59.105H43.928Zm-1.456-9.728c-.209-.012-.358-.028-.507-.028q-7.792,0-15.585-.01c-.447,0-.574.136-.571.575.018,2.354.009,4.707.009,7.061,0,.724,0,.725.7.725q7.641,0,15.282,0c.215,0,.43-.018.668-.028Z" transform="translate(-20.261 -48.993)" fill="#ed2023"/>
    <rect id="Rectangle_8229" data-name="Rectangle 8229" width="19.264" height="1.387" transform="translate(4.311 25.98)" fill="#ed2023"/>
    <rect id="Rectangle_8230" data-name="Rectangle 8230" width="13.229" height="1.396" transform="translate(10.347 22.847)" fill="#ed2023"/>
    <rect id="Rectangle_8231" data-name="Rectangle 8231" width="1.37" height="1.405" transform="translate(4.318 22.85)" fill="#ed2023"/>
    <rect id="Rectangle_8232" data-name="Rectangle 8232" width="1.399" height="1.397" transform="translate(7.336 22.846)" fill="#ed2023"/>
    <rect id="Rectangle_8233" data-name="Rectangle 8233" width="31.107" height="1.331" transform="translate(3.473 3.047)" fill="#ed2023"/>
    <rect id="Rectangle_8234" data-name="Rectangle 8234" width="1.393" height="1.334" transform="translate(37.217 3.059)" fill="#ed2023"/>
    <rect id="Rectangle_8235" data-name="Rectangle 8235" width="1.395" height="1.331" transform="translate(40.228 3.051)" fill="#ed2023"/>
    <path id="Path_14564" data-name="Path 14564" d="M252.865,17.746h1.357a.964.964,0,0,1,.062.2c.083,1.244-.125,1.411-1.418,1.117Z" transform="translate(-209.604 -14.71)" fill="#ed2023"/>
    <path id="Path_14565" data-name="Path 14565" d="M123.283,222.527v1.407H107.016c0-.39-.018-.772.012-1.151.008-.1.16-.2.263-.272.044-.032.131-.007.2-.007h15.438c.1,0,.2.012.357.022" transform="translate(-88.703 -184.43)" fill="#ed2023"/>
    <rect id="Rectangle_8236" data-name="Rectangle 8236" width="16.236" height="1.391" transform="translate(18.355 41.231)" fill="#ed2023"/>
    <path id="Path_14566" data-name="Path 14566" d="M203.786,137.383c.537.169,1.07.353,1.613.5a.941.941,0,0,0,.593-.007,3.656,3.656,0,0,1,5,4.787,5.98,5.98,0,0,1-2.17,2.6,30.243,30.243,0,0,1-2.729,1.6.835.835,0,0,1-.653.025,11.947,11.947,0,0,1-4.134-2.9,4.035,4.035,0,0,1-1.084-3.944,3.817,3.817,0,0,1,3.566-2.657m1.9,2.567c-.211-.192-.378-.356-.558-.5a2.089,2.089,0,0,0-2.307-.339,2.049,2.049,0,0,0-1.3,1.929,2.757,2.757,0,0,0,.756,1.872,9.943,9.943,0,0,0,3.248,2.424.6.6,0,0,0,.5-.022,18.459,18.459,0,0,0,2.408-1.63,5.338,5.338,0,0,0,1.272-1.773,2.08,2.08,0,0,0-.8-2.614,2.178,2.178,0,0,0-2.739.224c-.151.132-.3.267-.484.434" transform="translate(-165.839 -113.879)" fill="#ed2023"/>
    <path id="Path_14567" data-name="Path 14567" d="M212.713,147.311c.186-.167.334-.3.484-.434a2.178,2.178,0,0,1,2.739-.224,2.08,2.08,0,0,1,.8,2.614,5.337,5.337,0,0,1-1.272,1.773,18.461,18.461,0,0,1-2.408,1.63.6.6,0,0,1-.5.022,9.943,9.943,0,0,1-3.248-2.424,2.757,2.757,0,0,1-.756-1.872,2.049,2.049,0,0,1,1.3-1.929,2.089,2.089,0,0,1,2.307.339c.18.149.347.313.558.5" transform="translate(-172.865 -121.241)" fill="#ed2023"/>
  </g>
</svg>
