<svg id="Group_48943" data-name="Group 48943" xmlns="http://www.w3.org/2000/svg" xmlns:xlink="http://www.w3.org/1999/xlink" width="46.684" height="36.975" viewBox="0 0 46.684 36.975">
  <defs>
    <clipPath id="clip-path">
      <rect id="Rectangle_8238" data-name="Rectangle 8238" width="46.684" height="36.975" fill="#ed2023"/>
    </clipPath>
  </defs>
  <g id="Group_48942" data-name="Group 48942" clip-path="url(#clip-path)">
    <path id="Path_14568" data-name="Path 14568" d="M0,3.164a.435.435,0,0,0,.072-.112A3.8,3.8,0,0,1,4.049,0C15.218,0,29.966,0,41.134,0a2.27,2.27,0,0,1,.541.048.609.609,0,0,1,.489.631.6.6,0,0,1-.454.655,2.625,2.625,0,0,1-.674.068c-11.108,0-25.8.024-36.9-.019A2.581,2.581,0,0,0,1.355,4.182c.056,1.013.011,2.031.011,3.081H45.247c0-1.321.092-2.644-.028-3.947a2.2,2.2,0,0,0-2.268-1.9c-.638-.012-1.276,0-1.914-.006-.557-.009-.868-.283-.854-.728C40.2.253,40.5,0,41.039.007a15.587,15.587,0,0,1,2.59.1,3.645,3.645,0,0,1,2.95,2.772c.029.1.07.193.105.29V32.708c-.215.33-.49.564-.908.418s-.463-.5-.463-.892c.006-6.608,0-16.315,0-22.923V8.738H1.366v1.2c0,.805-.011,5.166,0,5.971.007.394-.048.746-.463.892S.215,16.716,0,16.386V3.164" transform="translate(0 0)" fill="#ed2023"/>
    <path id="Path_14569" data-name="Path 14569" d="M46.684,118.76c-.062.183-.126.366-.187.55a3.837,3.837,0,0,1-3.632,2.615c-.121.005-.243,0-.364,0q-19.158,0-38.317,0a3.9,3.9,0,0,1-3.5-1.658A9.544,9.544,0,0,1,0,118.76V100.25c.227-.309.486-.558.912-.4s.458.5.457.894q-.008,8.59,0,17.18a2.414,2.414,0,0,0,1.816,2.518,3.7,3.7,0,0,0,.9.078q19.253.005,38.505.019a2.531,2.531,0,0,0,2.728-2.744c-.006-.091,0-.183,0-.273-.027-.39.034-.739.455-.894s.684.093.912.4Z" transform="translate(0 -84.958)" fill="#ed2023"/>
    <path id="Path_14570" data-name="Path 14570" d="M68.184,71.9h2.183v-.482q0-1.846,0-3.691c0-.8.2-1.006.983-1.007q1.595,0,3.19,0c.636,0,.868.235.881.881.007.364.008.729.014,1.093,0,.026.023.052.048.1.074.005.162.017.25.017.62,0,1.241,0,1.929,0v-.51c0-1,0-2.005,0-3.008,0-.671.244-.917.9-.921q1.618-.008,3.235,0c.662,0,.911.248.913.91.006,1.5,0,3.008,0,4.512v.555h2.53c.952,0,1.116.162,1.117,1.1,0,1.867,0,3.735,0,5.685h1.41c.182,0,.365-.007.547,0a.7.7,0,1,1,.031,1.4c-.105.01-.213.005-.319.005H61.42a2.839,2.839,0,0,1-.409-.014.692.692,0,0,1,.044-1.383c.485-.023.972-.007,1.458-.008h.561v-.565q0-2.894,0-5.787c0-.756.219-.969.978-.97q1.595,0,3.19,0c.633,0,.872.24.885.88.007.364.008.729.014,1.093,0,.027.022.053.044.1M79.1,77.11H81.28v-11.3H79.1Zm-7.3,0h2.186v-9H71.8Zm3.646,0h2.188v-6.9H75.448Zm-8.768-5.89H64.512v5.9H66.68Zm18.241.533H82.751v5.364h2.169ZM68.162,77.122h2.17V73.343h-2.17Z" transform="translate(-51.376 -54.805)" fill="#ed2023"/>
    <path id="Path_14571" data-name="Path 14571" d="M90.851,171.858a2.184,2.184,0,0,1-2.088-1.6.663.663,0,0,0-.394-.391q-2.741-.649-5.5-1.24a.609.609,0,0,0-.489.149,2.166,2.166,0,0,1-3.2.167.605.605,0,0,0-.5-.1c-2.716.9-5.425,1.826-8.142,2.725-.309.1-.317.317-.367.546a2.158,2.158,0,0,1-1.981,1.721,2.192,2.192,0,0,1-2.116-1.368,2.149,2.149,0,0,1,.772-2.545,2.1,2.1,0,0,1,2.645.159.641.641,0,0,0,.759.141q3.955-1.351,7.92-2.674a.537.537,0,0,0,.42-.49,2.14,2.14,0,0,1,4.175-.2.507.507,0,0,0,.436.418c1.8.4,3.608.8,5.407,1.219a.553.553,0,0,0,.649-.21,2.1,2.1,0,0,1,2.608-.471,2.143,2.143,0,0,1-1.019,4.035m-9.376-4.449a.772.772,0,0,0-.8-.75.765.765,0,1,0,.8.75m10.131,2.285a.752.752,0,1,0-.755.79.759.759,0,0,0,.755-.79m-23.544,2.741a.75.75,0,1,0-.733-.756.724.724,0,0,0,.733.756" transform="translate(-56.126 -140.704)" fill="#ed2023"/>
    <path id="Path_14572" data-name="Path 14572" d="M26.889,18.867a2.152,2.152,0,0,1-2.16-2.124,2.158,2.158,0,1,1,4.315-.005,2.152,2.152,0,0,1-2.155,2.13m0-1.374a.74.74,0,0,0,.75-.75.749.749,0,1,0-1.5,0,.741.741,0,0,0,.748.752" transform="translate(-21.052 -12.411)" fill="#ed2023"/>
    <path id="Path_14573" data-name="Path 14573" d="M61.821,18.868a2.154,2.154,0,0,1-2.148-2.137,2.158,2.158,0,1,1,4.315.019,2.151,2.151,0,0,1-2.167,2.117m.031-2.9a.765.765,0,0,0-.066,1.528.743.743,0,0,0,.793-.751.753.753,0,0,0-.728-.777" transform="translate(-50.798 -12.412)" fill="#ed2023"/>
    <path id="Path_14574" data-name="Path 14574" d="M96.751,18.867a2.156,2.156,0,0,1-2.134-2.151,2.158,2.158,0,0,1,4.316,0,2.153,2.153,0,0,1-2.183,2.148m.059-2.9a.753.753,0,0,0-.782.721.749.749,0,1,0,1.494.115.756.756,0,0,0-.712-.836" transform="translate(-80.546 -12.411)" fill="#ed2023"/>
  </g>
</svg>
