<svg xmlns="http://www.w3.org/2000/svg" width="45.328" height="42.12" viewBox="0 0 45.328 42.12">
  <g id="Group_48934" data-name="Group 48934" transform="translate(-14705.006 -2481.343)">
    <path id="Path_14538" data-name="Path 14538" d="M133.249,107.455H91.181v29.123h28.7a4.724,4.724,0,0,1,.505.006.807.807,0,0,1-.011,1.6,3.785,3.785,0,0,1-.4.005H90.684c-.933,0-1.144-.215-1.144-1.167q0-18.265,0-36.529c0-.946.21-1.158,1.152-1.158h43.051c.9,0,1.123.223,1.123,1.137q0,18.29,0,36.58a3.29,3.29,0,0,1-.01.455.807.807,0,0,1-1.6-.026,4.525,4.525,0,0,1-.007-.505q0-14.445,0-28.889v-.636m-29.107-1.679h29.079v-4.8H104.142Zm-1.688-4.78H91.182v4.8h11.272Z" transform="translate(14615.467 2382.003)" fill="#ed2023"/>
    <path id="Path_14539" data-name="Path 14539" d="M179.126,186.376c.263.209.524.422.794.624.072.054.182.119.253.1.487-.134.792.134,1.1.445,2.428,2.436,4.87,4.857,7.29,7.3a2.536,2.536,0,0,1-1.118,4.3,2.439,2.439,0,0,1-2.459-.683q-2.685-2.679-5.364-5.364c-.691-.692-1.39-1.376-2.071-2.077a1.213,1.213,0,0,1-.337-.541,1.662,1.662,0,0,0-.834-1.389,11.254,11.254,0,0,1-9.574,1.581,11.013,11.013,0,0,1-6.381-4.675,11.34,11.34,0,1,1,18.7.384M160.2,179.734a9.713,9.713,0,1,0,9.823-9.665,9.75,9.75,0,0,0-9.823,9.665m18.972,10.581,2.031,2.026c1.609,1.608,3.207,3.229,4.84,4.812a1.34,1.34,0,0,0,.961.376c.758-.108.922-1,.326-1.6q-3.335-3.35-6.681-6.689a2.054,2.054,0,0,0-.229-.174l-1.248,1.244m-1.03-2.668-.338.3.634.77.4-.42-.691-.654" transform="translate(14557.752 2324.229)" fill="#ed2023"/>
    <path id="Path_14540" data-name="Path 14540" d="M120.833,219.627v3.243c.785,0,1.57,0,2.355,0a.806.806,0,1,1,.077,1.609c-1.1.018-2.192.016-3.287,0a.753.753,0,0,1-.779-.813q-.014-2.428,0-4.856a.749.749,0,0,1,.8-.793q1.618-.02,3.237,0a.8.8,0,1,1-.016,1.607c-.775.013-1.55,0-2.385,0" transform="translate(14590.669 2282.76)" fill="#ed2023"/>
    <path id="Path_14541" data-name="Path 14541" d="M310.292,222.86v-3.242c-.791,0-1.576-.005-2.36,0a.8.8,0,0,1-.827-.54.786.786,0,0,1,.73-1.07c1.1-.021,2.192-.016,3.287,0a.751.751,0,0,1,.79.8q.016,2.428,0,4.856a.753.753,0,0,1-.79.8q-1.618.022-3.237,0a.8.8,0,1,1,0-1.608c.4-.013.809,0,1.214,0h1.2" transform="translate(14433.557 2282.769)" fill="#ed2023"/>
    <path id="Path_14542" data-name="Path 14542" d="M201.368,120.724H189.632a4.438,4.438,0,0,1-.455-.005.807.807,0,0,1-.018-1.6,3.506,3.506,0,0,1,.4-.006h23.676a3.33,3.33,0,0,1,.4.007.808.808,0,0,1,.017,1.6,3.363,3.363,0,0,1-.455.009H201.368" transform="translate(14532.746 2365.473)" fill="#ed2023"/>
    <path id="Path_14543" data-name="Path 14543" d="M110.136,119.129a.807.807,0,1,1-.812.775.794.794,0,0,1,.812-.775" transform="translate(14598.922 2365.453)" fill="#ed2023"/>
    <path id="Path_14544" data-name="Path 14544" d="M130.719,119.947a.807.807,0,1,1-.82-.819.791.791,0,0,1,.82.819" transform="translate(14582.377 2365.453)" fill="#ed2023"/>
    <path id="Path_14545" data-name="Path 14545" d="M149.709,120.741a.807.807,0,1,1,.787-.8.791.791,0,0,1-.787.8" transform="translate(14565.838 2365.454)" fill="#ed2023"/>
    <path id="Path_14546" data-name="Path 14546" d="M199.032,204.812q-2.327,0-4.654,0c-.641,0-.99-.3-.982-.82.007-.5.348-.793.958-.793q4.7,0,9.41,0c.609,0,.951.29.958.794.007.523-.343.818-.984.819q-2.352,0-4.7,0" transform="translate(14528.61 2295.146)" fill="#ed2023"/>
    <path id="Path_14547" data-name="Path 14547" d="M187.572,222.979c1.012,0,2.024,0,3.035,0,.642,0,.991.3.985.818-.007.5-.349.795-.957.8q-3.086,0-6.172,0c-.61,0-.951-.289-.959-.793-.008-.525.34-.818.982-.82,1.029,0,2.057,0,3.086,0" transform="translate(14536.882 2278.602)" fill="#ed2023"/>
    <path id="Path_14548" data-name="Path 14548" d="M227.109,244.375c-1.029,0-2.057,0-3.086,0-.608,0-.95-.291-.957-.8s.335-.817.933-.818q3.111,0,6.222,0c.6,0,.94.311.932.819s-.35.791-.959.794c-1.029,0-2.057,0-3.086,0" transform="translate(14503.796 2262.06)" fill="#ed2023"/>
    <path id="Path_14549" data-name="Path 14549" d="M196.607,264.154c-.776,0-1.551.006-2.327,0a.81.81,0,1,1,.019-1.611q2.327-.008,4.654,0c.566,0,.9.3.911.79.009.509-.335.819-.93.823-.776.005-1.551,0-2.327,0" transform="translate(14528.61 2245.519)" fill="#ed2023"/>
    <path id="Path_14550" data-name="Path 14550" d="M245.245,224.572c-.523,0-1.046.01-1.568,0a.783.783,0,0,1-.829-.82.774.774,0,0,1,.808-.788q1.618-.019,3.238,0a.775.775,0,0,1,.8.792.784.784,0,0,1-.834.815c-.539.012-1.079,0-1.619,0" transform="translate(14487.253 2278.624)" fill="#ed2023"/>
    <path id="Path_14551" data-name="Path 14551" d="M185.9,244.355c-.523,0-1.046.01-1.568,0a.783.783,0,0,1-.828-.82.774.774,0,0,1,.809-.787q1.618-.018,3.238,0a.775.775,0,0,1,.8.793.784.784,0,0,1-.835.815c-.539.012-1.079,0-1.619,0" transform="translate(14536.882 2262.079)" fill="#ed2023"/>
    <path id="Path_14552" data-name="Path 14552" d="M244.441,264.118c-.287,0-.575.017-.86,0a.778.778,0,0,1-.735-.809.766.766,0,0,1,.751-.792c.573-.022,1.147-.021,1.72,0a.77.77,0,0,1,.761.783.783.783,0,0,1-.776.821c-.286.016-.573,0-.86,0" transform="translate(14487.253 2245.552)" fill="#ed2023"/>
  </g>
</svg>
