<svg xmlns="http://www.w3.org/2000/svg" width="56.695" height="57.807" viewBox="0 0 56.695 57.807">
  <g id="Group_48936" data-name="Group 48936" transform="translate(-654 -501)">
    <g id="Group_48935" data-name="Group 48935" transform="translate(654 501)">
      <path id="Path_14553" data-name="Path 14553" d="M113.984,29.468A14.734,14.734,0,1,1,128.741,14.79a14.7,14.7,0,0,1-14.757,14.678m3.336-18.09h-6.6V18.09h6.6Zm2.292-.014v6.728h6.382a12.157,12.157,0,0,0-.012-6.728Zm-11.213.009h-6.379a12.072,12.072,0,0,0,0,6.712H108.4Zm8.559-2.332a16.009,16.009,0,0,0-1.586-5.3,8.323,8.323,0,0,0-1.345-1.464,8.258,8.258,0,0,0-1.4,1.489,15.689,15.689,0,0,0-1.572,5.272Zm-5.915,11.383a16.035,16.035,0,0,0,1.844,5.758c.819,1.322,1.427,1.32,2.242-.009a15.646,15.646,0,0,0,1.826-5.749ZM125.092,9.043a12.538,12.538,0,0,0-7.387-6.2l1.718,6.2ZM119.424,20.43l-1.71,6.143c2.687-.514,6.637-3.828,7.252-6.143ZM102.931,9.022h5.659L110.3,2.842a12.476,12.476,0,0,0-7.374,6.179m5.656,11.413h-5.66a12.46,12.46,0,0,0,7.376,6.19l-1.716-6.19" transform="translate(-79.976 0)" fill="#ed2023"/>
      <path id="Path_14554" data-name="Path 14554" d="M16.188,84.861,22.311,98.47h.726q11.015,0,22.03.013a.933.933,0,0,0,1.006-.626c1.905-4.1,3.84-8.19,5.763-12.283.1-.207.176-.423.294-.713-.758,0-1.437.008-2.115,0a1.135,1.135,0,1,1,.019-2.257c.921-.009,1.843.023,2.762-.021a.876.876,0,0,0,.617-.394c.373-.681.674-1.4,1.011-2.1.391-.812.972-1.089,1.623-.784s.831.937.449,1.749Q52.755,89.018,49,96.978c-.421.9-.875,1.777-1.254,2.69a1.584,1.584,0,0,1-1.685,1.079c-8.429-.026-16.859-.013-25.288-.02a2.357,2.357,0,0,0-2.38,1.322,2.248,2.248,0,0,0,1.889,3.209,7.7,7.7,0,0,0,.779.012q14.2,0,28.405,0a2.484,2.484,0,0,1,.772.049,1.063,1.063,0,0,1,.786,1.127,1.084,1.084,0,0,1-.876,1.06,1.856,1.856,0,0,1-.493.023q-14.628,0-29.255,0a4.528,4.528,0,0,1-3.028-7.884,5.328,5.328,0,0,1,1.114-.739,11.042,11.042,0,0,1,1.243-.462c-.067-.193-.12-.387-.2-.568q-4.317-9.6-8.627-19.209a.908.908,0,0,0-1-.621c-2.88.027-5.761.02-8.642.009-.986,0-1.592-.923-1.068-1.669a1.484,1.484,0,0,1,1.036-.563c3.352-.042,6.705-.021,10.058-.029a1.247,1.247,0,0,1,1.218.889c.8,1.81,1.632,3.606,2.424,5.419a.717.717,0,0,0,.8.507c.778-.033,1.558-.018,2.337-.006a1.131,1.131,0,1,1,.016,2.256c-.588.013-1.177,0-1.892,0" transform="translate(0 -61.062)" fill="#ed2023"/>
      <path id="Path_14555" data-name="Path 14555" d="M125.832,255.321a4.531,4.531,0,1,1-4.5-4.558,4.5,4.5,0,0,1,4.5,4.558m-4.513,2.238a2.266,2.266,0,1,0-2.284-2.248,2.326,2.326,0,0,0,2.284,2.248" transform="translate(-94.072 -202.018)" fill="#ed2023"/>
      <path id="Path_14556" data-name="Path 14556" d="M191.269,250.763a4.531,4.531,0,1,1-4.519,4.542,4.5,4.5,0,0,1,4.519-4.542m2.277,4.557a2.265,2.265,0,1,0-2.292,2.239,2.327,2.327,0,0,0,2.292-2.239" transform="translate(-150.449 -202.019)" fill="#ed2023"/>
    </g>
  </g>
</svg>
