<svg xmlns="http://www.w3.org/2000/svg" version="1.1" width="512" height="512">
<path d="M0 0 C2.26206148 1.74236339 2.26206148 1.74236339 4.65338707 3.96559048 C5.53273501 4.78177691 6.41208295 5.59796335 7.3180778 6.43888271 C11.55420574 10.48419786 15.72356945 14.58927795 19.85830688 18.73805237 C20.80717913 19.68648729 21.7562716 20.63470192 22.705562 21.58271831 C25.28476765 24.15971054 27.86088301 26.73977192 30.43645787 29.32039225 C33.22521212 32.11349661 36.01688854 34.90367778 38.80819702 37.69422913 C43.63442391 42.51993366 48.4588279 47.34745429 53.28197098 52.17624092 C60.25528462 59.15770869 67.23138364 66.13638781 74.20814852 73.11440646 C85.52955949 84.43800181 96.84873913 95.76382487 108.16650391 107.09106445 C119.15556116 118.08931171 130.14567639 129.08649999 141.13720703 140.08227539 C141.81561479 140.76094587 142.49402254 141.43961635 143.19298811 142.1388526 C146.59663277 145.54380238 150.00029815 148.94873144 153.40397382 152.35365021 C181.60586099 180.5658909 209.8041221 208.7817536 238 237 C241.35116736 235.54291966 243.54423082 233.70301992 246.11707211 231.12343693 C247.34183991 229.90279217 247.34183991 229.90279217 248.5913505 228.65748793 C249.48287948 227.75876902 250.37440847 226.86005011 251.29295349 225.93409729 C252.25349035 224.97300045 253.21447032 224.01234629 254.17585522 223.05209774 C256.81823568 220.410309 259.45433572 217.76232953 262.08948386 215.11332929 C264.93183441 212.25824267 267.77998001 209.40894779 270.62747192 206.55899048 C275.56170369 201.61898198 280.49236679 196.67543467 285.42074394 191.72958565 C292.55081327 184.57442518 299.68733937 177.42573258 306.82565892 170.27880394 C318.41242826 158.67789507 329.99545658 147.07325911 341.57543945 135.46557617 C342.26867914 134.77068086 342.96191882 134.07578556 343.67616577 133.35983282 C349.30067022 127.72183974 354.92499415 122.0836666 360.54930878 116.44548416 C365.46418502 111.51850397 370.37913275 106.5915951 375.29418945 101.66479492 C375.98628151 100.97104661 376.67837357 100.2772983 377.39143812 99.56252731 C388.92659656 88.00000775 400.46567359 76.44140656 412.00756031 64.88560337 C419.12863763 57.75555786 426.24613226 50.62197109 433.35906935 43.4838047 C438.23213742 38.59389869 443.10872372 33.70752048 447.98810726 28.82391638 C450.80443484 26.00489593 453.61906448 23.18423111 456.42933464 20.35917091 C459.00156419 17.77345528 461.57835474 15.19237819 464.15885723 12.61491954 C465.53424739 11.23872851 466.90466575 9.85757413 468.2749061 8.47625548 C469.09402571 7.65988456 469.91314533 6.84351364 470.75708675 6.00240421 C471.46081856 5.29682882 472.16455036 4.59125343 472.88960737 3.86429697 C476.31788261 0.83579742 478.91414056 -0.88365792 483.5 -1.375 C488.1061781 -0.88148092 490.42414779 0.58716698 493.8125 3.625 C495.73432053 7.46864106 495.75475207 10.80807695 495 15 C491.17662592 21.95618271 484.73128231 27.55235749 479.16955566 33.09114075 C478.17415637 34.08956522 477.17919073 35.08842218 476.18461847 36.08767051 C473.46645261 38.816077 470.74213331 41.53826395 468.01670003 44.25940835 C465.07238767 47.20124646 462.13383507 50.1488287 459.19450378 53.09564209 C453.44246096 58.86041253 447.68497383 64.61971532 441.92539251 70.3769531 C437.24483191 75.05572894 432.56604453 79.73627093 427.88850403 84.41806602 C426.88902886 85.41843398 426.88902886 85.41843398 425.86936226 86.43901139 C424.51568768 87.79389775 423.16201427 89.14878528 421.80834204 90.50367399 C409.12443719 103.19844599 396.43403004 115.88670238 383.74164063 128.57299056 C372.12864895 140.1808085 360.52390186 151.79682914 348.9230004 163.41672901 C337.00685165 175.35224265 325.08516648 187.28220003 313.15745115 199.206155 C306.46262001 205.89907273 299.77001492 212.59418081 293.08320618 219.29511452 C287.39354473 224.99667318 281.6986834 230.69297426 275.9970094 236.38252113 C273.08819011 239.28544136 270.18184295 242.19072807 267.28195763 245.1025753 C264.62739595 247.76795965 261.96600802 250.42632346 259.2990095 253.07926174 C257.8790759 254.49528 256.46651794 255.91868241 255.05423594 257.34233218 C254.2064915 258.18287007 253.35874707 259.02340796 252.48531342 259.88941669 C251.75874338 260.61604175 251.03217334 261.3426668 250.28358603 262.0913108 C246.68408079 265.09988446 243.24723566 266.79212739 238.625 267.5625 C229.7284774 266.18200511 222.93370714 257.21499222 216.86416626 251.11140442 C215.86090913 250.109738 214.85721454 249.1085096 213.85312402 248.10767859 C211.11138199 245.37231643 208.37587131 242.63079746 205.64138961 239.8881799 C202.68529652 236.92548372 199.72341581 233.96858315 196.76226807 231.01094055 C190.96992992 225.22363357 185.18292996 219.43101705 179.39774163 213.63656382 C172.6611599 206.88958247 165.91933834 200.14784711 159.17731218 193.40630694 C147.15168864 181.38118356 135.13089693 169.35124167 123.11279297 157.31860352 C111.44715326 145.63886316 99.77800382 133.96264424 88.10498047 122.2902832 C87.38536013 121.57070282 86.6657398 120.85112244 85.92431279 120.1097366 C85.20594193 119.3914061 84.48757107 118.67307559 83.7474314 117.9329775 C70.45801022 104.64424566 57.17187863 91.35222922 43.88728178 78.05867467 C39.1870588 73.3554331 34.48585759 68.65317067 29.78435135 63.95121193 C24.06011997 58.22629928 18.33777859 52.49950504 12.6178077 46.77033547 C9.69831306 43.84621654 6.77803008 40.92289671 3.85559464 38.00171661 C1.18287302 35.33008747 -1.48754043 32.65617399 -4.15609284 29.98038062 C-5.58414511 28.54964639 -7.01465634 27.12136784 -8.44524038 25.69316512 C-9.28727061 24.84791044 -10.12930085 24.00265576 -10.99684715 23.1317873 C-11.72688969 22.40104034 -12.45693223 21.67029338 -13.20909727 20.91740257 C-17.11815294 16.73223202 -17.43672476 13.94787908 -17.31640625 8.4453125 C-16.86196681 4.93322495 -15.6545124 3.29579451 -13 1 C-8.83652938 -1.54434316 -4.51664022 -1.73874398 0 0 Z " fill="#2050B1" transform="translate(17,123)"/>
<path d="M0 0 C0.66 0.33 1.32 0.66 2 1 C1.030625 1.804375 0.06125 2.60875 -0.9375 3.4375 C-4.33901582 6.77498729 -4.76208999 9.59421783 -4.9921875 14.2421875 C-4.99476563 14.82226562 -4.99734375 15.40234375 -5 16 C-5.33 16 -5.66 16 -6 16 C-6.62739631 7.0247473 -6.62739631 7.0247473 -4.125 2.9375 C-2 1 -2 1 0 0 Z " fill="#3B2D01" transform="translate(6,123)"/>
</svg>