<svg xmlns="http://www.w3.org/2000/svg" xmlns:xlink="http://www.w3.org/1999/xlink" width="87" height="87" viewBox="0 0 87 87">
  <defs>
    <clipPath id="clip-path">
      <rect id="Rectangle_8300" data-name="Rectangle 8300" width="37.035" height="47.548" fill="#fff"/>
    </clipPath>
  </defs>
  <g id="Group_48987" data-name="Group 48987" transform="translate(-272 -2025)">
    <circle id="Ellipse_63" data-name="Ellipse 63" cx="43.5" cy="43.5" r="43.5" transform="translate(272 2025)"/>
    <g id="Group_48989" data-name="Group 48989" transform="translate(296.483 2045)">
      <g id="Group_48988" data-name="Group 48988" clip-path="url(#clip-path)">
        <path id="Path_14628" data-name="Path 14628" d="M37.034,23.815q0,10.893,0,21.785c0,1.779-.154,1.943-1.9,1.944q-16.584.008-33.169,0C.153,47.544,0,47.394,0,45.656Q0,23.8,0,1.945C0,.157.144,0,1.9,0Q18.488,0,35.072,0c1.835,0,1.961.138,1.961,2.027q0,10.893,0,21.785m-1.979-21.9H1.979V45.683H35.055Z" transform="translate(0 0)" fill="#fff"/>
        <path id="Path_14629" data-name="Path 14629" d="M12.617,48.767c0-3.28.04-6.56-.021-9.839-.023-1.231.416-1.637,1.636-1.621q6.324.082,12.65,0c1.159-.013,1.565.4,1.558,1.554q-.054,9.909,0,19.819c.007,1.172-.438,1.58-1.567,1.572q-6.4-.046-12.791,0c-1.068.006-1.5-.4-1.485-1.5.047-3.326.017-6.653.017-9.98m1.848,9.556H26.6V39.24H14.465Z" transform="translate(-9.035 -26.76)" fill="#fff"/>
        <path id="Path_14630" data-name="Path 14630" d="M27.834,20.384q-6.469,0-12.938,0a2.6,2.6,0,0,1-1.108-.053c-.353-.185-.82-.606-.809-.909s.5-.676.861-.872c.255-.139.642-.039.97-.039H40.826a2.285,2.285,0,0,1,.97.038,4.856,4.856,0,0,1,.94.854,5.668,5.668,0,0,1-1,.944c-.246.144-.641.037-.969.037H27.834" transform="translate(-9.31 -13.253)" fill="#fff"/>
        <path id="Path_14631" data-name="Path 14631" d="M20.728,126.183q-3.232,0-6.465,0c-.686,0-1.489-.021-1.333-.938.06-.357.839-.836,1.3-.843q6.533-.1,13.068,0c.447.007,1.217.517,1.265.872.125.922-.695.906-1.368.906H20.728" transform="translate(-9.261 -89.202)" fill="#fff"/>
        <path id="Path_14632" data-name="Path 14632" d="M20.692,138.687c-2.108,0-4.217.011-6.324-.006-.688-.005-1.549.1-1.538-.95.011-.961.8-.86,1.456-.861,4.263,0,8.527-.029,12.789.036.5.008,1.371.48,1.417.824.137,1.022-.786.946-1.476.952-2.108.016-4.216.006-6.324.006" transform="translate(-9.203 -98.174)" fill="#fff"/>
        <path id="Path_14633" data-name="Path 14633" d="M20.737,151.058q-3.232,0-6.465,0c-.684,0-1.49-.014-1.342-.931.057-.356.835-.842,1.29-.849q6.534-.1,13.069,0c.45.007,1.223.511,1.273.865.131.92-.684.914-1.361.914q-3.232,0-6.465,0" transform="translate(-9.263 -107.046)" fill="#fff"/>
        <path id="Path_14634" data-name="Path 14634" d="M80.949,37.344c1.633,0,3.269-.057,4.9.039.413.024.8.532,1.2.818-.375.317-.744.9-1.126.911q-5.036.107-10.075,0c-.37-.007-.73-.544-1.095-.835.388-.311.761-.865,1.167-.89,1.673-.1,3.356-.043,5.036-.043" transform="translate(-53.617 -26.776)" fill="#fff"/>
        <path id="Path_14635" data-name="Path 14635" d="M80.945,51.559c-1.633,0-3.27.067-4.9-.043-.453-.031-.871-.582-1.305-.894.412-.292.819-.829,1.237-.837q4.966-.1,9.935.006c.381.008.749.593,1.123.91-.4.286-.784.795-1.2.819-1.627.1-3.264.039-4.9.04" transform="translate(-53.615 -35.675)" fill="#fff"/>
        <path id="Path_14636" data-name="Path 14636" d="M80.981,62.21c1.586,0,3.177-.064,4.756.041.454.03.875.548,1.312.843-.431.311-.856.88-1.294.891q-4.826.114-9.655,0c-.455-.011-.9-.566-1.346-.869.443-.3.871-.835,1.331-.865,1.626-.107,3.263-.042,4.9-.042" transform="translate(-53.622 -44.61)" fill="#fff"/>
        <path id="Path_14637" data-name="Path 14637" d="M80.9,76.423c-1.586,0-3.177.065-4.756-.04-.473-.031-.914-.537-1.37-.826.432-.316.859-.9,1.3-.907,3.264-.077,6.531-.073,9.8,0,.406.009.8.55,1.2.845-.423.31-.83.859-1.271.888-1.626.107-3.263.042-4.9.043" transform="translate(-53.633 -53.507)" fill="#fff"/>
        <path id="Path_14638" data-name="Path 14638" d="M80.943,88.918c-1.633,0-3.27.068-4.9-.045-.442-.031-.846-.609-1.267-.935.418-.278.831-.788,1.255-.8q4.9-.1,9.795,0c.416.008.822.508,1.233.78-.407.332-.8.922-1.225.952-1.625.113-3.262.046-4.895.045" transform="translate(-53.642 -62.472)" fill="#fff"/>
        <path id="Path_14639" data-name="Path 14639" d="M80.839,101.292c-1.586,0-3.177.067-4.756-.042-.462-.032-.888-.565-1.331-.868.449-.3.891-.855,1.347-.866q4.826-.114,9.655,0c.438.01.863.578,1.294.888-.436.3-.859.818-1.312.846-1.626.1-3.263.041-4.9.041" transform="translate(-53.621 -71.344)" fill="#fff"/>
        <path id="Path_14640" data-name="Path 14640" d="M80.87,113.782c-1.539,0-3.085.075-4.616-.04-.522-.039-1.007-.554-1.509-.851.484-.309.961-.872,1.452-.884,3.171-.081,6.345-.075,9.516,0,.449.01.886.538,1.328.826-.424.317-.832.877-1.275.907-1.625.11-3.263.044-4.9.045" transform="translate(-53.616 -80.302)" fill="#fff"/>
        <path id="Path_14641" data-name="Path 14641" d="M80.918,124.346c1.633,0,3.271-.068,4.9.044.433.03.827.609,1.239.936-.407.278-.809.788-1.221.8-3.265.066-6.532.072-9.8-.006-.431-.01-.848-.6-1.271-.919.418-.284.823-.787,1.257-.813,1.627-.1,3.264-.039,4.9-.04" transform="translate(-53.63 -89.181)" fill="#fff"/>
        <path id="Path_14642" data-name="Path 14642" d="M81,136.837c1.586,0,3.177-.065,4.756.042.449.03.864.56,1.294.861-.438.3-.869.862-1.314.872q-4.826.113-9.656,0c-.448-.011-.883-.577-1.324-.886.448-.3.882-.817,1.348-.847,1.626-.105,3.263-.041,4.9-.041" transform="translate(-53.627 -98.142)" fill="#fff"/>
        <path id="Path_14643" data-name="Path 14643" d="M80.858,151.043c-1.586,0-3.177.066-4.756-.041-.466-.032-.9-.554-1.347-.851.442-.308.878-.872,1.327-.882q4.826-.115,9.656,0c.444.01.875.567,1.313.871-.431.3-.847.834-1.3.863-1.626.105-3.263.042-4.9.042" transform="translate(-53.623 -107.032)" fill="#fff"/>
      </g>
    </g>
  </g>
</svg>
