<svg xmlns="http://www.w3.org/2000/svg" xmlns:xlink="http://www.w3.org/1999/xlink" width="87" height="87" viewBox="0 0 87 87">
  <defs>
    <clipPath id="clip-path">
      <rect id="Rectangle_8299" data-name="Rectangle 8299" width="53.213" height="45.364" fill="#fff"/>
    </clipPath>
  </defs>
  <g id="Group_48986" data-name="Group 48986" transform="translate(-272 -2025)">
    <circle id="Ellipse_63" data-name="Ellipse 63" cx="43.5" cy="43.5" r="43.5" transform="translate(272 2025)"/>
    <g id="Group_48985" data-name="Group 48985" transform="translate(288.811 2045.901)">
      <g id="Group_48984" data-name="Group 48984" clip-path="url(#clip-path)">
        <path id="Path_14617" data-name="Path 14617" d="M51.963,9.508H1.289c-.01.219-.027.424-.027.628q0,13.806,0,27.611,0,1.574,0,3.148A3.081,3.081,0,0,0,4.409,44.1c.759.014,1.518,0,2.277.006.51,0,.752.21.757.613s-.241.633-.742.628a20.5,20.5,0,0,1-3.236-.1,4.246,4.246,0,0,1-3.45-4.258c-.007-5.813,0-11.626,0-17.438q0-7.92-.007-15.84c0-1.34-.043-2.683.042-4.018A3.922,3.922,0,0,1,3.614.078C4.882-.023,6.162,0,7.436,0Q28.169,0,48.9,0a3.959,3.959,0,0,1,4.191,3.135,13.871,13.871,0,0,1,.115,2.557q.006,15.695,0,31.39c0,1.517.042,3.038-.057,4.549a4.035,4.035,0,0,1-3.824,3.7c-1.273.057-2.55.026-3.826.026q-12.45,0-24.9,0a4.283,4.283,0,0,1-.532-.017.56.56,0,0,1-.544-.619.571.571,0,0,1,.566-.6,2.7,2.7,0,0,1,.339-.009l25.044.006c1.1,0,2.2-.047,3.293,0a3.013,3.013,0,0,0,3.2-3.21c-.013-1.614,0-3.229,0-4.844V9.508Zm-.035-1.3c.014-.135.033-.229.033-.323,0-1.276.008-2.551-.006-3.827a3.2,3.2,0,0,0-.129-.856A2.755,2.755,0,0,0,48.889,1.25H19.678c-5.054,0-10.108.014-15.162-.007A2.986,2.986,0,0,0,1.252,4.464c.052.836,0,1.678,0,2.518,0,.4,0,.8,0,1.23Z" transform="translate(0 0)" fill="#fff"/>
        <path id="Path_14618" data-name="Path 14618" d="M83.9,166.324c1.8,0,3.547-.114,5.274.03a3.307,3.307,0,0,1,3.214,3.506,3.134,3.134,0,0,1-1.9,2.76c-.07.038-.149.061-.222.093-.053.024-.1.053-.217.11.4.149.739.26,1.068.4a3.5,3.5,0,0,1,2.159,3.175c.255,3.035-1.9,4.506-4.106,4.707-1.7.155-3.418.067-5.128.084a.464.464,0,0,1-.142-.052ZM85.93,179.47a28.314,28.314,0,0,0,2.944-.022,2.213,2.213,0,0,0,2.119-1.7,6.339,6.339,0,0,0,.037-2.141,1.928,1.928,0,0,0-1.374-1.547,10.086,10.086,0,0,0-3.725-.262Zm-.006-7.162c.586,0,1.135.036,1.677-.011a5.976,5.976,0,0,0,1.511-.284,2.064,2.064,0,0,0,1.251-2.326,1.708,1.708,0,0,0-1.549-1.665A24.449,24.449,0,0,0,85.924,168Z" transform="translate(-75.773 -150.169)" fill="#fff"/>
        <path id="Path_14619" data-name="Path 14619" d="M377.839,209.282c-2.166-1.453-2.823-3.8-1.638-5.765a4.5,4.5,0,0,1,6.076-1.287l.965-1.118,1.244,1.153-1.129.888a4.322,4.322,0,0,1,.64,3.353,3.866,3.866,0,0,1-3.589,3.191c-.562.047-1.125.1-1.682.19a2.516,2.516,0,0,0-.819.266c-.156.086-.24.3-.356.46.158.114.311.316.475.326a7.605,7.605,0,0,0,1.445-.044,7.455,7.455,0,0,1,3.068-.062,2.577,2.577,0,0,1,2.044,2.027,2.807,2.807,0,0,1-1.016,2.945,5.536,5.536,0,0,1-3.485,1.1,7.523,7.523,0,0,1-3.88-1.023c-.122-.07-.232-.162-.377-.265l.954-1.409a25.568,25.568,0,0,0,2.575.936,3.7,3.7,0,0,0,2.545-.318,1.321,1.321,0,0,0,.876-1.414,1.179,1.179,0,0,0-1.234-1.017c-.745-.039-1.5.124-2.248.148a11.151,11.151,0,0,1-2.014-.057,1.467,1.467,0,0,1-.4-2.75c.291-.167.606-.291.957-.457m-.3-3.66a10.178,10.178,0,0,0,.489,1.489,1.972,1.972,0,0,0,2,1.094,1.928,1.928,0,0,0,1.844-1.391,4.041,4.041,0,0,0,.218-1.276,2.349,2.349,0,0,0-1.675-2.336,2.387,2.387,0,0,0-2.874,2.42" transform="translate(-339.224 -181.626)" fill="#fff"/>
        <path id="Path_14620" data-name="Path 14620" d="M259.587,211.359a5.5,5.5,0,0,1,1.688-4.417,4.84,4.84,0,0,1,5.078-.875,4.383,4.383,0,0,1,2.905,3.787,7.931,7.931,0,0,1-.276,4.059,4.565,4.565,0,0,1-4.915,3.1c-2.933-.182-4.3-2.432-4.477-4.924-.017-.241,0-.484,0-.726m1.944.067c.1.65.142,1.313.3,1.948a2.5,2.5,0,0,0,1.7,1.943,2.669,2.669,0,0,0,3.508-1.846,6.883,6.883,0,0,0,0-4.323,2.385,2.385,0,0,0-2.11-1.792,2.56,2.56,0,0,0-2.73,1.314,5.812,5.812,0,0,0-.669,2.756" transform="translate(-234.43 -185.789)" fill="#fff"/>
        <path id="Path_14621" data-name="Path 14621" d="M208.636,176.42v1.614a2.986,2.986,0,0,1-3.662-2.647c-.1-1.511-.061-3.031-.066-4.547-.009-2.549,0-5.1,0-7.648v-.566h1.921c0,1.581,0,3.144,0,4.708q0,3.461,0,6.922a1.853,1.853,0,0,0,1.811,2.164" transform="translate(-185.049 -146.869)" fill="#fff"/>
        <path id="Path_14622" data-name="Path 14622" d="M100.722,387.852H93.757c-.145,0-.318.045-.428-.018-.158-.091-.374-.261-.374-.4s.2-.329.36-.418a1.06,1.06,0,0,1,.476-.026H107.72c.065,0,.129,0,.193,0,.333-.012.657.038.651.453-.006.393-.325.409-.635.408q-3.6-.005-7.207,0" transform="translate(-83.948 -349.484)" fill="#fff"/>
        <path id="Path_14623" data-name="Path 14623" d="M331.957,387.881h-4.306a1,1,0,0,1-.429-.026c-.138-.072-.324-.232-.322-.349a.644.644,0,0,1,.282-.434.929.929,0,0,1,.471-.047q4.379,0,8.758,0c.129,0,.293-.038.378.026.147.11.34.29.334.433s-.222.335-.38.378a3.014,3.014,0,0,1-.77.021h-4.016" transform="translate(-295.227 -349.513)" fill="#fff"/>
        <path id="Path_14624" data-name="Path 14624" d="M49.845,47.74h-7.21a1.084,1.084,0,0,1-.43-.019c-.138-.065-.321-.21-.328-.329s.153-.287.28-.376a.724.724,0,0,1,.376-.04q7.21,0,14.42,0c.1,0,.193,0,.29,0,.3,0,.65-.011.654.386,0,.414-.357.371-.649.371h-7.4Z" transform="translate(-37.819 -42.42)" fill="#fff"/>
        <path id="Path_14625" data-name="Path 14625" d="M383.467,38.611a1.465,1.465,0,0,1-1.495-1.45,1.478,1.478,0,0,1,2.955-.034,1.461,1.461,0,0,1-1.46,1.484m.05-2.1a.661.661,0,0,0-.709.578.677.677,0,0,0,.573.721.653.653,0,0,0,.7-.583.646.646,0,0,0-.565-.716" transform="translate(-344.962 -32.232)" fill="#fff"/>
        <path id="Path_14626" data-name="Path 14626" d="M437.846,38.617a1.422,1.422,0,0,1-1.465-1.462,1.438,1.438,0,0,1,1.475-1.46,1.467,1.467,0,0,1,1.452,1.446,1.445,1.445,0,0,1-1.461,1.476m.009-2.108a.68.68,0,0,0-.672.621.693.693,0,0,0,.658.688.655.655,0,0,0,.014-1.309" transform="translate(-394.099 -32.236)" fill="#fff"/>
        <path id="Path_14627" data-name="Path 14627" d="M492,38.615a1.428,1.428,0,0,1-1.448-1.48,1.459,1.459,0,0,1,2.919.02A1.43,1.43,0,0,1,492,38.615m-.045-.8a.692.692,0,0,0,.708-.587.656.656,0,1,0-1.307-.111.7.7,0,0,0,.6.7" transform="translate(-443.024 -32.234)" fill="#fff"/>
      </g>
    </g>
  </g>
</svg>
