<svg xmlns="http://www.w3.org/2000/svg" xmlns:xlink="http://www.w3.org/1999/xlink" width="87" height="87" viewBox="0 0 87 87">
  <defs>
    <clipPath id="clip-path">
      <rect id="Rectangle_8310" data-name="Rectangle 8310" width="55.206" height="46.967" fill="#fff"/>
    </clipPath>
  </defs>
  <g id="Group_49007" data-name="Group 49007" transform="translate(-272 -2025)">
    <circle id="Ellipse_63" data-name="Ellipse 63" cx="43.5" cy="43.5" r="43.5" transform="translate(272 2025)"/>
    <g id="Group_49015" data-name="Group 49015" transform="translate(287.897 2045.017)">
      <g id="Group_49014" data-name="Group 49014" clip-path="url(#clip-path)">
        <path id="Path_14704" data-name="Path 14704" d="M52.373,34.891v1.061c0,1.959-.012,3.918.015,5.877a1.159,1.159,0,0,0,.34.737,2.117,2.117,0,0,1,.569,2.257,2.9,2.9,0,0,1-2.7,2.142c-.075,0-.149,0-.224,0q-23.675,0-47.351-.007A2.891,2.891,0,0,1,.04,44.474a1.856,1.856,0,0,1,.639-1.86.923.923,0,0,0,.357-.8Q1.024,25.522,1.029,9.234c0-1.338,0-1.342,1.333-1.343l6.493,0H9.53c0-.285,0-.5,0-.721q0-3.134,0-6.269c0-.721.174-.9.887-.9Q32.356,0,54.3,0c.763,0,.908.152.908.925q0,16.539,0,33.078c0,.735-.149.884-.885.887-.628,0-1.256,0-1.948,0m-41.646-1.22H54V6.448H10.727ZM48.369,34.89H10.67c-1.07,0-1.142-.071-1.142-1.136q0-10.8,0-21.6c0-.233-.025-.466-.04-.742-1.307,0-2.554.028-3.8-.013-.544-.018-.679.147-.679.682q.024,13.57.011,27.14v.589h43.35ZM10.719,5.2H54V1.227H10.719ZM49.551,34.911c0,1.737,0,3.413,0,5.089,0,.885-.146,1.031-1.041,1.031H22.146q-8.676,0-17.352-.006c-.732,0-.91-.157-.91-.8q0-14.581,0-29.163c0-.635.158-.792.8-.8,1.4-.006,2.8,0,4.2,0h.608V9.085H2.235V42.1c.215.01.4.027.581.027q8.76,0,17.52,0c1.01,0,1.01-.007,1.282.933h10.2c.188-.882.249-.93,1.116-.93q8.76,0,17.52,0c.238,0,.475-.021.724-.032V34.911ZM26.687,45.784H31q9.68,0,19.361,0a1.749,1.749,0,0,0,1.85-1.375c.157-.679-.16-1.11-.855-1.111q-8.981-.008-17.961.006a.658.658,0,0,0-.476.259,1.482,1.482,0,0,1-1.369.7q-4.868,0-9.736,0a1.432,1.432,0,0,1-1.275-.667.731.731,0,0,0-.513-.294q-8.953-.024-17.906-.012c-.744,0-1.076.455-.891,1.182A1.783,1.783,0,0,0,3.13,45.785H26.687" transform="translate(0 0)" fill="#fff"/>
        <path id="Path_14705" data-name="Path 14705" d="M124.27,94.844q-3.579,0-7.159,0c-.826,0-.967-.145-.968-.987q0-4.474.005-8.949c0-.85.135-.984.968-.985q7.159,0,14.318,0c.789,0,.916.126.917.9q0,4.586,0,9.172c0,.691-.152.84-.867.841q-3.607.005-7.215,0Zm-6.928-1.222h13.821V85.154H117.343Z" transform="translate(-103.14 -74.526)" fill="#fff"/>
        <path id="Path_14706" data-name="Path 14706" d="M135.922,259.053H117.682c-.168,0-.376.059-.495-.018-.223-.144-.54-.365-.545-.561s.31-.419.524-.578c.1-.073.289-.027.438-.027q18.38,0,36.761,0a1.007,1.007,0,0,1,.541.071.828.828,0,0,1,.37.539c-.006.183-.219.4-.4.522a1.094,1.094,0,0,1-.546.051q-9.2,0-18.409,0" transform="translate(-103.583 -228.985)" fill="#fff"/>
        <path id="Path_14707" data-name="Path 14707" d="M135.617,215.673H117.381c-.784,0-1.1-.163-1.054-.59.073-.7.627-.559,1.075-.559q18.321,0,36.641,0c.149,0,.338-.055.439.016.2.142.489.349.494.536s-.255.446-.461.561a1.5,1.5,0,0,1-.66.035H135.617" transform="translate(-103.299 -190.489)" fill="#fff"/>
        <path id="Path_14708" data-name="Path 14708" d="M301.674,84.917h-8.443c-.168,0-.379.055-.493-.026-.217-.153-.523-.387-.521-.585s.315-.442.546-.55a1.824,1.824,0,0,1,.718-.025h16.774c.167,0,.378-.051.492.029.19.135.434.354.44.544s-.229.418-.412.56c-.11.085-.323.046-.49.046q-4.305,0-8.61,0Z" transform="translate(-259.501 -74.335)" fill="#fff"/>
        <path id="Path_14709" data-name="Path 14709" d="M301.609,171.966h-8.554c-.149,0-.341.052-.438-.021-.19-.143-.443-.351-.453-.542s.218-.447.409-.56a1.393,1.393,0,0,1,.656-.055q8.47,0,16.941,0c.149,0,.339-.05.438.023.216.158.531.38.531.576s-.323.406-.537.569c-.083.063-.253.012-.383.012h-8.61" transform="translate(-259.454 -151.651)" fill="#fff"/>
        <path id="Path_14710" data-name="Path 14710" d="M301.6,127.477q4.282,0,8.563,0c.186,0,.42-.049.546.043a.921.921,0,0,1,.4.569c.008.165-.227.407-.411.5a1.612,1.612,0,0,1-.662.038q-8.507,0-17.015,0c-.167,0-.385.048-.491-.037a.975.975,0,0,1-.4-.574c-.008-.165.228-.4.412-.5a1.373,1.373,0,0,1,.605-.039q4.226,0,8.452,0" transform="translate(-259.424 -113.194)" fill="#fff"/>
        <path id="Path_14711" data-name="Path 14711" d="M188.3,21.357a1.134,1.134,0,0,1-1.125,1.137,1.122,1.122,0,1,1,.027-2.244,1.13,1.13,0,0,1,1.1,1.106" transform="translate(-165.234 -17.984)" fill="#fff"/>
        <path id="Path_14712" data-name="Path 14712" d="M111.145,20.3a1.107,1.107,0,0,1,1.072,1.126,1.124,1.124,0,0,1-1.091,1.11,1.119,1.119,0,1,1,.02-2.236" transform="translate(-97.669 -18.026)" fill="#fff"/>
        <path id="Path_14713" data-name="Path 14713" d="M446.754,20.368a1.114,1.114,0,1,1-.027,2.228,1.118,1.118,0,0,1-1.078-1.133,1.1,1.1,0,0,1,1.106-1.095" transform="translate(-395.754 -18.088)" fill="#fff"/>
        <path id="Path_14714" data-name="Path 14714" d="M150.281,21.476a1.112,1.112,0,0,1-1.1,1.11,1.158,1.158,0,0,1-1.127-1.1,1.13,1.13,0,0,1,1.141-1.131,1.1,1.1,0,0,1,1.086,1.117" transform="translate(-131.478 -18.079)" fill="#fff"/>
      </g>
    </g>
  </g>
</svg>
