<svg xmlns="http://www.w3.org/2000/svg" xmlns:xlink="http://www.w3.org/1999/xlink" width="87" height="87" viewBox="0 0 87 87">
  <defs>
    <clipPath id="clip-path">
      <rect id="Rectangle_8308" data-name="Rectangle 8308" width="56.814" height="51.62" fill="#fff"/>
    </clipPath>
  </defs>
  <g id="Group_49005" data-name="Group 49005" transform="translate(-272 -2025)">
    <circle id="Ellipse_63" data-name="Ellipse 63" cx="43.5" cy="43.5" r="43.5" transform="translate(272 2025)"/>
    <g id="Group_49011" data-name="Group 49011" transform="translate(287.093 2042.69)">
      <g id="Group_49010" data-name="Group 49010" clip-path="url(#clip-path)">
        <path id="Path_14681" data-name="Path 14681" d="M44.672,24.129c.986.87,1.958,1.73,2.933,2.588q3.979,3.5,7.957,7.007A3.465,3.465,0,0,1,56.675,37.4a3.643,3.643,0,0,1-6.23,1.491q-4.5-5.226-8.973-10.483a1.924,1.924,0,0,0-.547-.475V28.5q0,9.844,0,19.687a3.527,3.527,0,0,1-.443,1.95,3.134,3.134,0,0,1-2.871,1.486q-17.15-.009-34.3-.006a4.925,4.925,0,0,1-.756-.057A2.962,2.962,0,0,1,.045,48.943,6.379,6.379,0,0,1,0,48.185Q0,30.857.008,13.529A11.368,11.368,0,0,1,.2,11.111a3.2,3.2,0,0,1,.81-1.476c2.7-2.752,5.452-5.452,8.162-8.194A4.579,4.579,0,0,1,12.612,0c2.182.015,4.364,0,6.545,0h18.52a3.048,3.048,0,0,1,3.246,3.235c.006.778-.018,1.557.015,2.334a.849.849,0,0,0,.291.574,13.04,13.04,0,0,1,5.491,12.07,12.361,12.361,0,0,1-1.749,5.4c-.093.158-.185.316-.3.51m-15.8,5.223.019-.109-.359-.154a12.719,12.719,0,0,1-3.776-2.428,1.253,1.253,0,0,0-.942-.37q-7.433.017-14.867.007c-.152,0-.339.05-.448-.019-.173-.111-.406-.3-.405-.462s.232-.352.405-.464c.108-.07.3-.022.448-.022H23.32c-.594-1.028-1.183-1.974-1.69-2.961a.718.718,0,0,0-.759-.472c-3.991.014-7.983.009-11.975.008-.152,0-.333.044-.449-.022-.155-.089-.358-.265-.36-.406a.716.716,0,0,1,.3-.5,1.046,1.046,0,0,1,.541-.057q5.759,0,11.518,0h.548c-1.37-5.6-.2-10.46,4.27-14.141s9.451-3.9,14.676-1.5c0-.752.012-1.458,0-2.163A2.051,2.051,0,0,0,37.775,1q-12.457,0-24.913,0h-.65v.658q0,3.222,0,6.444a3.051,3.051,0,0,1-3.243,3.239c-2.452,0-4.9.006-7.357-.007-.365,0-.577.062-.566.483.009.336-.053.674-.053,1.011Q.985,30.558.986,48.292a2.11,2.11,0,0,0,2.365,2.337H37.5a2.145,2.145,0,0,0,2.441-2.465q0-9.514,0-19.028v-.591a2.221,2.221,0,0,0-.3.109,15.388,15.388,0,0,1-7.614,1.633c-7.71.145-15.424.052-23.136.052-.135,0-.3.045-.4-.016-.167-.1-.408-.274-.4-.412a.817.817,0,0,1,.349-.518c.113-.084.326-.041.494-.041H28.869M21.432,16.924A12.189,12.189,0,1,0,33.666,4.741,12.191,12.191,0,0,0,21.432,16.924M44.2,25.045l-2.3,2.323c.119.144.254.314.4.479q4.384,5.123,8.769,10.247a2.656,2.656,0,1,0,3.766-3.7Q52.115,32,49.39,29.605,46.8,27.329,44.2,25.045M1.7,10.286a2.215,2.215,0,0,0,.271.055c2.419,0,4.837.013,7.256,0a1.894,1.894,0,0,0,1.946-1.724c.078-2.442.025-4.889.025-7.334l-.113-.107c-.422.341-.878.649-1.262,1.029C7.753,4.251,5.7,6.315,3.645,8.371c-.621.62-1.25,1.23-1.947,1.916" transform="translate(0 0)" fill="#fff"/>
        <path id="Path_14682" data-name="Path 14682" d="M16.725,20.705c.7-.686,1.327-1.3,1.947-1.916,2.059-2.055,4.108-4.12,6.176-6.165.384-.38.84-.688,1.262-1.029l.113.107c0,2.445.052,4.891-.025,7.334a1.894,1.894,0,0,1-1.946,1.724c-2.418.014-4.837,0-7.256,0a2.215,2.215,0,0,1-.271-.055" transform="translate(-15.028 -10.418)" fill="#fff"/>
        <path id="Path_14683" data-name="Path 14683" d="M92.034,333.623q-5.754,0-11.509,0a1.262,1.262,0,0,1-.548-.041c-.151-.079-.337-.288-.327-.426a.789.789,0,0,1,.344-.472c.1-.074.294-.031.446-.031h23.169c.1,0,.2,0,.3,0,.322.006.519.158.517.49s-.224.466-.534.476c-.118,0-.237,0-.355,0H92.034" transform="translate(-71.567 -298.883)" fill="#fff"/>
        <path id="Path_14684" data-name="Path 14684" d="M84.648,160.865c1.505,0,3.01,0,4.516,0,.35,0,.676.036.679.48s-.315.51-.667.51H80.144c-.348,0-.672-.062-.677-.5s.308-.495.665-.493c1.505.006,3.01,0,4.516,0" transform="translate(-71.403 -144.538)" fill="#fff"/>
        <path id="Path_14685" data-name="Path 14685" d="M244.088,69.758a9.849,9.849,0,1,1-9.852,9.813,9.829,9.829,0,0,1,9.852-9.813M236.315,83.7a.684.684,0,0,0,.019.2,8.713,8.713,0,0,0,3.16,3.286.657.657,0,0,0,.328.068c.913,0,1.826-.005,2.738-.01.346,0,.728-.024.763.451.037.507-.341.546-.719.556-.029,0-.056.031-.084.048A8.644,8.644,0,0,0,250.2,86a1.009,1.009,0,0,0,.2-.635c.012-3.838,0-7.676.016-11.514a.992.992,0,0,0-.379-.824,8.873,8.873,0,0,0-14.395,9.292.507.507,0,0,0,.571.418c1.335-.017,2.671-.007,4.007-.007.845,0,1.691-.017,2.536.012a.817.817,0,0,1,.528.289.459.459,0,0,1-.046.454,1.172,1.172,0,0,1-.635.207c-1.758.016-3.517.009-5.275.009h-1.009m15.109.779a8.579,8.579,0,0,0,0-9.716Z" transform="translate(-210.465 -62.679)" fill="#fff"/>
        <path id="Path_14686" data-name="Path 14686" d="M292.68,91.834a6.394,6.394,0,0,0-3.028.79c-.06.032-.125.1-.175.094-.237-.048-.55-.045-.686-.2-.22-.243-.053-.511.211-.666a7.6,7.6,0,0,1,8.192.376c.264.2.387.447.174.738s-.487.259-.757.064a6.33,6.33,0,0,0-3.932-1.2" transform="translate(-259.392 -81.621)" fill="#fff"/>
      </g>
    </g>
  </g>
</svg>
