<svg xmlns="http://www.w3.org/2000/svg" xmlns:xlink="http://www.w3.org/1999/xlink" width="87" height="87" viewBox="0 0 87 87">
  <defs>
    <clipPath id="clip-path">
      <rect id="Rectangle_8306" data-name="Rectangle 8306" width="51.059" height="51.07" fill="#fff"/>
    </clipPath>
  </defs>
  <g id="Group_49001" data-name="Group 49001" transform="translate(-272 -2025)">
    <circle id="Ellipse_63" data-name="Ellipse 63" cx="43.5" cy="43.5" r="43.5" transform="translate(272 2025)"/>
    <g id="Group_49003" data-name="Group 49003" transform="translate(289.971 2042.965)">
      <g id="Group_49002" data-name="Group 49002" clip-path="url(#clip-path)">
        <path id="Path_14657" data-name="Path 14657" d="M51.058,25.537q0,10.452,0,20.9c0,3.124-1.514,4.624-4.673,4.626q-12.849.007-25.7,0c-3.247,0-4.7-1.47-4.7-4.729,0-1.908-.037-3.818.018-5.725.025-.838-.254-1.225-1.092-1.289C10.543,38.989,6.176,38.6,1.8,38.3c-1.773-.119-1.8-.044-1.8-1.8Q0,19.132,0,1.757C0,.05.048-.092,1.7.035,6.466.4,11.225.871,15.99,1.267A3.791,3.791,0,0,0,17.328,1,12.084,12.084,0,0,1,20.415.056C29.157-.021,37.9.005,46.644.015c2.848,0,4.409,1.6,4.412,4.484q.009,10.518,0,21.037M46.25,4.8H20.807v35.1H46.25ZM1.61,1.521V36.713c5.924.277,11.8.19,17.57,2.3V37.46c0-10.52-.045-21.04.046-31.559a2.388,2.388,0,0,0-1.979-2.736C12.159,1.7,6.942,1.586,1.61,1.521M17.5,40.113c0,2.317-.012,4.479,0,6.64.014,1.859.927,2.8,2.772,2.8q13.246.014,26.493-.008a2.451,2.451,0,0,0,2.775-2.79q.014-21.235,0-42.47c0-1.852-.933-2.763-2.806-2.765q-13.246-.016-26.493.006a10.025,10.025,0,0,0-1.683.315,4.746,4.746,0,0,0,3.585,1.387c7.988-.054,15.976-.026,23.964-.023,1.71,0,1.744.031,1.744,1.69q0,17.44,0,34.881c0,1.67-.028,1.7-1.738,1.7q-12.049,0-24.1,0c-1.221,0-2.5.236-3.424-.935-.179-.226-.612-.251-1.1-.431" transform="translate(0 0)" fill="#fff"/>
        <path id="Path_14658" data-name="Path 14658" d="M90.3,35.126c-1.642,0-3.285-.034-4.926.013-1.006.029-1.452-.312-1.435-1.378.046-2.8.034-5.592,0-8.387-.011-.946.307-1.368,1.31-1.357q5.059.056,10.118,0c1.015-.011,1.3.436,1.293,1.371-.032,2.8-.043,5.592.006,8.387.019,1.082-.452,1.391-1.444,1.364-1.641-.045-3.284-.012-4.926-.012m4.792-9.5H85.539v7.883H95.09Z" transform="translate(-61.579 -17.618)" fill="#fff"/>
        <path id="Path_14659" data-name="Path 14659" d="M95.161,79.556c-3.232,0-6.464.027-9.695-.034-.451-.009-.894-.456-1.341-.7.434-.259.865-.739,1.3-.742q9.761-.072,19.522,0c.47,0,.935.5,1.4.765-.454.237-.9.67-1.362.679-3.275.059-6.551.031-9.827.031" transform="translate(-61.718 -57.256)" fill="#fff"/>
        <path id="Path_14660" data-name="Path 14660" d="M95.136,97.56c-3.195,0-6.39.033-9.584-.036-.472-.01-.933-.507-1.4-.779.461-.229.921-.654,1.383-.658,6.478-.044,12.957-.031,19.435-.029.618,0,1.415-.087,1.331.8-.026.274-.852.665-1.317.673-3.283.058-6.567.031-9.85.031Z" transform="translate(-61.739 -70.469)" fill="#fff"/>
        <path id="Path_14661" data-name="Path 14661" d="M95.2,115.561c-3.24,0-6.48.027-9.718-.034-.451-.009-.893-.458-1.339-.7.436-.256.871-.732,1.309-.735q9.785-.072,19.571,0c.447,0,.892.461,1.338.707-.436.257-.868.727-1.308.735-3.283.063-6.568.034-9.851.033" transform="translate(-61.733 -83.673)" fill="#fff"/>
        <path id="Path_14662" data-name="Path 14662" d="M95.353,132.035c3.187,0,6.375-.033,9.561.033.486.01.961.474,1.442.728-.487.249-.973.711-1.463.714q-9.694.074-19.388,0c-.46,0-.917-.437-1.376-.671.466-.269.926-.762,1.4-.772,3.274-.068,6.551-.036,9.826-.037" transform="translate(-61.72 -96.86)" fill="#fff"/>
        <path id="Path_14663" data-name="Path 14663" d="M142.058,43.518a25.72,25.72,0,0,1-2.788-.033c-.386-.042-.732-.444-1.1-.683.34-.263.672-.741,1.021-.754,1.947-.074,3.9-.068,5.846,0,.327.011.64.445.959.684-.339.263-.658.713-1.022.753a26.535,26.535,0,0,1-2.92.036" transform="translate(-101.37 -30.809)" fill="#fff"/>
        <path id="Path_14664" data-name="Path 14664" d="M142.068,60a26.024,26.024,0,0,1,2.793.032c.388.042.737.438,1.1.673-.338.266-.668.75-1.015.763-1.95.074-3.906.068-5.857,0-.332-.011-.649-.44-.974-.676.339-.265.658-.718,1.022-.759A26.565,26.565,0,0,1,142.068,60" transform="translate(-101.33 -44.002)" fill="#fff"/>
        <path id="Path_14665" data-name="Path 14665" d="M141.294,25.507a12.46,12.46,0,0,1-2.12-.036c-.38-.067-.7-.485-1.043-.745.317-.241.624-.673.952-.69a41.165,41.165,0,0,1,4.381,0c.312.017.6.482.9.74-.315.244-.6.644-.95.7a13.332,13.332,0,0,1-2.121.031" transform="translate(-101.338 -17.591)" fill="#fff"/>
        <path id="Path_14666" data-name="Path 14666" d="M25.683,75.2c-1.175-.238-2.121-.513-3.085-.609-3.039-.3-6.088-.506-9.126-.819-.46-.047-.882-.467-1.322-.714.438-.255.9-.762,1.312-.725,3.831.349,7.654.787,11.477,1.212a1.842,1.842,0,0,1,.881.259c.243.184.559.576.5.78-.08.283-.48.476-.638.615" transform="translate(-8.914 -53.062)" fill="#fff"/>
        <path id="Path_14667" data-name="Path 14667" d="M15.829,17.984q4.4.613,8.8,1.227a1.347,1.347,0,0,1,.639.15c.385.322.717.709,1.07,1.071a3.94,3.94,0,0,1-1.377.361c-1.446-.18-2.868-.573-4.316-.719-2.422-.244-4.86-.331-7.284-.559-.429-.04-.824-.445-1.234-.681.428-.265.836-.7,1.289-.756a13.873,13.873,0,0,1,2.384.089q.014-.091.027-.182" transform="translate(-8.898 -13.194)" fill="#fff"/>
        <path id="Path_14668" data-name="Path 14668" d="M15.7,35.932q4.531.638,9.062,1.278c.219.031.494.023.638.151a11.806,11.806,0,0,1,.94,1.04c-.42.135-.86.428-1.256.377-1.533-.2-3.043-.6-4.579-.754-2.378-.244-4.772-.322-7.152-.546-.426-.04-.817-.449-1.225-.688.429-.262.836-.689,1.292-.75a12.268,12.268,0,0,1,2.252.086l.028-.194" transform="translate(-8.9 -26.361)" fill="#fff"/>
        <path id="Path_14669" data-name="Path 14669" d="M25.428,56.9c-2.988-.332-5.973-.684-8.963-.987-1.1-.111-2.22-.047-3.315-.191-.366-.048-.679-.492-1.017-.756.365-.24.752-.717,1.091-.684q6.075.586,12.132,1.342c.367.046.665.636,1,.972l-.837.656-.085-.354" transform="translate(-8.901 -39.821)" fill="#fff"/>
        <path id="Path_14670" data-name="Path 14670" d="M15.782,89.939q4.53.644,9.06,1.29a1.307,1.307,0,0,1,.635.162,10.085,10.085,0,0,1,.877.956c-.4.159-.828.495-1.2.447-1.578-.2-3.131-.608-4.711-.774-2.333-.244-4.684-.311-7.019-.541-.449-.044-.858-.495-1.286-.758a4.574,4.574,0,0,1,1.367-.677,13.335,13.335,0,0,1,2.252.085l.028-.189" transform="translate(-8.902 -65.983)" fill="#fff"/>
        <path id="Path_14671" data-name="Path 14671" d="M15.946,107.958q4.462.646,8.925,1.295a1.544,1.544,0,0,1,.756.212,5.8,5.8,0,0,1,.726.925c-.368.156-.759.483-1.1.437-1.621-.215-3.218-.621-4.842-.792-2.333-.246-4.684-.31-7.018-.542-.44-.044-.837-.514-1.255-.787.418-.228.823-.615,1.258-.652a18.266,18.266,0,0,1,2.519.108l.03-.2" transform="translate(-8.906 -79.202)" fill="#fff"/>
        <path id="Path_14672" data-name="Path 14672" d="M117.044,166.688c-3.494-.022-3.024.418-3.1-3.146-.024-1.128.322-1.643,1.514-1.572s2.394.037,3.59.007c.834-.021,1.258.315,1.218,1.169,0,.044,0,.088,0,.133-.03,3.973.432,3.367-3.222,3.409m-1.576-3.118c.028.591.049,1.048.072,1.528h3.142v-1.528Z" transform="translate(-83.592 -118.823)" fill="#fff"/>
      </g>
    </g>
  </g>
</svg>
