<svg xmlns="http://www.w3.org/2000/svg" xmlns:xlink="http://www.w3.org/1999/xlink" width="87" height="87" viewBox="0 0 87 87">
  <defs>
    <clipPath id="clip-path">
      <rect id="Rectangle_8307" data-name="Rectangle 8307" width="40.681" height="50.398" fill="#fff"/>
    </clipPath>
  </defs>
  <g id="Group_49004" data-name="Group 49004" transform="translate(-272 -2025)">
    <circle id="Ellipse_63" data-name="Ellipse 63" cx="43.5" cy="43.5" r="43.5" transform="translate(272 2025)"/>
    <g id="Group_49009" data-name="Group 49009" transform="translate(295.159 2043.301)">
      <g id="Group_49008" data-name="Group 49008" clip-path="url(#clip-path)">
        <path id="Path_14673" data-name="Path 14673" d="M37.278,71.806c-5.681-.243-9.747-3.172-12.534-8.052a1.949,1.949,0,0,1,.045-1.651c2.926-4.924,7.063-7.991,13.006-7.874,5.685.112,9.6,3.19,12.37,7.914a1.946,1.946,0,0,1,.011,1.65c-2.843,4.916-6.954,7.858-12.9,8.014m.344-15.774a12.605,12.605,0,0,0-10.731,6.221,1.819,1.819,0,0,0,.07,1.591,12.181,12.181,0,0,0,21.056-.061,1.694,1.694,0,0,0,.072-1.466c-2.47-3.842-5.906-6.122-10.468-6.286" transform="translate(-17.129 -37.785)" fill="#fff"/>
        <path id="Path_14674" data-name="Path 14674" d="M51.6,122.71c0-1.322.028-2.674-.009-4.024-.031-1.131.38-1.691,1.6-1.613a26.452,26.452,0,0,0,3.329,0c1.219-.075,1.618.5,1.587,1.625-.036,1.307-.008,2.616-.008,4.029.39.057.716.1,1.04.153,1.006.174,1.3.755.785,1.614q-2.056,3.439-4.194,6.828c-.542.86-1.241.867-1.782.006-1.423-2.26-2.835-4.53-4.172-6.841-.624-1.079-.233-1.45,1.829-1.779m5.735,2.428c-2.342-1.785-.485-4.324-1.429-6.14H53.773c-.875,1.992.929,4.433-1.476,6.1l2.542,4.115,2.495-4.072" transform="translate(-34.493 -81.574)" fill="#fff"/>
        <path id="Path_14675" data-name="Path 14675" d="M58.081,9.208c0,1.451-.015,2.806.005,4.161.016,1.056-.387,1.592-1.527,1.53a33.644,33.644,0,0,0-3.48,0c-1.153.057-1.518-.514-1.5-1.56.026-1.354.006-2.71.006-4.037-2.411-.482-2.515-.712-1.316-2.672,1.157-1.892,2.3-3.792,3.479-5.669.8-1.28,1.392-1.282,2.19,0,1.2,1.924,2.366,3.869,3.543,5.808,1.092,1.8.9,2.174-1.4,2.443m-1.946,3.8c0-1.229-.019-2.286.005-3.341s-.384-2.318,1.343-2.623L54.847,2.75,52.325,6.866c2.434,1.661.536,4.194,1.464,6.142Z" transform="translate(-34.509 0.001)" fill="#fff"/>
        <path id="Path_14676" data-name="Path 14676" d="M8.881,116.7c.369.447.593.712.809.983.625.781.336,1.4-.5,1.621-2.579.685-5.178,1.3-7.781,1.886-1.042.236-1.6-.243-1.357-1.327.587-2.6,1.182-5.207,1.868-7.785.3-1.117.882-1.074,2.763.313.926-1.041,1.893-2.13,2.861-3.217a1.13,1.13,0,0,1,1.918,0c.834.88,1.687,1.743,2.573,2.57.779.727.692,1.356-.05,2.034-1.041.951-2.055,1.93-3.108,2.923m-.206-5.693c-2.092.87-2.594,3.828-5.4,3.406l-1.08,4.622,4.632-1.083c-.37-2.831,2.612-3.346,3.355-5.246l-1.5-1.7" transform="translate(0 -75.706)" fill="#fff"/>
        <path id="Path_14677" data-name="Path 14677" d="M100.65,112.365c2.025-1.607,2.4-1.486,2.926.648q.778,3.152,1.517,6.314c.4,1.7-.054,2.144-1.79,1.736q-3.087-.725-6.17-1.471c-2.246-.546-2.365-.883-.7-3.061-1.008-.878-2.06-1.8-3.124-2.716-.82-.7-.887-1.369-.046-2.137.894-.816,1.734-1.693,2.576-2.565a1.085,1.085,0,0,1,1.806,0c.992,1.072,1.983,2.146,3.007,3.254m2.4,6.7-1.106-4.666c-2.853.318-3.34-2.623-4.987-3.254l-1.909,1.46c.872,2.093,3.853,2.509,3.338,5.339l4.664,1.122" transform="translate(-64.568 -75.694)" fill="#fff"/>
        <path id="Path_14678" data-name="Path 14678" d="M100.657,24.89c-.987,1.072-1.953,2.1-2.9,3.152a1.183,1.183,0,0,1-2.029,0c-.79-.851-1.608-1.681-2.466-2.462s-.754-1.424.049-2.141c1.015-.906,2-1.85,3.041-2.823-.335-.44-.528-.713-.742-.97-.692-.832-.417-1.46.513-1.7,2.532-.665,5.084-1.257,7.637-1.843,1.123-.258,1.694.215,1.428,1.383-.582,2.553-1.171,5.106-1.842,7.637-.319,1.206-.917,1.185-2.694-.223M98.483,19.3c.106,2.792-2.564,3.38-3.4,5.191l1.568,1.7c2.024-.839,2.486-3.793,5.323-3.33l1.094-4.62L98.483,19.3" transform="translate(-64.576 -11.167)" fill="#fff"/>
        <path id="Path_14679" data-name="Path 14679" d="M8.945,20.752c.967.874,1.961,1.8,2.988,2.693.871.755.943,1.445.042,2.252-.864.774-1.669,1.615-2.468,2.458a1.139,1.139,0,0,1-1.921-.007c-.983-1.07-1.98-2.127-2.939-3.154-2.124,1.577-2.43,1.454-3-.92Q.933,21.062.219,18.05c-.428-1.81-.007-2.214,1.836-1.775q2.938.7,5.877,1.4c2.482.585,2.582.816,1.013,3.08M10.49,24.47c-.9-.833-1.695-1.529-2.438-2.28s-1.885-1.34-.963-2.778l-4.834-1.1,1.128,4.74c.464-.111.94-.371,1.1-.241,1.389,1.117,2.721,2.3,4.174,3.561L10.49,24.47" transform="translate(-0.045 -11.227)" fill="#fff"/>
        <path id="Path_14680" data-name="Path 14680" d="M55.376,76.6a5,5,0,1,1,5.2-4.79,5.016,5.016,0,0,1-5.2,4.79m3.288-4.985a3.082,3.082,0,1,0-3.015,3.075,2.972,2.972,0,0,0,3.015-3.075" transform="translate(-35.242 -46.407)" fill="#fff"/>
      </g>
    </g>
  </g>
</svg>
