<svg xmlns="http://www.w3.org/2000/svg" xmlns:xlink="http://www.w3.org/1999/xlink" width="87" height="87" viewBox="0 0 87 87">
  <defs>
    <clipPath id="clip-path">
      <rect id="Rectangle_8319" data-name="Rectangle 8319" width="43.703" height="35.163" fill="#fff"/>
    </clipPath>
  </defs>
  <g id="Group_49019" data-name="Group 49019" transform="translate(-272 -2025)">
    <circle id="Ellipse_63" data-name="Ellipse 63" cx="43.5" cy="43.5" r="43.5" transform="translate(272 2025)"/>
    <g id="Group_49021" data-name="Group 49021" transform="translate(293.648 2050.918)">
      <g id="Group_49020" data-name="Group 49020" clip-path="url(#clip-path)">
        <path id="Path_14720" data-name="Path 14720" d="M0,23.816V1.793A2.386,2.386,0,0,1,2.438,0Q21.852.01,41.265.007a3.317,3.317,0,0,1,.677.06A2.37,2.37,0,0,1,43.7,1.793V23.816a2.613,2.613,0,0,1-2.926,1.789c-1.791-.053-3.584-.013-5.377-.013q-16.409,0-32.817,0a2.285,2.285,0,0,1-1.745-.533A8.157,8.157,0,0,1,0,23.816m21.825-.064H41.109c.725,0,.793-.069.793-.811q0-10.155,0-20.309c0-.721-.092-.815-.8-.815H2.615c-.723,0-.814.091-.814.8q0,10.155,0,20.309c0,.76.062.822.825.822h19.2" transform="translate(0 0)" fill="#fff"/>
        <path id="Path_14721" data-name="Path 14721" d="M0,331.482a1.238,1.238,0,0,1,1.266-.659c5.645.007,11.291,0,16.936.012a.565.565,0,0,0,.634-.438,3.538,3.538,0,0,1,6.594.043.514.514,0,0,0,.583.393c5.475-.01,10.949,0,16.424-.011a1.238,1.238,0,0,1,1.266.659v.512a1.211,1.211,0,0,1-1.256.674c-5.473-.008-10.946,0-16.419-.013a.535.535,0,0,0-.607.418,3.542,3.542,0,0,1-6.592,0c-.13-.355-.309-.417-.643-.417-5.644.009-11.287,0-16.931.011A1.211,1.211,0,0,1,0,331.995ZM22.133,330a1.716,1.716,0,0,0-1.749,1.744,1.745,1.745,0,0,0,1.754,1.751,1.778,1.778,0,0,0,1.746-1.734A1.756,1.756,0,0,0,22.133,330" transform="translate(0 -300.154)" fill="#fff"/>
        <path id="Path_14722" data-name="Path 14722" d="M195.474,75.414q0-2.816,0-5.631c0-.128,0-.257.006-.384A.91.91,0,0,1,197,68.679c1.269.887,2.526,1.792,3.789,2.69Q203,72.938,205.2,74.506c.814.58.808,1.211-.015,1.8q-4.029,2.868-8.057,5.736a1.023,1.023,0,0,1-1.138.216,1.051,1.051,0,0,1-.521-1.082q0-2.88,0-5.759m7.849-.015-6-4.262v8.53l6-4.268" transform="translate(-178.788 -62.608)" fill="#fff"/>
      </g>
    </g>
  </g>
</svg>
