<svg xmlns="http://www.w3.org/2000/svg" xmlns:xlink="http://www.w3.org/1999/xlink" width="87" height="87" viewBox="0 0 87 87">
  <defs>
    <clipPath id="clip-path">
      <rect id="Rectangle_8301" data-name="Rectangle 8301" width="48.015" height="57.234" fill="#fff"/>
    </clipPath>
  </defs>
  <g id="Group_48990" data-name="Group 48990" transform="translate(-272 -2025)">
    <circle id="Ellipse_63" data-name="Ellipse 63" cx="43.5" cy="43.5" r="43.5" transform="translate(272 2025)"/>
    <g id="Group_48992" data-name="Group 48992" transform="translate(291.492 2039.883)">
      <g id="Group_48991" data-name="Group 48991" clip-path="url(#clip-path)">
        <path id="Path_14644" data-name="Path 14644" d="M11.12,113.923a3.509,3.509,0,0,1-.364-1.048q-.042-5.113-.006-10.227c0-.483-.1-.7-.614-.831-3.163-.824-6.314-1.7-9.469-2.552-.648-.176-.78-.438-.582-1.178q2.13-7.966,4.262-15.93Q6.674,73.466,9,64.775c.263-.982.439-1.09,1.407-.832Q22.33,67.124,34.252,70.3a4.362,4.362,0,0,0,1.1.135q5.785.014,11.57.006c.9,0,1.072.171,1.072,1.074,0,10.6-.013,21.2.023,31.8a2.8,2.8,0,0,1-.934,2.225c-2.749,2.677-5.439,5.415-8.15,8.132a2.584,2.584,0,0,0-.2.253Zm1.032-42.117v40.746H37.71v-.63q0-3.632,0-7.264c0-.835.179-1.01,1.018-1.01q3.633,0,7.265,0h.584V71.806ZM10.7,100.551v-.769q0-14.113,0-28.225c0-.948.165-1.116,1.086-1.116H29.069c0-.034,0-.067.007-.1l-18.79-5.058L1.507,98.089l9.192,2.462m28.4,4.48v6.188l6.277-6.188Z" transform="translate(0 -56.688)" fill="#fff"/>
        <path id="Path_14645" data-name="Path 14645" d="M96.358,0a.9.9,0,0,1,.355,1.109c-.289.977-.527,1.969-.767,2.96-.115.475-.375.723-.871.635-.394-.07-.581-.48-.455-.982.252-1.007.5-2.015.781-3.013A3.382,3.382,0,0,1,95.8,0Z" transform="translate(-84.008)" fill="#fff"/>
        <path id="Path_14646" data-name="Path 14646" d="M20.315,53.87c-1.173-.289-2.183-.536-3.192-.787a4,4,0,0,1-.587-.172c-.364-.153-.552-.476-.367-.805.126-.224.506-.5.713-.453,1.182.24,2.355.538,3.508.891a.88.88,0,0,1,.4.728c-.016.225-.333.43-.477.6" transform="translate(-14.298 -45.875)" fill="#fff"/>
        <path id="Path_14647" data-name="Path 14647" d="M53.982,18.963c.136-.164.265-.468.451-.507a.911.911,0,0,1,.779.188c.676,1.018,1.3,2.069,1.906,3.133a.589.589,0,0,1-.287.85.6.6,0,0,1-.869-.217c-.616-.992-1.216-1.994-1.815-3a2.989,2.989,0,0,1-.164-.452" transform="translate(-47.948 -16.378)" fill="#fff"/>
        <path id="Path_14648" data-name="Path 14648" d="M349.8,432.458h6.277l-6.277,6.188Z" transform="translate(-310.695 -384.115)" fill="#fff"/>
        <path id="Path_14649" data-name="Path 14649" d="M241.465,220.576q3.827,0,7.654,0c.186,0,.418-.055.548.034.234.161.561.411.562.624s-.306.487-.529.673c-.1.085-.323.029-.491.029H233.677a1.994,1.994,0,0,1-.445-.015c-.366-.086-.656-.333-.559-.7.064-.243.354-.459.59-.614.133-.087.362-.031.548-.031h7.654" transform="translate(-206.646 -195.904)" fill="#fff"/>
        <path id="Path_14650" data-name="Path 14650" d="M144.019,274.591q3.628,0,7.255,0c.186,0,.412-.052.548.033.227.143.553.379.55.572,0,.243-.273.5-.474.711-.077.08-.284.043-.431.043q-7.507,0-15.013,0c-.164,0-.394.018-.478-.076a1.2,1.2,0,0,1-.385-.7c.01-.194.3-.42.514-.541a1.346,1.346,0,0,1,.6-.038q3.656,0,7.311,0" transform="translate(-120.432 -243.882)" fill="#fff"/>
        <path id="Path_14651" data-name="Path 14651" d="M142.337,383.973q-2.907,0-5.813,0c-.184,0-.429.035-.539-.064-.2-.179-.445-.457-.428-.676s.317-.428.532-.59c.1-.074.289-.029.438-.029h11.626c.13,0,.261,0,.391.01a.623.623,0,0,1,.639.639.646.646,0,0,1-.587.7,2.415,2.415,0,0,1-.5.016h-5.757" transform="translate(-120.404 -339.829)" fill="#fff"/>
        <path id="Path_14652" data-name="Path 14652" d="M278.561,328.58q2.737,0,5.475,0c.186,0,.412-.053.549.033.228.143.535.365.554.576s-.236.493-.429.685c-.092.092-.318.065-.482.065q-5.67,0-11.34,0c-.148,0-.352.041-.434-.037-.208-.2-.506-.465-.494-.69s.344-.444.578-.607c.115-.08.326-.027.493-.027h5.53" transform="translate(-241.558 -291.834)" fill="#fff"/>
        <path id="Path_14653" data-name="Path 14653" d="M139.432,330.065c-1.116,0-2.232,0-3.347,0-.571,0-.9-.266-.87-.705.034-.531.4-.656.856-.656,2.269,0,4.538,0,6.806,0,.6,0,.882.237.868.695s-.3.661-.909.663c-1.134,0-2.269,0-3.4,0" transform="translate(-120.098 -291.958)" fill="#fff"/>
        <path id="Path_14654" data-name="Path 14654" d="M321.378,382.692c1.078,0,2.155.006,3.233,0,.475,0,.809.166.852.67.034.395-.331.69-.841.691q-3.233.009-6.466,0c-.551,0-.835-.246-.839-.679s.269-.673.828-.677c1.078-.009,2.155,0,3.233,0" transform="translate(-281.845 -339.91)" fill="#fff"/>
        <path id="Path_14655" data-name="Path 14655" d="M348.187,274.722h1.672c.461,0,.782.217.771.683s-.333.677-.791.677c-1.115,0-2.229.006-3.344,0-.515,0-.863-.289-.832-.693.036-.475.343-.667.8-.665.576,0,1.152,0,1.728,0" transform="translate(-307.021 -244.011)" fill="#fff"/>
        <path id="Path_14656" data-name="Path 14656" d="M137.388,220.738c.465,0,.93-.006,1.394,0a.625.625,0,0,1,.688.649.651.651,0,0,1-.708.7q-1.394.021-2.789,0a.642.642,0,0,1-.71-.689c0-.457.3-.657.73-.662.465-.006.93,0,1.395,0v0" transform="translate(-120.143 -196.059)" fill="#fff"/>
      </g>
    </g>
  </g>
</svg>
