<?xml version="1.0" encoding="utf-8"?>
<!-- Generator: Adobe Illustrator 28.3.0, SVG Export Plug-In . SVG Version: 6.00 Build 0)  -->
<svg version="1.1" id="Layer_1" xmlns="http://www.w3.org/2000/svg" xmlns:xlink="http://www.w3.org/1999/xlink" x="0px" y="0px"
	 viewBox="0 0 500 500" style="enable-background:new 0 0 500 500;" xml:space="preserve">
<style type="text/css">
	.st0{fill:#EC2426;}
	.st1{fill:#FFFFFF;}
</style>
<circle class="st0" cx="250" cy="250" r="228"/>
<g id="JQucln_00000030487578577395290240000005383828795448535938_">
	<g>
		<path class="st1" d="M99,127.4c0.8-1.8,1.5-3.6,2.5-5.2c2.4-3.7,6.1-5.5,10.4-5.8c1-0.1,2,0,2.9,0c83.4,0,166.8,0,250.2,0
			c7.5,0,12.5,3.2,14.3,9.4c0.4,1.3,0.5,2.7,0.5,4.1c0,31.8,0,63.5,0,95.3c0,0.7-0.1,1.4-0.1,2.3c-2.5,0-5,0-7.9,0
			c-0.1-1.1-0.2-2.4-0.2-3.6c0-19.9-0.1-39.7,0.1-59.6c0-3-0.8-3.8-3.8-3.8c-85.6,0.1-171.1,0.1-256.7,0.1c-1.1,0-2.1,0.1-3.5,0.2
			c0,1.3,0,2.3,0,3.4c0,46.2,0,92.4,0,138.7c0,5.2,1.4,6.5,6.7,6.5c18.1,0,36.2,0,54.3,0c1.2,0,2.3,0,3.7,0c0,2.7,0,5.2,0,8
			c-1.2,0.1-2.4,0.2-3.6,0.2c-17.5,0-35,0-52.5,0c-10.9,0-13.2-1.5-17.3-11.3C99,246.6,99,187,99,127.4z M107.7,152.3
			c2,0,3.4,0,4.9,0c84.7,0,169.3,0,254,0c0.8,0,1.6-0.1,2.4,0c2.1,0.2,2.7-0.7,2.7-2.7c-0.1-5.8,0-11.6,0-17.4c0-6-1.2-7.2-7.3-7.2
			c-83.2,0-166.4,0-249.5,0c-1,0-2-0.1-2.9,0c-2.3,0.3-4,1.6-4.1,3.9C107.6,136.5,107.7,144.2,107.7,152.3z"/>
		<path class="st1" d="M377.9,354.8c-12.3-8.3-24.4-16-35.8-24.4c-5.2-3.8-10.6-3.3-16.2-3.2c-2,0-1.5,1.7-1.5,2.8c0,11,0,22,0,33
			c0,4.1-0.3,8.3,0.1,12.4c0.6,7.8-5.1,14.9-14.8,14.8c-19.9-0.3-39.7-0.2-59.6,0c-2.1,0-4.5,0.7-6.2,1.9
			c-11.9,7.8-23.6,15.9-35.5,23.9c-0.8,0.5-1.6,1-2.8,1.8c-0.1-1.1-0.2-1.9-0.2-2.7c0-7.2-0.1-14.4,0-21.5c0.1-2.5-0.6-3.6-3.3-3.4
			c-2.1,0.2-4.3,0.1-6.5,0c-7.5-0.2-13.1-5.5-13.2-13c-0.1-21.3-0.1-42.7,0-64c0-7.7,5.7-13.1,13.4-13.1c19.9,0,39.7-0.1,59.6,0.1
			c3.1,0,3.7-0.9,3.7-3.8c-0.1-15-0.1-30.1-0.1-45.1c0-8.8,5.4-14.2,14.1-14.2c38,0,75.9,0,113.9,0c8.5,0,14,5.6,14,14.1
			c0,20.7,0,41.5,0,62.2c0,8.3-5.2,13.7-13.5,13.9c-1.8,0.1-3.5,0-5.3,0c-4.1,0-4.1,0-4.1,4c0,6.8,0,13.6,0,20.4
			C378.1,352.3,378,353.2,377.9,354.8z M213.6,402c1.7-1.1,2.7-1.7,3.6-2.3c7.7-5.2,15.5-10.4,23.2-15.7c2.3-1.6,4.5-2.3,7.3-2.3
			c20.1,0.1,40.1,0.1,60.2,0.1c7.1,0,8.1-1,8.1-8.2c0-14,0-27.9,0-41.9c0-4.6,0-4.6-4.6-4.6c-12.9,0-25.8,0.1-38.6,0
			c-8.5-0.1-13.7-5.4-13.7-13.9c0-1.5,0-2.9,0-4.5c-1-0.1-1.8-0.3-2.6-0.3c-20,0-39.9,0-59.9,0c-4.3,0-5.7,1.6-5.7,6
			c0,20.4,0,40.7,0,61.1c0,4.8,1.5,6.4,6.3,6.4c4.5,0,9,0.1,13.6,0c2.3-0.1,2.9,0.8,2.8,2.9c-0.1,2.7,0,5.5,0,8.3
			C213.6,395.7,213.6,398.5,213.6,402z M369.9,318.7c5.7,0,10.9,0,16.1,0c5,0,6.4-1.4,6.4-6.5c0-20.2,0-40.3,0-60.5
			c0-5.2-1.3-6.5-6.4-6.5c-37.4,0-74.7,0-112.1,0c-5.3,0-6.5,1.2-6.5,6.6c0,20,0,39.9,0,59.9c0,5.6,1.3,6.9,6.9,6.9
			c20.8,0,41.7,0,62.5,0.1c1.6,0,3.5,0.6,4.9,1.5c8.5,5.6,16.8,11.3,25.2,16.9c0.7,0.5,1.6,0.9,2.9,1.6
			C369.9,331.8,369.9,325.4,369.9,318.7z"/>
		<path class="st1" d="M237.3,240.5c-38.1,0-75.9,0-113.9,0c0-21.7,0-43.3,0-65.1c38,0,75.8,0,113.9,0
			C237.3,197.1,237.3,218.7,237.3,240.5z M228.8,183.6c-1.2-0.1-2.1-0.2-3-0.2c-30.4,0-60.7,0-91.1-0.1c-2.6,0-3.4,0.8-3.3,3.4
			c0.1,13.8,0,27.5,0.1,41.3c0,4.2,0,4.2,4.1,4.2c29.8,0,59.6,0,89.3,0c1.3,0,2.5-0.1,3.9-0.2C228.8,215.9,228.8,199.9,228.8,183.6z
			"/>
		<path class="st1" d="M236.8,268.2c0,2.7,0,5.3,0,8.1c-37.6,0-75,0-112.6,0c0-2.7,0-5.3,0-8.1C161.6,268.2,199,268.2,236.8,268.2z"
			/>
		<path class="st1" d="M236.8,249.9c0,2.8,0,5.4,0,8.2c-25.8,0-51.5,0-77.3,0c0-2.8,0-5.4,0-8.2
			C185.2,249.9,210.8,249.9,236.8,249.9z"/>
		<path class="st1" d="M132.2,258.1c-2.7,0-5.2,0-8,0c0-2.7,0-5.4,0-8.2c2.6,0,5.2,0,8,0C132.2,252.5,132.2,255.1,132.2,258.1z"/>
		<path class="st1" d="M150,249.9c0,2.8,0,5.4,0,8.2c-2.7,0-5.3,0-8.2,0c0-2.7,0-5.3,0-8.2C144.5,249.9,147.1,249.9,150,249.9z"/>
		<path class="st1" d="M119.3,134.2c60.7,0,121.2,0,181.8,0c0,2.6,0,5,0,7.8c-60.5,0-121.1,0-181.8,0
			C119.3,139.3,119.3,136.8,119.3,134.2z"/>
		<path class="st1" d="M324.7,142c-2.7,0-5.3,0-8.1,0c0-2.5,0-5,0-7.8c2.6,0,5.3,0,8.1,0C324.7,136.8,324.7,139.3,324.7,142z"/>
		<path class="st1" d="M334.1,142c0-2.7,0-5.2,0-7.8c2.7,0,5.3,0,8.2,0c0,2.5,0,5,0,7.8C339.7,142,337,142,334.1,142z"/>
		<path class="st1" d="M351.9,134.1c2.8,0,5.4,0,7.9,0c0.1,0.5,0.3,0.8,0.4,1.2c0.5,7.3-0.7,8.2-8.3,6.5
			C351.9,139.4,351.9,136.9,351.9,134.1z"/>
		<path class="st1" d="M301.1,339c0,2.8,0,5.5,0,8.2c-31.7,0-63.2,0-95.1,0c0-2.3-0.1-4.5,0.1-6.7c0-0.6,0.9-1.1,1.5-1.6
			c0.3-0.2,0.8,0,1.2,0c30.1,0,60.2,0,90.2,0C299.6,338.9,300.2,339,301.1,339z"/>
		<path class="st1" d="M301.2,357.3c0,2.8,0,5.4,0,8.1c-31.6,0-63.1,0-94.9,0c0-2.6,0-5.3,0-8.1
			C237.9,357.3,269.4,357.3,301.2,357.3z"/>
		<path class="st1" d="M320.8,253.7c3.1,1,6.3,2.1,9.4,2.9c1.1,0.3,2.5,0.4,3.5,0c8.5-4,18-2.7,24.6,3.5c6.5,6.1,8.3,15.7,4.6,24.4
			c-2.7,6.4-7.1,11.4-12.7,15.2c-5.1,3.5-10.5,6.4-16,9.4c-1,0.6-2.8,0.6-3.8,0.1c-9.1-4.1-17.5-9.4-24.2-17
			c-5.8-6.6-8.9-14.1-6.3-23.1C302.5,260.3,310.9,254.3,320.8,253.7z M331.9,268.7c-1.2-1.1-2.2-2.1-3.3-3c-4.1-3.4-8.7-4.1-13.5-2
			c-4.9,2.1-7.4,6-7.6,11.3c-0.2,4.3,1.8,7.8,4.4,10.9c5.2,6.2,11.9,10.5,19,14.2c0.8,0.4,2.2,0.3,2.9-0.1c4.8-3,9.9-5.8,14.1-9.5
			c3.1-2.8,5.7-6.5,7.4-10.4c2.6-5.8,0.3-12-4.7-15.3c-5.2-3.4-11.2-2.9-16,1.3C333.9,267,333,267.8,331.9,268.7z"/>
		<path class="st1" d="M331.9,268.7c1.1-1,2-1.8,2.8-2.5c4.8-4.2,10.8-4.7,16-1.3c5,3.3,7.3,9.5,4.7,15.3c-1.7,3.8-4.3,7.6-7.4,10.4
			c-4.2,3.7-9.3,6.5-14.1,9.5c-0.7,0.5-2.2,0.5-2.9,0.1c-7.1-3.6-13.8-7.9-19-14.2c-2.6-3.2-4.6-6.7-4.4-10.9
			c0.2-5.3,2.8-9.2,7.6-11.3c4.8-2.1,9.4-1.4,13.5,2C329.7,266.7,330.7,267.6,331.9,268.7z"/>
	</g>
</g>
</svg>
