<?xml version="1.0" encoding="utf-8"?>
<!-- Generator: Adobe Illustrator 28.3.0, SVG Export Plug-In . SVG Version: 6.00 Build 0)  -->
<svg version="1.1" id="Layer_1" xmlns="http://www.w3.org/2000/svg" xmlns:xlink="http://www.w3.org/1999/xlink" x="0px" y="0px"
	 viewBox="0 0 500 500" style="enable-background:new 0 0 500 500;" xml:space="preserve">
<style type="text/css">
	.st0{fill:#EC2426;}
	.st1{fill:#FFFFFF;}
</style>
<circle class="st0" cx="250" cy="250" r="228"/>
<g id="_x31_s8Svk_00000053536103958665356360000017094271371297178000_">
	<g>
		<path class="st1" d="M378.6,170.9c-85.9,0-171.4,0-257,0c0,59.2,0,118.3,0,177.9c1.3,0,2.5,0,3.8,0c57.2,0,114.4,0,171.5,0
			c1,0,2.1-0.1,3.1,0c2.5,0.3,4.3,2.3,4.4,4.8c0.1,2.6-1.8,4.7-4.4,5c-0.8,0.1-1.6,0-2.5,0c-59.6,0-119.3,0-178.9,0
			c-5.7,0-7-1.3-7-7.1c0-74.4,0-148.8,0-223.2c0-5.8,1.3-7.1,7-7.1c87.7,0,175.3,0,263,0c5.5,0,6.9,1.4,6.9,6.9
			c0,74.5,0,149,0,223.5c0,0.9,0.1,1.9-0.1,2.8c-0.3,2.5-2.4,4.2-5,4.2c-2.5,0-4.5-1.8-4.8-4.3c-0.1-1,0-2.1,0-3.1
			c0-58.8,0-117.7,0-176.5C378.6,173.6,378.6,172.4,378.6,170.9z M200.8,131.3c0,10,0,19.7,0,29.3c59.4,0,118.5,0,177.7,0
			c0-9.9,0-19.5,0-29.3C319.1,131.3,260.1,131.3,200.8,131.3z M190.4,160.8c0-10,0-19.7,0-29.3c-23.1,0-46,0-68.9,0
			c0,9.9,0,19.5,0,29.3C144.6,160.8,167.4,160.8,190.4,160.8z"/>
		<path class="st1" d="M306.3,300.1c1.6,1.3,3.2,2.6,4.8,3.8c0.4,0.3,1.1,0.7,1.5,0.6c3-0.8,4.8,0.8,6.7,2.7
			c14.8,14.9,29.8,29.7,44.5,44.6c8.7,8.8,5,23.2-6.8,26.2c-5.7,1.5-10.8,0-15-4.2c-10.9-10.9-21.8-21.8-32.8-32.8
			c-4.2-4.2-8.5-8.4-12.7-12.7c-0.9-0.9-1.8-2.1-2.1-3.3c-1-5-0.9-5-5.1-8.5c-18,11.8-37.6,15.5-58.5,9.7
			c-16.5-4.6-29.5-14.3-39-28.6c-19.1-28.9-13.9-66.9,12.2-90.2c25.4-22.6,64-22.9,90.5-0.6C320.2,228.4,328.2,267.5,306.3,300.1z
			 M190.6,259.5c-0.4,32.2,26.1,59.2,58.5,59.6c32.6,0.5,59.9-26.1,60.2-58.6c0.3-32.8-26-59.7-58.7-60.1
			C217.9,200.1,191,226.5,190.6,259.5z M306.6,324.2c4.3,4.3,8.3,8.3,12.4,12.4c9.8,9.8,19.6,19.7,29.6,29.4c1.4,1.4,4,2.6,5.9,2.3
			c4.6-0.7,5.6-6.1,2-9.7c-13.6-13.6-27.2-27.3-40.8-40.9c-0.4-0.4-0.9-0.7-1.4-1.1C311.7,319.1,309.3,321.5,306.6,324.2z
			 M300.3,307.9c-0.7,0.6-1.7,1.5-2.1,1.9c1.3,1.6,2.6,3.1,3.9,4.7c0.9-1,1.7-1.8,2.4-2.6C303,310.5,301.7,309.2,300.3,307.9z"/>
		<path class="st1" d="M151.2,249.9c0,6.7,0,13,0,19.8c4.8,0,9.6,0,14.4,0c2.8,0,4.5,1.3,5.2,3.9c0.7,3-1.5,5.8-4.7,5.9
			c-6.7,0.1-13.4,0.1-20.1,0c-2.9,0-4.7-2-4.8-5c-0.1-9.9-0.1-19.8,0-29.7c0-3,1.9-4.8,4.9-4.8c6.6-0.1,13.2-0.1,19.8,0
			c3,0,4.9,2,5,4.8c0.1,2.9-1.9,5-5.1,5C161.1,250,156.3,249.9,151.2,249.9z"/>
		<path class="st1" d="M348.8,269.7c0-6.8,0-13,0-19.8c-4.8,0-9.6,0-14.4,0c-2.5,0-4.2-1-5.1-3.3c-1.2-3.1,1-6.5,4.5-6.5
			c6.7-0.1,13.4-0.1,20.1,0c2.9,0,4.8,1.9,4.8,4.9c0.1,9.9,0.1,19.8,0,29.7c0,3-1.9,4.9-4.8,4.9c-6.6,0.1-13.2,0.1-19.8,0
			c-3.1,0-5.1-2.2-5-5.1c0.1-2.8,2-4.7,5-4.8c2.5-0.1,4.9,0,7.4,0C343.9,269.7,346.2,269.7,348.8,269.7z"/>
		<path class="st1" d="M289.4,151c-23.9,0-47.8,0-71.7,0c-0.9,0-1.9,0.1-2.8,0c-2.7-0.3-4.5-2.4-4.4-5c0-2.5,1.8-4.5,4.3-4.8
			c0.8-0.1,1.6,0,2.5,0c48.2,0,96.4,0,144.6,0c0.8,0,1.7-0.1,2.5,0c2.5,0.3,4.3,2.3,4.3,4.8c0,2.5-1.7,4.6-4.2,4.9
			c-0.9,0.1-1.9,0.1-2.8,0.1C337.6,151,313.5,151,289.4,151z"/>
		<path class="st1" d="M136.3,141.1c2.9,0,5,2.3,4.9,5.1c-0.1,2.7-2.2,4.8-5,4.7c-2.9,0-5-2.3-4.9-5.1
			C131.4,143.1,133.5,141.1,136.3,141.1z"/>
		<path class="st1" d="M161,146.1c0,2.7-2.1,4.8-4.8,4.9c-2.9,0-5-2.1-5-5c0-2.7,2.1-4.8,4.8-4.9C158.8,141.1,161,143.3,161,146.1z"
			/>
		<path class="st1" d="M175.9,151c-2.7,0.1-4.9-1.9-5-4.7c-0.1-2.9,2-5.1,4.8-5.2c2.9-0.1,5.1,2.1,5.1,5
			C180.7,148.8,178.7,150.9,175.9,151z"/>
		<path class="st1" d="M249.8,235.1c-9.5,0-19,0-28.4,0c-3.9,0-6-1.8-6-5c0-3.1,2.1-4.8,5.9-4.8c19.2,0,38.3,0,57.5,0
			c3.7,0,5.8,1.8,5.9,4.9c0,3.2-2.1,5-6,5C269,235.1,259.4,235.1,249.8,235.1z"/>
		<path class="st1" d="M230.4,245c6.2,0,12.4,0,18.5,0c3.9,0,6.1,1.8,6,5c0,3.1-2.1,4.9-5.8,4.9c-12.6,0-25.1,0-37.7,0
			c-3.7,0-5.8-1.8-5.9-4.8c0-3.2,2.1-5,6-5C217.8,245,224.1,245,230.4,245z"/>
		<path class="st1" d="M269.8,274.6c-6.3,0-12.6,0-18.9,0c-3.7,0-5.8-1.8-5.8-4.9c0-3.1,2-5,5.7-5c12.7,0,25.3,0,38,0
			c3.6,0,5.7,1.9,5.7,5c0,3.1-2.1,4.8-5.9,4.8C282.3,274.6,276,274.6,269.8,274.6z"/>
		<path class="st1" d="M235,294.4c-4.7,0-9.5,0-14.2,0c-3.4,0-5.4-2-5.4-5c0-3,2.1-4.9,5.5-4.9c9.5,0,19,0,28.4,0
			c3.5,0,5.5,1.8,5.6,4.8c0.1,3.1-2,5-5.7,5C244.5,294.4,239.8,294.4,235,294.4z"/>
		<path class="st1" d="M279.5,254.8c-3.2,0-6.4,0.1-9.6,0c-3.1-0.1-5.1-2.1-5.1-5c0-2.8,2-4.8,4.9-4.8c6.6-0.1,13.2-0.1,19.8,0
			c2.9,0,4.9,2.1,4.9,4.8c0,2.9-2,4.9-5.1,5C286.1,254.9,282.8,254.8,279.5,254.8z"/>
		<path class="st1" d="M220.1,274.6c-3.2,0-6.4,0.1-9.6,0c-3.1-0.1-5.1-2.1-5.1-5c0-2.8,2-4.8,4.9-4.8c6.6-0.1,13.2-0.1,19.8,0
			c2.9,0,4.9,2.1,4.9,4.8c0,2.9-2,4.9-5.1,5C226.7,274.7,223.4,274.6,220.1,274.6z"/>
		<path class="st1" d="M274.6,294.4c-1.8,0-3.5,0.1-5.3,0c-2.7-0.2-4.5-2.3-4.5-4.9c0-2.7,1.9-4.7,4.6-4.8c3.5-0.1,7-0.1,10.5,0
			c2.7,0.1,4.6,2.1,4.6,4.8c0.1,2.8-1.9,4.9-4.7,5C278.1,294.5,276.3,294.4,274.6,294.4z"/>
	</g>
</g>
</svg>
