<?xml version="1.0" encoding="utf-8"?>
<!-- Generator: Adobe Illustrator 28.3.0, SVG Export Plug-In . SVG Version: 6.00 Build 0)  -->
<svg version="1.1" id="Layer_1" xmlns="http://www.w3.org/2000/svg" xmlns:xlink="http://www.w3.org/1999/xlink" x="0px" y="0px"
	 viewBox="0 0 500 500" style="enable-background:new 0 0 500 500;" xml:space="preserve">
<style type="text/css">
	.st0{fill:#EC2426;}
	.st1{fill:#FFFFFF;}
</style>
<circle class="st0" cx="250" cy="250" r="228"/>
<g>
	<path class="st1" d="M134.9,242.6c0-18.2,0.2-36.4-0.1-54.6c-0.2-9.9,4.2-13.9,13.7-13.8c16.8,0.2,33.6,0.2,50.5,0
		c9.6-0.1,13.6,4.3,13.5,14.1c-0.3,30.7-0.2,61.5-0.1,92.2c0.1,25.1,15.5,42.7,37.6,43.1c22.5,0.4,38.7-17.4,38.8-43.1
		c0.1-29.9,0-59.8,0.1-89.8c0-14.3,1.9-16.3,15.7-16.4c15.6-0.1,31.2,0.3,46.8-0.1c10.6-0.3,15.2,3.9,15,15
		c-0.4,33.2,0.1,66.3-0.3,99.5c-0.7,58.1-46.9,107.9-104.8,113.4c-57.3,5.4-112.7-34.3-123.3-90.7c-4.2-22.4-3.1-45.8-4.4-68.7
		C134,242.6,134.5,242.6,134.9,242.6z M155,256.8c-5.3,47.1,4.4,87.1,46.5,112.1c35.4,21.1,71.4,19.3,105-4.4
		C343.6,338.3,351,300,346,257.1c-12.7,0-24.8,0-38,0c0,8.7,0.1,16.7,0,24.7c-0.3,35.3-25.3,61.6-58,61.2
		c-32.5-0.5-56.6-26.3-56.9-61c-0.1-8.3,0-16.6,0-25.2C179.5,256.8,167.6,256.8,155,256.8z M154.6,236c12.5,0,25,0,37.8,0
		c0-14.1,0-27.6,0-41.6c-12.9,0-25.1,0-37.8,0C154.6,208.5,154.6,221.8,154.6,236z M346.5,194.7c-13.6,0-25.8,0-37.5,0
		c0,14.6,0,28.1,0,41.3c13.2,0,25.3,0,37.5,0C346.5,221.8,346.5,208.5,346.5,194.7z"/>
	<g>
		<path class="st1" d="M258.1,97.5C273.8,98,291,104,305.5,117c3.3,3,6.5,6.4,2.5,10.7c-3.6,3.9-7,1.3-10.3-1.4
			c-27.5-23.2-65.3-22.2-92.9,2.3c-3.6,3.2-7.6,9.8-12.8,3.7c-5.4-6.3,1.6-9.7,5.4-13C213.7,105.1,234.1,97.5,258.1,97.5z"/>
		<path class="st1" d="M295,139.9c-1.7,1.9-2.9,4.4-4.6,4.8c-2,0.5-4.6-0.5-6.7-1.5c-7.2-3.6-13.9-9-21.5-11
			c-16.5-4.3-31.2,1.2-44.2,11.8c-1.2,0.9-2.1,2.7-3.3,2.9c-2.6,0.5-5.4,0.2-8.1,0.3c0-2.9-1.2-7.1,0.2-8.6
			c21.5-22.7,59.5-27.9,84.4-4.7C292.7,135.5,293.5,137.6,295,139.9z"/>
		<path class="st1" d="M278.4,154.2c-0.1,5.9-5.2,8.8-9.1,5.7c-14.3-11.5-27.6-9.2-40.9,1.8c-1.5,1.3-6.2,0.9-7.5-0.5
			c-1.3-1.4-1.4-5.9-0.2-7.7c11.1-15.8,42.3-17.5,55.3-3.3C277.2,151.6,278,153.5,278.4,154.2z"/>
	</g>
	<path class="st1" d="M154.6,236c0-14.2,0-27.5,0-41.6c12.7,0,24.8,0,37.8,0c0,13.9,0,27.4,0,41.6C179.6,236,167.1,236,154.6,236z"
		/>
	<path class="st1" d="M346.5,194.7c0,13.8,0,27.1,0,41.3c-12.2,0-24.4,0-37.5,0c0-13.2,0-26.8,0-41.3
		C320.7,194.7,332.9,194.7,346.5,194.7z"/>
</g>
</svg>
