<?xml version="1.0" encoding="utf-8"?>
<!-- Generator: Adobe Illustrator 28.3.0, SVG Export Plug-In . SVG Version: 6.00 Build 0)  -->
<svg version="1.1" id="Layer_1" xmlns="http://www.w3.org/2000/svg" xmlns:xlink="http://www.w3.org/1999/xlink" x="0px" y="0px"
	 viewBox="0 0 500 500" style="enable-background:new 0 0 500 500;" xml:space="preserve">
<style type="text/css">
	.st0{fill:#EC2426;}
	.st1{fill:#FFFFFF;}
</style>
<circle class="st0" cx="250" cy="250" r="228"/>
<g id="li81R7_00000062870280394518714450000002413647415490535055_">
	<g>
		<path class="st1" d="M248.7,252.9c-42,0-75.7-33.9-75.7-76.1c0-41.8,33.9-75.5,75.9-75.5c42,0,75.8,33.9,75.7,76.1
			C324.6,219.2,290.6,252.9,248.7,252.9z M265.9,159.8c-11.7,0-22.7,0-34,0c0,11.7,0,23.1,0,34.5c11.6,0,22.5,0,34,0
			C265.9,182.8,265.9,171.4,265.9,159.8z M277.7,159.8c0,11.8,0,23.1,0,34.6c10.9,0,21.9,0,32.8,0c3.2-11.7,3.3-23.1-0.1-34.6
			C299.4,159.8,288.5,159.8,277.7,159.8z M220,159.8c-10.9,0-21.8,0-32.8,0c-3.2,11.7-3.3,23.1,0,34.5c11.1,0,22.1,0,32.8,0
			C220,182.7,220,171.3,220,159.8z M264,147.8c-1.6-9.6-3.5-18.9-8.2-27.2c-1.6-2.9-4.6-5-6.9-7.5c-2.4,2.5-5.5,4.7-7.2,7.7
			c-4.7,8.3-6.6,17.6-8.1,27.1C243.7,147.8,253.7,147.8,264,147.8z M233.6,206.4c1.9,10.6,4,20.7,9.5,29.6c4.2,6.8,7.3,6.8,11.5,0
			c5.5-9,7.6-19.2,9.4-29.6C253.8,206.4,243.8,206.4,233.6,206.4z M305.8,147.8c-8.8-16.1-21.5-26.6-38-31.9
			c2.9,10.6,5.9,21.2,8.8,31.9C285.9,147.8,295.6,147.8,305.8,147.8z M276.7,206.4c-3,10.8-5.9,21.3-8.8,31.6
			c13.8-2.6,34.1-19.7,37.3-31.6C295.5,206.4,285.8,206.4,276.7,206.4z M191.8,147.7c10.3,0,20.1,0,29.1,0c3-10.8,5.9-21.3,8.8-31.8
			C213.2,121.2,200.6,131.7,191.8,147.7z M220.9,206.4c-9.3,0-19,0-29.1,0c8.7,16.1,21.4,26.6,37.9,31.8
			C226.8,227.7,223.9,217.3,220.9,206.4z"/>
		<path class="st1" d="M157,223.7c10.7,23.7,21.1,46.8,31.5,70c1.3,0,2.5,0,3.7,0c37.8,0,75.6,0,113.3,0.1c2.7,0,4-0.8,5.2-3.2
			c9.8-21.1,19.8-42.1,29.6-63.2c0.5-1.1,0.9-2.2,1.5-3.7c-3.9,0-7.4,0-10.9,0c-4-0.1-6.4-2.3-6.4-5.9c0-3.5,2.4-5.7,6.5-5.8
			c4.7,0,9.5,0.1,14.2-0.1c1.1-0.1,2.6-1,3.2-2c1.9-3.5,3.5-7.2,5.2-10.8c2-4.2,5-5.6,8.3-4c3.4,1.6,4.3,4.8,2.3,9
			c-12.8,27.3-25.7,54.6-38.5,81.9c-2.2,4.6-4.5,9.1-6.5,13.8c-1.7,4-4.2,5.6-8.7,5.6c-43.4-0.1-86.7-0.1-130.1-0.1
			c-5.4,0-9.8,1.7-12.2,6.8c-3.5,7.4,1.4,15.6,9.7,16.5c1.3,0.1,2.7,0.1,4,0.1c48.7,0,97.4,0,146.1,0c1.3,0,2.8-0.2,4,0.3
			c2.7,0.9,4.2,2.9,4,5.8c-0.1,2.9-1.8,4.7-4.5,5.5c-0.8,0.2-1.7,0.1-2.5,0.1c-50.2,0-100.3,0-150.5,0c-9.7,0-18.3-5.9-21.7-14.9
			c-3.4-9-1.1-19.2,6.1-25.6c1.7-1.5,3.7-2.8,5.7-3.8c1.9-1,4-1.5,6.4-2.4c-0.3-1-0.6-2-1-2.9c-14.8-32.9-29.7-65.8-44.4-98.8
			c-1.1-2.5-2.5-3.2-5.2-3.2c-14.8,0.1-29.6,0.1-44.5,0c-5.1,0-8.2-4.7-5.5-8.6c1.1-1.5,3.5-2.9,5.3-2.9c17.2-0.2,34.5-0.1,51.7-0.1
			c3.3,0,5,1.8,6.3,4.6c4.1,9.3,8.4,18.5,12.5,27.9c0.9,2,2,2.7,4.1,2.6c4-0.2,8-0.1,12,0c4,0.1,6.4,2.4,6.3,5.9
			c-0.1,3.4-2.4,5.6-6.2,5.7C163.7,223.8,160.7,223.7,157,223.7z"/>
		<path class="st1" d="M237.1,375.5c0,12.9-10.4,23.2-23.5,23.2c-12.9,0-23.2-10.4-23.2-23.5c0-12.9,10.4-23.2,23.5-23.2
			C226.9,352.1,237.2,362.5,237.1,375.5z M213.9,387c6.2-0.1,11.6-5.6,11.6-11.8c-0.1-6.2-5.6-11.6-11.8-11.6
			c-6.2,0.1-11.6,5.5-11.5,11.7C202.2,381.7,207.7,387.1,213.9,387z"/>
		<path class="st1" d="M283.7,352.1c13,0,23.4,10.3,23.4,23.2c0,13-10.3,23.4-23.3,23.4c-13,0-23.4-10.3-23.4-23.3
			C260.5,362.4,270.8,352.1,283.7,352.1z M295.5,375.5c0.1-6.2-5.3-11.7-11.5-11.8c-6.2-0.1-11.7,5.3-11.8,11.5
			c-0.1,6.2,5.3,11.7,11.5,11.8C289.8,387.1,295.4,381.7,295.5,375.5z"/>
	</g>
</g>
</svg>
