<?xml version="1.0" encoding="utf-8"?>
<!-- Generator: Adobe Illustrator 28.3.0, SVG Export Plug-In . SVG Version: 6.00 Build 0)  -->
<svg version="1.1" id="Layer_1" xmlns="http://www.w3.org/2000/svg" xmlns:xlink="http://www.w3.org/1999/xlink" x="0px" y="0px"
	 viewBox="0 0 500 500" style="enable-background:new 0 0 500 500;" xml:space="preserve">
<style type="text/css">
	.st0{fill:#EC2426;}
	.st1{fill:#FFFFFF;}
</style>
<circle class="st0" cx="250" cy="250" r="228"/>
<g id="V37hRH_00000148620710646832374690000014946096070120682908_">
	<g>
		<path class="st1" d="M93,147c0.2-0.2,0.4-0.5,0.5-0.7c3.6-13.4,12.8-20.5,26.7-20.5c75.1,0,174.3,0,249.4,0c1.2,0,2.5,0,3.6,0.3
			c2.1,0.5,3.2,2,3.3,4.2c0,2.2-0.9,3.8-3.1,4.4c-1.4,0.4-3,0.5-4.5,0.5c-74.7,0-173.4,0.2-248.1-0.1c-11.9,0-19.3,8.2-18.7,18.8
			c0.4,6.8,0.1,13.7,0.1,20.7c98.5,0,196.9,0,295.1,0c0-8.9,0.6-17.8-0.2-26.5c-0.7-7.6-7.5-12.7-15.2-12.8c-4.3-0.1-8.6,0-12.9,0
			c-3.7-0.1-5.8-1.9-5.7-4.9c0.1-2.9,2.1-4.6,5.8-4.5c5.8,0.1,11.8-0.4,17.4,0.6c10.3,1.9,16.9,8.6,19.8,18.6c0.2,0.7,0.5,1.3,0.7,2
			c0,59.3,0,139.4,0,198.7c-1.4,2.2-3.3,3.8-6.1,2.8c-2.8-1-3.1-3.3-3.1-6c0-44.4,0-109.7,0-154.1c0-1.2,0-2.4,0-3.9
			c-98.5,0-196.8,0-295.5,0c0,2.6,0,5.4,0,8.1c0,5.4-0.1,34.7,0,40.2c0.1,2.7-0.3,5-3.1,6c-2.8,1-4.7-0.6-6.1-2.8
			C93,214.2,93,168.6,93,147z"/>
		<path class="st1" d="M407,353c-0.4,1.2-0.8,2.5-1.3,3.7c-3.5,10.5-12.7,17.1-24.4,17.6c-0.8,0-1.6,0-2.5,0
			c-85.9,0-171.8,0-257.6,0c-9.7,0-18-2.9-23.5-11.2c-2.1-3-3.1-6.8-4.6-10.2c0-41.5,0-83,0-124.5c1.5-2.1,3.3-3.8,6.1-2.7
			c2.8,1,3.1,3.4,3.1,6c0,38.5,0,77,0,115.5c0,8.6,4.5,15,12.2,16.9c1.9,0.5,4,0.5,6.1,0.5c86.3,0,172.6-0.1,258.9,0.1
			c12,0,19-8.5,18.3-18.5c0-0.6,0-1.2,0-1.8c-0.2-2.6,0.2-5,3.1-6c2.9-1.1,4.6,0.6,6.1,2.7C407,345.2,407,349.1,407,353z"/>
		<path class="st1" d="M206.1,240.7c4.7,0,9.4,0,14.7,0c0-1.1,0-2.2,0-3.2c0-8.3,0-16.5,0-24.8c0-5.4,1.3-6.8,6.6-6.8
			c7.1,0,14.3,0,21.4,0c4.3,0,5.8,1.6,5.9,5.9c0,2.4,0.1,4.9,0.1,7.3c0,0.2,0.2,0.3,0.3,0.7c0.5,0,1.1,0.1,1.7,0.1c4.2,0,8.3,0,13,0
			c0-1.3,0-2.4,0-3.4c0-6.7,0-13.5,0-20.2c0-4.5,1.6-6.2,6.1-6.2c7.3,0,14.5,0,21.8,0c4.5,0,6.1,1.7,6.1,6.1c0,10.1,0,20.2,0,30.3
			c0,1.1,0,2.2,0,3.7c5.8,0,11.4,0,17,0c6.4,0,7.5,1.1,7.5,7.4c0,12.6,0,25.1,0,38.2c3.3,0,6.4,0,9.5,0c1.2,0,2.5,0,3.7,0
			c3.1,0.2,5.1,2,5.2,4.6c0.1,2.6-1.9,4.5-5,4.8c-0.7,0.1-1.4,0-2.1,0c-59.6,0-119.3,0-178.9,0c-0.9,0-1.8,0-2.8-0.1
			c-2.7-0.4-4.3-1.9-4.4-4.7c-0.1-2.5,1.9-4.5,4.7-4.6c3.3-0.2,6.5,0,9.8-0.1c1.1,0,2.2,0,3.8,0c0-1.4,0-2.6,0-3.8
			c0-13,0-25.9,0-38.9c0-5.1,1.5-6.5,6.6-6.5c7.1,0,14.3,0,21.4,0c4.3,0,5.9,1.6,6,5.9c0,2.4,0.1,4.9,0.1,7.3
			C205.8,240.1,205.9,240.3,206.1,240.7z M279.4,199.7c0,25.5,0,50.7,0,76c5,0,9.8,0,14.7,0c0-25.4,0-50.6,0-76
			C289.2,199.7,284.4,199.7,279.4,199.7z M230.4,215.2c0,20.3,0,40.4,0,60.5c5,0,9.8,0,14.7,0c0-20.3,0-40.3,0-60.5
			C240.2,215.2,235.4,215.2,230.4,215.2z M254.9,229.3c0,15.6,0,31,0,46.4c5,0,9.8,0,14.7,0c0-15.6,0-30.9,0-46.4
			C264.7,229.3,260,229.3,254.9,229.3z M196,275.8c0-13.5,0-26.6,0-39.7c-5,0-9.8,0-14.6,0c0,13.3,0,26.4,0,39.7
			C186.3,275.8,191.1,275.8,196,275.8z M318.6,275.7c0-12.1,0-24.1,0-36.1c-5,0-9.7,0-14.6,0c0,12.1,0,24.1,0,36.1
			C309,275.7,313.7,275.7,318.6,275.7z M205.9,250.3c0,8.6,0,17,0,25.4c5,0,9.7,0,14.6,0c0-8.6,0-16.9,0-25.4
			C215.5,250.3,210.8,250.3,205.9,250.3z"/>
		<path class="st1" d="M326.5,335.2c-6.6,0-12-4.3-14-10.7c-0.3-1.1-1.6-2.4-2.7-2.6c-12.3-2.9-24.6-5.7-37-8.3
			c-1-0.2-2.6,0.3-3.3,1c-6.1,6.7-14.7,7.1-21.5,1.1c-0.8-0.7-2.4-1-3.4-0.6c-18.3,6.1-36.5,12.3-54.7,18.3
			c-2.1,0.7-2.1,2.1-2.5,3.7c-1.4,6.5-6.6,11-13.3,11.6c-5.8,0.5-12-3.5-14.2-9.2c-2.4-6.2-0.3-13.2,5.2-17.1
			c5.4-3.8,12.9-3.5,17.8,1.1c1.7,1.6,3.1,1.6,5.1,0.9c17.7-6.1,35.5-12,53.3-18c1.7-0.6,2.5-1.4,2.8-3.3
			c1.2-6.9,6.6-11.6,13.2-11.9c7.2-0.4,12.9,3.6,14.9,10.6c0.5,1.7,1.3,2.4,2.9,2.8c12.1,2.7,24.3,5.4,36.4,8.2c2,0.5,3,0.2,4.4-1.4
			c4.4-5.2,11.7-6.3,17.5-3.2c5.9,3.2,8.8,10,7.2,16.4C339,330.7,333.1,335.2,326.5,335.2z M263.5,305.3c0-2.8-2.5-5.2-5.4-5
			c-2.7,0.1-5,2.5-5,5.2c0,2.7,2.4,5.1,5.1,5.1C261.1,310.5,263.5,308.1,263.5,305.3z M331.6,320.6c-0.1-2.8-2.3-5-5-5
			c-2.9,0-5.1,2.4-5.1,5.3c0.1,2.8,2.3,5,5,5.1C329.4,326,331.7,323.5,331.6,320.6z M173.3,339.1c2.9,0.1,5.1-2,5.2-4.8
			c0.1-2.9-1.9-5.1-4.8-5.2c-3-0.1-5.3,2-5.3,5C168.4,336.9,170.4,339,173.3,339.1z"/>
		<path class="st1" d="M132.3,169.1c-8,0-14.4-6.4-14.5-14.3c-0.1-7.9,6.7-14.6,14.6-14.5c7.8,0.1,14.4,6.7,14.4,14.5
			C146.7,162.7,140.3,169.1,132.3,169.1z M132.3,159.9c2.8,0,5-2.2,5-5c0-2.9-2.1-5.1-4.9-5.2c-2.9-0.1-5.2,2.3-5.2,5.2
			C127.3,157.7,129.4,159.9,132.3,159.9z"/>
		<path class="st1" d="M167.2,169.1c-7.9,0-14.4-6.5-14.4-14.4c0-7.8,6.6-14.4,14.4-14.5c8,0,14.7,6.7,14.6,14.6
			C181.6,162.8,175.1,169.1,167.2,169.1z M167.4,149.6c-2.8-0.1-5.1,2.1-5.2,4.9c-0.1,2.9,1.9,5.2,4.7,5.3c2.9,0.2,5.3-2.1,5.3-5.1
			C172.3,152,170.2,149.7,167.4,149.6z"/>
		<path class="st1" d="M202,169.1c-7.9-0.1-14.4-6.6-14.3-14.5c0.1-7.9,6.7-14.4,14.5-14.4c7.9,0,14.4,6.5,14.5,14.4
			C216.8,162.6,210.1,169.2,202,169.1z M202.4,149.6c-2.8-0.1-5.1,2-5.3,4.8c-0.1,2.9,1.8,5.2,4.6,5.4c2.8,0.2,5.2-1.8,5.4-4.7
			C207.4,152.2,205.3,149.7,202.4,149.6z"/>
	</g>
</g>
</svg>
