<svg id="Group_490" data-name="Group 490" xmlns="http://www.w3.org/2000/svg" xmlns:xlink="http://www.w3.org/1999/xlink" width="881.059" height="168.118" viewBox="0 0 881.059 168.118">
  <defs>
    <clipPath id="clip-path">
      <rect id="Rectangle_335" data-name="Rectangle 335" width="881.059" height="168.118" fill="#e0091c"/>
    </clipPath>
  </defs>
  <g id="Group_489" data-name="Group 489" clip-path="url(#clip-path)">
    <path id="Path_896" data-name="Path 896" d="M914.784,12.495c.549.479,1.087,5,1.072,6.128-.151,11.183-8.647,5.185-10.132,6.3,6.414,6.367,7.021,17.589-1.382,22.5-6.266,3.66-12.276.959-18.356.924-3.378-.018-4.047,2.811-.794,3.388,8.58,1.526,24.478-5.308,28,8.07,6,22.809-32.156,25.253-40.953,10.052l9.176-6.374c-11.943.527-18.153-9.369-8.777-18.471a5.657,5.657,0,0,1,2.06-.843c.348-.485-4.563-7.563-4.94-10.525C868.111,20.7,878.3,14.5,890.131,15.783c6.385.689,17.852,7.608,12.245-5.118,2.172.573,11.391.942,12.409,1.83M886.643,37.283c5.25,5.252,13.068-6.266,6.512-9.437-6.515-3.15-9.918,6.03-6.512,9.437" transform="translate(-140.406 -1.725)" fill="#e0091c"/>
    <path id="Path_897" data-name="Path 897" d="M655.028,20.715c-2.571-.22-14.735,5.419-15.893,4.231-.161-.165-.068-2.851-.944-4.512-4.043-7.672-18.784-7.679-16.519-.27,1.056,3.452,16.647,4.963,21.394,7.131,8.766,4,12.041,11.484,9.743,20.961-4.837,19.951-45.3,17.6-48.524-3.231L618.6,38.36c.929,2.074,1.269,4.538,2.909,6.3,5.218,5.593,18.815,3.814,14.7-2.97-1.285-2.12-17.3-3.513-21.621-5.2-17.079-6.68-12.963-29.557,3.6-34.572,14.473-4.382,35.692,1.153,36.828,18.8" transform="translate(-97.63 -0.078)" fill="#e0091c"/>
    <path id="Path_898" data-name="Path 898" d="M378.017,61.149h-19.28l-3-10.107-20.438.085-2.55,10.022H315.986L337.329,1.574c3.511.708,18.507-1.111,20.164.884ZM351.19,37.673l-5.857-20.948c1.144,3.178-5.818,20.2-5.035,20.948Z" transform="translate(-51.108 -0.241)" fill="#e0091c"/>
    <path id="Path_899" data-name="Path 899" d="M743.44,17.66V46.58c0,2.452,4.029,3.554,6.207,2.028,3.533-2.475,4.022-25.611,4.69-30.948h17.6c-.558,9.43-4,20.52-4.236,29.734-.245,9.609,6.077,20.92-3.372,28.461-8.941,7.134-35.5,6.922-39.268-6.559.347-1.5,12.839-6.087,11.669-7.2-4.376.4-10.058-6.618-10.058-10.487V17.66Zm-5.03,45.274c1.588,4.771,5.866,5.7,10.522,5.061,7.694-1.051,2.822-10.855,3.72-15.962-1.485.3-1.1,2.967-1.869,4.405-2.6,4.883-6.792,6.963-12.373,6.5" transform="translate(-117.273 -2.856)" fill="#e0091c"/>
    <path id="Path_900" data-name="Path 900" d="M206.751,1.66l-.83,21.791,5.068-6.236c6.51-4.429,16.3-4.512,19.979,3.4,1.777,3.822,2.225,10.612,2.6,15,.693,8.135.318,17.316.847,25.559H217.649L215.6,30.111c-1.949-5.931-8.851-1.5-8.851,1.307V61.176H189.986V1.66Z" transform="translate(-30.729 -0.268)" fill="#e0091c"/>
    <path id="Path_901" data-name="Path 901" d="M714.6,50.2c-.725,6.335,4.539,11.987-4.128,13.89-8.339,1.83-15.529-.459-16.4-9.711-2.137,8.43-7.518,10.969-15.932,10.067-11.068-1.186-15.318-14.582-5.725-20.816.983-.64,6.8-2.068,5.312-3.485-.434-.414-10.079-2.034-11.739-2.527.927-8.23,6.765-16.489,14.643-19.305,9.933-3.551,26.607-1.883,28.748,10.709,1.112,6.536-2,16.692-.507,21.463,1.042,3.325,4.9-1.242,5.734-.284M680.242,40.97c4.068.312,18.367-4.512,12.163-10.073-5.286-4.739-13.073,4.609-12.163,10.073" transform="translate(-107.717 -2.697)" fill="#e0091c"/>
    <path id="Path_902" data-name="Path 902" d="M290.406,45.151H278.671l12.458,5.422c-3.261,11.73-14.264,14.99-25.441,13.849-27.569-2.816-26.105-47.817,3.343-47.821,16.737,0,24.15,13.34,21.376,28.55m-14.25,0H263.582c.166,8.788,13.283,9.413,12.574,0" transform="translate(-39.779 -2.685)" fill="#e0091c"/>
    <path id="Path_903" data-name="Path 903" d="M856.911,63.581h-17.6c-.857-6.326.575-28.81-2.438-32.99-2.915-4.045-8.46,1.557-8.46,5.746V63.581H811.645V23.764c0-1.171-2.239-4.4-1.677-6.287h16.765l.847,10.055,5.839-7.98c11.438-7.2,20.486-.845,21.8,11.771,1.1,10.539.292,21.692,1.691,32.259" transform="translate(-130.991 -2.674)" fill="#e0091c"/>
    <path id="Path_904" data-name="Path 904" d="M530.767,58.249c-5.163,5.151-13.242,6.739-20.269,6.2-28.678-2.215-27.7-50.818,5.895-47.8,20.574,1.849,27.374,28.635,14.374,41.6M517.44,31.107c-1.375-1.283-4.771-1.4-6.478-.627-4.838,2.192-5.574,20.319,2.285,21.211,8.14.925,7.755-17.259,4.193-20.584" transform="translate(-79.257 -2.671)" fill="#e0091c"/>
    <path id="Path_905" data-name="Path 905" d="M177.12,1.66V15.491c0,1.866-1.96.419-2.1.419h-14.67V61.176h-17.6V15.91H127.243c-.256,0-.644,1.061-1.257.838V1.66Z" transform="translate(-20.377 -0.268)" fill="#e0091c"/>
    <path id="Path_906" data-name="Path 906" d="M450.431,27.97c.986,4.626-3.29,17.326-.881,20.584,3.923,5.306,4.525-7.579,5.109-7.988l11.757,3.876c-.9,9.68-5.213,17.049-15.53,17.927C418.9,65.09,438.034,24.914,434.59,7.1l15.837-3.433L451.27,15.4h14.25V27.97Z" transform="translate(-69.874 -0.593)" fill="#e0091c"/>
    <path id="Path_907" data-name="Path 907" d="M546.948,16.553c.365-.364,5.367.416,5.833-.036.751-.728.128-8.212,6.149-11.871C561.263,3.229,574.73-.568,576.21.71l2.6,12.49c-3.39.041-8.331-.077-10.064,3.345l10.9.008V29.127H569.581V60.981H552.816V29.127c0-.293-5.868.293-5.868,0,0-1.8-.445-12.13,0-12.574" transform="translate(-88.432 -0.073)" fill="#e0091c"/>
    <path id="Path_908" data-name="Path 908" d="M408.41,63.6H391.645V23.787c0-1.171-2.239-4.4-1.677-6.287h16.765l.847,14.246,1.844-6.1c.148-3.7,9.314-9.476,11.921-8.939,1.1.227,2.943,11.1,3.016,13,.233,6.087-8.813,3.148-13.042,7.056-1.2,1.107-2.91,5.726-2.91,7.15Z" transform="translate(-63.059 -2.696)" fill="#e0091c"/>
    <path id="Path_909" data-name="Path 909" d="M802.589,20.66V64.249h-17.6V20.66c6.574,2.915,11.086,3.219,17.6,0" transform="translate(-126.965 -3.342)" fill="#e0091c"/>
    <path id="Path_910" data-name="Path 910" d="M793.893,0c12.764-.367,12.425,19.695-2.6,17.263-9.259-1.5-8.736-16.936,2.6-17.263" transform="translate(-126.939 0)" fill="#e0091c"/>
    <path id="Path_911" data-name="Path 911" d="M761.684,111.473v11.736h14.25v12.574H760.846c1.243,4.372-3.893,19.367-.021,21.4,3.289,1.728,3.839-6.844,4.216-8.829,1.663.138,11.3,2.947,11.63,3.456,1.366,2.1-2.448,10.819-4.09,12.892-4.789,6.045-14.2,6.759-21.155,4.389-13.964-4.757-7.662-22.533-7.341-33.312-1.694-.172-5.354.637-6.345-.783l-1.2-9.27c.352,8.856-3.187,18.639-3.406,27.215-.235,9.2,5.668,19.961-2.443,27.714-7.618,7.28-29.907,7.059-37.333-.442-8.12-8.2,5.005-7.518,8.805-12.569-4.376.4-10.058-6.619-10.058-10.487V123.209h16.765v28.92c0,2.452,4.029,3.554,6.207,2.028,3.532-2.474,4.026-25.617,4.686-30.952,2.991-.564,24.258.889,25.156.008.455-.445-.552-7.561.081-8.3.552-.648,14.466-2.792,16.68-3.437m-57.84,57.01c1.588,4.771,5.866,5.7,10.522,5.061,7.694-1.051,2.822-10.855,3.72-15.962-1.485.3-1.1,2.967-1.869,4.405-2.6,4.883-6.792,6.963-12.373,6.5" transform="translate(-111.724 -18.03)" fill="#e0091c"/>
    <path id="Path_912" data-name="Path 912" d="M137.117,125.266l.847,10.055,4.475-7.248c8.243-6.858,19.83-3.655,21.514,7.246l3.745-5.879c10.79-10.328,22.3-4.537,23.8,9.76,1.1,10.488.207,21.687,1.78,32.17h-17.6c-.552-5.117.084-31.7-3.15-33.535-2.486-1.412-6.909.426-6.909,2.938v30.6H148.852V144.965c0-2.209-1.658-7.856-4.587-7.942-2.971-.086-5.472,4.789-5.472,7.1V171.37H122.028V131.553c0-1.171-2.239-4.4-1.677-6.287Z" transform="translate(-19.451 -20.087)" fill="#e0091c"/>
    <path id="Path_913" data-name="Path 913" d="M984.167,120.309c.549.479,1.087,5,1.072,6.127-.151,11.184-8.647,5.186-10.132,6.3,6.414,6.367,7.021,17.59-1.382,22.5-6.266,3.66-12.276.959-18.356.924-3.378-.018-4.047,2.811-.794,3.388,8.58,1.526,24.478-5.309,28,8.07,6,22.809-32.156,25.253-40.953,10.052l9.176-6.374c-11.943.527-18.153-9.37-8.777-18.471.645-.626,2-.754,2.06-.844.348-.484-4.563-7.562-4.94-10.524-1.643-12.942,8.541-19.137,20.376-17.857,6.385.69,17.852,7.609,12.244-5.117,2.172.573,11.391.942,12.409,1.83M956.026,145.1c5.25,5.252,13.068-6.266,6.512-9.437-6.515-3.15-9.918,6.03-6.512,9.437" transform="translate(-151.628 -19.163)" fill="#e0091c"/>
    <path id="Path_914" data-name="Path 914" d="M499.167,120.309c.549.479,1.087,5,1.072,6.127-.151,11.184-8.647,5.186-10.132,6.3,6.414,6.367,7.021,17.59-1.382,22.5-6.266,3.66-12.276.959-18.356.924-3.378-.018-4.047,2.811-.794,3.388,8.58,1.526,24.478-5.309,28,8.07,6,22.809-32.156,25.253-40.953,10.052l9.176-6.374c-11.943.527-18.152-9.37-8.777-18.471.645-.626,2-.754,2.06-.844.348-.484-4.563-7.562-4.94-10.524-1.643-12.942,8.541-19.137,20.376-17.857,6.385.69,17.852,7.609,12.244-5.117,2.172.573,11.391.942,12.409,1.83M471.026,145.1c5.25,5.252,13.068-6.266,6.512-9.437-6.515-3.15-9.918,6.03-6.512,9.437" transform="translate(-73.183 -19.163)" fill="#e0091c"/>
    <path id="Path_915" data-name="Path 915" d="M51.411,128.528c-2.571-.22-14.735,5.419-15.893,4.231-.161-.165-.068-2.851-.944-4.512-4.043-7.673-18.784-7.679-16.518-.27,1.055,3.452,16.646,4.963,21.393,7.131,8.767,4,12.041,11.484,9.743,20.962-4.837,19.951-45.3,17.6-48.524-3.231l14.319-6.665c.929,2.074,1.269,4.538,2.909,6.3,5.218,5.593,18.815,3.814,14.7-2.97-1.285-2.12-17.3-3.513-21.621-5.2-17.079-6.68-12.963-29.557,3.6-34.572,14.473-4.382,35.692,1.153,36.828,18.8" transform="translate(0 -17.516)" fill="#e0091c"/>
    <path id="Path_916" data-name="Path 916" d="M619.4,168.962h-19.28l-3-10.107-20.438.085-2.55,10.022H557.368l21.343-59.574c3.511.708,18.507-1.111,20.164.884Zm-26.827-23.475-5.857-20.948c1.144,3.178-5.818,20.2-5.035,20.948Z" transform="translate(-90.15 -17.679)" fill="#e0091c"/>
    <path id="Path_917" data-name="Path 917" d="M328.134,109.473l-.83,21.791,5.068-6.236c6.51-4.429,16.3-4.512,19.979,3.4,1.777,3.822,2.225,10.612,2.6,15,.693,8.135.318,17.316.847,25.559H339.032l-2.046-31.065c-1.949-5.931-8.851-1.5-8.851,1.307v29.758H311.369V109.473Z" transform="translate(-50.361 -17.706)" fill="#e0091c"/>
    <path id="Path_918" data-name="Path 918" d="M813.134,109.473l-.83,21.791,5.068-6.236c6.51-4.429,16.3-4.512,19.979,3.4,1.777,3.822,2.225,10.612,2.6,15,.693,8.135.318,17.316.847,25.559H824.032l-2.046-31.065c-1.949-5.931-8.851-1.5-8.851,1.307v29.758H796.369V109.473Z" transform="translate(-128.806 -17.706)" fill="#e0091c"/>
    <path id="Path_919" data-name="Path 919" d="M252.954,134.944c-.154-2.153-.4-8.775.117-10.361.868-2.646,6.844-.785,7.431-1.371.459-.458-.553-7.559.081-8.3.552-.648,14.466-2.791,16.68-3.436v11.736h14.25v12.574H276.425c1.23,3.086-4.553,23.119,1.238,21.791,2.485-2.262,2.317-6.109,2.957-9.219.438-.388,10.507,2.753,11.233,3.261,2.116,1.479-1.955,10.742-3.33,12.612-4.921,6.7-15.519,7.523-22.734,4.4-12.453-5.385-6.367-22.529-6.126-32.851-2.361.034-4.511.322-6.71-.836.392,5.48,2.689,10.181.838,15.927H242.057l12.458,5.422c-4.6,18.71-35.949,18.355-42.8,1.872-8.947-21.509,8.763-43.558,31.186-33.7,6.5,2.856,8.255,9.531,10.057,10.48m-13.412,15.927H226.968c.166,8.788,13.283,9.413,12.574,0" transform="translate(-33.859 -18.03)" fill="#e0091c"/>
    <path id="Path_920" data-name="Path 920" d="M926.294,171.394h-17.6c-.857-6.326.575-28.81-2.438-32.99-2.915-4.045-8.46,1.557-8.46,5.746v27.243H881.028V131.577c0-1.171-2.239-4.4-1.677-6.287h16.765l.847,10.055,5.838-7.98c11.438-7.2,20.486-.845,21.8,11.771,1.1,10.539.292,21.692,1.691,32.259" transform="translate(-142.213 -20.111)" fill="#e0091c"/>
    <path id="Path_921" data-name="Path 921" d="M441.294,171.394h-17.6c-.857-6.326.575-28.81-2.438-32.99-2.915-4.045-8.46,1.557-8.46,5.746v27.243H396.028V131.577c0-1.171-2.239-4.4-1.677-6.287h16.765l.847,10.055,5.838-7.98c11.438-7.2,20.486-.845,21.8,11.771,1.1,10.539.292,21.692,1.691,32.259" transform="translate(-63.768 -20.111)" fill="#e0091c"/>
    <path id="Path_922" data-name="Path 922" d="M678.294,171.394h-17.6c-.857-6.326.575-28.81-2.438-32.99-2.915-4.045-8.46,1.557-8.46,5.746v27.243H633.028V131.577c0-1.171-2.239-4.4-1.677-6.287h16.765l.847,10.055,5.838-7.98c11.438-7.2,20.486-.845,21.8,11.771,1.1,10.539.292,21.692,1.691,32.259" transform="translate(-102.101 -20.111)" fill="#e0091c"/>
    <path id="Path_923" data-name="Path 923" d="M103.149,166.063c-5.163,5.151-13.242,6.739-20.269,6.2-28.678-2.215-27.7-50.818,5.895-47.8,20.574,1.849,27.374,28.635,14.374,41.6M89.822,138.921c-1.375-1.283-4.771-1.4-6.478-.627-4.838,2.192-5.574,20.319,2.285,21.211,8.14.925,7.755-17.259,4.193-20.584" transform="translate(-10.093 -20.109)" fill="#e0091c"/>
    <path id="Path_924" data-name="Path 924" d="M1022.369,176.21a82.115,82.115,0,0,0,0-68.737h12.993c.491,0,4.337,6.519,4.923,7.651,7.938,15.341,7.976,34.724,1.245,50.489-.653,1.529-5.312,10.6-6.168,10.6Z" transform="translate(-165.36 -17.383)" fill="#e0091c"/>
    <path id="Path_925" data-name="Path 925" d="M551.8,107.473c-9.947,22.051-9.5,46.669,0,68.737H539.645c-1.066,0-5.154-6.944-5.856-8.394-7.195-14.859-7.507-34.584-1.15-49.746.639-1.525,5.322-10.6,6.168-10.6Z" transform="translate(-85.419 -17.383)" fill="#e0091c"/>
    <path id="Path_926" data-name="Path 926" d="M386.972,128.473v43.589h-17.6V128.473c6.574,2.915,11.086,3.219,17.6,0" transform="translate(-59.742 -20.779)" fill="#e0091c"/>
    <path id="Path_927" data-name="Path 927" d="M871.972,128.473v43.589h-17.6V128.473c6.574,2.915,11.086,3.219,17.6,0" transform="translate(-138.187 -20.779)" fill="#e0091c"/>
    <path id="Path_928" data-name="Path 928" d="M1014.936,109.473c.1,13.525.556,27.139-3,40.287-2.585-.627-11.952,1.282-12.8-1.431-.689-2.194-1.661-11.322-1.834-14.093-.505-8.058.444-16.65.034-24.763Z" transform="translate(-161.28 -17.706)" fill="#e0091c"/>
    <path id="Path_929" data-name="Path 929" d="M1004.593,159.645c12-1.371,13.763,16.014,4.633,18.1-14.767,3.38-16.915-16.7-4.633-18.1" transform="translate(-161.193 -25.809)" fill="#e0091c"/>
    <path id="Path_930" data-name="Path 930" d="M378.276,107.818c12.764-.367,12.425,19.695-2.6,17.263-9.259-1.5-8.736-16.937,2.6-17.263" transform="translate(-59.716 -17.438)" fill="#e0091c"/>
    <path id="Path_931" data-name="Path 931" d="M863.276,107.818c12.764-.367,12.425,19.695-2.6,17.263-9.259-1.5-8.736-16.937,2.6-17.263" transform="translate(-138.161 -17.438)" fill="#e0091c"/>
  </g>
</svg>
