<svg xmlns="http://www.w3.org/2000/svg" width="660.027" height="85.872" viewBox="0 0 660.027 85.872">
  <g id="Group_277" data-name="Group 277" transform="translate(526 260)">
    <path id="Path_421" data-name="Path 421" d="M500.694,6.137V18.821h16.544V32.608H500.694l-2.226,19.6c.018,2.252.165,4.978,3.037,4.67,3.011-.323,3.18-7.579,3.6-9.938l13.238,3.87c-1.429,15.177-11.138,23.4-26.493,19.588-17.64-4.384-10.118-24.9-9.907-37.8-1.053.18-6.4-.243-6.622,0s.435,1.646-.336,2.27c-.484.392-10.87,5-11.473,4.851-1.39-1.364-1.249-3.469-2.516-5.047-2.544-3.164-10.328-5.1-13.771-2.874-2.292,1.48-2.387,3.417.14,4.77,3.656,1.956,11.565,1.976,16.258,3.6,9.5,3.278,13.865,11.521,9.764,21.106-6.29,14.7-37.668,12.542-42.652-2.954.32-1.694,10.913-5.811,10.954-7.788C425.487,46.8,424.668,26.18,440.04,20.207c9.749-3.789,22.735-2.51,30.62,4.658l4.115,6.088V19.648c0-1.385,6.431-.665,7.723-.824l.053-8.772ZM442.239,50.811c.943,6.023,10.411,9.721,15.287,6.736,1.961-1.2,1.814-3.428-.266-4.391-3.472-1.608-11.019-.523-15.021-2.345" transform="translate(-718.421 -262.753)" fill="#e0091c"/>
    <path id="Path_422" data-name="Path 422" d="M804.3,2.137V27.5h20.4V2.964a5.53,5.53,0,0,1,.827-.827h18.474V68.314h-19.3V42.946H804.3V68.314H785V2.137Z" transform="translate(-878.094 -260.959)" fill="#e0091c"/>
    <path id="Path_423" data-name="Path 423" d="M279.056,19.9a16.49,16.49,0,0,1,1.159,4.087c1.333,11.695-4.6,11.83-13.728,7.942,6.07,4.76,8.921,9.693,7.471,17.668-1.868,10.268-12.807,11.7-21.525,10.995-3.586-.288-10.727-3.844-7.636,2.789,11.854.594,31.907-5.337,33.209,12.459,1.652,22.577-38.255,23.234-46.261,6.828,2.239-.253,10.787-6.747,12.061-6,.319.186,1.21,2.538,3.373,3.519,2.944,1.335,12.389,2.061,14.392-.509,2.168-2.783-1.521-3.409-3.639-3.626-7.009-.719-19.5,1.689-25.28-1.743-7.828-4.643-5.758-16.8,2.4-19.783.388-.587-2.975-4.32-3.6-5.487-5.773-10.8.493-23.875,12.76-25.326,7.024-.831,10.9,1.217,17.188,2.542,7.615,1.606,6.131-2.312,4.538-8.113,2.291.629,11.865.825,13.118,1.76m-27.588,15.99c-5.364.776-6.74,10.351-2.489,12.162,10.2,4.347,12.586-13.624,2.489-12.162" transform="translate(-628.148 -268.138)" fill="#e0091c"/>
    <path id="Path_424" data-name="Path 424" d="M68.934,68.1H47.978L44.732,56.842c-.624-.9-19.013-.057-21.77-.252-1.645.556-2.649,9.889-4.487,11.506H0L23.968,1.881c6.426.679,14.216-.771,20.457.007.607.076,1.228-.04,1.626.58ZM40.257,42.177,33.364,19.01,27.022,42.177Z" transform="translate(-526 -260.741)" fill="#e0091c"/>
    <path id="Path_425" data-name="Path 425" d="M146.2,29.137V62.5c0,2.1,1.936,4.9,4.267,5.123,4.944.473,5.682-6.541,6.2-10.094,1.167-7.958,1.188-16.213,2.282-24.189.112-.82.6-4.2,1.311-4.2h17.1c.418,0,1.063,1.26.8,1.846l-4.413,33.744c.584,5.38,7.346.366,7.749.81-.642,3.814,2.361,9.939-.819,12.687-6.041,5.22-18.993,4.55-22.224-3.706l-1.764-5.671c-1.257,14.01-21.1,17.624-26.959,5.166A38.094,38.094,0,0,1,128,69.119V29.137Z" transform="translate(-583.411 -273.069)" fill="#e0091c"/>
    <path id="Path_426" data-name="Path 426" d="M346.2,29.137V62.5c0,2.1,1.936,4.9,4.267,5.123,4.945.473,5.682-6.541,6.2-10.094,1.167-7.958,1.188-16.213,2.282-24.189.113-.82.6-4.2,1.311-4.2h17.1c.418,0,1.063,1.26.8,1.846l-4.413,33.744c.584,5.38,7.346.366,7.749.81-.642,3.814,2.361,9.939-.819,12.687-6.041,5.22-18.993,4.55-22.224-3.706l-1.764-5.671c-1.257,14.01-21.1,17.624-26.959,5.166A38.088,38.088,0,0,1,328,69.119V29.137Z" transform="translate(-673.117 -273.069)" fill="#e0091c"/>
    <path id="Path_427" data-name="Path 427" d="M950.052,58.83H919.721c1.033,5.069,3.551,9.142,9.4,8.041,5.314-1,5.491-7.381,6.312-7.454,4.621,2.072,9.7,3.05,14.4,4.876.651.253.871-.371.749.827-.806,7.908-8.582,13.576-15.828,15.077-14.9,3.087-29.757-2.7-32.977-18.582-8.843-43.632,55.679-45.771,48.282-2.785M920.273,48.9h10.754a7.575,7.575,0,0,0,1.965-.86c-1.135-9.44-12.293-7.861-12.719.86" transform="translate(-930.094 -272.431)" fill="#e0091c"/>
    <path id="Path_428" data-name="Path 428" d="M1114.052,58.83h-30.331c1.034,5.069,3.551,9.142,9.4,8.041,5.314-1,5.491-7.381,6.312-7.454,4.621,2.072,9.7,3.05,14.4,4.876.651.253.871-.371.749.827-.806,7.908-8.582,13.576-15.828,15.077-14.9,3.087-29.757-2.7-32.977-18.582-8.843-43.632,55.679-45.771,48.282-2.785M1084.273,48.9h10.754a7.582,7.582,0,0,0,1.965-.86c-1.135-9.44-12.293-7.861-12.719.86" transform="translate(-1003.653 -272.431)" fill="#e0091c"/>
    <path id="Path_429" data-name="Path 429" d="M710.222,44.483c-.339.54-10.24,4.236-11.742,4.986-1.438-1.482-1.26-3.649-2.719-5.274-2.716-3.026-11.642-5.4-14.458-1.887-4.091,5.1,9.569,5.715,12.45,6.378,9.768,2.246,17.4,6.54,15.844,18.062-2.38,17.58-31,17.633-40.677,6.771-.831-.932-3.112-4.024-3.21-5.078-.189-2.033,10.026-5.785,10.938-7.624.573-1.154-4.664-1.59-5.129-2.582-10.549-6.282-9.861-20.642.555-26.8,11.145-6.594,31.775-4.3,37.208,8.895.389.945,1.456,3.333.939,4.158M677.2,60.553c.943,6.023,10.411,9.721,15.287,6.736,1.961-1.2,1.814-3.428-.266-4.391-3.472-1.608-11.02-.523-15.021-2.345" transform="translate(-823.79 -272.495)" fill="#e0091c"/>
    <path id="Path_430" data-name="Path 430" d="M1011.371,28.244c2.2.7.758,15.5,1.936,18.2l2.189-8.555c1.817-6.842,7.859-8.2,13.527-10.738l3,18.172c-5.016.933-14.1,1.764-16.469,6.966a30.6,30.6,0,0,0-1.155,3.809V79.531h-18.2c-.52-17.077,1.508-34.545-2.206-51.287Z" transform="translate(-971.836 -272.176)" fill="#e0091c"/>
    <path id="Path_431" data-name="Path 431" d="M642.75,34.137v48.53H624V34.137c1.946.528,3.392,2.088,5.483,2.514a18.824,18.824,0,0,0,9.392-.6c1.491-.532,2.4-1.7,3.875-1.916" transform="translate(-805.881 -275.311)" fill="#e0091c"/>
    <path id="Path_432" data-name="Path 432" d="M1179.109,2.137c.717.222.779,1.255.855,1.9.682,5.811.384,17.694-.005,23.764-.393,6.124-2.148,12.791-2.838,18.943l-13.651-.016c-.807-5.692-2.432-12.14-2.828-17.854-.436-6.293-.744-18.8-.035-24.837.065-.556.251-1.9.855-1.9Z" transform="translate(-1046.375 -260.959)" fill="#e0091c"/>
    <path id="Path_433" data-name="Path 433" d="M1169.8,87.392c13.664-.51,13.872,19.209,1.508,20.266-14.015,1.2-15.533-19.742-1.508-20.266" transform="translate(-1046.294 -299.193)" fill="#e0091c"/>
    <path id="Path_434" data-name="Path 434" d="M640.41,16.433c-5.264,5.286-16.674,2.717-17.461-5.6-1.454-15.349,23.614-14.066,19.479,1.829a11.558,11.558,0,0,1-2.018,3.773" transform="translate(-805.382 -260)" fill="#e0091c"/>
  </g>
</svg>
