<svg id="Group_250" data-name="Group 250" xmlns="http://www.w3.org/2000/svg" xmlns:xlink="http://www.w3.org/1999/xlink" width="756.102" height="59.352" viewBox="0 0 756.102 59.352">
  <defs>
    <clipPath id="clip-path">
      <rect id="Rectangle_226" data-name="Rectangle 226" width="756.102" height="59.352" fill="none"/>
    </clipPath>
  </defs>
  <g id="Group_249" data-name="Group 249" transform="translate(0 0)" clip-path="url(#clip-path)">
    <path id="Path_374" data-name="Path 374" d="M47.348,16.693H34.527a17.967,17.967,0,0,0-.872-1.657,12.8,12.8,0,0,0-17.687-1.214c-4.987,4.379-5,15.656-.349,20.262,5.37,5.313,17.235,4.107,19.92-3.559h-10.8V21.079h22.6V47.394H37.9V42c-7.866,9.961-25.057,6.948-32.559-2.021-5.569-6.656-6.69-16.991-3.8-25.059,7.3-20.355,40.9-19.905,45.8,1.777" transform="translate(0 0.027)" fill="#e4001c"/>
    <path id="Path_375" data-name="Path 375" d="M119.029,7.065l0,3.711c5.454-5.962,12.777-5.863,18.735-.677.37.322.438,1.016.664,1.018.36.006,2.691-2.177,3.436-2.636,5.841-3.588,15.847-3.142,19.158,3.65a24.357,24.357,0,0,1,1.525,4.885v24.8H151.08v-22.1c0-.093-.5-1.557-.6-1.758-1.307-2.552-6.419-2.909-8.175-.855a12.289,12.289,0,0,0-1.005,1.938V41.815H129.487V19.38a15.083,15.083,0,0,0-.724-1.636c-1.318-2.109-5.224-2.543-7.206-1.233A6.263,6.263,0,0,0,119.7,19.38V41.815H108.233V7.065Z" transform="translate(97.008 5.606)" fill="#e4001c"/>
    <path id="Path_376" data-name="Path 376" d="M233.96,42.463c.235.076,1.242,2.02,3.135,2.6,5.712,1.76,11.042-.724,9.851-7.325-3.942,3.741-11.425,3.241-16.084,1.073-12.335-5.742-11.933-26.482.732-31.444,4.932-1.932,12.561-1.5,15.862,3.045.425-.015,0-3.377.169-3.377h10.8V41.957a23.565,23.565,0,0,1-1.288,4.111c-3.434,7.293-13.714,8.1-20.766,7.487-6.895-.6-12.576-3.975-14.046-11.091Zm4.811-25.888c-4.583.649-6.043,4.906-5.167,9.04,1.35,6.358,12.57,6.2,13.346-.861.611-5.545-2.533-8.977-8.179-8.179" transform="translate(198.838 5.633)" fill="#e4001c"/>
    <path id="Path_377" data-name="Path 377" d="M321.636.455V15.3c4.961-5.573,16.466-5.147,20.053,1.709a21.724,21.724,0,0,1,1.875,6.557V47.013H332.094c-.349-6.445.463-13.359.015-19.75-.3-4.324-1.68-6.842-6.565-6.2-1.617.214-3.908,1.8-3.908,3.512V47.013H310.165V.455Z" transform="translate(277.996 0.408)" fill="#e4001c"/>
    <path id="Path_378" data-name="Path 378" d="M185,.455V15.3c4.961-5.573,16.465-5.147,20.053,1.709a21.724,21.724,0,0,1,1.875,6.557V47.013H195.456c-.349-6.445.463-13.359.015-19.75-.3-4.324-1.68-6.842-6.565-6.2-1.618.214-3.908,1.8-3.908,3.512V47.013H173.527V.455Z" transform="translate(155.529 0.408)" fill="#e4001c"/>
    <path id="Path_379" data-name="Path 379" d="M365.558,32.378v9.445H358.3c-1.862,0-4.892-2.255-6.074-3.705-4.451,7.073-20.852,5.569-22.623-3.023-2.691-13.05,12.5-13.714,21.422-14.882,1.538-7.454-10.572-7.845-10.439-.656H329.458C329.344,7.229,344.075,4.273,353.592,7.4c11.639,3.825,8.431,14.723,8.975,24.424.309.939,2.166.455,2.99.554m-14.507-4.726c-2.549.313-9.364.474-10.056,3.62-1.143,5.186,8.5,4.991,9.828.372a15.318,15.318,0,0,0,.228-3.992" transform="translate(295.14 5.598)" fill="#e4001c"/>
    <path id="Path_380" data-name="Path 380" d="M175.077,27.688H150.448c.785,5.016,5.526,7.35,10.2,5.647a4.466,4.466,0,0,0,2.281-2.274H174.4c-4.263,15.783-28.791,15.151-34.33.425-6.045-16.071,8.5-29.478,24.392-24.052,4.866,1.659,10.613,7.644,10.613,13Zm-11.133-7.422c-.656-7.727-12.557-7.674-13.158,0Z" transform="translate(124.29 5.564)" fill="#e4001c"/>
    <path id="Path_381" data-name="Path 381" d="M398.181,27.688H373.552c.785,5.016,5.526,7.35,10.2,5.647a4.466,4.466,0,0,0,2.281-2.274h11.471c-4.263,15.783-28.791,15.151-34.33.425-6.045-16.071,8.5-29.478,24.392-24.052,4.866,1.659,10.613,7.644,10.613,13Zm-11.133-7.422c-.656-7.727-12.557-7.674-13.158,0Z" transform="translate(324.254 5.564)" fill="#e4001c"/>
    <path id="Path_382" data-name="Path 382" d="M101.673,6.471c13.71-1.718,23.679,7.255,21.925,21.25-2.611,20.84-39.132,20.5-37.036-5.66A17.52,17.52,0,0,1,101.673,6.471M103.7,16.6c-5.114.724-6.529,6-5.571,10.46,1.591,7.416,13.249,7.219,14.084-.939.6-5.888-2.025-10.439-8.512-9.521" transform="translate(77.505 5.612)" fill="#e4001c"/>
    <path id="Path_383" data-name="Path 383" d="M42.428,6.471c13.71-1.718,23.679,7.255,21.925,21.25-2.611,20.84-39.132,20.5-37.036-5.66A17.52,17.52,0,0,1,42.428,6.471M44.453,16.6c-5.114.724-6.529,6-5.571,10.46,1.591,7.416,13.249,7.219,14.084-.939.6-5.888-2.025-10.439-8.512-9.521" transform="translate(24.405 5.612)" fill="#e4001c"/>
    <path id="Path_384" data-name="Path 384" d="M278.875,6.471c13.71-1.718,23.679,7.255,21.925,21.25-2.611,20.84-39.132,20.5-37.036-5.66A17.52,17.52,0,0,1,278.875,6.471M280.9,16.6c-5.114.724-6.529,6-5.571,10.46,1.591,7.416,13.249,7.219,14.084-.939.6-5.888-2.025-10.439-8.512-9.521" transform="translate(236.33 5.612)" fill="#e4001c"/>
    <path id="Path_385" data-name="Path 385" d="M235.926,41.84H224.456c-.349-6.445.463-13.359.013-19.75-.3-4.324-1.678-6.842-6.563-6.2-1.619.214-3.908,1.8-3.908,3.512V41.84H202.527V7.091h10.8l0,4.384,2.717-3.182c8.336-5.1,19.883-.41,19.883,10.1Z" transform="translate(181.522 5.58)" fill="#e4001c"/>
    <path id="Path_386" data-name="Path 386" d="M322.363,17.86h-10.12c-.182,0-.576-2.118-1.853-3.04-3.76-2.708-10.7.334-7.1,3.047,2.175,1.633,10.145,2.1,13.568,3.639,8.256,3.711,8.421,14.423.751,18.762-8.253,4.667-25.7,2.848-25.951-9.25h9.952c.266,0,1.238,2.224,1.777,2.7,3.385,3.017,11.715.628,8.751-2.947-2.167-2.615-14.061-1.051-18.4-6.734-2.77-3.631-2.325-9.364.478-12.9,6.438-8.126,28.336-6.269,28.141,6.719" transform="translate(261.412 5.607)" fill="#e4001c"/>
    <path id="Path_387" data-name="Path 387" d="M99.437,17.86H89.316c-.182,0-.576-2.118-1.853-3.04-3.758-2.708-10.7.334-7.1,3.047,2.175,1.633,10.145,2.1,13.568,3.639,8.256,3.711,8.421,14.423.751,18.762-8.253,4.667-25.7,2.848-25.951-9.25h9.952c.265,0,1.238,2.224,1.777,2.7,3.385,3.017,11.715.628,8.751-2.947-2.167-2.615-14.061-1.051-18.4-6.734-2.77-3.631-2.325-9.364.478-12.9,6.438-8.126,28.336-6.269,28.141,6.719" transform="translate(61.607 5.607)" fill="#e4001c"/>
    <path id="Path_388" data-name="Path 388" d="M266.543,1.523v9.785h6.747v9.108h-6.747V36.1a3.361,3.361,0,0,0,.506.506h6.241v9.447H262.326a11.539,11.539,0,0,1-5.408-2.689,12.7,12.7,0,0,1-2.183-5.577V20.416h-5.061V11.308h5.4V1.523Z" transform="translate(223.779 1.365)" fill="#e4001c"/>
    <path id="Path_389" data-name="Path 389" d="M175.451,1.523v9.785H182.2v9.108h-6.747V36.1a3.364,3.364,0,0,0,.506.506H182.2v9.447H171.234a11.539,11.539,0,0,1-5.408-2.689,12.7,12.7,0,0,1-2.183-5.577V20.416h-5.061V11.308h5.4V1.523Z" transform="translate(142.135 1.365)" fill="#e4001c"/>
    <path id="Path_390" data-name="Path 390" d="M64.432,1.523v9.785h6.747v9.108H64.432V36.1a3.363,3.363,0,0,0,.506.506h6.241v9.447H60.215a11.539,11.539,0,0,1-5.408-2.689,12.7,12.7,0,0,1-2.183-5.577V20.416H47.563V11.308h5.4V1.523Z" transform="translate(42.63 1.365)" fill="#e4001c"/>
    <path id="Path_391" data-name="Path 391" d="M401.461,30.889h-9.783c-.465-4.617,1.1-7.335,4.38-10.293,2.365-2.131,6.838-3.942,5.588-7.945-.963-3.085-7.268-3.089-8.366-.569-.228.523-.25,2.276-.76,2.276H382.23C381.608,2.064,394.317-2.2,404.483,1.046c8.359,2.67,12.011,12.815,6.26,19.727-2.985,3.584-8.856,5.021-9.282,10.117" transform="translate(342.567 0)" fill="#e4001c"/>
    <path id="Path_392" data-name="Path 392" d="M372.284,6.345V17.815c-2.752-.053-7.428.061-9.444,2.2a9.656,9.656,0,0,0-1.352,2.359v19.4H350.018V7.02h10.8v5.4l2.23-3a11.907,11.907,0,0,1,9.241-3.074" transform="translate(313.716 5.652)" fill="#e4001c"/>
    <rect id="Rectangle_223" data-name="Rectangle 223" width="11.471" height="34.749" transform="translate(367.179 12.673)" fill="#e4001c"/>
    <rect id="Rectangle_224" data-name="Rectangle 224" width="12.146" height="11.808" transform="translate(732.895 35.614)" fill="#e4001c"/>
    <rect id="Rectangle_225" data-name="Rectangle 225" width="11.471" height="8.435" transform="translate(367.179 0.863)" fill="#e4001c"/>
  </g>
</svg>
