<svg id="Group_295" data-name="Group 295" xmlns="http://www.w3.org/2000/svg" xmlns:xlink="http://www.w3.org/1999/xlink" width="490.137" height="76.667" viewBox="0 0 490.137 76.667">
  <defs>
    <linearGradient id="linear-gradient" x1="0.5" x2="0.5" y2="1" gradientUnits="objectBoundingBox">
      <stop offset="0" stop-color="#002e54"/>
      <stop offset="1" stop-color="#092f87"/>
    </linearGradient>
    <clipPath id="clip-path">
      <rect id="Rectangle_248" data-name="Rectangle 248" width="490.137" height="76.667" fill="url(#linear-gradient)"/>
    </clipPath>
  </defs>
  <g id="Group_294" data-name="Group 294" clip-path="url(#clip-path)">
    <path id="Path_558" data-name="Path 558" d="M49.4,59.29l-2.637,6.89C41.282,78.359,24.6,78.929,14.42,72.454-1.188,62.53-3.22,34.564,4,19.106,16.956-8.657,68.033-5.053,70.343,28.188L51.867,35.312l15.279,2.549,1.926,37.409H49.4ZM30.35,48.227V32.247l20.282,3.067C49.794,27.02,47.276,18.4,37.355,18.175,21.479,17.822,19.892,38.7,23.405,49.947c3.919,12.542,21.272,14.66,24.159.746Z" transform="translate(0 -0.202)" fill="url(#linear-gradient)"/>
    <path id="Path_559" data-name="Path 559" d="M478,69.263l1.264,13.7c-9.564,7.7-26.167,4.994-26.154-9.408-1.911,18.426-33.463,17.7-33.432-.232.03-17.272,19.868-13.554,29.148-18.8,7.286-4.116,2.736-13.739-6.406-9.479-4.143,1.931-6.472,8.216-6.829,12.537L418.4,53.251c2.641-17.034,15.285-26.105,32.281-25.2,13.349.71,22.193,7.884,21.816,21.874-.1,3.805-3.248,18.263-1.6,20.6,1.7,2.411,6.778-1.654,7.1-1.263M450.971,58.2c-.218,6.513-4.655,6.5-8.556,8.964-3.606,2.277-2.09,7,2.083,7.034,5.686.047,6.252-6.546,7-10.856Z" transform="translate(-161.241 -10.786)" fill="url(#linear-gradient)"/>
    <path id="Path_560" data-name="Path 560" d="M573.54,85.877H553.257c-.154-.934-.521-1.8-.618-2.757C551.655,73.442,552.3,62.756,551.4,53c-.371-4.057-1.521-11.122-7.393-9.271-2.181.688-4.89,5.423-4.89,7.417V85.877H518.838c-.58-19.033,1.681-38.5-2.458-57.16H535.74c1.733,0,1.93,11.673,2.157,13.519l4.6-7.993c5.728-7.87,20.7-8.574,26.028-.2,4.874,7.658,4.009,28.425,4.408,38,.186,4.439,1.116,9.2.609,13.835" transform="translate(-198.998 -10.808)" fill="url(#linear-gradient)"/>
    <path id="Path_561" data-name="Path 561" d="M291.056,62.394h-33.8c1.152,5.65,3.958,10.189,10.471,8.962,5.923-1.115,6.12-8.227,7.035-8.307,5.15,2.31,10.81,3.4,16.047,5.435.725.282.971-.414.835.922-.9,8.814-9.565,15.13-17.641,16.8-16.6,3.44-33.165-3-36.754-20.711-9.856-48.629,62.055-51.012,53.811-3.1M257.866,51.33h11.985a8.442,8.442,0,0,0,2.191-.958c-1.266-10.521-13.7-8.761-14.176.958" transform="translate(-91.069 -10.681)" fill="url(#linear-gradient)"/>
    <path id="Path_562" data-name="Path 562" d="M762.056,62.394h-33.8c1.152,5.65,3.958,10.189,10.472,8.962,5.922-1.115,6.12-8.227,7.035-8.307,5.15,2.31,10.81,3.4,16.047,5.435.725.282.971-.414.835.922-.9,8.814-9.565,15.13-17.641,16.8-16.6,3.44-33.165-3-36.754-20.711-9.856-48.629,62.055-51.012,53.811-3.1M728.866,51.33h11.985a8.444,8.444,0,0,0,2.191-.958c-1.266-10.521-13.7-8.761-14.176.958" transform="translate(-272.579 -10.681)" fill="url(#linear-gradient)"/>
    <path id="Path_563" data-name="Path 563" d="M652.234,56.9c-.527-6.1-1.724-14.69-10.019-12.776-6.251,1.443-5.877,13.658-5.284,18.546,1.631,13.454,14.839,9.423,13.454-2.7l18.438,2.468c-.979,10.031-5.268,19.5-15.38,23.028-26.415,9.208-44.667-16.388-35.928-40.845,8.958-25.071,53.061-21.666,52.888,7.4Z" transform="translate(-237.121 -10.721)" fill="url(#linear-gradient)"/>
    <path id="Path_564" data-name="Path 564" d="M345.919,29.137c4.005,14.816,8.329,29.564,10.141,44.874,1.541-14.91,5.5-29.321,9.045-43.819l.789-1.055h18.132l-17.492,57.2-24.217-.128L324.5,30.548c-.261-.5.644-1.411.831-1.411Z" transform="translate(-125.034 -11.229)" fill="url(#linear-gradient)"/>
    <path id="Path_565" data-name="Path 565" d="M137.74,28.37c2.453.779.845,17.277,2.158,20.279l2.44-9.535c2.025-7.625,8.76-9.134,15.076-11.968L160.761,47.4c-5.59,1.04-15.715,1.966-18.355,7.764a34.187,34.187,0,0,0-1.286,4.245V85.53H120.838c-.58-19.033,1.681-38.5-2.459-57.16Z" transform="translate(-45.62 -10.461)" fill="url(#linear-gradient)"/>
    <path id="Path_566" data-name="Path 566" d="M215.276,34.137V88.224h-20.9V34.137c2.168.588,3.78,2.328,6.111,2.8a20.98,20.98,0,0,0,10.468-.666c1.661-.593,2.671-1.892,4.318-2.135" transform="translate(-74.908 -13.155)" fill="url(#linear-gradient)"/>
    <path id="Path_567" data-name="Path 567" d="M212.8,18.315c-5.867,5.891-18.583,3.028-19.461-6.243-1.62-17.107,26.318-15.677,21.711,2.038a12.879,12.879,0,0,1-2.25,4.205" transform="translate(-74.479 0)" fill="url(#linear-gradient)"/>
  </g>
</svg>
