<svg xmlns="http://www.w3.org/2000/svg" width="954.602" height="84.078" viewBox="0 0 954.602 84.078">
  <g id="Group_500" data-name="Group 500" transform="translate(-1192 -988.956)">
    <g id="Group_278" data-name="Group 278" transform="translate(1192 988.956)">
      <path id="Path_436" data-name="Path 436" d="M18.9,2.137V26.975H38.876V2.947a5.418,5.418,0,0,1,.81-.81H57.775V66.931h-18.9V42.093H18.9V66.931H0V2.137Z" transform="translate(0 -0.983)" fill="#fff"/>
      <path id="Path_437" data-name="Path 437" d="M210.984,19.867a16.146,16.146,0,0,1,1.134,4c1.305,11.45-4.5,11.582-13.44,7.776,5.943,4.66,8.735,9.49,7.315,17.3C204.163,59,193.452,60.393,184.917,59.707c-3.511-.282-10.5-3.763-7.476,2.731,11.605.582,31.24-5.225,32.515,12.2,1.617,22.1-37.455,22.748-45.295,6.686,2.192-.248,10.561-6.606,11.809-5.876.312.183,1.185,2.485,3.3,3.445,2.883,1.307,12.132,2.018,14.092-.5,2.123-2.725-1.489-3.337-3.563-3.55-6.862-.7-19.089,1.654-24.752-1.706-7.664-4.546-5.638-16.445,2.349-19.37.38-.575-2.913-4.229-3.524-5.372-5.652-10.574.483-23.376,12.493-24.8,6.877-.813,10.678,1.191,16.829,2.489,7.456,1.573,6-2.263,4.444-7.943,2.242.616,11.617.808,12.844,1.724M183.972,35.522c-5.252.76-6.6,10.134-2.437,11.908,9.987,4.256,12.323-13.339,2.437-11.908" transform="translate(-73.949 -8.347)" fill="#fff"/>
      <path id="Path_438" data-name="Path 438" d="M495.984,19.867a16.121,16.121,0,0,1,1.134,4c1.305,11.45-4.5,11.582-13.441,7.776,5.943,4.66,8.735,9.49,7.315,17.3C489.164,59,478.452,60.393,469.917,59.707c-3.511-.282-10.5-3.763-7.477,2.731,11.606.582,31.241-5.225,32.515,12.2,1.617,22.1-37.455,22.748-45.295,6.686,2.192-.248,10.561-6.606,11.809-5.876.312.183,1.185,2.485,3.3,3.445,2.883,1.307,12.13,2.018,14.092-.5,2.123-2.725-1.489-3.337-3.563-3.55-6.863-.7-19.088,1.654-24.752-1.706-7.664-4.546-5.638-16.445,2.349-19.37.38-.575-2.914-4.229-3.524-5.372-5.653-10.574.483-23.376,12.494-24.8,6.877-.813,10.677,1.191,16.829,2.489,7.456,1.573,6-2.263,4.443-7.943,2.244.616,11.618.808,12.845,1.724M468.972,35.522c-5.252.76-6.6,10.134-2.437,11.908,9.987,4.256,12.323-13.339,2.437-11.908" transform="translate(-205.064 -8.347)" fill="#fff"/>
      <path id="Path_439" data-name="Path 439" d="M278.818,2.137c-.09,8.842.5,17.729-1.074,26.455l3.111-5.79c4.944-8.269,19.712-9.427,24.356-.351,3.241,6.334,3.517,27.479,3.867,35.549.129,2.958-.538,6.175.518,8.931H291.237a28.216,28.216,0,0,0-.537-2.972c-.778-8.581-.315-17.845-1.091-26.447-.321-3.556-1.55-9.162-6.5-7.6-2.189.691-4.3,5.022-4.3,7.056V66.931H261V2.137Z" transform="translate(-120.073 -0.983)" fill="#fff"/>
      <path id="Path_440" data-name="Path 440" d="M563.818,2.137c-.09,8.842.5,17.729-1.075,26.455l3.111-5.79c4.944-8.269,19.712-9.427,24.356-.351,3.241,6.334,3.517,27.479,3.867,35.549.129,2.958-.538,6.175.518,8.931H576.237a28.193,28.193,0,0,0-.537-2.972c-.778-8.581-.315-17.845-1.091-26.447-.321-3.556-1.55-9.162-6.495-7.6-2.19.691-4.3,5.022-4.3,7.056V66.931H546V2.137Z" transform="translate(-251.188 -0.983)" fill="#fff"/>
      <path id="Path_445" data-name="Path 445" d="M767.469,28.236c19.736-2.14,31.314,10.842,29.118,30.2-3.32,29.267-48.36,29.052-50.537-2.079-1.005-14.389,6.436-26.494,21.418-28.119m8.043,15.128a6.212,6.212,0,0,0-8.71.943c-3.091,4.139-3.479,19.814,2.9,21.331,10.638,2.53,10.37-18.139,5.811-22.274" transform="translate(-343.18 -12.884)" fill="#fff"/>
      <path id="Path_447" data-name="Path 447" d="M663.378,6.137V18.556h16.2v13.5h-16.2L661.2,51.248c.017,2.206.162,4.874,2.973,4.573,2.948-.315,3.113-7.42,3.528-9.73l12.961,3.789c-1.454,14.687-10.479,22.69-25.5,19.282C637.385,65.13,644.771,44.9,645.022,32.052l-7.022,0V19.366c0-1.356,6.3-.651,7.562-.807l.052-8.588Z" transform="translate(-293.513 -2.823)" fill="#fff"/>
      <path id="Path_450" data-name="Path 450" d="M848.4,31.454c-1.4-.222-5.513.543-6.244-.505-.345-.5-.46-11.189-.16-12.108.616-1.884,5.2-.261,6.327-.961.733-.457.505-3.9.744-4.926C851.39,2.919,864.859,1.644,873.219.136l3.793,13.5c-2.793.186-7.241.621-9.723,1.888-1.21.618-1.883.771-1.615,2.435h11.879v13.5h-10.8V66.01H848.4Z" transform="translate(-387.28 -0.063)" fill="#fff"/>
      <path id="Path_451" data-name="Path 451" d="M376.818,2.137c.739,17.135-.98,35.082-.022,52.127a57.129,57.129,0,0,0,2.182,12.667H360.35c-.6-.473-1.35-3.422-1.35-4.05V2.137Z" transform="translate(-165.158 -0.983)" fill="#fff"/>
      <path id="Path_452" data-name="Path 452" d="M138.358,34.137V81.652H120V34.137c1.9.517,3.321,2.045,5.369,2.461a18.431,18.431,0,0,0,9.2-.585c1.459-.521,2.346-1.662,3.794-1.876" transform="translate(-55.206 -15.705)" fill="#fff"/>
      <path id="Path_453" data-name="Path 453" d="M423.358,34.137V81.652H405V34.137c1.9.517,3.321,2.045,5.369,2.461a18.431,18.431,0,0,0,9.2-.585c1.459-.521,2.346-1.662,3.794-1.876" transform="translate(-186.321 -15.705)" fill="#fff"/>
      <path id="Path_454" data-name="Path 454" d="M136.044,16.089c-5.154,5.175-16.325,2.66-17.1-5.485C117.524-4.424,142.068-3.167,138.02,12.4a11.317,11.317,0,0,1-1.976,3.694" transform="translate(-54.694 0)" fill="#fff"/>
      <path id="Path_455" data-name="Path 455" d="M421.044,16.089c-5.154,5.175-16.325,2.66-17.1-5.485C402.524-4.424,427.068-3.167,423.02,12.4a11.317,11.317,0,0,1-1.976,3.694" transform="translate(-185.809 0)" fill="#fff"/>
    </g>
    <g id="Group_279" data-name="Group 279" transform="translate(1704.924 988.956)">
      <path id="Path_456" data-name="Path 456" d="M1251.008,28.532c1.713.548,1.571,9.958,1.9,11.876l2.8-5.56c6.977-11.439,24.461-8.437,25.276,5.563,1.848-2.192,2.407-4.971,4.328-7.275,6.241-7.484,19.577-7.132,23.663,2.226,2.427,5.558,2.444,16.23,2.8,22.575.391,6.9.028,14,1.058,20.81h-18.358a28.163,28.163,0,0,0-.537-2.972c-.775-8.55-.3-17.867-1.091-26.447-.317-3.417-.883-8.307-5.514-7.743-2.263.276-4.737,3.51-4.737,5.575V78.747h-18.358V45.54c0-2-3.238-4.435-5.544-3.957-2.337.485-4.715,4.583-4.715,6.656V78.747H1236.16c-.509-16.72,1.477-33.824-2.16-50.215Z" transform="translate(-1072.555 -13.953)" fill="#fff"/>
      <path id="Path_457" data-name="Path 457" d="M1036.818,2.137c-.09,8.842.5,17.729-1.075,26.455l3.11-5.79c4.944-8.269,19.713-9.427,24.357-.351,3.241,6.334,3.516,27.479,3.866,35.549.129,2.958-.538,6.175.518,8.931h-18.358a28.039,28.039,0,0,0-.537-2.972c-.777-8.581-.315-17.845-1.091-26.447-.321-3.556-1.55-9.162-6.495-7.6-2.189.691-4.3,5.022-4.3,7.056V66.931H1019V2.137Z" transform="translate(-973.644 -2.137)" fill="#fff"/>
      <path id="Path_458" data-name="Path 458" d="M1680.818,2.137c-.09,8.842.5,17.729-1.075,26.455l3.11-5.79c4.944-8.269,19.713-9.427,24.357-.351,3.241,6.334,3.516,27.479,3.867,35.549.128,2.958-.538,6.175.517,8.931h-18.358a28.165,28.165,0,0,0-.537-2.972c-.778-8.581-.315-17.845-1.091-26.447-.321-3.556-1.55-9.162-6.495-7.6-2.19.691-4.3,5.022-4.3,7.056V66.931H1663V2.137Z" transform="translate(-1269.917 -2.137)" fill="#fff"/>
      <path id="Path_459" data-name="Path 459" d="M1533.215,78.85H1515.4c-.135-.82-.457-1.579-.543-2.422-.865-8.5-.3-17.89-1.086-26.457-.326-3.564-1.336-9.771-6.495-8.145-1.916.6-4.3,4.765-4.3,6.516V78.85H1485.16c-.509-16.72,1.477-33.824-2.16-50.215h17.008c1.522,0,1.7,10.255,1.9,11.876l4.039-7.022c5.033-6.914,18.184-7.532,22.866-.177,4.282,6.727,3.521,24.971,3.873,33.384.163,3.9.98,8.085.534,12.154" transform="translate(-1187.108 -14.056)" fill="#fff"/>
      <path id="Path_460" data-name="Path 460" d="M1162.026,58.18h-29.7c1.012,4.963,3.477,8.951,9.2,7.873,5.2-.979,5.376-7.227,6.18-7.3,4.525,2.029,9.5,2.986,14.1,4.774.637.248.853-.363.733.81-.789,7.743-8.4,13.292-15.5,14.762-14.585,3.022-29.136-2.639-32.288-18.194-8.658-42.721,54.516-44.814,47.273-2.727m-29.157-9.719H1143.4a7.423,7.423,0,0,0,1.924-.842c-1.112-9.242-12.036-7.7-12.453.842" transform="translate(-1017.32 -13.904)" fill="#fff"/>
      <path id="Path_461" data-name="Path 461" d="M1406.469,28.236c19.736-2.14,31.314,10.842,29.118,30.2-3.32,29.267-48.36,29.052-50.536-2.079-1.005-14.389,6.436-26.494,21.418-28.119m8.043,15.128a6.212,6.212,0,0,0-8.71.943c-3.091,4.139-3.48,19.814,2.9,21.331,10.637,2.53,10.37-18.139,5.812-22.274" transform="translate(-1142.005 -14.038)" fill="#fff"/>
      <path id="Path_462" data-name="Path 462" d="M960.378,6.137V18.556h16.2v13.5h-16.2L958.2,51.248c.017,2.206.162,4.874,2.974,4.573,2.948-.315,3.113-7.42,3.528-9.73l12.961,3.789c-1.454,14.687-10.479,22.69-25.5,19.282C934.385,65.13,941.771,44.9,942.021,32.052l-7.021,0V19.366c0-1.356,6.3-.651,7.562-.807l.053-8.588Z" transform="translate(-935 -3.977)" fill="#fff"/>
      <path id="Path_463" data-name="Path 463" d="M1604.378,6.137V18.556h16.2v13.5h-16.2L1602.2,51.248c.017,2.206.162,4.874,2.973,4.573,2.948-.315,3.113-7.42,3.528-9.73l12.961,3.789c-1.454,14.687-10.479,22.69-25.5,19.282-17.773-4.031-10.387-24.261-10.136-37.109l-7.022,0V19.366c0-1.356,6.3-.651,7.562-.807l.052-8.588Z" transform="translate(-1231.273 -3.977)" fill="#fff"/>
    </g>
  </g>
</svg>
