<svg xmlns="http://www.w3.org/2000/svg" xmlns:xlink="http://www.w3.org/1999/xlink" width="477.845" height="505.615" viewBox="0 0 477.845 505.615">
  <defs>
    <clipPath id="clip-path">
      <rect id="Rectangle_342" data-name="Rectangle 342" width="364.461" height="409.255" fill="none"/>
    </clipPath>
  </defs>
  <g id="Group_492" data-name="Group 492" transform="translate(133.241 -0.001) rotate(19)">
    <g id="Group_491" data-name="Group 491" transform="translate(0 0.001)" clip-path="url(#clip-path)">
      <path id="Path_932" data-name="Path 932" d="M364.176,290.318l-37.407-111.9c10.4-7.079,14.833-9.427,17.444-14.979,3.3-7.021-8.3-40.4-15.368-45.973-6.152-4.848-9.883-3.105-22.995-1.627L268.392,3.78a5.551,5.551,0,0,0-7-3.495l-.728.243a5.551,5.551,0,0,0-3.495,7l1.5,4.49C252.172,29.213,215,116.031,115.748,149.209c-61.917,20.7-83.3,11.364-98.668,34.647-3.751,5.685-4.493,16.318-3.112,28.936-5.721,1.138-9.447,2.8-12.47,7.879-6.242,10.484,8.328,56.761,19.507,58.355,4.262.608,8.108-.2,12.653-1.9,6.986,13.245,14.936,22.649,22.435,23.438,10.8,1.137,20.48-1.583,32.863-6.607,10.56,34.369,30.4,108.325,40.721,114.472,10.484,6.241,58.736-24.589,60.329-35.769,1.107-7.765-21-11.807-41.271-40.774a4.662,4.662,0,0,0,.216-3.487l-6.672-19.958a4.686,4.686,0,0,0-5.93-2.958l-1.664.556a194.55,194.55,0,0,1-9.092-27.677c8.61-3.478,18.368-7.171,29.667-10.948h0c96.171-32.148,180.577,13.118,196.24,22.327l1.447,4.329a5.551,5.551,0,0,0,7,3.495l.728-.243a5.551,5.551,0,0,0,3.495-7" transform="translate(0 -0.001)" fill="#e8e8e8"/>
      <path id="Path_933" data-name="Path 933" d="M187.432,730.516v0l-26.991-80.742c-5.387,1.8-10.449,3.362-15.245,4.75-.628.182-1.257.364-1.874.539-1.006.285-1.993.558-2.974.828-.561.154-1.131.314-1.684.463-1.266.341-2.506.667-3.73.983-.773.2-1.529.39-2.286.58-41.083,10.333-58.079,7.114-70.874,26.5-3.751,5.685-4.494,16.318-3.112,28.936a192.184,192.184,0,0,0,9.319,39.907c.159.462.316.925.478,1.385h0l.014.04c.12.341.243.679.364,1.019.157.439.313.879.472,1.315.133.365.269.726.4,1.089.151.407.3.815.455,1.22.14.371.284.738.425,1.107.152.394.3.788.457,1.179.145.368.292.733.439,1.1.155.388.31.775.468,1.16.147.361.3.719.445,1.077q.239.576.48,1.147c.151.357.3.711.456,1.065q.244.565.49,1.125.23.522.462,1.038.251.56.5,1.113.233.509.468,1.013.256.549.514,1.09.238.5.477,1c.172.356.346.708.52,1.06.161.326.322.651.485.973.177.351.355.7.533,1.043.161.313.322.625.484.934.025.047.049.1.074.142.159.3.32.6.48.895s.318.595.479.887c.192.351.387.695.581,1.039.155.275.309.553.465.825.207.361.415.713.624,1.066.145.246.289.5.435.739.239.4.48.785.72,1.173.116.188.232.381.349.567q.534.846,1.072,1.658c.1.153.2.3.306.45.261.388.522.775.784,1.15.141.2.283.394.424.591.224.313.447.626.671.929.157.211.314.413.471.62.211.278.422.556.634.825.163.207.326.4.49.606.206.254.413.509.62.755.167.2.335.389.5.582.2.235.409.469.614.7.17.187.339.367.509.548.2.217.408.433.613.641.17.173.34.341.511.508q.306.3.613.588.257.239.513.468.307.274.614.533c.171.144.342.286.513.424.205.165.41.323.615.477.171.129.341.257.512.378.207.147.413.286.62.423.168.111.336.223.5.327.21.13.421.25.631.369.164.093.328.189.492.274.215.112.429.212.644.312.16.074.319.153.478.221.223.095.446.174.669.255.149.054.3.115.447.163.247.079.494.141.741.2.124.031.248.071.372.1a10.419,10.419,0,0,0,1.107.18q1.137.12,2.258.183c1.5.085,2.976.1,4.449.037q1.1-.044,2.206-.139c1.469-.127,2.937-.321,4.415-.578q1.108-.193,2.225-.433a94.171,94.171,0,0,0,14.1-4.4c1.047-.4,2.12-.833,3.205-1.274l.015-.006q1.669-.677,3.409-1.41l.477-.2c1.173-.5,2.363-1,3.59-1.532q1.428-.617,2.909-1.263,2.963-1.291,6.157-2.69c3.2-1.4,6.587-2.869,10.2-4.4q1.806-.766,3.689-1.552c1.791-.747,3.66-1.512,5.566-2.284l.631-.256c.271-.11.533-.217.806-.327l.1-.042.011,0c.7-.282,1.418-.566,2.134-.85l.021-.008c.586-.233,1.175-.466,1.772-.7l.012,0c.73-.286,1.471-.575,2.218-.864l.011,0q.908-.352,1.833-.706l0,0q1.163-.446,2.352-.894c.621-.234,1.252-.47,1.884-.705.814-.3,1.63-.607,2.462-.912,1.285-.471,2.576-.943,3.907-1.419q4.857-1.737,10.136-3.506Z" transform="translate(-44.692 -500.563)" fill="#de212b"/>
      <path id="Path_934" data-name="Path 934" d="M417.841,751.091l-.139.063.139-.064-27.625-82.638c-.542.159-1.063.3-1.6.46-.628.182-1.257.364-1.874.539-1.006.285-1.993.558-2.974.828-.561.154-1.131.314-1.684.463-1.266.341-2.506.667-3.73.983-.773.2-1.529.39-2.286.58-.692.174-1.395.354-2.073.52L402.335,757.6l.155-.055-.154.059,11.87,35.51.413-.165.011,0c.7-.281,1.418-.566,2.134-.85l.021-.008c.586-.233,1.175-.466,1.772-.7l.012,0c.73-.286,1.471-.575,2.218-.864l.011,0q.908-.352,1.833-.706l0,0q1.164-.446,2.352-.894c.621-.234,1.251-.469,1.884-.7.814-.3,1.63-.607,2.462-.912l.541-.2Z" transform="translate(-288.115 -514.954)" fill="#eb6541"/>
      <path id="Path_935" data-name="Path 935" d="M33.584,990.855c-.162-.308-.323-.621-.484-.934-.179-.346-.357-.692-.533-1.043-.163-.322-.324-.647-.485-.973q-.261-.527-.52-1.06-.239-.495-.477-1-.258-.542-.513-1.09-.235-.5-.468-1.013-.253-.554-.5-1.113-.232-.517-.462-1.038-.246-.559-.49-1.125c-.153-.354-.3-.708-.456-1.064-.161-.38-.321-.764-.48-1.147-.149-.358-.3-.716-.445-1.077q-.236-.577-.468-1.16c-.147-.366-.294-.731-.439-1.1-.154-.391-.305-.785-.457-1.179-.142-.369-.285-.736-.426-1.107-.154-.4-.3-.813-.456-1.22-.135-.363-.271-.724-.4-1.089-.159-.437-.315-.877-.472-1.315-.121-.34-.245-.677-.364-1.019,0-.013-.009-.026-.014-.04h0c-.161-.46-.319-.923-.478-1.385a192.17,192.17,0,0,1-9.319-39.907c-5.721,1.138-9.447,2.8-12.47,7.879-3.238,5.439-.874,20.51,3.711,33.979l0,.006a99.836,99.836,0,0,0,4.45,11l.019.04q.466.965.942,1.883l.056.108q.463.888.934,1.724l.085.151q.462.815.931,1.576l.1.166q.462.744.93,1.43l.117.171q.463.672.929,1.282l.124.16q.465.6.932,1.134l.122.137c.311.35.624.679.935.98.039.038.079.074.118.111.314.3.628.573.941.818.034.027.068.051.1.077a9.421,9.421,0,0,0,.951.646c.027.016.053.028.08.043a6.677,6.677,0,0,0,.964.46l.046.015a4.928,4.928,0,0,0,.984.254c4.262.608,8.107-.2,12.652-1.9-.025-.047-.049-.1-.074-.142" transform="translate(-0.001 -713.87)" fill="#be001b"/>
      <path id="Path_936" data-name="Path 936" d="M1366.936,524.4l-.063.057c-3.394-10.317-8.289-20.726-11.963-23.621-6.152-4.848-9.883-3.105-23-1.627l13.231,39.58,7.688,23c10.4-7.079,14.833-9.427,17.444-14.979,1.656-3.521-.268-13.1-3.342-22.41" transform="translate(-1026.065 -383.377)" fill="#e8e8e8"/>
      <rect id="Rectangle_340" data-name="Rectangle 340" width="7.563" height="59.164" transform="matrix(0.948, -0.317, 0.317, 0.948, 93.353, 158.96)" fill="#f18b6c"/>
      <path id="Path_937" data-name="Path 937" d="M142.235,702.351s-23.946,7.188-32.895,8.421-20.385,2.8-28.08,12.974c-7.092,9.375-4.336,25.92-4.336,25.92l72.193-24.133Z" transform="translate(-58.854 -541.069)" fill="#e44540"/>
      <rect id="Rectangle_341" data-name="Rectangle 341" width="9.7" height="23.208" transform="matrix(0.948, -0.317, 0.317, 0.948, 105.203, 154.999)" fill="#e44540"/>
      <path id="Path_938" data-name="Path 938" d="M1225.958,290.318l-37.407-111.9-7.689-23-13.231-39.58L1130.173,3.78a5.551,5.551,0,0,0-7-3.495l-.364.121-.364.122a5.551,5.551,0,0,0-3.495,7l1.5,4.49,58.314,174.443,34.523,103.276,1.447,4.329a5.551,5.551,0,0,0,7,3.495l.364-.122.364-.122a5.552,5.552,0,0,0,3.495-7" transform="translate(-861.781 -0.001)" fill="#c3c3c3"/>
      <path id="Path_939" data-name="Path 939" d="M637.978,197.876c31.281-23.619,40.2-46.732,40.2-46.732l-17.2-51.455s-20.622,47.691-55.665,80.32c-38.338,35.7-82.623,48.421-82.623,48.421l6.88,20.582s69.731-21.931,108.411-51.136" transform="translate(-402.661 -76.797)" fill="#fff"/>
      <path id="Path_940" data-name="Path 940" d="M449.723,1269.245v0l-.062-.078q-1.25-1.654-2.493-3.43a4.66,4.66,0,0,0,.216-3.487l-6.672-19.958a4.685,4.685,0,0,0-5.929-2.958l-1.639.548c-.527-1.268-1.067-2.579-1.626-3.959a199.729,199.729,0,0,1-7.492-23.709l-.631.256c-1.79.725-3.544,1.443-5.233,2.146l-.333.138q-1.884.786-3.689,1.552c-3.613,1.533-7,3.005-10.2,4.4q-3.2,1.4-6.157,2.691-1.482.646-2.909,1.262c-1.227.53-2.417,1.036-3.59,1.532l-.477.2q-1.738.732-3.409,1.411l-.011,0c1.872,6.092,4.033,13.42,6.384,21.4q.681,2.316,1.384,4.7t1.421,4.818q.719,2.435,1.454,4.911.368,1.237.738,2.482.741,2.49,1.495,5t1.517,5.03q.381,1.259.765,2.518.766,2.517,1.54,5.024t1.55,4.987q.777,2.48,1.556,4.924,1.168,3.663,2.334,7.212.776,2.361,1.55,4.654.387,1.145.771,2.271c1.026,3,2.045,5.89,3.049,8.635q.753,2.058,1.494,4t1.468,3.758q.727,1.813,1.437,3.487t1.4,3.191q.691,1.517,1.362,2.868c2.234,4.5,4.284,7.544,6.053,8.6a4.792,4.792,0,0,0,.672.323c.065.026.132.05.2.074a6.221,6.221,0,0,0,.632.188c.052.012.1.028.153.04a8.235,8.235,0,0,0,.847.135c.072.008.148.013.222.019q.363.032.749.039c.083,0,.165,0,.25,0,.327,0,.663-.01,1.012-.035.052,0,.107-.01.159-.015.307-.024.623-.059.945-.1l.315-.043c.344-.05.695-.107,1.054-.176l.115-.021c.4-.078.81-.169,1.228-.268l.332-.082q.517-.128,1.051-.277l.28-.077q.659-.189,1.341-.406l.284-.093q.57-.186,1.154-.391l.358-.126c.479-.171.962-.349,1.454-.538l.05-.02c.478-.184.962-.379,1.451-.58l.36-.149q.694-.289,1.4-.6l.139-.06q.791-.347,1.6-.719l.3-.139q.7-.325,1.4-.666l.254-.122q.832-.4,1.673-.83l.1-.05q.788-.4,1.581-.818l.274-.144q1.7-.9,3.422-1.871l.2-.115q1.759-1,3.514-2.055l.033-.02q.873-.527,1.74-1.066l.072-.045q1.766-1.1,3.5-2.24l.077-.051q1.738-1.148,3.416-2.324h0c2.819-1.975,5.481-3.989,7.871-5.963l.006,0c6.247-5.162,10.634-10.054,11.1-13.295,1.06-7.44-19.191-11.463-38.718-37.264" transform="translate(-298.433 -933.849)" fill="#be001b"/>
      <path id="Path_941" data-name="Path 941" d="M1397.222,651.531c10.4-7.079,14.833-9.427,17.444-14.979,1.656-3.522-.267-13.1-3.342-22.41l-.063.057c-5.093,4.729-12.1,9.467-21.727,14.332Z" transform="translate(-1070.452 -473.116)" fill="#c4d0d8"/>
      <path id="Path_942" data-name="Path 942" d="M1122.441,1.89a5.551,5.551,0,0,0-3.495,7l1.5,4.49,58.314,174.443L1213.284,291.1l1.447,4.329a5.551,5.551,0,0,0,7,3.495l.364-.122L1122.8,1.768Z" transform="translate(-861.781 -1.362)" fill="#88949b"/>
      <path id="Path_943" data-name="Path 943" d="M776.3,811.368c-47.839,3.833-90.856,17.727-134.017,34.1-7.093,2.691-13.916,5.87-20.685,9.107v0l12.523,37.462h0c96.172-32.148,180.577,13.118,196.24,22.327L795.841,811.09a117.966,117.966,0,0,0-19.539.278" transform="translate(-478.861 -624.625)" fill="#c4d0d8"/>
      <path id="Path_944" data-name="Path 944" d="M50.576,1123.8c-.178-.346-.357-.692-.533-1.043-.162-.322-.324-.647-.485-.973-.174-.352-.348-.7-.52-1.06q-.24-.495-.477-1-.258-.542-.514-1.09-.235-.5-.468-1.013-.254-.554-.5-1.114-.232-.517-.462-1.038-.246-.559-.49-1.125c-.153-.354-.305-.708-.457-1.064q-.241-.57-.48-1.147c-.149-.358-.3-.716-.445-1.077q-.236-.577-.468-1.16c-.147-.366-.294-.731-.439-1.1-.154-.391-.305-.785-.457-1.179-.142-.368-.285-.736-.426-1.107-.154-.405-.3-.813-.455-1.22-.135-.363-.271-.724-.4-1.089-.159-.437-.315-.877-.472-1.315-.121-.34-.245-.677-.364-1.019l-.014-.04h0c-.162-.46-.319-.923-.478-1.385a145.483,145.483,0,0,1-18.078,1.95l0,.006a99.88,99.88,0,0,0,4.45,11l.019.04q.466.966.942,1.883l.056.108q.463.888.934,1.724l.085.151q.462.815.931,1.576l.1.166q.462.744.93,1.43l.117.171q.463.672.929,1.282l.124.161q.465.6.932,1.134l.122.137c.312.35.624.678.935.98l.118.111c.314.3.628.573.941.818.034.027.069.051.1.077a9.394,9.394,0,0,0,.951.646c.027.016.053.028.08.043a6.672,6.672,0,0,0,.964.46l.046.015a4.941,4.941,0,0,0,.984.255c4.262.608,8.107-.2,12.652-1.9-.025-.047-.049-.1-.074-.142-.162-.308-.323-.621-.484-.934" transform="translate(-17.477 -847.75)" fill="#a0000d"/>
      <path id="Path_945" data-name="Path 945" d="M512.915,1028.329l-.139.063q-1.641.758-3.29,1.494c-.166.074-.331.151-.5.224-3.759,1.673-7.556,3.253-11.424,4.672l-.154.059,11.87,35.51.413-.165.011,0c.7-.282,1.418-.566,2.134-.85l.021-.008c.587-.233,1.175-.466,1.772-.7l.012,0c.73-.286,1.471-.575,2.217-.864l.011,0q.908-.352,1.833-.706l0,0q1.164-.446,2.352-.894c.621-.234,1.251-.469,1.884-.7.814-.3,1.63-.607,2.462-.912l.541-.2Z" transform="translate(-383.189 -792.192)" fill="#e23a32"/>
      <path id="Path_946" data-name="Path 946" d="M577.477,1001.4c-4.342,2.076-8.662,4.172-13.014,6.183l-.139.065.139-.063,12.034,36-.541.2c1.285-.471,2.576-.943,3.907-1.419q4.857-1.737,10.136-3.506Z" transform="translate(-434.737 -771.444)" fill="#c4001a"/>
      <path id="Path_947" data-name="Path 947" d="M205.817,1092l-11.87-35.509.154-.059-.155.054a115.06,115.06,0,0,1-14.077,4.215c-25.264,6-50.836,10.06-76.378,7.223h0c0,.013.01.026.014.04.12.341.243.679.364,1.018.157.439.313.878.472,1.315.133.365.269.726.4,1.089.151.407.3.815.455,1.22.141.371.284.738.426,1.107.152.394.3.788.457,1.179.145.368.292.734.439,1.1q.233.582.468,1.161c.147.361.3.718.445,1.077q.239.576.48,1.147c.151.357.3.711.456,1.065q.244.564.49,1.125.23.522.462,1.038.251.56.5,1.113.233.509.468,1.013.255.548.513,1.09.238.5.477,1c.172.356.346.708.52,1.06.161.326.322.651.485.973.177.351.355.7.533,1.042.161.313.322.626.484.934.025.047.049.1.074.142.159.3.319.6.48.895s.318.595.479.887c.192.351.386.695.58,1.039.155.276.309.554.465.825.207.361.415.713.624,1.067.145.246.289.5.435.739.239.4.48.785.721,1.173.116.188.232.381.349.566q.534.846,1.072,1.658c.1.154.2.3.306.45.261.388.522.775.784,1.149.141.2.283.394.424.591.224.312.447.626.671.929.157.211.314.413.471.619.211.278.422.556.634.825.163.207.327.405.49.606.206.254.413.509.62.755.167.2.334.389.5.582.2.235.409.469.614.695.169.187.339.367.509.548.2.217.408.433.612.641.17.173.34.341.511.508q.306.3.613.587.257.239.513.468.307.274.614.533c.171.145.342.286.513.424.205.165.41.323.615.477.171.129.341.256.512.378.207.147.413.286.62.423.168.111.336.223.5.327.21.13.421.25.631.369.164.093.328.189.493.274.215.112.429.212.644.312.159.074.319.153.478.221.223.095.446.174.669.255.149.054.3.115.448.163.247.079.494.14.741.2.124.031.248.071.372.1a10.508,10.508,0,0,0,1.107.18q1.137.119,2.259.183c1.5.085,2.976.1,4.449.037q1.1-.044,2.206-.139c1.469-.127,2.937-.321,4.415-.578q1.108-.193,2.225-.433a94.175,94.175,0,0,0,14.1-4.4c1.047-.4,2.12-.833,3.205-1.274l.015-.006q1.669-.677,3.409-1.41l.477-.2c1.174-.5,2.363-1,3.59-1.532q1.429-.617,2.91-1.262,2.963-1.291,6.157-2.691c3.2-1.4,6.587-2.869,10.2-4.4q1.806-.766,3.689-1.552c1.791-.748,3.66-1.512,5.567-2.284l.631-.256c.271-.109.533-.217.806-.327l.1-.042-.413.165" transform="translate(-79.725 -813.841)" fill="#c4001a"/>
      <path id="Path_948" data-name="Path 948" d="M423.457,1287.931c-10.121-20.322-16.079-45.233-5.293-65.26l-.333.138q-1.883.786-3.689,1.552c-3.613,1.533-7,3.005-10.2,4.4q-3.2,1.4-6.157,2.691-1.482.646-2.909,1.263c-1.227.53-2.416,1.036-3.59,1.532l-.477.2q-1.738.731-3.409,1.41l-.011,0c1.872,6.092,4.033,13.42,6.384,21.4q.681,2.315,1.384,4.7t1.421,4.818q.719,2.434,1.454,4.911l.738,2.482q.742,2.49,1.495,5t1.516,5.03q.381,1.259.765,2.517.766,2.517,1.54,5.024t1.55,4.987q.777,2.48,1.556,4.924,1.168,3.663,2.334,7.212.777,2.361,1.55,4.654.387,1.146.772,2.271c1.026,3,2.045,5.89,3.048,8.634q.753,2.058,1.494,4t1.468,3.758q.727,1.814,1.437,3.488t1.4,3.191q.691,1.517,1.362,2.868c2.234,4.5,4.284,7.544,6.054,8.6a4.781,4.781,0,0,0,.672.323c.065.026.132.05.2.074a6.256,6.256,0,0,0,.632.188c.052.012.1.028.153.039a8.22,8.22,0,0,0,.847.136c.073.008.149.012.222.019q.363.032.749.039c.083,0,.165,0,.25,0,.327,0,.663-.01,1.012-.035l.159-.015c.307-.025.623-.059.945-.1.1-.014.209-.028.315-.043.344-.05.694-.107,1.054-.176l.115-.02c.4-.077.81-.169,1.228-.268.11-.026.221-.054.332-.081q.517-.129,1.051-.277l.28-.077q.659-.189,1.341-.407l.284-.093q.569-.186,1.154-.391l.358-.126c.479-.171.962-.349,1.454-.538l.05-.02c.478-.184.962-.379,1.451-.58l.36-.149q.694-.289,1.4-.6l.138-.06q.791-.347,1.6-.719l.3-.139q.7-.325,1.4-.666l.254-.122q.832-.4,1.673-.83l.1-.05q.787-.4,1.581-.818l.274-.144q1.7-.9,3.422-1.871l.2-.116q1.76-1,3.513-2.055l.033-.02q.873-.527,1.74-1.067l.072-.044q1.766-1.1,3.5-2.24l.077-.051q1.738-1.148,3.417-2.324h0c2.819-1.976,5.481-3.989,7.871-5.963l.005,0c-22.508-4.6-42.409-16.608-53.888-39.931" transform="translate(-298.433 -941.907)" fill="#9e0011"/>
      <path id="Path_949" data-name="Path 949" d="M537.447,1317.323l12.579,37.63s13.3-3.58,15.3-7.476v0l-.062-.078c-.9-1.111-1.751-2.2-2.562-3.286a4.667,4.667,0,0,1-2.674,2.3l-7.094,2.371-9.643-28.846,5.456-1.824c-.528-1.268-1.067-2.579-1.626-3.959-.054-.133-.1-.256-.159-.389-1.178.452-9.514,3.561-9.514,3.561" transform="translate(-414.032 -1012.081)" fill="#8d000f"/>
    </g>
  </g>
</svg>
