<svg id="Group_258" data-name="Group 258" xmlns="http://www.w3.org/2000/svg" xmlns:xlink="http://www.w3.org/1999/xlink" width="675.035" height="108.109" viewBox="0 0 675.035 108.109">
  <defs>
    <clipPath id="clip-path">
      <rect id="Rectangle_163" data-name="Rectangle 163" width="675.035" height="108.109" fill="none"/>
    </clipPath>
  </defs>
  <g id="Group_144" data-name="Group 144" transform="translate(0 0)" clip-path="url(#clip-path)">
    <path id="Path_255" data-name="Path 255" d="M151.512,0V4.285h-3.8c-1.17,0-1.163,1.723-1.071,2.531h6.621c.03-2.416.393-4.9,2.789-6.071A13.423,13.423,0,0,1,158.426,0h6.135V4.285h-3.409a2.793,2.793,0,0,0-.943.628,5.85,5.85,0,0,0-.128,1.9h13.244v20.06H166.7v-14.8h-6.621v14.8h-6.816v-14.8h-6.621v14.8h-6.816v-14.8h-2.533V6.816l2.533,0c-.01-2.431.388-4.9,2.789-6.073A13.407,13.407,0,0,1,144.987,0Z" transform="translate(91.454 0.001)" fill="#1a1818"/>
    <path id="Path_256" data-name="Path 256" d="M261,4.278l0,2.143c3.149-3.442,7.376-3.386,10.815-.392.215.187.253.586.385.588.207,0,1.551-1.256,1.983-1.521,3.371-2.071,9.147-1.814,11.058,2.108a13.92,13.92,0,0,1,.881,2.819V24.338H279.5V11.581a10.44,10.44,0,0,0-.35-1.013c-.755-1.475-3.705-1.679-4.718-.495a7.229,7.229,0,0,0-.58,1.12V24.338h-6.816V11.386a8.376,8.376,0,0,0-.42-.943c-.76-1.218-3.014-1.47-4.159-.713a3.615,3.615,0,0,0-1.07,1.656V24.338H254.77V4.278Z" transform="translate(169.705 2.538)" fill="#1a1818"/>
    <path id="Path_257" data-name="Path 257" d="M239.582,0V26.876h-6.426l0-2.143c-3.637,4.237-10.735,3.069-13.592-1.5-2.311-3.694-2.193-9.977.465-13.479,2.9-3.815,9.112-4.613,12.739-1.381V0ZM227.85,12.321c-4.5.658-4.513,8.542.165,9.08,6.654.765,6.576-10.067-.165-9.08" transform="translate(145.162 0.001)" fill="#1a1818"/>
    <path id="Path_258" data-name="Path 258" d="M198.854,0V8.569c2.862-3.217,9.505-2.971,11.576.986a12.564,12.564,0,0,1,1.083,3.785V26.876h-6.621c-.2-3.72.267-7.712.007-11.4-.175-2.5-.968-3.949-3.789-3.577-.933.123-2.256,1.036-2.256,2.028V26.876h-6.621V0Z" transform="translate(128.049 0.001)" fill="#1a1818"/>
    <path id="Path_259" data-name="Path 259" d="M295.635,18.889v5.453h-4.187c-1.075,0-2.824-1.3-3.505-2.139-2.569,4.082-12.038,3.216-13.061-1.744-1.553-7.534,7.214-7.917,12.368-8.59.888-4.3-6.1-4.53-6.026-.38H274.8c-.067-7.116,8.437-8.822,13.93-7.018,6.719,2.209,4.867,8.5,5.182,14.1.178.543,1.25.263,1.726.32m-8.374-2.727c-1.471.182-5.4.273-5.8,2.089-.66,2.994,4.908,2.882,5.673.215a8.836,8.836,0,0,0,.132-2.3" transform="translate(182.981 2.535)" fill="#1a1818"/>
    <path id="Path_260" data-name="Path 260" d="M257.529,18.889v5.453h-4.187c-1.075,0-2.824-1.3-3.505-2.139-2.569,4.082-12.038,3.216-13.061-1.744-1.553-7.534,7.214-7.917,12.368-8.59.888-4.3-6.1-4.53-6.026-.38h-6.426c-.067-7.116,8.436-8.822,13.93-7.018,6.719,2.209,4.867,8.5,5.182,14.1.178.543,1.25.263,1.726.32m-8.374-2.727c-1.471.182-5.4.273-5.8,2.089-.66,2.994,4.908,2.882,5.673.215a8.835,8.835,0,0,0,.132-2.3" transform="translate(157.598 2.535)" fill="#1a1818"/>
    <path id="Path_261" data-name="Path 261" d="M225.735,18.889v5.453h-4.187c-1.076,0-2.826-1.3-3.507-2.139-2.568,4.082-12.036,3.216-13.059-1.744-1.553-7.534,7.213-7.917,12.366-8.59.89-4.3-6.1-4.53-6.025-.38H204.9c-.065-7.116,8.437-8.822,13.932-7.018,6.718,2.209,4.865,8.5,5.182,14.1.178.543,1.25.263,1.726.32m-8.374-2.727c-1.471.182-5.407.273-5.8,2.089-.661,2.994,4.908,2.882,5.673.215a8.835,8.835,0,0,0,.132-2.3" transform="translate(136.42 2.535)" fill="#1a1818"/>
    <path id="Path_262" data-name="Path 262" d="M194.673,16.18H180.456a4.211,4.211,0,0,0,5.89,3.259,2.58,2.58,0,0,0,1.316-1.313h6.623c-2.461,9.11-16.621,8.747-19.818.247-3.491-9.279,4.907-17.016,14.08-13.885,2.809.958,6.126,4.412,6.126,7.5Zm-6.426-4.285c-.378-4.46-7.249-4.43-7.6,0Z" transform="translate(115.676 2.518)" fill="#1a1818"/>
    <path id="Path_263" data-name="Path 263" d="M92.149,3.935c7.912-.991,13.667,4.189,12.656,12.268-1.508,12.029-22.589,11.836-21.38-3.267a10.114,10.114,0,0,1,8.724-9M93.317,9.78c-2.952.418-3.769,3.464-3.216,6.038.918,4.28,7.647,4.167,8.129-.541.348-3.4-1.168-6.026-4.913-5.5" transform="translate(55.537 2.541)" fill="#1a1818"/>
    <path id="Path_264" data-name="Path 264" d="M132.709,3.935c7.914-.991,13.667,4.189,12.657,12.268-1.508,12.029-22.591,11.836-21.381-3.267a10.114,10.114,0,0,1,8.724-9m1.168,5.845c-2.952.418-3.769,3.464-3.216,6.038.918,4.28,7.649,4.167,8.131-.541.348-3.4-1.17-6.026-4.915-5.5" transform="translate(82.554 2.541)" fill="#1a1818"/>
    <path id="Path_265" data-name="Path 265" d="M321.837,3.935c7.912-.991,13.667,4.189,12.656,12.268-1.508,12.029-22.589,11.836-21.38-3.267a10.114,10.114,0,0,1,8.724-9M323,9.78c-2.952.418-3.769,3.464-3.216,6.038.918,4.28,7.647,4.167,8.129-.541.348-3.4-1.168-6.026-4.913-5.5" transform="translate(208.535 2.541)" fill="#1a1818"/>
    <path id="Path_266" data-name="Path 266" d="M104.174,4.091V17.042a7.8,7.8,0,0,0,.495,1.065c1.086,1.543,4.62,1.3,5.257-.571.047-.135.287-1.206.287-1.271V4.091h6.621v20.06H110.6V21.424l-1.748,2.049c-3.362,2.078-8.812,1.408-10.558-2.5a13.765,13.765,0,0,1-.741-2.374V4.091Z" transform="translate(64.981 2.726)" fill="#1a1818"/>
    <path id="Path_267" data-name="Path 267" d="M181.266,12.447H174.45a11.591,11.591,0,0,0-.422-1.235c-1.023-1.648-3.232-1.934-4.945-1.308-2.459.9-2.711,5.013-1.789,7.069,1.1,2.461,5.143,2.737,6.656.523a9.518,9.518,0,0,0,.5-1.35h6.816c-.865,6.165-5.843,9.047-11.789,8.575-13.122-1.041-12.687-22.586,3.264-20.791a9.625,9.625,0,0,1,8.525,8.515" transform="translate(106.686 2.549)" fill="#1a1818"/>
    <path id="Path_268" data-name="Path 268" d="M320.6,12.447h-6.816a11.581,11.581,0,0,0-.422-1.235c-1.023-1.648-3.232-1.934-4.945-1.308-2.459.9-2.711,5.013-1.789,7.069,1.1,2.461,5.143,2.737,6.656.523a9.514,9.514,0,0,0,.5-1.35H320.6c-.865,6.165-5.843,9.047-11.789,8.575-13.122-1.041-12.687-22.586,3.264-20.791a9.624,9.624,0,0,1,8.525,8.515" transform="translate(199.497 2.549)" fill="#1a1818"/>
    <path id="Path_269" data-name="Path 269" d="M305.571,10.51h-5.843c-.1,0-.332-1.223-1.07-1.754-2.169-1.564-6.178.193-4.1,1.758,1.256.945,5.856,1.215,7.832,2.1a5.982,5.982,0,0,1,.433,10.831c-4.763,2.692-14.837,1.644-14.98-5.34h5.745c.153,0,.715,1.283,1.026,1.561,1.953,1.741,6.763.363,5.052-1.7-1.251-1.509-8.117-.606-10.62-3.887a6.355,6.355,0,0,1,.275-7.446c3.715-4.692,16.356-3.62,16.245,3.877" transform="translate(191.739 2.54)" fill="#1a1818"/>
    <path id="Path_270" data-name="Path 270" d="M83.95,0V4.285h-3.8c-1.235,0-1.136,1.861-1.071,2.726h4.673v4.868H79.082v15H72.265v-15H69.733V6.621l2.532,0c.04-2.429.4-4.712,2.789-5.878A13.408,13.408,0,0,1,77.425,0Z" transform="translate(46.45 0.001)" fill="#1a1818"/>
    <path id="Path_271" data-name="Path 271" d="M336.16.7V6.349h3.9v5.258h-3.9v9.055a1.94,1.94,0,0,0,.292.293h3.6v5.452h-6.33a6.656,6.656,0,0,1-3.122-1.551,7.325,7.325,0,0,1-1.26-3.219V11.607h-2.922V6.349h3.117V.7Z" transform="translate(217.433 0.468)" fill="#1a1818"/>
    <rect id="Rectangle_158" data-name="Rectangle 158" width="7.011" height="26.876" transform="translate(107.224)" fill="#1a1818"/>
    <path id="Path_272" data-name="Path 272" d="M123.732,3.866v6.621c-1.589-.03-4.289.035-5.452,1.268a5.586,5.586,0,0,0-.78,1.361v11.2h-6.623V4.256h6.233V7.371L118.4,5.64a6.879,6.879,0,0,1,5.335-1.774" transform="translate(73.857 2.561)" fill="#1a1818"/>
    <path id="Path_273" data-name="Path 273" d="M343.681,12.04v8.277a12,12,0,0,1-.7,2.219c-1.15,2.271-4.185,2.891-6.5,2.747V22.265c.54-.477,1.4-.315,2.086-.641,1.241-.591,1.071-1.569,1.03-2.767h-3.116V12.332a2.011,2.011,0,0,1,.292-.292Z" transform="translate(224.13 8.021)" fill="#1a1818"/>
    <rect id="Rectangle_159" data-name="Rectangle 159" width="6.621" height="4.868" transform="translate(258.157 0.002)" fill="#1a1818"/>
    <path id="Path_274" data-name="Path 274" d="M13.8,39.151l6.288,21.113,6.679-20.935,13.842.008.322.488L47.9,60.261l5.686-21.11h13.8L55.237,80.787c-.523.37-11.485.367-12.837.2-.445-.055-.9.022-1.2-.423l-7.7-23.96L26.19,80.566c-.823.993-11.375.06-13.417.428L0,39.151Z" transform="translate(16.661 26.08)" fill="#de001c"/>
    <path id="Path_414" data-name="Path 414" d="M13.8,39.151l6.288,21.113,6.679-20.935,13.842.008.322.488L47.9,60.261l5.686-21.11h13.8L55.237,80.787c-.523.37-11.485.367-12.837.2-.445-.055-.9.022-1.2-.423l-7.7-23.96L26.19,80.566c-.823.993-11.375.06-13.417.428L0,39.151Z" transform="translate(220.458 26.08)" fill="#de001c"/>
    <path id="Path_275" data-name="Path 275" d="M290.463,30.623V86.646h-13.4l0-4.465c-7.582,8.83-22.376,6.4-28.334-3.126-4.817-7.7-4.572-20.8.97-28.1,6.038-7.952,18.994-9.613,26.556-2.876V30.623ZM266.008,56.306c-9.374,1.371-9.407,17.806.343,18.927,13.872,1.594,13.71-20.983-.343-18.927" transform="translate(163.407 20.399)" fill="#de001c"/>
    <path id="Path_276" data-name="Path 276" d="M339.822,30.623V48.485l3.784-2.914c17.874-6.451,29.463,7.6,26.956,24.925-2.253,15.561-20.1,23.159-31.548,11.684l0,4.465H326.018V30.623Zm6.8,25.683c-9.349,1.323-9.468,17.8.345,18.927,13.807,1.588,13.724-20.92-.345-18.927" transform="translate(217.164 20.399)" fill="#de001c"/>
    <path id="Path_277" data-name="Path 277" d="M55.956,30.623V48.485c5.968-6.706,19.813-6.191,24.13,2.054a26.152,26.152,0,0,1,2.258,7.892V86.646H68.54c-.418-7.756.556-16.075.018-23.765-.365-5.2-2.021-8.231-7.9-7.456-1.948.257-4.7,2.161-4.7,4.225v27h-13.8V30.623Z" transform="translate(44.74 20.399)" fill="#de001c"/>
    <path id="Path_279" data-name="Path 279" d="M111.987,70V81.365h-8.729c-2.241,0-5.886-2.714-7.308-4.459-5.355,8.51-25.092,6.7-27.223-3.637-3.237-15.7,15.038-16.5,25.778-17.907,1.849-8.97-12.722-9.442-12.561-.791h-13.4c-.137-14.833,17.587-18.391,29.04-14.628,14.007,4.6,10.145,17.717,10.8,29.39.37,1.13,2.6.546,3.6.665M94.532,64.313c-3.066.377-11.268.571-12.1,4.355-1.375,6.241,10.232,6.006,11.826.448a18.286,18.286,0,0,0,.275-4.8" transform="translate(62.19 25.681)" fill="#de001c"/>
    <path id="Path_280" data-name="Path 280" d="M398.356,64.349H368.721c.943,6.035,6.646,8.844,12.274,6.794,2.164-.788,2.546-2.736,2.746-2.736h13.8c-5.128,18.99-34.645,18.231-41.311.511-7.274-19.339,10.23-35.472,29.352-28.944,5.855,2,12.772,9.2,12.772,15.645Zm-13.4-8.932c-.79-9.3-15.112-9.235-15.833,0Z" transform="translate(236.169 25.647)" fill="#de001c"/>
    <path id="Path_281" data-name="Path 281" d="M193.653,38.827c16.5-2.066,28.492,8.73,26.383,25.571-3.142,25.077-47.088,24.672-44.567-6.813a21.081,21.081,0,0,1,18.184-18.759m2.436,12.183c-6.153.871-7.856,7.221-6.7,12.586,1.916,8.925,15.945,8.687,16.948-1.128.725-7.086-2.437-12.562-10.243-11.458" transform="translate(116.812 25.696)" fill="#de001c"/>
    <path id="Path_282" data-name="Path 282" d="M218.721,39.151v27a16.1,16.1,0,0,0,1.031,2.218c2.263,3.219,9.63,2.719,10.96-1.188.095-.282.593-2.517.593-2.652V39.151h13.8V80.965H232.118V75.282l-3.645,4.272c-7.009,4.33-18.367,2.932-22.009-5.208a28.771,28.771,0,0,1-1.544-4.95V39.151Z" transform="translate(136.499 26.08)" fill="#de001c"/>
    <path id="Path_284" data-name="Path 284" d="M114.839,32.085V43.858h8.119V54.819h-8.119V73.7a4.048,4.048,0,0,0,.608.61h7.511V85.672H109.764c-1.506,0-5.44-2.013-6.509-3.234a15.31,15.31,0,0,1-2.624-6.711V54.819h-6.09V43.858h6.495V32.085Z" transform="translate(79.636 21.373)" fill="#de001c"/>
    <path id="Path_285" data-name="Path 285" d="M316.346,32.085V43.858h8.119V54.819h-8.119V73.7a4.128,4.128,0,0,0,.608.61h7.511V85.672H311.271c-1.506,0-5.44-2.013-6.508-3.234a15.292,15.292,0,0,1-2.626-6.711V54.819h-6.09V43.858h6.5V32.085Z" transform="translate(197.201 21.373)" fill="#de001c"/>
    <path id="Path_286" data-name="Path 286" d="M246.5,30.623V74.265c0,1.594,4.872.755,4.872,1.015V86.646h-9.947c-2.191,0-6.313-2.8-7.451-4.727A31.264,31.264,0,0,1,232.7,78.73V30.623Z" transform="translate(155.002 20.399)" fill="#de001c"/>
    <path id="Path_287" data-name="Path 287" d="M405.7,67.169H393.925c-.558-5.555,1.321-8.827,5.273-12.388,2.844-2.562,8.226-4.742,6.723-9.558-1.158-3.712-8.745-3.717-10.067-.685-.275.63-.3,2.739-.915,2.739H382.557c-.746-14.793,14.547-19.923,26.776-16.018,10.06,3.211,14.455,15.42,7.534,23.735-3.592,4.314-10.656,6.045-11.17,12.174" transform="translate(254.808 19.984)" fill="#de001c"/>
    <rect id="Rectangle_160" data-name="Rectangle 160" width="13.802" height="41.814" transform="translate(475.793 65.232)" fill="#de001c"/>
    <rect id="Rectangle_161" data-name="Rectangle 161" width="14.615" height="14.209" transform="translate(647.109 92.837)" fill="#de001c"/>
    <rect id="Rectangle_162" data-name="Rectangle 162" width="13.802" height="10.15" transform="translate(475.793 51.021)" fill="#de001c"/>
  </g>
</svg>
