<svg id="Group_290" data-name="Group 290" xmlns="http://www.w3.org/2000/svg" xmlns:xlink="http://www.w3.org/1999/xlink" width="411.915" height="144.487" viewBox="0 0 411.915 144.487">
  <defs>
    <linearGradient id="linear-gradient" x1="0.5" x2="0.5" y2="1" gradientUnits="objectBoundingBox">
      <stop offset="0" stop-color="#002e54"/>
      <stop offset="1" stop-color="#092f87"/>
    </linearGradient>
    <clipPath id="clip-path">
      <rect id="Rectangle_246" data-name="Rectangle 246" width="411.915" height="144.487" fill="url(#linear-gradient)"/>
    </clipPath>
  </defs>
  <g id="Group_289" data-name="Group 289" clip-path="url(#clip-path)">
    <path id="Path_524" data-name="Path 524" d="M49.958,1.886C64.8,3.145,72.768,12.753,70.225,27.692a19.671,19.671,0,0,1-19.26,15.99H38.125V62.314H20.5V1.886c9.543.6,20.027-.8,29.458,0M38.125,31.093c4.152-1.015,11.472.9,13.7-3.671,1.711-3.507,1.233-8.84-2.591-10.713a21.969,21.969,0,0,0-3.809-1.227h-7.3Z" transform="translate(-10.177 -0.81)" fill="url(#linear-gradient)"/>
    <path id="Path_525" data-name="Path 525" d="M360.118,29.137V59.6c0,1.916,1.768,4.474,3.9,4.678,4.515.432,5.188-5.973,5.664-9.217,1.065-7.267,1.085-14.8,2.084-22.087.1-.749.552-3.839,1.2-3.839h15.61c.382,0,.971,1.15.728,1.685l-4.03,30.813c.533,4.913,6.708.334,7.076.74-.586,3.483,2.156,9.075-.748,11.584-5.516,4.767-17.343,4.155-20.294-3.384L369.691,65.4c-1.148,12.793-19.265,16.093-24.617,4.717a34.781,34.781,0,0,1-1.574-4.469V29.137Z" transform="translate(-170.526 -14.465)" fill="url(#linear-gradient)"/>
    <path id="Path_526" data-name="Path 526" d="M560.285,56.127h-27.7c.944,4.629,3.243,8.348,8.579,7.342,4.852-.913,5.014-6.74,5.764-6.806,4.219,1.892,8.857,2.785,13.147,4.452.594.231.8-.339.684.755-.736,7.221-7.837,12.4-14.453,13.767-13.6,2.818-27.172-2.461-30.112-16.968-8.075-39.842,50.842-41.794,44.087-2.543m-27.192-9.064h9.82a6.918,6.918,0,0,0,1.795-.785c-1.037-8.619-11.225-7.178-11.614.785" transform="translate(-255.881 -13.759)" fill="url(#linear-gradient)"/>
    <path id="Path_527" data-name="Path 527" d="M655.52,28.22c18.406-2,29.2,10.112,27.156,28.163-3.1,27.3-45.1,27.095-47.131-1.939-.938-13.419,6-24.709,19.975-26.224m7.5,14.109a5.794,5.794,0,0,0-8.123.879c-2.883,3.86-3.245,18.479,2.7,19.894,9.921,2.359,9.671-16.917,5.42-20.773" transform="translate(-315.466 -13.903)" fill="url(#linear-gradient)"/>
    <path id="Path_528" data-name="Path 528" d="M283.167,6.137V17.719h15.107V30.308H283.167l-2.032,17.9c.016,2.057.151,4.545,2.773,4.265,2.749-.294,2.9-6.92,3.29-9.074l12.088,3.534c-1.356,13.7-9.773,21.161-23.784,17.983-16.575-3.76-9.687-22.626-9.453-34.608l-6.548,0V18.474c0-1.265,5.872-.607,7.052-.753l.049-8.01Z" transform="translate(-128.825 -3.047)" fill="url(#linear-gradient)"/>
    <path id="Path_529" data-name="Path 529" d="M200.682,51.646c-.432-5-1.412-12.036-8.209-10.467-5.122,1.182-4.815,11.19-4.329,15.2,1.336,11.023,12.158,7.72,11.023-2.213l15.106,2.022c-.8,8.218-4.316,15.979-12.6,18.866-21.642,7.544-36.6-13.427-29.436-33.464,7.339-20.541,43.473-17.751,43.331,6.062Z" transform="translate(-84.606 -13.81)" fill="url(#linear-gradient)"/>
    <path id="Path_530" data-name="Path 530" d="M737.453,29.343c-1.31-.207-5.142.506-5.823-.471-.322-.464-.43-10.435-.149-11.292.575-1.757,4.853-.244,5.9-.9.683-.426.471-3.634.694-4.595C740.245,2.732,752.806,1.542,760.6.136l3.538,12.587c-2.6.174-6.753.579-9.068,1.76-1.128.576-1.756.719-1.506,2.271h11.078V29.343H754.574V61.571H737.453Z" transform="translate(-363.054 -0.068)" fill="url(#linear-gradient)"/>
    <path id="Path_531" data-name="Path 531" d="M460.362,28.149c2.01.638.692,14.155,1.768,16.615l2-7.812c1.659-6.247,7.177-7.483,12.352-9.805l2.742,16.593c-4.58.852-12.875,1.611-15.038,6.361a28.009,28.009,0,0,0-1.054,3.478v21.4H446.514c-.475-15.594,1.377-31.544-2.014-46.831Z" transform="translate(-220.666 -13.476)" fill="url(#linear-gradient)"/>
    <path id="Path_532" data-name="Path 532" d="M145.621,34.137V78.451H128.5V34.137c1.777.482,3.1,1.907,5.007,2.3a17.189,17.189,0,0,0,8.576-.546c1.361-.486,2.188-1.55,3.538-1.749" transform="translate(-63.792 -16.947)" fill="url(#linear-gradient)"/>
    <path id="Path_533" data-name="Path 533" d="M143.387,15.005c-4.807,4.827-15.225,2.481-15.944-5.115-1.327-14.016,21.563-12.844,17.787,1.67a10.552,10.552,0,0,1-1.843,3.445" transform="translate(-63.24 0)" fill="url(#linear-gradient)"/>
    <path id="Path_534" data-name="Path 534" d="M314.862,191.015c1.6.511,1.465,9.287,1.767,11.076l2.612-5.185c6.507-10.669,22.813-7.868,23.573,5.188,1.724-2.044,2.245-4.636,4.037-6.785,5.82-6.98,18.257-6.652,22.068,2.076,2.263,5.184,2.279,15.137,2.613,21.054.365,6.438.027,13.052.986,19.408H355.4a26.437,26.437,0,0,0-.5-2.772c-.724-7.973-.276-16.663-1.018-24.665-.3-3.187-.824-7.747-5.142-7.221-2.11.257-4.418,3.273-4.418,5.2v29.458H327.2V206.877c0-1.865-3.02-4.136-5.17-3.69-2.179.452-4.4,4.274-4.4,6.208v28.451H301.014c-.475-15.593,1.377-31.545-2.014-46.831Z" transform="translate(-148.435 -94.498)" fill="url(#linear-gradient)"/>
    <path id="Path_535" data-name="Path 535" d="M100.618,164.668c-.084,8.246.463,16.534-1,24.672l2.9-5.4c4.611-7.712,18.384-8.792,22.715-.327,3.023,5.907,3.28,25.627,3.607,33.154.12,2.759-.5,5.759.483,8.329H112.2a26.311,26.311,0,0,0-.5-2.772c-.726-8-.294-16.643-1.018-24.665-.3-3.316-1.446-8.545-6.057-7.092-2.042.644-4.006,4.683-4.006,6.581V225.1H84V164.668Z" transform="translate(-41.701 -81.747)" fill="url(#linear-gradient)"/>
    <path id="Path_536" data-name="Path 536" d="M744.618,164.668c-.084,8.246.463,16.534-1,24.672l2.9-5.4c4.611-7.712,18.384-8.792,22.715-.327,3.023,5.907,3.28,25.627,3.607,33.154.12,2.759-.5,5.759.483,8.329H756.2a26.342,26.342,0,0,0-.5-2.772c-.726-8-.294-16.643-1.018-24.665-.3-3.316-1.446-8.545-6.057-7.092-2.042.644-4.006,4.683-4.006,6.581V225.1H728V164.668Z" transform="translate(-361.406 -81.747)" fill="url(#linear-gradient)"/>
    <path id="Path_537" data-name="Path 537" d="M594.831,237.957H578.214c-.126-.765-.427-1.473-.506-2.258-.806-7.929-.281-16.684-1.013-24.674-.3-3.324-1.246-9.113-6.057-7.6-1.787.563-4.006,4.443-4.006,6.077v28.451H550.014c-.475-15.593,1.377-31.545-2.014-46.831h15.862c1.419,0,1.581,9.564,1.768,11.076l3.767-6.549c4.693-6.448,16.959-7.025,21.325-.165,3.993,6.274,3.284,23.288,3.612,31.134.152,3.637.914,7.54.5,11.335" transform="translate(-272.047 -94.609)" fill="url(#linear-gradient)"/>
    <path id="Path_538" data-name="Path 538" d="M223.785,218.658h-27.7c.944,4.629,3.242,8.348,8.579,7.342,4.852-.913,5.014-6.74,5.764-6.806,4.22,1.892,8.857,2.785,13.147,4.452.594.231.8-.339.684.755-.736,7.221-7.836,12.4-14.453,13.767-13.6,2.818-27.172-2.461-30.112-16.968-8.075-39.842,50.842-41.794,44.087-2.543m-27.192-9.064h9.82a6.916,6.916,0,0,0,1.795-.785c-1.037-8.619-11.225-7.178-11.614.785" transform="translate(-88.83 -94.445)" fill="url(#linear-gradient)"/>
    <path id="Path_539" data-name="Path 539" d="M470.02,190.751c18.406-2,29.2,10.112,27.156,28.163-3.1,27.3-45.1,27.095-47.131-1.939-.938-13.419,6-24.709,19.975-26.224m7.5,14.109a5.794,5.794,0,0,0-8.123.879c-2.883,3.86-3.245,18.479,2.7,19.894,9.921,2.359,9.671-16.917,5.42-20.773" transform="translate(-223.377 -94.589)" fill="url(#linear-gradient)"/>
    <path id="Path_540" data-name="Path 540" d="M23.667,168.668V180.25H38.774v12.589H23.667l-2.032,17.9c.016,2.057.151,4.545,2.773,4.265,2.749-.294,2.9-6.92,3.29-9.074l12.088,3.534C38.43,223.16,30.013,230.623,16,227.445c-16.575-3.76-9.687-22.626-9.453-34.608l-6.548,0V181.005c0-1.265,5.872-.607,7.052-.753l.049-8.01Z" transform="translate(0 -83.733)" fill="url(#linear-gradient)"/>
    <path id="Path_541" data-name="Path 541" d="M667.668,168.668V180.25h15.107v12.589H667.668l-2.032,17.9c.016,2.057.151,4.545,2.773,4.265,2.749-.294,2.9-6.92,3.29-9.074l12.088,3.534c-1.356,13.7-9.773,21.161-23.784,17.983-16.575-3.76-9.687-22.626-9.453-34.608l-6.548,0V181.005c0-1.265,5.872-.607,7.052-.753l.049-8.01Z" transform="translate(-319.705 -83.733)" fill="url(#linear-gradient)"/>
  </g>
</svg>
