<svg xmlns="http://www.w3.org/2000/svg" xmlns:xlink="http://www.w3.org/1999/xlink" width="951.238" height="80.125" viewBox="0 0 951.238 80.125">
  <defs>
    <linearGradient id="linear-gradient" x1="0.5" x2="0.5" y2="1" gradientUnits="objectBoundingBox">
      <stop offset="0" stop-color="#002e54"/>
      <stop offset="1" stop-color="#092f87"/>
    </linearGradient>
  </defs>
  <g id="Group_498" data-name="Group 498" transform="translate(-2234.483 -6998.345)">
    <g id="Group_496" data-name="Group 496" transform="translate(2234.483 6998.345)">
      <g id="Group_281" data-name="Group 281" transform="translate(0 0)">
        <path id="Path_479" data-name="Path 479" d="M386.362,6.137V18.529h16.163V32H386.362l-2.174,19.151c.017,2.2.161,4.863,2.967,4.563,2.942-.315,3.107-7.4,3.52-9.709l12.933,3.781c-1.4,14.827-10.882,22.865-25.883,19.137C360.491,64.638,367.839,44.6,368.046,32c-1.029.176-6.251-.238-6.469,0s.425,1.608-.329,2.218c-.473.383-10.619,4.888-11.209,4.739-1.358-1.332-1.22-3.389-2.458-4.93-2.485-3.091-10.09-4.98-13.454-2.808-2.24,1.446-2.332,3.339.137,4.66,3.572,1.911,11.3,1.93,15.883,3.513,9.278,3.2,13.546,11.256,9.539,20.62-6.145,14.362-36.8,12.253-41.669-2.886.313-1.655,10.662-5.677,10.7-7.609-15.832-3.649-16.632-23.795-1.614-29.63,9.525-3.7,22.212-2.452,29.915,4.551l4.02,5.947V19.337c0-1.353,6.283-.65,7.545-.805l.052-8.57ZM329.253,49.782c.921,5.884,10.171,9.5,14.935,6.581,1.916-1.173,1.772-3.349-.26-4.29-3.392-1.571-10.766-.511-14.675-2.291" transform="translate(-145.899 -2.831)" fill="url(#linear-gradient)"/>
        <path id="Path_480" data-name="Path 480" d="M37.888,63.364c-.142.9,1.3.576,1.9.558,2.059-.064,3.71-.679,5.893-.561,9.291.5,10.91,7.174,12.14,15.079L42.707,80.374c-1.754-5.29-1.622-11.953-8.452-13.114-4.362-.741-8.282-.167-13.065-1.482C2.706,60.694-2.687,40.744,1.177,23.686c7.472-32.988,57.884-30,60.945,4.392,1.557,17.494-4.75,33.838-24.233,35.286M30.752,16.089c-12.179.444-12.9,18.138-10.377,26.8,2.916,10.023,15.5,12.216,20.3,3.06,4.651-8.866,3.768-30.357-9.925-29.858" transform="translate(0 -0.249)" fill="url(#linear-gradient)"/>
        <path id="Path_482" data-name="Path 482" d="M142.1,29.137v32.6c0,2.049,1.892,4.787,4.169,5,4.831.462,5.551-6.39,6.06-9.862,1.14-7.775,1.161-15.839,2.229-23.632.11-.8.591-4.107,1.281-4.107h16.7c.408,0,1.039,1.231.779,1.8l-4.311,32.967c.571,5.256,7.177.358,7.57.791-.627,3.726,2.306,9.71-.8,12.394-5.9,5.1-18.556,4.445-21.712-3.621l-1.724-5.541C151.113,81.619,131.729,85.15,126,72.979a37.215,37.215,0,0,1-1.684-4.781V29.137Z" transform="translate(-57.34 -13.439)" fill="url(#linear-gradient)"/>
        <path id="Path_483" data-name="Path 483" d="M674.424,78.739H656.645c-.135-.818-.456-1.576-.542-2.416-.863-8.483-.3-17.851-1.083-26.4-.325-3.556-1.333-9.75-6.48-8.127-1.912.6-4.286,4.754-4.286,6.5v30.44H626.474c-.508-16.684,1.474-33.75-2.155-50.106H641.29c1.519,0,1.692,10.232,1.891,11.85l4.03-7.007c5.021-6.9,18.145-7.516,22.816-.177,4.272,6.713,3.514,24.916,3.864,33.311.163,3.892.979,8.068.533,12.128" transform="translate(-287.955 -12.935)" fill="url(#linear-gradient)"/>
        <path id="Path_484" data-name="Path 484" d="M270.24,58.114H240.608c1.01,4.952,3.469,8.931,9.179,7.856,5.192-.977,5.365-7.211,6.167-7.282,4.515,2.025,9.476,2.979,14.066,4.764.636.247.851-.363.732.808-.787,7.726-8.384,13.263-15.464,14.73C240.734,82,226.215,76.356,223.07,60.835c-8.639-42.627,54.4-44.716,47.17-2.721m-29.094-9.7h10.506a7.4,7.4,0,0,0,1.92-.84c-1.109-9.222-12.01-7.68-12.426.84" transform="translate(-102.511 -12.783)" fill="url(#linear-gradient)"/>
        <path id="Path_486" data-name="Path 486" d="M547.742,28.235C567.434,26.1,578.987,39.054,576.8,58.367c-3.313,29.2-48.255,28.989-50.426-2.075-1-14.357,6.422-26.436,21.371-28.057m8.026,15.1a6.2,6.2,0,0,0-8.691.941c-3.085,4.13-3.472,19.771,2.893,21.285,10.614,2.524,10.347-18.1,5.8-22.225" transform="translate(-242.737 -12.917)" fill="url(#linear-gradient)"/>
        <path id="Path_487" data-name="Path 487" d="M771.741,28.235C791.434,26.1,802.987,39.054,800.8,58.367c-3.313,29.2-48.255,28.989-50.426-2.075-1-14.357,6.422-26.436,21.371-28.057m8.026,15.1a6.2,6.2,0,0,0-8.691.941c-3.085,4.13-3.472,19.771,2.893,21.285,10.614,2.524,10.347-18.1,5.8-22.225" transform="translate(-346.053 -12.917)" fill="url(#linear-gradient)"/>
        <path id="Path_489" data-name="Path 489" d="M852.7,31.385c-1.4-.222-5.5.541-6.23-.5-.345-.5-.46-11.165-.159-12.081.615-1.88,5.192-.261,6.313-.959.731-.456.5-3.888.742-4.916,2.322-10.011,15.761-11.284,24.1-12.789L881.254,13.6c-2.787.186-7.225.62-9.7,1.884-1.207.616-1.879.769-1.611,2.43h11.853V31.385H871.019V65.866H852.7Z" transform="translate(-390.265 -0.063)" fill="url(#linear-gradient)"/>
        <path id="Path_490" data-name="Path 490" d="M502.637,34.137V81.549H484.319V34.137c1.9.516,3.313,2.04,5.357,2.456a18.391,18.391,0,0,0,9.176-.584c1.456-.52,2.341-1.659,3.785-1.872" transform="translate(-223.383 -15.745)" fill="url(#linear-gradient)"/>
        <path id="Path_491" data-name="Path 491" d="M500.326,16.054c-5.143,5.164-16.29,2.655-17.059-5.473-1.42-15,23.07-13.742,19.031,1.787a11.29,11.29,0,0,1-1.972,3.686" transform="translate(-222.87 0)" fill="url(#linear-gradient)"/>
      </g>
    </g>
    <g id="Group_497" data-name="Group 497" transform="translate(2751.473 6998.345)">
      <path id="Path_492" data-name="Path 492" d="M1041.1,2.137c-.09,8.822.5,17.69-1.072,26.4l3.1-5.778c4.933-8.251,19.67-9.406,24.3-.35,3.234,6.32,3.509,27.419,3.858,35.472.128,2.952-.537,6.162.517,8.912H1053.49a28.164,28.164,0,0,0-.535-2.966c-.776-8.563-.315-17.806-1.089-26.389-.32-3.548-1.547-9.142-6.481-7.587-2.185.689-4.286,5.011-4.286,7.041v29.9h-17.779V2.137Z" transform="translate(-978.062 -0.919)" fill="url(#linear-gradient)"/>
      <path id="Path_493" data-name="Path 493" d="M1166.24,58.114h-29.632c1.01,4.952,3.469,8.931,9.179,7.856,5.192-.977,5.365-7.211,6.167-7.282,4.515,2.025,9.476,2.979,14.066,4.764.636.247.851-.363.732.808-.787,7.726-8.384,13.263-15.464,14.73-14.554,3.015-29.072-2.633-32.217-18.154-8.639-42.627,54.4-44.716,47.17-2.721m-29.094-9.7h10.506a7.411,7.411,0,0,0,1.92-.84c-1.109-9.222-12.01-7.68-12.426.84" transform="translate(-1021.85 -12.716)" fill="url(#linear-gradient)"/>
      <path id="Path_494" data-name="Path 494" d="M964.641,6.137V18.529H980.8V32H964.641l-2.175,19.151c.017,2.2.162,4.863,2.967,4.563,2.942-.315,3.107-7.4,3.52-9.709l12.933,3.781c-1.451,14.655-10.456,22.64-25.447,19.24C938.705,65,946.075,44.816,946.325,32l-7.006,0V19.337c0-1.353,6.282-.65,7.545-.805l.052-8.57Z" transform="translate(-939.319 -2.764)" fill="url(#linear-gradient)"/>
      <path id="Path_495" data-name="Path 495" d="M1272.413,2.137l7.273,39.336,8.082-39.336h28.824V66.789h-18.857L1298,22.066l-10.835,44.756-17.4-.086-10.822-44.662.533,44.715h-16.163V2.137Z" transform="translate(-1085.46 -2.137)" fill="url(#linear-gradient)"/>
      <path id="Path_496" data-name="Path 496" d="M1684.1,2.137c-.09,8.822.5,17.69-1.072,26.4l3.1-5.778c4.933-8.251,19.669-9.406,24.3-.35,3.234,6.32,3.509,27.419,3.858,35.472.128,2.952-.537,6.162.517,8.912H1696.49a28.165,28.165,0,0,0-.536-2.966c-.776-8.563-.314-17.806-1.089-26.389-.32-3.548-1.547-9.142-6.481-7.587-2.185.689-4.287,5.011-4.287,7.041v29.9h-17.779V2.137Z" transform="translate(-1280.56 -2.137)" fill="url(#linear-gradient)"/>
      <path id="Path_497" data-name="Path 497" d="M1536.425,78.739h-17.779c-.135-.818-.456-1.576-.542-2.416-.863-8.483-.3-17.851-1.083-26.4-.325-3.556-1.333-9.75-6.48-8.127-1.912.6-4.286,4.754-4.286,6.5v30.44h-17.78c-.508-16.684,1.474-33.75-2.155-50.106h16.971c1.519,0,1.692,10.232,1.891,11.85l4.03-7.007c5.022-6.9,18.144-7.516,22.816-.177,4.273,6.713,3.513,24.916,3.864,33.311.163,3.892.979,8.068.533,12.128" transform="translate(-1197.539 -14.087)" fill="url(#linear-gradient)"/>
      <path id="Path_498" data-name="Path 498" d="M1409.741,28.235c19.693-2.136,31.246,10.818,29.055,30.132-3.313,29.2-48.255,28.989-50.426-2.075-1-14.357,6.422-26.436,21.371-28.057m8.026,15.1a6.2,6.2,0,0,0-8.691.941c-3.084,4.13-3.472,19.771,2.893,21.285,10.614,2.524,10.348-18.1,5.8-22.225" transform="translate(-1152.32 -14.068)" fill="url(#linear-gradient)"/>
      <path id="Path_499" data-name="Path 499" d="M1607.641,6.137V18.529H1623.8V32h-16.163l-2.175,19.151c.017,2.2.162,4.863,2.967,4.563,2.942-.315,3.106-7.4,3.52-9.709l12.933,3.781c-1.451,14.655-10.456,22.64-25.447,19.24C1581.705,65,1589.075,44.816,1589.325,32l-7.006,0V19.337c0-1.353,6.282-.65,7.545-.805l.052-8.57Z" transform="translate(-1241.817 -3.982)" fill="url(#linear-gradient)"/>
    </g>
  </g>
</svg>
