<svg id="Group_95" data-name="Group 95" xmlns="http://www.w3.org/2000/svg" xmlns:xlink="http://www.w3.org/1999/xlink" width="968" height="36.824" viewBox="0 0 968 36.824">
  <defs>
    <clipPath id="clip-path">
      <rect id="Rectangle_117" data-name="Rectangle 117" width="968" height="36.824" fill="none"/>
    </clipPath>
  </defs>
  <g id="Group_94" data-name="Group 94" transform="translate(0 0)" clip-path="url(#clip-path)">
    <path id="Path_154" data-name="Path 154" d="M108.644.268l5.338,17.45,5.04-17.4,8.462-.013,5.2,17.773L137.848.268h7.835L137.1,29.437l-8.833,0-5.2-18.131L118.09,29.125c-.607.82-6.8.087-8.215.371L100.809.268Z" transform="translate(86.173 0.229)" fill="#1a1818"/>
    <path id="Path_155" data-name="Path 155" d="M311.214.268l5.338,17.45,5.04-17.4,8.462-.013,5.2,17.773L340.418.268h7.835L339.67,29.437l-8.833,0-5.2-18.131L320.66,29.125c-.607.82-6.8.087-8.215.371L303.379.268Z" transform="translate(259.333 0.229)" fill="#1a1818"/>
    <path id="Path_156" data-name="Path 156" d="M175,.269a14.544,14.544,0,0,1,3.749,1.949c5.861,4.528,3.936,14.983-3.569,16.389l7.477,10.864h-8.191l-6.918-10.352c-.9-.651-2.333-.228-3.409-.332V29.471H156.3V.269ZM164.135,12.733H172.5c1.9,0,2.78-4.166,1.237-5.511a13.812,13.812,0,0,0-1.949-.9h-7.657Z" transform="translate(133.608 0.229)" fill="#1a1818"/>
    <path id="Path_157" data-name="Path 157" d="M40.873.2C52.334-1.185,61.321,6.579,59.017,18.348,55.53,36.165,25.41,33.75,28.58,11.772,29.422,5.928,35.123.9,40.873.2m1.773,6.761c-8.719,1.17-8.844,15.035,0,16.2,11.986,1.571,11.912-17.8,0-16.2" transform="translate(24.231 0.037)" fill="#e0091c"/>
    <path id="Path_158" data-name="Path 158" d="M37.419.268V6.5a3.548,3.548,0,0,1-.534.534H22.818v4.273H35.994v6.766H22.818v4.631H37.241a3.548,3.548,0,0,1,.534.534v6.232H14.981V.268Z" transform="translate(12.806 0.229)" fill="#e0091c"/>
    <path id="Path_159" data-name="Path 159" d="M402.84,9.758h-7.835c-.195,0-.057-2.166-2.04-3.124-4.442-2.142-10.07,2.025-4.925,3.856,5.435,1.933,14.377.762,15.158,9.059,1.315,13.963-25.474,14.384-24.932.536h7.3c.289,0,.992,3.43,3.94,3.9,2.361.371,8.221-.837,5.505-3.724-1.345-1.428-8.157-2.029-10.582-2.951-8.406-3.2-7.568-14.076.673-16.558,7.056-2.126,17.574.108,17.736,9.011" transform="translate(323.34 0)" fill="#1a1818"/>
    <path id="Path_160" data-name="Path 160" d="M24.582,9.758H16.747c-.195,0-.057-2.166-2.04-3.124C10.265,4.492,4.637,8.66,9.783,10.491c5.435,1.933,14.377.762,15.158,9.059C26.255,33.513-.534,33.934.008,20.085h7.3c.289,0,.992,3.43,3.94,3.9,2.361.371,8.221-.837,5.5-3.724C15.41,18.828,8.6,18.227,6.173,17.305-2.233,14.1-1.395,3.229,6.846.747,13.9-1.378,24.421.855,24.582,9.758" transform="translate(0 0)" fill="#e0091c"/>
    <path id="Path_161" data-name="Path 161" d="M343.893,29.553,354.388.7c.278-.358.666-.319,1.059-.365a55.355,55.355,0,0,1,8.226-.007c1.553.191,9.374,26.055,11.2,29.23h-7.835c-.71-1.2-1.1-4.207-1.74-5.13-.371-.53-10.036-.076-11.567-.163-.594.2-1.912,4.34-2.007,5.294Zm18.875-11.4L359.384,7.826l-3.739,10.331Z" transform="translate(293.965 0.148)" fill="#1a1818"/>
    <path id="Path_162" data-name="Path 162" d="M160.8.268v29.2h-6.768c-.106,0,.082-1.829,0-2.137a9.781,9.781,0,0,1-16.131-4.7c-3.046-10.582,5.733-20.2,15.777-13.464V.268Zm-12.919,13.26c-4.414.892-4.442,9.454.632,9.907,7.2.642,6.8-11.407-.632-9.907" transform="translate(117.355 0.229)" fill="#1a1818"/>
    <path id="Path_163" data-name="Path 163" d="M78.527.268v8.9c3.437-3.2,10-3.122,12.539,1.172a15.181,15.181,0,0,1,1.35,4.348V29.472H84.937V15.047c0-2.565-6.41-2.565-6.41,0V29.472H71.048V.268Z" transform="translate(60.733 0.229)" fill="#1a1818"/>
    <path id="Path_164" data-name="Path 164" d="M244.91,12.522c-1.068-10.059,16.7-11.42,20.01-3.806,1.143,2.632.215,11.244.646,11.643.083.078,2.139-.191,2.139.532v5.522h-5.166c-1.148,0-3.083-2.191-3.513-2.114-.306.056-1.013,1.041-1.528,1.345-4.752,2.8-13.177.905-12.778-5.657.384-6.3,8.944-6.774,13.726-7.108.916-3.443-3.634-4.784-5.692-3.02-.7.6-.742,2.664-1.254,2.664Zm13.533,4.986c-1.48.091-5.87.438-6.351,2.031-1.243,4.125,7.994,3.055,6.351-2.031" transform="translate(209.178 3.29)" fill="#1a1818"/>
    <path id="Path_165" data-name="Path 165" d="M532.4,17.5H517.087c.408,3.194,3.274,4.123,6.145,3.467,1.068-.245,1.74-1.686,1.868-1.686h6.944c-1.289,6.267-7.432,8.224-13.262,7.386-13.292-1.91-12.689-25.166,5.156-22.606,3.559.51,8.462,4.524,8.462,8.276Zm-7.123-4.63c-.133-5.106-7.618-4.945-8.191,0Z" transform="translate(435.6 3.3)" fill="#1a1818"/>
    <path id="Path_166" data-name="Path 166" d="M450.028,17.5H434.715c.408,3.194,3.274,4.123,6.145,3.467,1.068-.245,1.74-1.686,1.868-1.686h6.944c-1.289,6.267-7.432,8.224-13.262,7.386-13.292-1.91-12.689-25.166,5.156-22.606,3.559.51,8.462,4.524,8.462,8.276Zm-7.122-4.63c-.134-5.106-7.618-4.945-8.191,0Z" transform="translate(365.187 3.3)" fill="#1a1818"/>
    <path id="Path_167" data-name="Path 167" d="M415.467,17.5H400.154c.408,3.194,3.274,4.123,6.145,3.467,1.068-.245,1.74-1.686,1.868-1.686h6.944c-1.289,6.267-7.432,8.224-13.262,7.386C388.558,24.754,389.16,1.5,407.006,4.058c3.559.51,8.462,4.524,8.462,8.276Zm-7.122-4.63c-.134-5.106-7.618-4.945-8.191,0Z" transform="translate(335.644 3.3)" fill="#1a1818"/>
    <path id="Path_168" data-name="Path 168" d="M349.415,17.5H334.1c.408,3.194,3.274,4.123,6.145,3.467,1.068-.245,1.74-1.686,1.868-1.686h6.944c-1.289,6.267-7.432,8.224-13.262,7.386-13.292-1.91-12.689-25.166,5.156-22.606,3.559.51,8.462,4.524,8.462,8.276Zm-7.122-4.63c-.134-5.106-7.618-4.945-8.191,0Z" transform="translate(279.182 3.3)" fill="#1a1818"/>
    <path id="Path_169" data-name="Path 169" d="M300.069,17.5H284.756c.408,3.194,3.274,4.123,6.145,3.467,1.068-.245,1.74-1.686,1.868-1.686h6.944c-1.289,6.267-7.432,8.224-13.262,7.386C273.16,24.754,273.762,1.5,291.608,4.058c3.559.51,8.462,4.524,8.462,8.276Zm-7.123-4.63c-.134-5.106-7.618-4.945-8.191,0Z" transform="translate(237 3.3)" fill="#1a1818"/>
    <path id="Path_170" data-name="Path 170" d="M219.617,17.5H204.3c.408,3.194,3.274,4.123,6.145,3.467,1.068-.245,1.74-1.686,1.868-1.686h6.944c-1.289,6.267-7.432,8.224-13.262,7.386C192.708,24.754,193.31,1.5,211.156,4.058c3.559.51,8.462,4.524,8.462,8.276Zm-7.123-4.63c-.134-5.106-7.618-4.945-8.191,0Z" transform="translate(168.228 3.3)" fill="#1a1818"/>
    <path id="Path_171" data-name="Path 171" d="M106.332,17.5H91.019c.408,3.194,3.274,4.123,6.145,3.467,1.068-.245,1.74-1.686,1.868-1.686h6.944c-1.289,6.267-7.432,8.224-13.262,7.386C79.423,24.754,80.025,1.5,97.871,4.058c3.559.51,8.462,4.524,8.462,8.276Zm-7.123-4.63c-.134-5.106-7.618-4.945-8.191,0Z" transform="translate(71.391 3.3)" fill="#1a1818"/>
    <path id="Path_172" data-name="Path 172" d="M487.8,23.777c-6.638-6.445-2.973-18.841,6.468-19.815,18.374-1.892,18.407,24.682,0,22.785a12.43,12.43,0,0,1-6.468-2.97m7.256-13.325c-4.157.853-4.528,8.293-.519,9.614,8,2.638,8.5-11.251.519-9.614" transform="translate(414.088 3.304)" fill="#1a1818"/>
    <path id="Path_173" data-name="Path 173" d="M174.053,23.777c-6.638-6.445-2.973-18.841,6.468-19.815,18.374-1.892,18.407,24.682,0,22.785a12.43,12.43,0,0,1-6.468-2.97m7.256-13.325c-4.157.853-4.528,8.293-.519,9.614,8,2.638,8.5-11.251.519-9.614" transform="translate(145.895 3.304)" fill="#1a1818"/>
    <path id="Path_174" data-name="Path 174" d="M234.728,23.777c-6.638-6.445-2.973-18.841,6.468-19.815,18.374-1.892,18.407,24.682,0,22.785a12.43,12.43,0,0,1-6.468-2.97m7.256-13.325c-4.157.853-4.528,8.293-.519,9.614,8,2.638,8.5-11.251.519-9.614" transform="translate(197.761 3.304)" fill="#1a1818"/>
    <path id="Path_175" data-name="Path 175" d="M462.353,4.3l4.277,13.177L471.79,4.3h6.944l-8.6,23.276c-.671,1.128-1.283,2.925-2.259,3.795a19.94,19.94,0,0,1-3.567,1.777h-6.944V27.095c1.892-.236,4.5.822,5.574-1.241L454.874,4.3Z" transform="translate(388.833 3.676)" fill="#1a1818"/>
    <path id="Path_176" data-name="Path 176" d="M81.578.268V7.034H73.031V29.472H65.552V7.034H57.181a3.548,3.548,0,0,1-.534-.534V.268Z" transform="translate(48.423 0.229)" fill="#1a1818"/>
    <path id="Path_177" data-name="Path 177" d="M428.725,13.262h-6.944c-.308,0-.788-1.408-1.094-1.755a4.514,4.514,0,0,0-4.229-1.072c-4.993.822-4.318,12.225,2.99,9.753,1.284-.432,2.081-2.652,2.333-2.652h6.944c-1.289,12.7-20.974,12.483-22.7-.269-2.1-15.525,20.611-18.6,22.7-4" transform="translate(346.959 3.262)" fill="#1a1818"/>
    <path id="Path_178" data-name="Path 178" d="M240.94,13.262H234c-.308,0-.788-1.408-1.094-1.755a4.514,4.514,0,0,0-4.229-1.072c-4.993.822-4.318,12.225,2.99,9.753,1.284-.432,2.081-2.652,2.333-2.652h6.944c-1.289,12.7-20.974,12.483-22.7-.269-2.1-15.525,20.611-18.6,22.7-4" transform="translate(186.437 3.262)" fill="#1a1818"/>
    <path id="Path_179" data-name="Path 179" d="M277.077,11.126H270.31c-.087,0-.1-1.046-.723-1.593-1.5-1.3-5.652-1.363-4.991,1.358.185.766,7.13,1.949,8.558,2.556,3.059,1.3,4.682,3.673,4.248,7.087-1.128,8.864-19.917,8.547-19.913-1.217h6.234c.328,0,.831,1.684,1.46,2.1,3.1,2.061,7.915-.844,4.259-2.478-3.71-1.658-10.756-.325-11.563-6.241-1.53-11.235,18.021-11.871,19.2-1.573" transform="translate(220.105 3.262)" fill="#1a1818"/>
    <path id="Path_180" data-name="Path 180" d="M480.95.268V22.706h11.574a3.465,3.465,0,0,1,.534.534v6.232H473.115V.268Z" transform="translate(404.426 0.229)" fill="#1a1818"/>
    <path id="Path_181" data-name="Path 181" d="M504.4,4.3l4.277,12.82L513.84,4.3h6.944l-7.295,21.373c-.608.733-7.339.3-8.745.189L496.924,4.3Z" transform="translate(424.779 3.676)" fill="#1a1818"/>
    <path id="Path_182" data-name="Path 182" d="M278.925,1.036V7.09H283.2v5.7h-4.273v9.439c0,.846,3.515.464,4.273.534v6.054h-7.3c-1.157,0-4.1-2.536-4.1-3.739V12.788c0-.178-3.561.178-3.561,0V7.09c0-.178,3.561.178,3.561,0V1.036Z" transform="translate(229.297 0.885)" fill="#1a1818"/>
    <path id="Path_183" data-name="Path 183" d="M450.582,1.036V7.09h4.274v5.7h-4.274v9.439c0,.846,3.513.464,4.274.534v6.054h-7.3c-1.156,0-4.1-2.536-4.1-3.739V12.788c0-.178-3.561.178-3.561,0V7.09c0-.178,3.561.178,3.561,0V1.036Z" transform="translate(376.032 0.885)" fill="#1a1818"/>
    <path id="Path_184" data-name="Path 184" d="M456.977.268V22.884c0,.822,2.493.4,2.493.534v6.054h-5.876a12.9,12.9,0,0,1-2.834-1.8,10.412,10.412,0,0,1-1.261-3.724V.268Z" transform="translate(384.238 0.229)" fill="#1a1818"/>
    <path id="Path_185" data-name="Path 185" d="M138.818.268V22.884c0,.822,2.493.4,2.493.534v6.054h-5.876a12.9,12.9,0,0,1-2.834-1.8,10.412,10.412,0,0,1-1.261-3.724V.268Z" transform="translate(112.271 0.229)" fill="#1a1818"/>
    <path id="Path_186" data-name="Path 186" d="M192,.268V22.884c0,.822,2.493.4,2.493.534v6.054H188.62a12.9,12.9,0,0,1-2.834-1.8,10.413,10.413,0,0,1-1.261-3.724V.268Z" transform="translate(157.735 0.229)" fill="#1a1818"/>
    <path id="Path_187" data-name="Path 187" d="M198.341.268V22.884c0,.822,2.493.4,2.493.534v6.054h-5.876a12.9,12.9,0,0,1-2.834-1.8,10.412,10.412,0,0,1-1.261-3.724V.268Z" transform="translate(163.152 0.229)" fill="#1a1818"/>
    <path id="Path_188" data-name="Path 188" d="M368.845.268V22.884c0,.822,2.493.4,2.493.534v6.054h-5.876a12.9,12.9,0,0,1-2.834-1.8,10.412,10.412,0,0,1-1.261-3.724V.268Z" transform="translate(308.901 0.229)" fill="#1a1818"/>
    <path id="Path_189" data-name="Path 189" d="M375.181.268V22.884c0,.822,2.493.4,2.493.534v6.054H371.8a12.9,12.9,0,0,1-2.834-1.8,10.412,10.412,0,0,1-1.261-3.724V.268Z" transform="translate(314.317 0.229)" fill="#1a1818"/>
    <path id="Path_190" data-name="Path 190" d="M433.79,3.919v7.122c-1.5.187-3.958.224-5.244.989a5.062,5.062,0,0,0-1.523,2.038V26.357h-7.479V4.632h7.122c.211.829-.466,2.736.351,3.2.8-2.856,4.062-4.008,6.772-3.916" transform="translate(358.634 3.345)" fill="#1a1818"/>
    <path id="Path_191" data-name="Path 191" d="M224.692,3.919v7.122c-1.5.187-3.958.224-5.244.989a5.061,5.061,0,0,0-1.523,2.038V26.357h-7.479V4.632h7.122c.211.829-.466,2.736.351,3.2.8-2.856,4.062-4.008,6.772-3.916" transform="translate(179.893 3.345)" fill="#1a1818"/>
    <path id="Path_192" data-name="Path 192" d="M305.144,3.919v7.122c-1.5.187-3.958.224-5.244.989a5.062,5.062,0,0,0-1.523,2.038V26.357H290.9V4.632h7.123c.211.829-.466,2.736.351,3.2.805-2.856,4.062-4.008,6.772-3.916" transform="translate(248.665 3.345)" fill="#1a1818"/>
    <rect id="Rectangle_113" data-name="Rectangle 113" width="7.479" height="21.725" transform="translate(233.282 7.976)" fill="#1a1818"/>
    <rect id="Rectangle_114" data-name="Rectangle 114" width="7.835" height="7.479" transform="translate(86.551 22.223)" fill="#e0091c"/>
    <rect id="Rectangle_115" data-name="Rectangle 115" width="7.835" height="7.479" transform="translate(86.551 7.976)" fill="#e0091c"/>
    <rect id="Rectangle_116" data-name="Rectangle 116" width="7.479" height="5.342" transform="translate(233.282 0.497)" fill="#1a1818"/>
  </g>
</svg>
