<svg xmlns="http://www.w3.org/2000/svg" xmlns:xlink="http://www.w3.org/1999/xlink" width="593.334" height="88.567" viewBox="0 0 593.334 88.567">
  <defs>
    <clipPath id="clip-path">
      <rect id="Rectangle_230" data-name="Rectangle 230" width="550.526" height="40.987"/>
    </clipPath>
    <clipPath id="clip-path-2">
      <rect id="Rectangle_346" data-name="Rectangle 346" width="202.307" height="33.368"/>
    </clipPath>
    <clipPath id="clip-path-3">
      <rect id="Rectangle_352" data-name="Rectangle 352" width="593.334" height="35.678" fill="#e0091c"/>
    </clipPath>
  </defs>
  <g id="Group_504" data-name="Group 504" transform="translate(-343 -10131.928)">
    <g id="Group_252" data-name="Group 252" transform="translate(365 10131.928)">
      <g id="Group_251" data-name="Group 251" clip-path="url(#clip-path)">
        <path id="Path_393" data-name="Path 393" d="M844.538,58.064c.4.129,1.1,1.758,3.369,2.065,3.966.539,6.266-1.262,5.726-5.372-.339-.033-.207.326-.522.552-2.53,1.818-7.11,1.6-9.938.574-9.374-3.387-9.508-18.79-.294-22.4,3.458-1.355,8.818-1.1,11.111,2.134.3-.011,0-2.365.118-2.365h7.562V57.71c0,5.038-5.97,7.844-10.271,8.162-6.338.469-13.5-.557-15.014-7.807Zm3.369-18.133c-3.26.461-4.32,3.582-3.563,6.511,1.09,4.216,8.756,4.089,9.292-.783.427-3.883-1.775-6.288-5.729-5.728" transform="translate(-638.489 -24.981)"/>
        <path id="Path_394" data-name="Path 394" d="M275.488,35l3.429,12.289,3.934-11.9.19-.283h8.054l4.241,12.18L298.647,35h8.034l-7.075,24.236a58.185,58.185,0,0,1-7.471.117c-.26-.032-.525.013-.7-.246l-4.109-13.613-.493-.334L282.7,59.107c-.48.578-6.621.035-7.811.249L267.454,35Z" transform="translate(-204.253 -26.729)"/>
        <path id="Path_395" data-name="Path 395" d="M8.615,0V21.15a7.73,7.73,0,0,0,1.538,3.189c2.177,2.1,7.307,1.969,9.056-.629a10.317,10.317,0,0,0,.985-2.323V0H28.7V20.913c0,6.3-5.712,11.539-11.726,12.141C6.627,34.09.623,29.094.1,18.8-.217,12.63.353,6.192.107,0Z" transform="translate(0)"/>
        <path id="Path_397" data-name="Path 397" d="M459.427,50.782V57.4h-5.081a12.514,12.514,0,0,1-2.561-.984,18.507,18.507,0,0,1-1.693-1.612c-3.146,5.019-14.847,3.9-15.894-2.305-1.53-9.07,8.78-9.416,15.064-10.226.888-5.222-7.352-5.513-7.323-.47h-7.8c-.146-8.923,11.134-10.944,17.785-8.214,7.252,2.977,4.975,10.548,5.407,16.806.216.658,1.516.318,2.094.388m-10.161-3.31c-1.785.22-6.558.332-7.044,2.535-.8,3.609,5.647,3.417,6.824.437a8.886,8.886,0,0,0,.22-2.973" transform="translate(-331.477 -24.788)"/>
        <path id="Path_398" data-name="Path 398" d="M1326.426,50.782V57.4h-5.081a12.512,12.512,0,0,1-2.561-.984,18.53,18.53,0,0,1-1.693-1.612c-3.146,5.019-14.847,3.9-15.894-2.305-1.53-9.07,8.78-9.416,15.064-10.226.887-5.222-7.352-5.513-7.323-.47h-7.8c-.146-8.923,11.134-10.944,17.784-8.214,7.252,2.977,4.975,10.548,5.407,16.806.215.658,1.516.318,2.094.388m-10.16-3.31c-1.785.22-6.558.332-7.044,2.535-.8,3.609,5.647,3.417,6.824.437a8.885,8.885,0,0,0,.219-2.973" transform="translate(-993.598 -24.788)"/>
        <path id="Path_400" data-name="Path 400" d="M1078.708,32.825c9.6-1.152,16.405,4.871,15.383,14.674a12.338,12.338,0,0,1-10.963,10.541c-19.049,1.756-19.574-23.4-4.42-25.215m1.413,7.086c-3.582.507-4.573,4.2-3.9,7.326,1.107,5.155,9.124,5.017,9.847-.437.552-4.155-1.352-7.539-5.945-6.888" transform="translate(-815.643 -24.961)"/>
        <path id="Path_402" data-name="Path 402" d="M750.085,57.437H742.05c-.249-4.51.331-9.363.009-13.833-.218-3.03-1.212-4.787-4.6-4.341-1.133.149-2.738,1.258-2.738,2.459V57.437h-8.271V33.1h7.8l.118,3.074c2.331-5.136,11.626-4.6,14.255-.079a16.433,16.433,0,0,1,1.459,4.685Z" transform="translate(-554.788 -24.826)"/>
        <path id="Path_403" data-name="Path 403" d="M154.945,40.8h-7.089c-.127,0-.4-1.484-1.3-2.129-3.138-2.261-8.6,1.02-3.612,2.667,3.458,1.143,7.7.825,10.587,3.592,2.565,2.461,2.572,7.3.23,9.929-4.857,5.461-20.617,4.394-20.322-5.08h7.089c.143,0,.509,1.66,1.534,2.365,2.462,1.692,7.723.117,5.721-2.3-.815-.983-5.967-1.462-7.494-1.836-4.9-1.2-7.531-3.706-6.507-9.111,1.66-8.76,21.5-8.352,21.16,1.9" transform="translate(-101.905 -24.968)"/>
        <path id="Path_404" data-name="Path 404" d="M1009.7,0V5.2H1005.1a3.373,3.373,0,0,0-1.144.762,8.388,8.388,0,0,0-.156,2.546h5.671v5.908H1003.8v18.2h-8.271v-18.2h-3.072V8.034h3.073c-.01-2.689.412-5.425,2.9-6.9A15.1,15.1,0,0,1,1001.788,0Z" transform="translate(-757.93)"/>
        <path id="Path_405" data-name="Path 405" d="M605.269,6v6.853H610v6.38h-4.726V30.222a2.371,2.371,0,0,0,.354.354H610v6.617h-7.916a8.107,8.107,0,0,1-3.553-1.882A8.478,8.478,0,0,1,597,31.639V19.233h-3.544v-6.38h3.781V6Z" transform="translate(-453.216 -4.582)"/>
        <path id="Path_407" data-name="Path 407" d="M1205.286,32.845v8.034c-2.186-.27-7.562.432-7.562,3.426V57.657h-8.271V33.317h7.8V37.1l1.527-2.135a8.317,8.317,0,0,1,6.507-2.118" transform="translate(-908.377 -25.046)"/>
        <rect id="Rectangle_228" data-name="Rectangle 228" width="8.271" height="24.34" transform="translate(129.84 8.271)"/>
        <rect id="Rectangle_229" data-name="Rectangle 229" width="8.271" height="24.34" transform="translate(159.851 8.271)"/>
        <path id="Path_409" data-name="Path 409" d="M557.725,0V5.908h-7.916a2.373,2.373,0,0,1-.354-.354V0Z" transform="translate(-419.614)"/>
        <path id="Path_410" data-name="Path 410" d="M684.725,0V5.908h-7.916a2.37,2.37,0,0,1-.354-.354V0Z" transform="translate(-516.603)"/>
        <g id="Group_501" data-name="Group 501" transform="translate(343.859 7.619)">
          <g id="Group_501-2" data-name="Group 501" clip-path="url(#clip-path-2)">
            <path id="Path_950" data-name="Path 950" d="M406.105,23.193V33.368H398V.6h7.76V3.36l1.377-1.468c12.1-6.951,21.183,6.667,16.07,17.795-2.963,6.448-11.985,8.645-17.1,3.506m3.925-15.821c-5.384.779-5.215,10.612-.03,11.322,3.566.489,6.143-1.242,6.449-4.9.354-4.24-2.038-7.053-6.419-6.419" transform="translate(-329.363 0)"/>
            <path id="Path_951" data-name="Path 951" d="M118.589,15.425H101.171c.512,3.615,3.579,5.269,7.036,4.19a3.422,3.422,0,0,0,1.932-1.776h8.105c-1.71,6.369-7.308,8.746-13.544,8.285C88.34,24.912,88.563-1.346,107.788.271c8.119.683,11.91,7.561,10.8,15.154m-7.933-5.174c-.1-5.8-8.814-5.587-9.485,0Z" transform="translate(-76.855 -0.165)"/>
            <path id="Path_952" data-name="Path 952" d="M1048.589,15.425h-17.418c.512,3.615,3.579,5.269,7.036,4.19a3.423,3.423,0,0,0,1.932-1.776h8.105c-1.71,6.369-7.308,8.746-13.545,8.285-16.359-1.212-16.136-27.47,3.089-25.853,8.119.683,11.911,7.561,10.8,15.154m-7.933-5.174c-.1-5.8-8.814-5.587-9.485,0Z" transform="translate(-846.471 -0.165)"/>
            <path id="Path_953" data-name="Path 953" d="M573.333.362c9.085-.879,15.983,4.967,15.19,14.327-1.26,14.865-23.87,15.506-26.319,1.185-1.3-7.585,3.25-14.75,11.13-15.513m.684,7.238c-5.288.766-5.32,10.641.147,11.318,3.507.434,6.02-1.284,6.282-4.89.313-4.3-1.941-7.078-6.428-6.428" transform="translate(-465.066 -0.227)"/>
            <path id="Path_954" data-name="Path 954" d="M755.8,25.546h-8.278V9.594a6.5,6.5,0,0,0-.546-1.351c-1.013-1.621-4.545-1.785-5.843-.554a5.7,5.7,0,0,0-1.027,2.078v15.78H732V.713h7.588V4.162L741.2,1.98C743.732-.432,749.468-.4,752.234,1.6s3.407,5.442,3.572,8.672c.256,5.009-.206,10.239-.007,15.269" transform="translate(-605.763 -0.111)"/>
            <path id="Path_955" data-name="Path 955" d="M275.394,8.2H268.41c-.126,0-.717-1.571-1.381-2.068-1.5-1.125-6.317-1.213-5.742,1.426.177.812,1.248,1.126,1.944,1.338,4.5,1.371,11.931,1.238,12.662,7.515,1.436,12.33-20.242,12.4-22.187,2.872-.054-.266-.243-1.6.045-1.6h6.9c.925,2.6,3.064,3.272,5.676,2.917,2.631-.358,3.156-2.918.239-3.831-3.48-1.09-8.006-.642-10.915-3.4-2.364-2.241-2.386-6.662-.676-9.3,4.177-6.437,20.513-5.345,20.421,4.124" transform="translate(-209.861 -0.009)"/>
            <path id="Path_956" data-name="Path 956" d="M906.394,8.2H899.41c-.126,0-.717-1.571-1.381-2.068-1.5-1.125-6.317-1.213-5.742,1.426.177.812,1.248,1.126,1.944,1.338,4.5,1.371,11.931,1.238,12.662,7.515,1.436,12.33-20.242,12.4-22.187,2.872-.054-.266-.243-1.6.045-1.6h6.9c.925,2.6,3.064,3.272,5.676,2.917,2.631-.358,3.156-2.918.239-3.831-3.48-1.09-8.006-.642-10.915-3.4-2.364-2.241-2.386-6.662-.676-9.3,4.177-6.437,20.513-5.345,20.421,4.124" transform="translate(-732.042 -0.009)"/>
            <path id="Path_957" data-name="Path 957" d="M15.866.384V8.23c0,.121-.288.233-.431.259-.844.153-2.087.056-3.056.22A5.347,5.347,0,0,0,8.893,10.4a7.237,7.237,0,0,0-.787,1.8V25.735H0V.9H7.588V5.212L8.8,3.233A8.041,8.041,0,0,1,15.866.384" transform="translate(0 -0.3)"/>
          </g>
        </g>
      </g>
    </g>
    <g id="Group_503" data-name="Group 503" transform="translate(343 10184.817)">
      <g id="Group_502" data-name="Group 502" transform="translate(0 0)" clip-path="url(#clip-path-3)">
        <path id="Path_958" data-name="Path 958" d="M929.645,19.95V0h8.867V35.1h-9.975c-4.356-7.009-8.775-14.044-13.67-20.689V35.1H906V0h9.79Z" transform="translate(-571.28 0)" fill="#e0091c"/>
        <path id="Path_959" data-name="Path 959" d="M1388.931,4v7.389h8.867V4h8.867v7.389h5.172v6.465c0,.93-4.374.444-5.172.554V30.231c1.667.568,3.438.34,5.172.369v7.02h-9.052c-1.528,0-4.987-3.037-4.987-4.618V18.408h-8.867V30.231a14.686,14.686,0,0,0,4.8.369v7.02h-8.682c-1.89,0-4.988-3.444-4.988-5.357V18.408H1376v-7.02h4.433V4Z" transform="translate(-867.639 -2.522)" fill="#e0091c"/>
        <path id="Path_960" data-name="Path 960" d="M1085.867,23.961l3.881,12.929L1093.661,24l8.975-.059,4.47,12.956,3.513-12.933h8.867l-7.744,26.061-8.845.132-4.655-15.483-4.575,15.306c-.257.384-8.685.419-9.1-.146L1077,23.961Z" transform="translate(-679.104 -15.094)" fill="#e0091c"/>
        <path id="Path_961" data-name="Path 961" d="M491.236,0,500.1,25.492,508.231,0h9.606c-2.329,3.715-10.877,34.9-12.732,35.123-3.407.419-7.733-.33-11.246-.064L482,0Z" transform="translate(-303.926 0)" fill="#e0091c"/>
        <path id="Path_962" data-name="Path 962" d="M277.867,0V10.714c4.263-4.211,13.21-3.671,15.59,2.328a32.311,32.311,0,0,1,1.035,3.768V35.1h-8.867V18.288a9.135,9.135,0,0,0-1.114-2.21c-1.619-1.4-6.644-.743-6.644,1.841V35.1H269V0Z" transform="translate(-169.618 0)" fill="#e0091c"/>
        <path id="Path_963" data-name="Path 963" d="M733.81,31.725c-.839-12.77,23.467-13.467,24.754-2.033.226,2.006-.589,10.926.612,11.669.6.371,1.973.239,1.973.34v7.02h-6.1c-.969,0-3.614-1.921-4.066-2.954-3.266,5.458-15.635,4.246-17.014-2.2-1.234-5.762,1.8-8.335,6.858-9.809,1.524-.444,8.934-1.32,9.182-1.716a3.85,3.85,0,0,0-.359-2.679c-.822-1.481-3.053-1.556-4.557-1.312-2.963.481-2.541,3.672-2.79,3.672ZM750.066,38c-1.62.086-6.8.4-7.317,2.105-1.1,3.611,3.146,4.129,5.6,2.644,1.852-1.121,1.847-2.785,1.719-4.749" transform="translate(-462.634 -13.622)" fill="#e0091c"/>
        <path id="Path_964" data-name="Path 964" d="M1505.893,38.037h-18.472c.389,4.443,5.158,5.525,8.588,3.332.317-.2.678-1.115.833-1.115h8.313c-.57,5.04-5.655,8.457-10.516,8.88-20.761,1.805-20.919-25.463-5.146-27.313,11.229-1.317,17.237,5.215,16.4,16.216m-8.867-5.542c.193-6.148-9.327-5.959-9.606,0Z" transform="translate(-932.14 -13.654)" fill="#e0091c"/>
        <path id="Path_965" data-name="Path 965" d="M371.893,38.037H353.421c.389,4.443,5.158,5.525,8.588,3.332.317-.2.678-1.115.833-1.115h8.313c-.57,5.04-5.655,8.457-10.516,8.88-20.761,1.805-20.919-25.463-5.146-27.313,11.229-1.317,17.237,5.215,16.4,16.216M363.027,32.5c.193-6.148-9.326-5.959-9.606,0Z" transform="translate(-217.094 -13.654)" fill="#e0091c"/>
        <path id="Path_966" data-name="Path 966" d="M1030.893,38.037h-18.472c.389,4.443,5.158,5.525,8.588,3.332.317-.2.678-1.115.833-1.115h8.313c-.57,5.04-5.655,8.457-10.516,8.88-20.761,1.805-20.919-25.463-5.146-27.313,11.229-1.317,17.237,5.215,16.4,16.216m-8.867-5.542c.193-6.148-9.327-5.959-9.606,0Z" transform="translate(-632.628 -13.654)" fill="#e0091c"/>
        <path id="Path_967" data-name="Path 967" d="M1326.893,38.037h-18.472c.389,4.443,5.158,5.525,8.588,3.332.317-.2.678-1.115.833-1.115h8.313c-.57,5.04-5.655,8.457-10.516,8.88-20.761,1.805-20.919-25.463-5.146-27.313,11.229-1.317,17.237,5.215,16.4,16.216m-8.867-5.542c.193-6.148-9.327-5.959-9.606,0Z" transform="translate(-819.271 -13.654)" fill="#e0091c"/>
        <path id="Path_968" data-name="Path 968" d="M63.548,21.94c9.8-1.326,17.86,4.507,17.076,14.863-1.191,15.742-24.41,16.737-27.9,2.418-1.9-7.793,2.551-16.161,10.822-17.281m1.468,7.752c-5.808,1.07-5.688,13.056,2.782,11.643,5.994-1,5.782-13.221-2.782-11.643" transform="translate(-32.972 -13.717)" fill="#e0091c"/>
        <path id="Path_969" data-name="Path 969" d="M638.183,30.192h-8.128c-.055,0,.05-.7-.2-1.071-2.633-3.84-10.142-.424-5.336,1.624,4.509,1.922,12.766.884,13.95,7.847,2.308,13.583-23.647,14.25-23.556,1.575h7.758c.125,0,.094,1.456,1.02,2.224,2.664,2.209,8.935.422,6.206-2.247-2.883-2.819-13.858-.056-14.95-8.32-1.716-12.992,22.164-13.889,23.241-1.632" transform="translate(-387.697 -13.567)" fill="#e0091c"/>
        <path id="Path_970" data-name="Path 970" d="M1216.183,30.192h-8.128c-.055,0,.05-.7-.2-1.071-2.633-3.84-10.142-.424-5.336,1.624,4.509,1.922,12.766.884,13.95,7.847,2.308,13.583-23.647,14.25-23.556,1.575h7.758c.125,0,.094,1.456,1.02,2.224,2.664,2.209,8.935.422,6.206-2.247-2.883-2.819-13.858-.056-14.95-8.32-1.716-12.992,22.164-13.889,23.241-1.632" transform="translate(-752.156 -13.567)" fill="#e0091c"/>
        <path id="Path_971" data-name="Path 971" d="M832.167,24v6.465c0,.845-10.109,10.88-11.084,12.746h11.453v7.02H810V43.765c0-.845,10.039-10.943,11.083-12.746H810.739V24Z" transform="translate(-510.747 -15.133)" fill="#e0091c"/>
        <path id="Path_972" data-name="Path 972" d="M18.842,0V5.542c-3.2.02-7.02-.862-6.281,3.694h6.281v6.1a3.707,3.707,0,0,1-.554.554H12.561V35.1H3.694V15.886c0-.192-3.694.413-3.694-.554V8.867c.625-.1,3.553.145,3.7,0,.3-.295-.9-5.165,2.7-7.461A16.017,16.017,0,0,1,9.79,0Z" transform="translate(0 0)" fill="#e0091c"/>
        <path id="Path_973" data-name="Path 973" d="M223.931,4v7.389H229.1v7.02h-5.172V30.231c1.668.568,3.438.34,5.172.369v7.02h-9.051c-1.89,0-4.988-3.444-4.988-5.357V18.408H211v-7.02h4.433V4Z" transform="translate(-133.046 -2.522)" fill="#e0091c"/>
        <path id="Path_974" data-name="Path 974" d="M691.931,4v7.389H697.1v7.02h-5.172V30.231c1.667.568,3.438.34,5.172.369v7.02h-9.052c-1.89,0-4.988-3.444-4.988-5.357V18.408H679v-7.02h4.433V4Z" transform="translate(-428.145 -2.522)" fill="#e0091c"/>
        <path id="Path_975" data-name="Path 975" d="M1272.867,0V27.709c0,.436,3.325.2,3.325.369V35.1h-7.2c-1.893,0-4.988-3.5-4.988-5.357V0Z" transform="translate(-797.017 0)" fill="#e0091c"/>
        <path id="Path_976" data-name="Path 976" d="M152.995,21.968V30.28c0,.836-3.077.478-3.847.586-1.515.213-4.281,1.819-4.281,3.478V48.937H136V22.707h8.5c.033.919-.048,1.856,0,2.778.022.417-.241,1.013.365.913,1.044-3.261,4.953-4.63,8.133-4.43" transform="translate(-85.755 -13.84)" fill="#e0091c"/>
        <path id="Path_977" data-name="Path 977" d="M1576.995,21.968V30.28c0,.836-3.077.478-3.847.586-1.515.213-4.281,1.819-4.281,3.478V48.937H1560V22.707h8.5c.033.919-.048,1.856,0,2.778.022.417-.241,1.013.365.913,1.044-3.261,4.953-4.63,8.133-4.43" transform="translate(-983.661 -13.84)" fill="#e0091c"/>
        <rect id="Rectangle_348" data-name="Rectangle 348" width="9.049" height="26.393" transform="translate(167.409 9.05)" fill="#e0091c"/>
        <rect id="Rectangle_349" data-name="Rectangle 349" width="8.295" height="26.393" transform="translate(215.671 9.05)" fill="#e0091c"/>
        <rect id="Rectangle_350" data-name="Rectangle 350" width="8.295" height="6.033" transform="translate(215.671 0.001)" fill="#e0091c"/>
        <rect id="Rectangle_351" data-name="Rectangle 351" width="9.049" height="6.033" transform="translate(167.409 0.001)" fill="#e0091c"/>
      </g>
    </g>
  </g>
</svg>
