<svg xmlns="http://www.w3.org/2000/svg" width="805.295" height="103.554" viewBox="0 0 805.295 103.554">
  <g id="Group_50" data-name="Group 50" transform="translate(-886.977 -1086.496)">
    <path id="Path_90" data-name="Path 90" d="M242.164,213.32l6.34,22.322,6.991-22.26,11.47.288c2.342,6.116,3.28,14.715,5.941,20.482.274.6.365,1.417,1.222,1.485l6.039-22.318h10.254l-10.916,37.943-11.98.031-6.361-23.5-6.624,22.938c-1.164,1.388-9.151.172-11.406.629L231.91,213.32Z" transform="translate(655.067 937.865)" fill="#fff"/>
    <path id="Path_91" data-name="Path 91" d="M575.109,213.32l15.383,21.716V213.32h9.651v38H589.588L574.2,229v22.32h-9.653v-38Z" transform="translate(1012.504 937.864)" fill="#fff"/>
    <path id="Path_92" data-name="Path 92" d="M455.745,227.029c-.853-.243-3.133-3.861-5.711-4.541-10.58-2.788-16.277,7.114-11.97,16.208,2.985,6.3,15.374,6.487,17.38-.809H446.4v-7.842h19.3v21.716h-8.446c-.18,0,.135-3.1-.006-3.62-9.613,9.107-26.374,3.326-29.855-9.047-7.4-26.305,28.222-34.948,37.026-15.914.334.724,1.871,3.848.375,3.848-2.087,0-7.555.425-9.049,0" transform="translate(864.041 937.427)" fill="#fff"/>
    <path id="Path_93" data-name="Path 93" d="M369.945,213.486c9.053,1.415,13.159,13.54,4.527,18.395,7.217,3.543,8.443,14.126,1.145,18.04a41.381,41.381,0,0,1-3.863,1.568H347.928v-38c6.719.749,15.571-1.006,22.017,0m-11.763,14.478h9.35c1.969,0,1.969-6.033,0-6.033h-9.35Zm0,15.08H368.74c2.075,0,2.465-6.634-1.811-6.634h-8.746Z" transform="translate(779.733 937.699)" fill="#fff"/>
    <path id="Path_94" data-name="Path 94" d="M290.724,213.32V227.8h13.271V213.32h10.254v38H303.994V236.845H290.724v14.478H280.469v-38Z" transform="translate(707.246 937.864)" fill="#fff"/>
    <path id="Path_95" data-name="Path 95" d="M607.051,217.972c1.232.394,3.4,11.381,4.228,13.275,1.326.266.763-.573,1.054-1.33A64.513,64.513,0,0,0,615.822,218l10.145.058,4.61,13.8,3.921-13.881h9.651l-8.134,27.757c-.79.946-9.589.857-10.028.234-1.014-1.438-4.17-15.947-5.06-15.935-1.093,2.174-3.981,15.267-5.1,16.018-.62.415-9.167.475-9.6.2-1.238-.8-6.64-25.083-8.524-28.274Z" transform="translate(1048.124 942.863)" fill="#fff"/>
    <path id="Path_96" data-name="Path 96" d="M435.739,213.319v38H426.69c-.149,0,.114-2.539,0-3.016-8.159,8-20.816,2.614-21.733-8.726-1.11-13.754,8.562-21.527,21.135-14.8V213.319Zm-17.051,17.632c-5.591,1.137-5.724,10.431-.884,12.061,10.651,3.589,11.267-14.173.884-12.061" transform="translate(840.916 937.864)" fill="#fff"/>
    <path id="Path_97" data-name="Path 97" d="M499.709,213.319v38H490.66c-.149,0,.114-2.539,0-3.016-8.159,8-20.816,2.614-21.733-8.726-1.11-13.754,8.562-21.527,21.136-14.8V213.319Zm-17.051,17.632c-5.591,1.137-5.724,10.431-.884,12.061,10.651,3.589,11.267-14.173.884-12.061" transform="translate(909.654 937.864)" fill="#fff"/>
    <path id="Path_98" data-name="Path 98" d="M374.694,228.643c-.5-13.8,25.39-14.684,27.091-2.662.444,3.145-.672,9.595.131,11.931.514,1.492,2.63.739,2.915,1.008.307.29-.176,6.6.027,7.823-3.286-.108-6.419.6-9.358-1.205-.554-.338-1.55-1.8-1.8-1.8-.193,0-1.948,2.012-2.894,2.527-5.242,2.852-15.3.927-16.067-5.921-1.085-9.69,11.113-10.543,18.057-11.095-.021-2.753-1-4.682-3.977-4.782-5.354-.176-4.12,4.18-4.469,4.18Zm18.092,6.639c-2,.467-7.8.544-8.36,2.83-1.294,5.276,10.429,3.537,8.36-2.83" transform="translate(808.463 942.447)" fill="#fff"/>
    <path id="Path_99" data-name="Path 99" d="M298.221,228.643c-.5-13.8,25.39-14.684,27.093-2.662.442,3.145-.674,9.595.129,11.931.514,1.492,2.63.739,2.915,1.008.309.29-.176,6.6.027,7.823-3.286-.108-6.419.6-9.356-1.205-.556-.338-1.552-1.8-1.807-1.8-.193,0-1.948,2.012-2.894,2.527-5.242,2.852-15.3.927-16.067-5.921-1.085-9.69,11.113-10.543,18.059-11.095-.023-2.753-1-4.682-3.979-4.782-5.354-.176-4.12,4.18-4.468,4.18Zm18.092,6.639c-2,.467-7.8.544-8.36,2.83-1.294,5.276,10.429,3.537,8.36-2.83" transform="translate(726.29 942.447)" fill="#fff"/>
    <path id="Path_100" data-name="Path 100" d="M559.671,235.284H539.765c-.062,4.245,5.39,6.027,8.663,4.114a2.188,2.188,0,0,0,.987-1.7h9.653c-3.284,14.441-26.2,12.4-28.88-1.585-4.614-24.069,33.242-25.054,29.481-.828m-9.651-6.033c.025-6.556-9.423-6.056-10.254,0Z" transform="translate(975.16 942.443)" fill="#fff"/>
    <path id="Path_101" data-name="Path 101" d="M514.892,235.284H494.986c-.062,4.245,5.39,6.027,8.663,4.114a2.2,2.2,0,0,0,.99-1.7h9.651c-3.284,14.441-26.2,12.4-28.88-1.585-4.614-24.069,33.242-25.054,29.481-.828m-9.651-6.033c.025-6.556-9.423-6.056-10.254,0Z" transform="translate(927.044 942.443)" fill="#fff"/>
    <path id="Path_102" data-name="Path 102" d="M356.422,235.284H336.516c-.062,4.245,5.39,6.027,8.663,4.114a2.188,2.188,0,0,0,.987-1.7h9.653c-3.284,14.441-26.2,12.4-28.88-1.585-4.614-24.069,33.242-25.054,29.481-.828m-9.651-6.033c.025-6.556-9.422-6.056-10.254,0Z" transform="translate(756.761 942.443)" fill="#fff"/>
    <path id="Path_103" data-name="Path 103" d="M288.963,235.284H269.057c-.062,4.245,5.39,6.027,8.663,4.114a2.188,2.188,0,0,0,.987-1.7h9.653c-3.284,14.441-26.2,12.4-28.88-1.585-4.614-24.069,33.242-25.054,29.481-.828m-9.651-6.033c.025-6.556-9.423-6.056-10.254,0Z" transform="translate(684.274 942.443)" fill="#fff"/>
    <path id="Path_104" data-name="Path 104" d="M594.867,217.927c25.147-4.267,25.861,32.881.512,29.361-15.789-2.191-16.115-26.714-.512-29.361m2.415,8.443c-6.867,1.189-6.029,14.474,3.34,12.4,5.614-1.243,5.877-14-3.34-12.4" transform="translate(1032.703 942.448)" fill="#fff"/>
    <path id="Path_105" data-name="Path 105" d="M417.837,246.732h-9.651v-19c0-1.539-5.45-3.05-7.1-1.369a30.689,30.689,0,0,0-1.344,3.178v17.192H390.09V218.382h9.047c.183,0-.376,3.593.3,3.624,2.344-5.458,11.862-5.63,15.621-1.755.658.678,2.776,4.383,2.776,5.068Z" transform="translate(825.038 942.454)" fill="#fff"/>
    <path id="Path_106" data-name="Path 106" d="M542.869,246.732h-9.651v-19c0-1.539-5.45-3.05-7.1-1.369a30.716,30.716,0,0,0-1.344,3.178v17.192h-9.651V218.382h9.047c.183,0-.375,3.593.3,3.624,2.346-5.458,11.865-5.63,15.624-1.755.658.678,2.776,4.383,2.776,5.068Z" transform="translate(959.39 942.454)" fill="#fff"/>
    <path id="Path_107" data-name="Path 107" d="M457.023,217.972v18.4c0,3.3,8.445,4.01,8.445-.6v-17.8h9.651v28.351h-9.047c-.183,0,.375-3.593-.3-3.624-2.346,5.719-12.25,5.607-15.889,1.417-.78-.9-2.508-4.348-2.508-5.332V217.972Z" transform="translate(886.59 942.863)" fill="#fff"/>
    <path id="Path_108" data-name="Path 108" d="M553.854,237.691a4.934,4.934,0,0,0,1.492,2.425c3.2,2.338,8.742.313,6.89-2.367-1.39-2.01-14.557-.382-16.54-7.879-3.973-15.024,24.673-16.777,25.05-2.436-2.216-.365-6.124.568-8.047-.1-.952-.328-1.2-1.88-2.236-2.585-1.992-1.359-6.829-.79-5.991,1.763.695,2.124,12.833,1.535,15.789,7.134,8.118,15.372-24.946,19.714-24.851,4.039,1.51.33,7.73-.448,8.445,0" transform="translate(991.835 942.447)" fill="#fff"/>
    <path id="Path_109" data-name="Path 109" d="M321.836,217.972l5.73,16.9,5.732-16.9h9.651l-10.532,28.392-10.5-.122-10.337-28.27Z" transform="translate(740.678 942.864)" fill="#fff"/>
    <path id="Path_110" data-name="Path 110" d="M510.525,213.32v28.654c0,2.317,3.371,1.272,3.624,1.5.288.266-.22,6.628,0,7.848-3.56-.164-9.346.963-11.761-2.421a22.182,22.182,0,0,1-1.512-3.917V213.32Z" transform="translate(944.08 937.865)" fill="#fff"/>
    <path id="Path_111" data-name="Path 111" d="M383.783,217.734v9.651c-2.987-.693-9.049.834-9.049,4.525v14.779h-9.651V218.338h9.049c.212,0-.4,3.73.3,4.22,2.085-3.523,5.087-5.4,9.352-4.823" transform="translate(798.167 942.497)" fill="#fff"/>
    <rect id="Rectangle_72" data-name="Rectangle 72" width="9.651" height="28.351" transform="translate(1365.329 1160.836)" fill="#fff"/>
    <rect id="Rectangle_73" data-name="Rectangle 73" width="9.651" height="28.351" transform="translate(1460.637 1160.836)" fill="#fff"/>
    <path id="Path_112" data-name="Path 112" d="M472.167,213.32v7.238H463.42c-1.434,0-.786-5.95-.9-7.238Z" transform="translate(902.813 937.865)" fill="#fff"/>
    <path id="Path_113" data-name="Path 113" d="M518.109,213.32v7.238h-8.746c-1.434,0-.786-5.95-.9-7.238Z" transform="translate(952.179 937.865)" fill="#fff"/>
    <path id="Path_114" data-name="Path 114" d="M377.924,195.1H367.97c-.487,0-1.108-4.238-5.487-4.776-5.834-.718-9.881,3.61-3.859,5.661,8.989,3.064,21.667,1.4,19.154,16.161-2.359,13.875-33.917,13.034-32.429-3.776H355.6c.091,0-.023,1.207.284,1.8,4.253,8.192,17.822,1.172,10.113-2.241-6.369-2.819-18.648-1.168-19.992-11.371-2.485-18.874,31.072-19.071,31.915-1.456" transform="translate(776.908 904.358)" fill="#ffa100"/>
    <path id="Path_115" data-name="Path 115" d="M479.367,220.943H469.113c-.645-1.73-1.338-5.547-2.351-6.865-.72-.938-12.543-.139-14.758-.29-1.253.421-2.234,5.672-2.8,7.155H438.951l13.563-38.012c1.01-1.22,10.8-.533,13-.317Zm-15.684-15.08-4.525-13.277-4.525,13.277Z" transform="translate(877.541 904.453)" fill="#ffa100"/>
    <path id="Path_116" data-name="Path 116" d="M372.13,214.123v10.858h-9.651v-37.4h9.651c.12,0-.091,2.017.006,2.413a10.737,10.737,0,0,1,6.323-3.016c20.233-2.056,20.231,31.614,0,29.556-2.678-.272-4.016-1.581-6.329-2.413m4.68-18.569c-6.356,1.017-5.8,11.707-.108,12.516,9.939,1.417,9.906-14.084.108-12.516" transform="translate(795.369 909.464)" fill="#ffa100"/>
    <path id="Path_117" data-name="Path 117" d="M496.295,204.535H476.389c-.062,4.244,5.39,6.024,8.663,4.114a2.188,2.188,0,0,0,.987-1.7h9.653c-3.284,14.441-26.2,12.4-28.88-1.585-4.614-24.069,33.242-25.054,29.481-.828m-9.651-6.033c.025-6.556-9.423-6.056-10.255,0Z" transform="translate(907.061 909.402)" fill="#ffa100"/>
    <path id="Path_118" data-name="Path 118" d="M438.141,204.535H418.235c-.062,4.244,5.39,6.024,8.663,4.114a2.189,2.189,0,0,0,.988-1.7h9.653c-3.284,14.441-26.2,12.4-28.88-1.585-4.614-24.069,33.242-25.054,29.481-.828M428.49,198.5c.025-6.556-9.423-6.056-10.254,0Z" transform="translate(844.572 909.402)" fill="#ffa100"/>
    <path id="Path_119" data-name="Path 119" d="M389.886,187.178c25.147-4.267,25.859,32.884.512,29.363-15.789-2.191-16.115-26.716-.512-29.363m2.415,8.445c-6.869,1.189-6.031,14.474,3.342,12.4,5.612-1.241,5.875-14-3.342-12.4" transform="translate(812.442 909.407)" fill="#ffa100"/>
    <path id="Path_120" data-name="Path 120" d="M502.417,183.443c.205,1.214-.28,7.568,0,7.846s5.17-.272,5.433-.006.075,6.792-.266,7.28c-.811,1.162-5.166.3-5.166.564v12.667c.958.162,5.209-.226,5.431,0,.278.278-.207,6.63,0,7.844H497.289c-2.319,0-5.126-4.794-5.126-6.937V183.443Z" transform="translate(934.719 905.761)" fill="#ffa100"/>
    <path id="Path_121" data-name="Path 121" d="M468.957,182.571v28.654c0,2.317,3.371,1.272,3.624,1.5.288.266-.22,6.628,0,7.848-3.56-.164-9.346.963-11.761-2.421a22.223,22.223,0,0,1-1.512-3.915v-31.67Z" transform="translate(899.413 904.824)" fill="#ffa100"/>
    <path id="Path_122" data-name="Path 122" d="M410.8,182.571v28.654c0,2.317,3.371,1.272,3.624,1.5.288.266-.22,6.628,0,7.848-3.56-.164-9.346.963-11.76-2.421a22.222,22.222,0,0,1-1.512-3.915v-31.67Z" transform="translate(836.924 904.824)" fill="#ffa100"/>
    <path id="Path_123" data-name="Path 123" d="M442.822,186.985v9.651c-2.987-.693-9.049.834-9.049,4.525V215.94h-9.651V187.589h9.049c.212,0-.4,3.73.3,4.22,2.085-3.523,5.087-5.4,9.352-4.823" transform="translate(861.607 909.456)" fill="#ffa100"/>
    <path id="Path_124" data-name="Path 124" d="M500.976,186.957v9.651c-2.987-.693-9.049.834-9.049,4.525v14.779h-9.651V187.561h9.049c.214,0-.4,3.73.3,4.22a9.076,9.076,0,0,1,9.35-4.823" transform="translate(924.095 909.484)" fill="#ffa100"/>
    <rect id="Rectangle_74" data-name="Rectangle 74" width="9.651" height="28.351" transform="translate(1224.202 1097.045)" fill="#ffa100"/>
    <rect id="Rectangle_75" data-name="Rectangle 75" width="10.254" height="9.651" transform="translate(1446.787 1097.047)" fill="#ffa100"/>
    <rect id="Rectangle_76" data-name="Rectangle 76" width="10.254" height="9.651" transform="translate(1446.787 1115.745)" fill="#ffa100"/>
  </g>
</svg>
